<svg xmlns="http://www.w3.org/2000/svg" xmlns:xlink="http://www.w3.org/1999/xlink" viewBox="0 0 236.77 31.28"><defs><style>.cls-1{fill:none;}.cls-2{fill:#bfbfbf;}.cls-3{fill:#6dc7be;}.cls-4{fill:#008041;}.cls-5{fill:#ea2127;}.cls-6{fill:#8c8c8c;}.cls-7{fill:#f2f2f2;}.cls-8{fill:#231f20;}.cls-15,.cls-9{fill:#ec1c24;}.cls-10{fill:#929497;}.cls-11{fill:#d0d2d3;}.cls-11,.cls-15{fill-rule:evenodd;}.cls-12{fill:#ffca05;}.cls-13{fill:#00a551;}.cls-14{fill:#023f87;}.cls-16{fill:#2e368e;}.cls-17{fill:#8f298c;}.cls-18{fill:#36b24a;}.cls-19{fill:#d6dd27;}.cls-20{fill:#2aaae1;}.cls-21{fill:#c2976b;}.cls-22{fill:#ea2d7c;}.cls-23{clip-path:url(#clip-path);}</style><clipPath id="clip-path" transform="translate(0 -2.28)"><polygon class="cls-1" points="226.49 10.07 203.91 10.07 203.91 26.55 225.32 26.55 225.32 34.66 193.08 34.66 193.08 0 227.47 0 226.49 10.07"/></clipPath></defs><title>Asset 15</title><g id="Layer_2" data-name="Layer 2"><g id="Layer_1-2" data-name="Layer 1"><rect class="cls-2" x="0.32" y="2.57" width="50.44" height="24.95"/><path class="cls-2" d="M0,4.7V30H100.58V4.7ZM98.84,28.22H51.25V6.44H98.84Z" transform="translate(0 -2.28)"/><polygon class="cls-3" points="90.94 15.34 90.94 13.28 92.68 14.31 94.45 15.34 92.69 16.36 90.94 17.39 90.94 15.34"/><polygon class="cls-4" points="90.94 11.2 90.94 9.15 92.68 10.18 94.45 11.2 92.69 12.23 90.94 13.26 90.94 11.2"/><polygon class="cls-5" points="92.99 13.24 92.99 11.19 94.71 12.22 96.46 13.24 94.72 14.27 92.99 15.3 92.99 13.24"/><path class="cls-6" d="M56.14,20.74h.71c.26,0,.55.06.55.38a.34.34,0,0,1-.2.31.35.35,0,0,1,.26.36c0,.36-.26.47-.59.47h-.73Zm.4.6h.3a.15.15,0,0,0,.16-.15c0-.11-.07-.14-.16-.14h-.3Zm0,.6h.31c.13,0,.22,0,.22-.17s-.1-.18-.22-.18h-.31Z" transform="translate(0 -2.28)"/><path class="cls-6" d="M57.84,21.49A.32.32,0,0,1,58,21.2a.69.69,0,0,1,.35-.08c.26,0,.52.06.52.37V22a.68.68,0,0,0,0,.28h-.36a.38.38,0,0,1,0-.1.52.52,0,0,1-.36.13c-.21,0-.38-.1-.38-.33s.39-.33.65-.39c.06,0,.09,0,.09-.1s-.1-.11-.17-.11-.17,0-.18.13Zm.47.58c.17,0,.23-.1.22-.33a1.09,1.09,0,0,1-.23.06c-.08,0-.15.05-.15.14S58.23,22.07,58.31,22.07Z" transform="translate(0 -2.28)"/><path class="cls-6" d="M59.31,21.15h.35v.16h0a.42.42,0,0,1,.35-.19c.37,0,.4.27.4.43v.71H60v-.53c0-.16,0-.31-.18-.31s-.19.12-.19.24v.6h-.36Z" transform="translate(0 -2.28)"/><path class="cls-6" d="M61.91,22.13c0,.18,0,.52-.56.52-.25,0-.5-.06-.54-.36h.36a.13.13,0,0,0,.07.1.24.24,0,0,0,.13,0c.17,0,.19-.12.19-.25v-.11h0a.34.34,0,0,1-.29.16c-.34,0-.49-.24-.49-.55a.5.5,0,0,1,.49-.54.34.34,0,0,1,.3.17h0v-.14h.35Zm-.56-.73c-.16,0-.21.14-.21.28s.06.26.2.26.22-.12.22-.26S61.51,21.4,61.35,21.4Z" transform="translate(0 -2.28)"/><path class="cls-6" d="M62.34,20.74h.36v1.52h-.36Z" transform="translate(0 -2.28)"/><path class="cls-6" d="M63.13,21.49a.35.35,0,0,1,.18-.29.65.65,0,0,1,.35-.08c.26,0,.51.06.51.37V22a.56.56,0,0,0,0,.28h-.37s0-.07,0-.1a.52.52,0,0,1-.36.13c-.21,0-.38-.1-.38-.33s.39-.33.64-.39c.06,0,.1,0,.1-.1s-.1-.11-.18-.11a.16.16,0,0,0-.18.13Zm.47.58c.18,0,.23-.1.22-.33a1,1,0,0,1-.22.06c-.08,0-.15.05-.15.14S63.52,22.07,63.6,22.07Z" transform="translate(0 -2.28)"/><path class="cls-6" d="M65.7,22.26h-.35v-.13h0a.35.35,0,0,1-.31.16c-.34,0-.49-.3-.49-.61s.15-.56.47-.56a.36.36,0,0,1,.31.15h0v-.53h.36Zm-.79-.57c0,.16.06.32.22.32s.22-.16.22-.3-.06-.31-.22-.31S64.91,21.55,64.91,21.69Z" transform="translate(0 -2.28)"/><path class="cls-6" d="M66.44,21.8a.24.24,0,0,0,.25.25.22.22,0,0,0,.21-.12h.33a.51.51,0,0,1-.54.36.56.56,0,0,1-.61-.59.58.58,0,0,1,.6-.58.57.57,0,0,1,.57.68Zm.45-.21a.21.21,0,0,0-.21-.22.24.24,0,0,0-.24.22Z" transform="translate(0 -2.28)"/><path class="cls-6" d="M67.91,21.9A.14.14,0,0,0,68,22a.18.18,0,0,0,.13,0c.07,0,.17,0,.17-.12s-.11-.1-.18-.12c-.22-.05-.51-.06-.51-.36s.29-.34.51-.34.49.07.5.36h-.33a.11.11,0,0,0-.05-.1l-.11,0c-.06,0-.16,0-.16.08s.25.12.41.16a.31.31,0,0,1,.28.3c0,.29-.28.39-.53.39s-.53-.08-.54-.39Z" transform="translate(0 -2.28)"/><path class="cls-6" d="M69,20.74h.36v.57h0a.36.36,0,0,1,.33-.19c.37,0,.4.27.4.43v.71h-.36v-.53c0-.16,0-.31-.18-.31s-.2.12-.2.24v.6H69Z" transform="translate(0 -2.28)"/><path class="cls-6" d="M71.82,20.74h.4l.57,1.52h-.41l-.1-.27h-.53l-.09.27h-.41Zm0,1h.34L72,21.16h0Z" transform="translate(0 -2.28)"/><path class="cls-6" d="M73.36,21.9a.17.17,0,0,0,.06.12.23.23,0,0,0,.14,0c.07,0,.17,0,.17-.12s-.12-.1-.18-.12c-.23-.05-.51-.06-.51-.36s.28-.34.5-.34.5.07.51.36h-.33a.11.11,0,0,0,0-.1l-.12,0c-.06,0-.15,0-.15.08s.24.12.41.16a.31.31,0,0,1,.28.3c0,.29-.28.39-.53.39S73,22.21,73,21.9Z" transform="translate(0 -2.28)"/><path class="cls-6" d="M74.74,21.9a.14.14,0,0,0,.06.12.18.18,0,0,0,.13,0c.07,0,.17,0,.17-.12s-.11-.1-.18-.12c-.22-.05-.51-.06-.51-.36s.29-.34.51-.34.49.07.5.36h-.33a.11.11,0,0,0,0-.1l-.11,0c-.06,0-.16,0-.16.08s.25.12.41.16a.31.31,0,0,1,.28.3c0,.29-.28.39-.53.39s-.53-.08-.54-.39Z" transform="translate(0 -2.28)"/><path class="cls-6" d="M76.36,21.12a.57.57,0,0,1,.58.59.56.56,0,0,1-.58.58.56.56,0,0,1-.58-.58A.56.56,0,0,1,76.36,21.12Zm0,.89c.17,0,.22-.16.22-.3s0-.31-.22-.31-.22.17-.22.31S76.19,22,76.36,22Z" transform="translate(0 -2.28)"/><path class="cls-6" d="M78,21.56a.17.17,0,0,0-.18-.16c-.2,0-.23.17-.23.33s.06.28.22.28a.19.19,0,0,0,.2-.18h.35a.51.51,0,0,1-.55.46.55.55,0,0,1-.58-.56.56.56,0,0,1,.58-.61.49.49,0,0,1,.54.44Z" transform="translate(0 -2.28)"/><path class="cls-6" d="M79.15,21h-.36v-.28h.36Zm-.36.13h.36v1.11h-.36Z" transform="translate(0 -2.28)"/><path class="cls-6" d="M79.58,21.49a.34.34,0,0,1,.17-.29.69.69,0,0,1,.35-.08c.27,0,.52.06.52.37V22a.68.68,0,0,0,0,.28H80.3a.18.18,0,0,1,0-.1.56.56,0,0,1-.37.13c-.21,0-.38-.1-.38-.33s.4-.33.65-.39c.06,0,.09,0,.09-.1s-.1-.11-.17-.11a.16.16,0,0,0-.18.13Zm.47.58c.17,0,.23-.1.22-.33a1.16,1.16,0,0,1-.22.06c-.09,0-.15.05-.15.14S80,22.07,80.05,22.07Z" transform="translate(0 -2.28)"/><path class="cls-6" d="M81.71,21.39h-.22v.5c0,.09.05.11.13.11h.09v.27h-.19c-.31,0-.39-.09-.39-.39v-.49h-.19v-.24h.19v-.33h.36v.33h.22Z" transform="translate(0 -2.28)"/><path class="cls-6" d="M82.44,21h-.36v-.28h.36Zm-.36.13h.36v1.11h-.36Z" transform="translate(0 -2.28)"/><path class="cls-6" d="M83.41,21.12a.57.57,0,0,1,.59.59.59.59,0,0,1-1.17,0A.57.57,0,0,1,83.41,21.12Zm0,.89c.17,0,.23-.16.23-.3s-.06-.31-.23-.31-.22.17-.22.31S83.25,22,83.41,22Z" transform="translate(0 -2.28)"/><path class="cls-6" d="M84.38,21.15h.35v.16h0a.42.42,0,0,1,.35-.19c.37,0,.4.27.4.43v.71h-.36v-.53c0-.16,0-.31-.18-.31s-.2.12-.2.24v.6h-.36Z" transform="translate(0 -2.28)"/><path class="cls-6" d="M87.3,21.12a.57.57,0,0,1,.58.59.58.58,0,0,1-1.16,0A.57.57,0,0,1,87.3,21.12Zm0,.89c.17,0,.22-.16.22-.3s0-.31-.22-.31-.22.17-.22.31S87.13,22,87.3,22Z" transform="translate(0 -2.28)"/><path class="cls-6" d="M88.34,21.39h-.18v-.24h.18c0-.31.11-.41.42-.41h.17V21h-.09c-.09,0-.14,0-.14.12v0h.22v.24H88.7v.87h-.36Z" transform="translate(0 -2.28)"/><path class="cls-6" d="M56.45,23.88c0,.18.12.24.29.24s.24,0,.24-.15-.22-.16-.44-.23-.44-.16-.44-.44.33-.46.62-.46.6.15.61.49h-.4c0-.14-.12-.18-.24-.18s-.2,0-.2.13.22.14.44.2.45.16.45.44-.33.51-.67.51-.66-.16-.66-.55Z" transform="translate(0 -2.28)"/><path class="cls-6" d="M58,23.26a.59.59,0,1,1-.58.58A.56.56,0,0,1,58,23.26Zm0,.89c.17,0,.22-.17.22-.31s-.05-.3-.22-.3-.22.16-.22.3S57.85,24.15,58,24.15Z" transform="translate(0 -2.28)"/><path class="cls-6" d="M58.82,23.52h-.18v-.23h.18c0-.32.11-.42.42-.42h.17v.26h-.1c-.08,0-.13,0-.13.11v.05h.22v.23h-.22v.88h-.36Z" transform="translate(0 -2.28)"/><path class="cls-6" d="M60.14,23.52h-.23V24c0,.08.05.1.13.1h.1v.27h-.2c-.31,0-.39-.09-.39-.39v-.5h-.18v-.23h.18V23h.36v.33h.23Z" transform="translate(0 -2.28)"/><path class="cls-6" d="M61.55,24.4h-.37L61,23.66h0l-.18.74h-.36l-.35-1.11h.37l.18.72h0l.15-.72h.35l.16.71h0l.18-.71h.37Z" transform="translate(0 -2.28)"/><path class="cls-6" d="M62,23.63a.34.34,0,0,1,.17-.3.81.81,0,0,1,.35-.07c.26,0,.52.06.52.37v.48a.7.7,0,0,0,0,.29h-.36a.45.45,0,0,1,0-.11.48.48,0,0,1-.36.14.34.34,0,0,1-.38-.34c0-.36.39-.33.65-.38.06,0,.09,0,.09-.1s-.1-.12-.17-.12a.16.16,0,0,0-.18.14Zm.47.57c.17,0,.23-.09.22-.32a1.09,1.09,0,0,1-.23.06c-.08,0-.15,0-.15.14S62.34,24.2,62.42,24.2Z" transform="translate(0 -2.28)"/><path class="cls-6" d="M63.18,23.29h.35v.19h0a.33.33,0,0,1,.33-.21H64v.33a.34.34,0,0,0-.14,0,.25.25,0,0,0-.27.26v.55h-.37Z" transform="translate(0 -2.28)"/><path class="cls-6" d="M64.29,23.93a.24.24,0,0,0,.25.25.22.22,0,0,0,.21-.12h.34a.53.53,0,0,1-.55.37.56.56,0,0,1-.61-.59.58.58,0,0,1,.6-.58.57.57,0,0,1,.57.67Zm.45-.2a.22.22,0,0,0-.21-.23.24.24,0,0,0-.24.23Z" transform="translate(0 -2.28)"/><path class="cls-6" d="M66.74,24.27a.65.65,0,0,1-.44.16.47.47,0,0,1-.5-.47.52.52,0,0,1,.34-.44.46.46,0,0,1-.13-.29.43.43,0,0,1,.86,0,.41.41,0,0,1-.26.37l.16.19a.34.34,0,0,0,.06-.15h.31A.77.77,0,0,1,67,24l.32.37h-.44Zm-.42-.51c-.07,0-.17.11-.17.2a.18.18,0,0,0,.2.17.38.38,0,0,0,.2-.1Zm.26-.54a.12.12,0,0,0-.13-.12.11.11,0,0,0-.12.11c0,.08.06.13.11.19S66.58,23.31,66.58,23.22Z" transform="translate(0 -2.28)"/><path class="cls-6" d="M68,22.87h.4V24.4H68Z" transform="translate(0 -2.28)"/><path class="cls-6" d="M68.56,23.29h.35v.15h0a.4.4,0,0,1,.34-.18c.37,0,.4.27.4.43v.71H69.3v-.54c0-.15,0-.3-.18-.3s-.2.11-.2.23v.61h-.36Z" transform="translate(0 -2.28)"/><path class="cls-6" d="M69.93,23.52h-.18v-.23h.18c0-.32.11-.42.42-.42h.17v.26h-.1c-.08,0-.13,0-.13.11v.05h.22v.23h-.22v.88h-.36Z" transform="translate(0 -2.28)"/><path class="cls-6" d="M71.11,23.26a.59.59,0,1,1-.58.58A.56.56,0,0,1,71.11,23.26Zm0,.89c.17,0,.22-.17.22-.31s0-.3-.22-.3-.22.16-.22.3S70.94,24.15,71.11,24.15Z" transform="translate(0 -2.28)"/><path class="cls-6" d="M71.84,23.29h.35v.19h0a.34.34,0,0,1,.34-.21h.08v.33a.32.32,0,0,0-.14,0,.25.25,0,0,0-.27.26v.55h-.36Z" transform="translate(0 -2.28)"/><path class="cls-6" d="M72.68,23.29H73v.15h0a.38.38,0,0,1,.32-.18.31.31,0,0,1,.32.18.41.41,0,0,1,.35-.18c.35,0,.39.26.39.48v.66h-.36v-.65c0-.12-.06-.19-.16-.19s-.17.12-.17.29v.55h-.36v-.63c0-.13,0-.21-.13-.21s-.19.07-.19.3v.54h-.36Z" transform="translate(0 -2.28)"/><path class="cls-6" d="M74.58,23.63a.38.38,0,0,1,.17-.3.83.83,0,0,1,.36-.07c.26,0,.51.06.51.37v.48a.7.7,0,0,0,0,.29H75.3a.43.43,0,0,1,0-.11.5.5,0,0,1-.37.14.33.33,0,0,1-.37-.34c0-.36.39-.33.64-.38.06,0,.1,0,.1-.1s-.1-.12-.18-.12a.17.17,0,0,0-.18.14Zm.47.57c.17,0,.23-.09.22-.32a1,1,0,0,1-.22.06c-.08,0-.15,0-.15.14S75,24.2,75.05,24.2Z" transform="translate(0 -2.28)"/><path class="cls-6" d="M76.47,23.52h-.22V24c0,.08,0,.1.13.1h.09v.27h-.2c-.31,0-.39-.09-.39-.39v-.5H75.7v-.23h.18V23h.37v.33h.22Z" transform="translate(0 -2.28)"/><path class="cls-6" d="M77,23.15h-.36v-.28H77Zm-.36.14H77V24.4h-.36Z" transform="translate(0 -2.28)"/><path class="cls-6" d="M77.68,23.26a.59.59,0,1,1-.58.58A.56.56,0,0,1,77.68,23.26Zm0,.89c.17,0,.22-.17.22-.31s-.05-.3-.22-.3-.22.16-.22.3S77.51,24.15,77.68,24.15Z" transform="translate(0 -2.28)"/><path class="cls-6" d="M78.4,23.29h.35v.15h0a.44.44,0,0,1,.35-.18c.37,0,.4.27.4.43v.71h-.36v-.54c0-.15,0-.3-.18-.3s-.2.11-.2.23v.61H78.4Z" transform="translate(0 -2.28)"/><path class="cls-6" d="M80.62,23.88c0,.18.12.24.29.24s.25,0,.25-.15-.22-.16-.44-.23-.45-.16-.45-.44.34-.46.62-.46.61.15.61.49h-.39c0-.14-.13-.18-.25-.18s-.19,0-.19.13.22.14.44.2.44.16.44.44-.33.51-.66.51-.66-.16-.66-.55Z" transform="translate(0 -2.28)"/><path class="cls-6" d="M82,23.93a.23.23,0,0,0,.24.25.21.21,0,0,0,.21-.12h.34a.52.52,0,0,1-.55.37.56.56,0,0,1-.61-.59.59.59,0,1,1,1.18.09Zm.45-.2a.24.24,0,0,0-.22-.23c-.13,0-.21.09-.23.23Z" transform="translate(0 -2.28)"/><path class="cls-6" d="M82.93,23.29h.35v.19h0a.34.34,0,0,1,.33-.21h.09v.33a.34.34,0,0,0-.14,0,.25.25,0,0,0-.27.26v.55h-.36Z" transform="translate(0 -2.28)"/><path class="cls-6" d="M84.42,24.4H84l-.37-1.11H84l.21.73h0l.21-.73h.36Z" transform="translate(0 -2.28)"/><path class="cls-6" d="M85.23,23.15h-.36v-.28h.36Zm-.36.14h.36V24.4h-.36Z" transform="translate(0 -2.28)"/><path class="cls-6" d="M86.15,23.69a.17.17,0,0,0-.18-.15c-.2,0-.23.17-.23.32s.06.29.21.29a.19.19,0,0,0,.21-.19h.35a.51.51,0,0,1-.55.47.55.55,0,0,1-.58-.57.56.56,0,0,1,.58-.6.49.49,0,0,1,.54.43Z" transform="translate(0 -2.28)"/><path class="cls-6" d="M87,23.93a.23.23,0,0,0,.24.25.21.21,0,0,0,.21-.12h.34a.52.52,0,0,1-.55.37.56.56,0,0,1-.61-.59.59.59,0,1,1,1.18.09Zm.45-.2a.24.24,0,0,0-.22-.23c-.13,0-.21.09-.23.23Z" transform="translate(0 -2.28)"/><path class="cls-6" d="M88.16,24a.18.18,0,0,0,.06.13.32.32,0,0,0,.14,0c.07,0,.17,0,.17-.11s-.11-.11-.18-.12c-.23-.06-.51-.06-.51-.36s.29-.34.5-.34.5.07.51.36h-.33a.11.11,0,0,0,0-.1.2.2,0,0,0-.11,0c-.06,0-.16,0-.16.09s.24.12.41.16a.31.31,0,0,1,.28.29c0,.3-.28.4-.53.4s-.53-.09-.54-.4Z" transform="translate(0 -2.28)"/><path class="cls-6" d="M56.11,11.68h3.31c1.52,0,3.07.36,3.07,2.15a1.59,1.59,0,0,1-1,1.57v.06a1.88,1.88,0,0,1,1.39,1.84c0,1.6-1.49,2.15-2.87,2.15H56.11Zm2.9,3c.41,0,.88-.05.88-.58s-.53-.54-1-.54h-.19v1.12Zm-.26,2.92h.32c.47,0,1.14,0,1.14-.65s-.72-.64-1.18-.64h-.28Z" transform="translate(0 -2.28)"/><path class="cls-6" d="M66.08,19.45h-3l2.72-7.77h3.15l2.79,7.77h-3l-.26-1H66.31ZM68,16.63l-.33-1.37c-.08-.33-.13-.67-.19-1h-.1l-.52,2.37Z" transform="translate(0 -2.28)"/><path class="cls-6" d="M72.79,16.66l.15.12a3,3,0,0,0,1.78.71c.28,0,.72-.12.72-.46s-.37-.39-.63-.44l-.57-.1c-1.11-.2-2-.85-2-2.06,0-1.85,1.69-2.88,3.4-2.88a4.73,4.73,0,0,1,2.48.68l-.77,2a3,3,0,0,0-1.65-.59c-.25,0-.61.1-.61.42s.35.33.57.38l.64.14c1.21.27,2.08.91,2.08,2.23,0,1.85-1.7,2.77-3.4,2.77a7.15,7.15,0,0,1-3-.71Z" transform="translate(0 -2.28)"/><rect class="cls-6" x="79.23" y="9.39" width="2.85" height="7.77"/><path class="cls-6" d="M83.87,16.66l.14.12a3,3,0,0,0,1.78.71c.28,0,.73-.12.73-.46s-.38-.39-.64-.44l-.57-.1c-1.11-.2-2-.85-2-2.06,0-1.85,1.7-2.88,3.4-2.88a4.7,4.7,0,0,1,2.48.68l-.76,2a3,3,0,0,0-1.66-.59c-.25,0-.61.1-.61.42s.35.33.57.38l.65.14c1.2.27,2.07.91,2.07,2.23,0,1.85-1.7,2.77-3.39,2.77a7.19,7.19,0,0,1-3-.71Z" transform="translate(0 -2.28)"/><path class="cls-7" d="M11.46,25.77V21.69h0l-1.11,4.08H8.09L7,21.69h0v4.08H5.17V19.42H8.35l.92,3.38h0l.9-3.38h3.2v6.35Z" transform="translate(0 -2.28)"/><path class="cls-7" d="M16.37,20.88v.92h2.57v1.42H16.37v1H19l.19,1.52H14.46V19.42h4.77L19,20.88Z" transform="translate(0 -2.28)"/><path class="cls-7" d="M26.31,25.77V21.69h0l-1.11,4.08H22.93l-1.11-4.08h0v4.08H20V19.42H23.2l.91,3.38h0l.9-3.38h3.2v6.35Z" transform="translate(0 -2.28)"/><path class="cls-7" d="M34.45,21a1.38,1.38,0,0,1-1.07,1.48v0a1.45,1.45,0,0,1,1.22,1.58,1.73,1.73,0,0,1-1.76,1.7H29.3V19.42h3.48A1.61,1.61,0,0,1,34.45,21Zm-3.36.88h1.06a.45.45,0,0,0,.46-.46v-.16a.45.45,0,0,0-.46-.46H31.09Zm0,2.44h1.17a.46.46,0,0,0,.47-.46v-.16a.47.47,0,0,0-.47-.47H31.09Z" transform="translate(0 -2.28)"/><path class="cls-7" d="M37.28,20.88v.92h2.57v1.42H37.28v1H40l.19,1.52H35.37V19.42h4.77L40,20.88Z" transform="translate(0 -2.28)"/><path class="cls-7" d="M46.25,21a1.55,1.55,0,0,1-1.14,1.5v.05a1.53,1.53,0,0,1,1,1.63c0,.37,0,1,.48,1.13v.38a3,3,0,0,1-1.11.18c-.85,0-1.31-.31-1.31-1.19,0-.6,0-1.37-.82-1.37h-.54v2.47h-1.9V19.42h3.57A1.67,1.67,0,0,1,46.25,21Zm-3.43.9h1a.46.46,0,0,0,.46-.46v-.1a.45.45,0,0,0-.46-.46h-1Z" transform="translate(0 -2.28)"/><polygon class="cls-6" points="32.44 11.2 30.35 7.63 29.44 9.18 28.19 7.06 26.1 3.52 24 7.09 22.8 9.1 21.94 7.63 19.84 11.21 17.75 14.77 21.94 14.77 26.12 14.77 24.03 11.2 23.68 10.59 26.1 10.59 28.62 10.59 28.26 11.21 26.16 14.77 30.35 14.77 34.54 14.77 32.44 11.2"/><path class="cls-8" d="M125.79,17.93l.53,0a1.14,1.14,0,0,0,.17.48,1.1,1.1,0,0,0,.43.3,1.83,1.83,0,0,0,.64.11,1.6,1.6,0,0,0,.56-.09.81.81,0,0,0,.37-.23.6.6,0,0,0,.11-.34.49.49,0,0,0-.11-.31,1,1,0,0,0-.39-.23c-.11,0-.36-.1-.74-.19a3.51,3.51,0,0,1-.81-.24,1,1,0,0,1-.45-.36.8.8,0,0,1-.15-.47.93.93,0,0,1,.18-.55,1.07,1.07,0,0,1,.53-.39,2.11,2.11,0,0,1,.77-.13,2.16,2.16,0,0,1,.83.14,1.15,1.15,0,0,1,.55.4,1.08,1.08,0,0,1,.2.61l-.54,0a.73.73,0,0,0-.29-.54,1.16,1.16,0,0,0-.73-.19,1.21,1.21,0,0,0-.72.17.49.49,0,0,0-.24.41.44.44,0,0,0,.16.34,2.48,2.48,0,0,0,.84.28,5.8,5.8,0,0,1,.93.24,1.32,1.32,0,0,1,.55.39.91.91,0,0,1,.18.55,1,1,0,0,1-.19.58,1.21,1.21,0,0,1-.56.42,1.94,1.94,0,0,1-.82.16,2.66,2.66,0,0,1-1-.16,1.34,1.34,0,0,1-.61-.45A1.25,1.25,0,0,1,125.79,17.93Z" transform="translate(0 -2.28)"/><path class="cls-8" d="M129.77,17.29a2,2,0,0,1,.56-1.5,2.05,2.05,0,0,1,1.47-.54,2.21,2.21,0,0,1,1.06.25,1.78,1.78,0,0,1,.72.72,2.15,2.15,0,0,1,.24,1,2,2,0,0,1-.26,1.05,1.7,1.7,0,0,1-.73.7,2.3,2.3,0,0,1-1,.24,2.1,2.1,0,0,1-1.07-.27,1.7,1.7,0,0,1-.71-.72A2,2,0,0,1,129.77,17.29Zm.58,0a1.48,1.48,0,0,0,.41,1.1,1.4,1.4,0,0,0,1,.4,1.42,1.42,0,0,0,1-.41,1.51,1.51,0,0,0,.41-1.15,1.94,1.94,0,0,0-.17-.82,1.29,1.29,0,0,0-.52-.54,1.45,1.45,0,0,0-.75-.2,1.52,1.52,0,0,0-1,.37A1.59,1.59,0,0,0,130.35,17.3Z" transform="translate(0 -2.28)"/><path class="cls-8" d="M134.57,19.17V15.32h2.87v.45h-2.3V17h2v.45h-2v1.75Z" transform="translate(0 -2.28)"/><path class="cls-8" d="M139.27,19.17v-3.4h-1.39v-.45h3.35v.45h-1.39v3.4Z" transform="translate(0 -2.28)"/><path class="cls-9" d="M142.55,15.32h3.79v.83H144v.61h2.2v.78H144v.76h2.44v.87h-3.86Z" transform="translate(0 -2.28)"/><path class="cls-9" d="M146.9,15.32h1.56l.82,1.19.79-1.19h1.54l-1.42,1.87,1.55,2h-1.59l-.9-1.24-.9,1.24h-1.59l1.58-2Z" transform="translate(0 -2.28)"/><path class="cls-9" d="M152.23,15.32h2.35a1.81,1.81,0,0,1,1.16.31,1.08,1.08,0,0,1,.38.87,1.11,1.11,0,0,1-.42.92,2,2,0,0,1-1.27.33h-.78v1.42h-1.42ZM153.65,17H154a1,1,0,0,0,.57-.13.36.36,0,0,0,.17-.3.4.4,0,0,0-.15-.31.84.84,0,0,0-.54-.13h-.4Z" transform="translate(0 -2.28)"/><path class="cls-9" d="M156.73,17.25a1.83,1.83,0,0,1,.62-1.47,2.64,2.64,0,0,1,1.74-.53,2.74,2.74,0,0,1,1.77.52,1.78,1.78,0,0,1,.61,1.45,2,2,0,0,1-.27,1.1,1.79,1.79,0,0,1-.78.68,3,3,0,0,1-1.27.24,3.36,3.36,0,0,1-1.28-.21,1.8,1.8,0,0,1-1.14-1.78Zm1.41,0a1.16,1.16,0,0,0,.26.84.94.94,0,0,0,.7.25,1,1,0,0,0,.71-.24,1.26,1.26,0,0,0,.25-.9,1.06,1.06,0,0,0-.26-.79,1,1,0,0,0-.71-.26.94.94,0,0,0-.69.26A1.16,1.16,0,0,0,158.14,17.25Z" transform="translate(0 -2.28)"/><path class="cls-10" d="M125.86,10.69h1.91c.38,0,.66,0,.85,0a1.53,1.53,0,0,1,.5.13.86.86,0,0,1,.36.25.44.44,0,0,1,.15.34.49.49,0,0,1-.18.39,1.1,1.1,0,0,1-.49.27,1.47,1.47,0,0,1,.68.27.59.59,0,0,1,.23.45.62.62,0,0,1-.15.4,1,1,0,0,1-.41.31,1.78,1.78,0,0,1-.65.14c-.17,0-.55,0-1.17,0h-1.63Zm1,.5v.69h1.34a.78.78,0,0,0,.39-.12.25.25,0,0,0,.15-.23.25.25,0,0,0-.13-.22.77.77,0,0,0-.36-.11h-1.39Zm0,1.2v.8h.9a4.77,4.77,0,0,0,.66,0,.8.8,0,0,0,.35-.11.31.31,0,0,0,.14-.26.3.3,0,0,0-.11-.23.7.7,0,0,0-.3-.14,5.18,5.18,0,0,0-.86,0Z" transform="translate(0 -2.28)"/><path class="cls-10" d="M135,13.7h-1l-.42-.69h-1.93l-.41.69h-1l1.86-3h1Zm-1.78-1.2-.67-1.11-.65,1.11Z" transform="translate(0 -2.28)"/><path class="cls-10" d="M135.28,12.73l.94-.05a.65.65,0,0,0,.34.42,1.55,1.55,0,0,0,.7.14,1.78,1.78,0,0,0,.71-.12c.16-.09.24-.18.24-.29a.24.24,0,0,0-.1-.18,1,1,0,0,0-.34-.13l-.78-.13a3.42,3.42,0,0,1-1.09-.3.73.73,0,0,1-.44-.61.61.61,0,0,1,.21-.44,1.41,1.41,0,0,1,.6-.3,3.23,3.23,0,0,1,.94-.11,2.94,2.94,0,0,1,1.35.25.79.79,0,0,1,.48.67l-1,0a.5.5,0,0,0-.27-.33,1.37,1.37,0,0,0-.61-.1,1.51,1.51,0,0,0-.66.11q-.15.06-.15.18c0,.07,0,.13.14.19a3.83,3.83,0,0,0,.89.2,6.41,6.41,0,0,1,1,.22,1.3,1.3,0,0,1,.52.3.66.66,0,0,1,.19.48.65.65,0,0,1-.23.49,1.34,1.34,0,0,1-.64.33,3.9,3.9,0,0,1-1,.11,2.93,2.93,0,0,1-1.4-.26A1,1,0,0,1,135.28,12.73Z" transform="translate(0 -2.28)"/><path class="cls-10" d="M140,13.7v-3h1v3Z" transform="translate(0 -2.28)"/><path class="cls-10" d="M141.6,12.73l.94-.05a.7.7,0,0,0,.35.42,1.5,1.5,0,0,0,.7.14,1.78,1.78,0,0,0,.71-.12c.16-.09.24-.18.24-.29a.24.24,0,0,0-.1-.18,1,1,0,0,0-.35-.13l-.77-.13a3.42,3.42,0,0,1-1.09-.3.73.73,0,0,1-.44-.61A.64.64,0,0,1,142,11a1.41,1.41,0,0,1,.6-.3,3.31,3.31,0,0,1,.95-.11,3,3,0,0,1,1.35.25.83.83,0,0,1,.48.67l-1,0a.51.51,0,0,0-.26-.33,1.4,1.4,0,0,0-.61-.1,1.46,1.46,0,0,0-.66.11c-.11,0-.16.1-.16.18s0,.13.15.19a3.69,3.69,0,0,0,.88.2,6,6,0,0,1,1,.22,1.27,1.27,0,0,1,.53.3.66.66,0,0,1,.19.48.68.68,0,0,1-.23.49,1.38,1.38,0,0,1-.65.33,3.85,3.85,0,0,1-1,.11,3,3,0,0,1-1.4-.26A1.07,1.07,0,0,1,141.6,12.73Z" transform="translate(0 -2.28)"/><path class="cls-11" d="M174.24,19.3C173.33,12.66,158.66,8,155.76,7.18c.21.2,2.31,1.47,4,2.68-8.89-1-11.34-.4-12.29-.35C154.59,10,166.33,10.91,174.24,19.3Zm.18-.61a4.36,4.36,0,0,1-.14,2.23c0-.78-1.19-2.17-2.42-3.18.82,1.23,2.51,3.21.41,7.37s-13.38,7.66-20.18,4.23c1.26,2.69,5.81,3,7.07,3C170.88,32.44,177.43,24.85,174.42,18.69Z" transform="translate(0 -2.28)"/><path class="cls-12" d="M148.25,30.7c-2.87,0-2.85-1.3-2.85-1.48a.77.77,0,0,1,.82-.73,15,15,0,0,0,8.92-1.44c-4.66,1.24-5.91.73-6.15-.29-.41-2.28,1.85-5.37,2.58-6.54a34.88,34.88,0,0,0-5.92,4.42c-4.46,4.55-2.44,6.59-1.26,6.93,5.31,1.53,14.39-4.23,16.88-5.81C160.61,26.13,153.11,30.56,148.25,30.7Z" transform="translate(0 -2.28)"/><path class="cls-13" d="M166,22.28a34.91,34.91,0,0,1-3.31,2.44c-.3.19-.44-.54.45-1a22.35,22.35,0,0,0,4.74-4.16A24.93,24.93,0,0,0,171.3,15,10.76,10.76,0,0,0,173,10.08c.13-3.31-3.5-4-3.95-4,4.15-.2,6,2.49,6,2.77a3.65,3.65,0,0,0,.78-2c.74,6.73-8.24,14.2-9.82,15.47" transform="translate(0 -2.28)"/><path class="cls-14" d="M147,10.36c2.16-1.47,9.56-5.34,10-5.6-.85,0-3.29,0-3.73,0a48.78,48.78,0,0,1,14.53-2.46c2.88,0,9.07.91,7.41,5.07-.41-.42-2-2.92-7.8-2.24C164.56,5.24,160.23,4.71,147,10.36Z" transform="translate(0 -2.28)"/><path class="cls-15" d="M167.43,21.09a37.94,37.94,0,0,1-10.2,6.65c-.42.2-6.7,3.31-10,2.77-1-.16-1.61-.59-1.61-1.2,0-.35.19-.69.61-.62,4.29.71,8.57-1.29,9.29-1.59a38.55,38.55,0,0,0,9.77-6.16A44.83,44.83,0,0,0,170,16.39c-.8,1.19-2.45,3.46-7.9,7.89.54-.3,1.84-1.07,2.28-1.38-.33.33-1.06,1-1.13,1.07A32,32,0,0,0,167.43,21.09Z" transform="translate(0 -2.28)"/><path class="cls-16" d="M213.17,18.54c0-.07-.08-.09-.15-.09h-1.73c-.08,0-.15.08-.18.19l-1.28,4.45c0,.08-.05.13-.11.13s0,0,0-.13l-.24-2c0-.33-.19-.43-.51-.43h-1.05a.67.67,0,0,0-.68.43l-.93,2c0,.08-.07.13-.11.13s0,0,0-.08v-.05l.28-4.45v0c0-.1,0-.17-.12-.17h-1.66c-.08,0-.19,0-.19.13l-.26,6.47v.07c0,.65.49.79.92.79h.58a1.13,1.13,0,0,0,1.15-.77L208,22.61c0-.08.06-.09.11-.09s0,0,.06.09l.3,2.53c.07.57.35.77.78.77H210a1.06,1.06,0,0,0,1.14-.86l2-6.47s0,0,0,0" transform="translate(0 -2.28)"/><path class="cls-16" d="M229.44,24.25h-1.63c-.29,0-.41-.08-.41-.31a1.37,1.37,0,0,1,0-.19l.89-5.1v0a.15.15,0,0,0-.16-.16h-1.63a.27.27,0,0,0-.25.2l-.9,5.1a3.37,3.37,0,0,0-.05.52c0,1.36,1.12,1.73,2.25,1.73a10.42,10.42,0,0,0,1.59-.12.24.24,0,0,0,.23-.2l.22-1.23v0a.16.16,0,0,0-.17-.17" transform="translate(0 -2.28)"/><path class="cls-16" d="M223.92,22.92a2.66,2.66,0,0,0,1.65-2.62c0-1.38-1.21-1.95-2.8-1.95a16.08,16.08,0,0,0-2.11.13c-.44.07-.61.18-.69.67l-1.16,6.56v0a.16.16,0,0,0,.17.17h1.63a.26.26,0,0,0,.24-.2l.43-2.47c.22,0,.44,0,.65,0l.85,2.45c0,.1.05.2.16.2h1.77a.19.19,0,0,0,.2-.2.15.15,0,0,0,0-.06Zm-1.63-1.23h-.74l.28-1.6.79,0c.63,0,.89.17.89.54,0,.79-.43,1.09-1.22,1.09" transform="translate(0 -2.28)"/><path class="cls-16" d="M234,18.35a14.78,14.78,0,0,0-2.33.17.41.41,0,0,0-.39.39l-1.16,6.53a.53.53,0,0,0,0,.12c0,.17.09.24.26.27a13.83,13.83,0,0,0,2.27.17,3.47,3.47,0,0,0,3.85-3.27l.19-1.11a4.13,4.13,0,0,0,.07-.76c0-1.64-1.07-2.51-2.75-2.51m.62,3.27-.19,1.11c-.21,1.21-.67,1.53-1.48,1.53h-.57l.73-4.15h.58c.64,0,1,.18,1,.9a3.89,3.89,0,0,1-.06.62" transform="translate(0 -2.28)"/><path class="cls-17" d="M215.67,26.72a4.16,4.16,0,1,1,4.16-4.15,4.17,4.17,0,0,1-4.16,4.15m0-8.14a4,4,0,1,0,4,4,4,4,0,0,0-4-4" transform="translate(0 -2.28)"/><path class="cls-18" d="M215.74,26.13a4,4,0,1,1-.17-8.06,4.22,4.22,0,0,1,.79.07,4.13,4.13,0,0,1,3.48,4.7,4.08,4.08,0,0,1-4.1,3.29m-.17-7.89a3.91,3.91,0,0,0-3.93,3.15A4,4,0,0,0,215,25.9a4.76,4.76,0,0,0,.75.07,3.92,3.92,0,0,0,3.94-3.16,4,4,0,0,0-3.35-4.51,4.87,4.87,0,0,0-.76-.06" transform="translate(0 -2.28)"/><path class="cls-19" d="M216.05,25.87h-.33a4.15,4.15,0,0,1-3.95-4.32A4.14,4.14,0,0,1,216,17.82h.32a4.14,4.14,0,0,1,3.95,4.32,4.13,4.13,0,0,1-4.2,3.72M216,18a4,4,0,0,0-4,3.57,4.09,4.09,0,0,0,8.15.58,4,4,0,0,0-3.8-4.14H216" transform="translate(0 -2.28)"/><path class="cls-20" d="M215.79,26.13A4.16,4.16,0,1,1,219.94,22a4.17,4.17,0,0,1-4.15,4.16m0-8.15a4,4,0,1,0,4,4,4,4,0,0,0-4-4" transform="translate(0 -2.28)"/><path class="cls-21" d="M215.69,26a3.9,3.9,0,1,1,3.9-3.9,3.91,3.91,0,0,1-3.9,3.9m0-7.63a3.74,3.74,0,1,0,3.74,3.73,3.73,3.73,0,0,0-3.74-3.73" transform="translate(0 -2.28)"/><path class="cls-22" d="M216.11,26.37a4.16,4.16,0,1,1,4.16-4.16,4.16,4.16,0,0,1-4.16,4.16m0-8.15a4,4,0,1,0,4,4,4,4,0,0,0-4-4" transform="translate(0 -2.28)"/><path class="cls-17" d="M215.6,25.84a3.41,3.41,0,0,1-1.7-.45,3.45,3.45,0,0,1-1.61-2.07A3.43,3.43,0,0,1,215.61,19a3.43,3.43,0,1,1,0,6.85m0-6.69a3.26,3.26,0,0,0-2.84,1.65,3.19,3.19,0,0,0-.32,2.47,3.26,3.26,0,0,0,3.15,2.41,3.27,3.27,0,0,0,0-6.53" transform="translate(0 -2.28)"/><path class="cls-18" d="M216,25.47a3.67,3.67,0,0,1-2.31-.84,3.57,3.57,0,0,1-1.28-2.33,3.22,3.22,0,0,1,.71-2.47,3.26,3.26,0,0,1,2.51-1.15,3.61,3.61,0,0,1,2.31.84,3.43,3.43,0,0,1,.58,4.8A3.27,3.27,0,0,1,216,25.47m-.37-6.63a3.1,3.1,0,0,0-2.39,1.1,3.06,3.06,0,0,0-.67,2.34,3.44,3.44,0,0,0,1.23,2.22,3.47,3.47,0,0,0,2.2.81,3.08,3.08,0,0,0,2.39-1.1,3.26,3.26,0,0,0-.55-4.56,3.48,3.48,0,0,0-2.21-.81" transform="translate(0 -2.28)"/><path class="cls-19" d="M216.31,25.42a3.64,3.64,0,0,1-2-.62,3.57,3.57,0,0,1-1.52-2.19,3.21,3.21,0,0,1,.45-2.53A3.29,3.29,0,0,1,216,18.65a3.69,3.69,0,0,1,2,.62A3.44,3.44,0,0,1,219.05,24a3.29,3.29,0,0,1-2.74,1.43m-.34-6.6a3.12,3.12,0,0,0-2.61,1.36,3,3,0,0,0-.43,2.39,3.39,3.39,0,0,0,1.45,2.09,3.45,3.45,0,0,0,1.93.59,3.09,3.09,0,0,0,2.6-1.35,3.24,3.24,0,0,0-1-4.48,3.33,3.33,0,0,0-1.92-.6" transform="translate(0 -2.28)"/><path class="cls-20" d="M215.92,25.46a3.41,3.41,0,0,1-1.7-.45A3.43,3.43,0,0,1,213,20.33a3.43,3.43,0,0,1,3-1.72,3.34,3.34,0,0,1,1.69.45,3.42,3.42,0,0,1,1.28,4.67,3.43,3.43,0,0,1-3,1.73m0-6.69a3.27,3.27,0,0,0-2.84,1.65,3.27,3.27,0,0,0,2.83,4.88,3.27,3.27,0,0,0,2.84-1.65,3.27,3.27,0,0,0-1.22-4.45,3.26,3.26,0,0,0-1.61-.43" transform="translate(0 -2.28)"/><path class="cls-21" d="M215.8,25.31a3.21,3.21,0,0,1-1.6-.42,3.22,3.22,0,0,1,1.61-6,3.22,3.22,0,1,1,0,6.44m0-6.28a3.05,3.05,0,0,0-1.52,5.71,3,3,0,0,0,1.51.41,3.06,3.06,0,0,0,1.52-5.72,3.1,3.1,0,0,0-1.51-.4" transform="translate(0 -2.28)"/><path class="cls-22" d="M216.05,25.77a3.43,3.43,0,1,1,0-6.86,3.51,3.51,0,0,1,1.7.45,3.43,3.43,0,0,1-1.71,6.41m0-6.69a3.26,3.26,0,0,0-1.63,6.09,3.33,3.33,0,0,0,1.62.43,3.26,3.26,0,0,0,1.62-6.09,3.16,3.16,0,0,0-1.61-.43" transform="translate(0 -2.28)"/><path class="cls-17" d="M215.65,25.23a2.88,2.88,0,0,1-1.41-.37,2.85,2.85,0,0,1,1.41-5.33,2.79,2.79,0,0,1,1.41.38,2.85,2.85,0,0,1,1.06,3.88,2.84,2.84,0,0,1-2.47,1.44m0-5.53a2.68,2.68,0,1,0,1.33.35,2.68,2.68,0,0,0-1.33-.35" transform="translate(0 -2.28)"/><path class="cls-18" d="M216,24.93a3,3,0,0,1-1.92-.71A2.94,2.94,0,0,1,213,22.29a2.66,2.66,0,0,1,2.68-3,3,3,0,0,1,1.92.7,2.84,2.84,0,0,1,.48,4,2.68,2.68,0,0,1-2.09,1m-.31-5.49a2.52,2.52,0,0,0-2,.91,2.48,2.48,0,0,0-.55,1.92,2.77,2.77,0,0,0,1,1.83,2.82,2.82,0,0,0,1.81.66,2.55,2.55,0,0,0,2-.9,2.68,2.68,0,0,0-.46-3.75,2.81,2.81,0,0,0-1.81-.67" transform="translate(0 -2.28)"/><path class="cls-19" d="M216.24,24.88a3,3,0,0,1-1.69-.52,3,3,0,0,1-1.27-1.89A2.66,2.66,0,0,1,216,19.26a3,3,0,0,1,1.68.52,2.84,2.84,0,0,1,.88,3.91,2.71,2.71,0,0,1-2.27,1.19M216,19.42a2.55,2.55,0,0,0-2.14,1.12,2.52,2.52,0,0,0-.37,1.9,2.76,2.76,0,0,0,1.21,1.78,2.84,2.84,0,0,0,1.59.49,2.56,2.56,0,0,0,2.14-1.11,2.7,2.7,0,0,0-.84-3.69,2.86,2.86,0,0,0-1.59-.49" transform="translate(0 -2.28)"/><path class="cls-20" d="M215.91,24.92a2.85,2.85,0,0,1-2.74-2.1,2.85,2.85,0,0,1,2.75-3.6,2.91,2.91,0,0,1,1.41.37,2.85,2.85,0,0,1-1.42,5.33m0-5.53a2.7,2.7,0,0,0-2.34,1.35,2.66,2.66,0,0,0-.25,2,2.68,2.68,0,1,0,3.91-3,2.66,2.66,0,0,0-1.32-.35" transform="translate(0 -2.28)"/><path class="cls-21" d="M215.81,24.79a2.66,2.66,0,0,1-1.32-.35,2.68,2.68,0,1,1,2.65-4.65,2.68,2.68,0,0,1-1.33,5m0-5.19A2.52,2.52,0,1,0,218,23.36a2.46,2.46,0,0,0,.25-1.91,2.53,2.53,0,0,0-1.18-1.52,2.58,2.58,0,0,0-1.24-.33" transform="translate(0 -2.28)"/><path class="cls-22" d="M216,25.17a2.84,2.84,0,0,1-1.41-.38,2.81,2.81,0,0,1-1.33-1.72,2.77,2.77,0,0,1,.27-2.16A2.86,2.86,0,0,1,216,19.47a2.81,2.81,0,0,1,1.41.38A2.85,2.85,0,0,1,216,25.17m0-5.53A2.68,2.68,0,0,0,213.7,21a2.65,2.65,0,0,0-.26,2,2.68,2.68,0,0,0,1.25,1.62,2.7,2.7,0,0,0,3.67-1,2.69,2.69,0,0,0-1-3.66,2.73,2.73,0,0,0-1.33-.35" transform="translate(0 -2.28)"/><path class="cls-16" d="M210.16,17.45a.15.15,0,0,0,.16.16h1.57a.24.24,0,0,0,.23-.2l1.19-6.74v0a.14.14,0,0,0-.16-.15h-1.58a.22.22,0,0,0-.22.18l-1.19,6.74Z" transform="translate(0 -2.28)"/><path class="cls-16" d="M213,14.55a4.21,4.21,0,0,0-.07.76,2.26,2.26,0,0,0,2.41,2.38,11,11,0,0,0,2.26-.23c.16,0,.21-.07.24-.22l.56-3.21v0a.15.15,0,0,0-.16-.16h-1.51a.21.21,0,0,0-.21.19l-.35,2c-.16,0-.35,0-.54,0-.35,0-.71-.13-.71-.87a3.53,3.53,0,0,1,.05-.6l.19-1c.21-1.15.61-1.44,1.57-1.44.7,0,1.47.07,1.84.09h0c.09,0,.13,0,.15-.15l.22-1.21a.43.43,0,0,1,0-.05c0-.08-.07-.1-.16-.13a7.34,7.34,0,0,0-2-.26c-1.41,0-3.08.36-3.59,3.15Z" transform="translate(0 -2.28)"/><path class="cls-16" d="M218.34,17.45a.15.15,0,0,0,.16.16h1.57a.25.25,0,0,0,.23-.2l1.19-6.74v0c0-.1-.07-.15-.17-.15h-1.57a.22.22,0,0,0-.22.18l-1.19,6.74Z" transform="translate(0 -2.28)"/><path class="cls-16" d="M221.84,12.08h1.45l-.93,5.33v0a.14.14,0,0,0,.15.16h1.56a.24.24,0,0,0,.23-.2l.94-5.33h1.43a.24.24,0,0,0,.23-.19l.22-1.22v0a.16.16,0,0,0-.17-.15h-4.83a.22.22,0,0,0-.22.18l-.22,1.22v0a.15.15,0,0,0,.16.16" transform="translate(0 -2.28)"/><path class="cls-16" d="M204.47,17.53a12.75,12.75,0,0,0,2.17.16,3.31,3.31,0,0,0,3.67-3.12l.18-1.06a3.73,3.73,0,0,0,.07-.72c0-1.57-1-2.4-2.63-2.4a14.74,14.74,0,0,0-2.22.16.41.41,0,0,0-.38.38l-1.1,6.23a.41.41,0,0,0,0,.11c0,.16.09.23.25.26m2.62-5.46h.55c.61,0,.94.17.94.86a3.42,3.42,0,0,1-.05.59l-.19,1.06c-.2,1.16-.64,1.47-1.4,1.47h-.55Z" transform="translate(0 -2.28)"/><path class="cls-16" d="M232,17.41l.85-4.84a3.2,3.2,0,0,0,.06-.51c0-1.3-1-1.67-2.12-1.67H230c-1.51,0-2.52.34-2.84,2.18l-.69,3.92-.17.92v0a.17.17,0,0,0,.16.17h1.57a.23.23,0,0,0,.22-.2l.37-2.12h1.76L230,17.41v0a.14.14,0,0,0,.14.16h1.56a.26.26,0,0,0,.24-.2m-1.09-4.84-.2,1.14h-1.76l.21-1.14c.06-.38.21-.49.59-.49h.74c.32,0,.44.07.44.3a1.37,1.37,0,0,1,0,.19" transform="translate(0 -2.28)"/><path class="cls-16" d="M232.68,16.05c0,1.29,1.06,1.64,2.14,1.64a11,11,0,0,0,1.52-.11.24.24,0,0,0,.22-.19l.21-1.17v0a.15.15,0,0,0-.16-.16h-1.56c-.27,0-.39-.08-.39-.3a1.37,1.37,0,0,1,0-.19l.85-4.86v0a.14.14,0,0,0-.15-.15h-1.56a.25.25,0,0,0-.24.19l-.86,4.86a5,5,0,0,0,0,.51" transform="translate(0 -2.28)"/><g class="cls-23"><path class="cls-17" d="M209.08,33.56A13.89,13.89,0,1,1,223,19.67a13.9,13.9,0,0,1-13.89,13.89m0-27.51A13.63,13.63,0,1,0,222.7,19.67,13.64,13.64,0,0,0,209.08,6.05" transform="translate(0 -2.28)"/><path class="cls-18" d="M209.3,31.58a14.5,14.5,0,0,1-2.62-.23C199,30,193.72,22.94,195,15.64a13.68,13.68,0,0,1,13.72-11,15,15,0,0,1,11.84,5.86A13,13,0,0,1,223,20.57a13.68,13.68,0,0,1-13.73,11m-.57-26.69a13.4,13.4,0,0,0-13.45,10.79c-1.27,7.16,3.87,14.07,11.45,15.41a14.88,14.88,0,0,0,2.57.23,13.41,13.41,0,0,0,13.46-10.79,12.75,12.75,0,0,0-2.4-9.89,14.26,14.26,0,0,0-9.06-5.52,14.79,14.79,0,0,0-2.57-.23" transform="translate(0 -2.28)"/><path class="cls-19" d="M210.34,30.69c-.36,0-.72,0-1.08,0A14.53,14.53,0,0,1,199.51,26,13,13,0,0,1,196,16.21c.5-7,6.68-12.44,14.06-12.44.36,0,.73,0,1.09,0,7.82.57,13.76,7,13.23,14.44-.5,7-6.68,12.44-14.07,12.44M210.09,4c-7.25,0-13.3,5.36-13.79,12.19a12.69,12.69,0,0,0,3.4,9.59,14.33,14.33,0,0,0,9.58,4.57c.35,0,.71,0,1.06,0,7.25,0,13.31-5.35,13.8-12.19.52-7.25-5.3-13.6-13-14.15-.35,0-.72,0-1.07,0" transform="translate(0 -2.28)"/><path class="cls-20" d="M209.46,31.56a13.9,13.9,0,1,1,13.89-13.9,13.91,13.91,0,0,1-13.89,13.9m0-27.52a13.63,13.63,0,1,0,13.62,13.62A13.64,13.64,0,0,0,209.46,4" transform="translate(0 -2.28)"/><path class="cls-21" d="M209.13,31.15a13,13,0,1,1,13-13,13.06,13.06,0,0,1-13,13m0-25.82a12.78,12.78,0,1,0,12.78,12.78A12.8,12.8,0,0,0,209.13,5.33" transform="translate(0 -2.28)"/><path class="cls-22" d="M210.55,32.37a13.89,13.89,0,1,1,13.89-13.89,13.9,13.9,0,0,1-13.89,13.89m0-27.51a13.63,13.63,0,1,0,13.62,13.62A13.64,13.64,0,0,0,210.55,4.86" transform="translate(0 -2.28)"/></g></g></g></svg>