<svg xmlns="http://www.w3.org/2000/svg" viewBox="0 0 109.64 66.86"><defs><style>.cls-1{isolation:isolate;}.cls-2{fill:#8c8c8c;}.cls-3{fill:#6dc7be;}.cls-4{fill:#008041;}.cls-5{fill:#ea2127;}.cls-6,.cls-8{mix-blend-mode:darken;}.cls-7{fill:#2bbec5;}.cls-8{fill:#241f20;}</style></defs><title>Asset 14</title><g class="cls-1"><g id="Layer_2" data-name="Layer 2"><g id="Layer_1-2" data-name="Layer 1"><path class="cls-2" d="M0,.36H4.81C7,.36,9.26.88,9.26,3.48A2.29,2.29,0,0,1,7.77,5.76v.09a2.73,2.73,0,0,1,2,2.68c0,2.31-2.17,3.11-4.16,3.11H0ZM4.21,4.7c.6,0,1.28-.06,1.28-.84s-.77-.78-1.37-.78H3.83V4.7ZM3.83,8.94H4.3C5,8.94,6,8.93,6,8S4.9,7.07,4.24,7.07H3.83Z"/><path class="cls-2" d="M14.48,11.64H10.11l4-11.28h4.57l4.05,11.28H18.31l-.38-1.41H14.81Zm2.73-4.09-.49-2c-.11-.48-.19-1-.27-1.45H16.3l-.75,3.44Z"/><path class="cls-2" d="M24.22,7.6l.21.16a4.35,4.35,0,0,0,2.58,1c.41,0,1.06-.16,1.06-.67s-.55-.55-.92-.63l-.83-.15c-1.62-.28-3-1.22-3-3,0-2.68,2.45-4.17,4.93-4.17a6.74,6.74,0,0,1,3.6,1L30.77,4.05a4.31,4.31,0,0,0-2.4-.85c-.36,0-.89.13-.89.6s.51.48.83.55l.93.21c1.75.39,3,1.32,3,3.23,0,2.7-2.47,4-4.93,4a10.25,10.25,0,0,1-4.38-1Z"/><rect class="cls-2" x="33.57" y="0.36" width="4.13" height="11.28"/><path class="cls-2" d="M40.3,7.6l.21.16a4.35,4.35,0,0,0,2.58,1c.41,0,1-.16,1-.67s-.54-.55-.91-.63l-.83-.15c-1.62-.28-3-1.22-3-3,0-2.68,2.46-4.17,4.94-4.17a6.76,6.76,0,0,1,3.6,1L46.84,4.05a4.28,4.28,0,0,0-2.39-.85c-.37,0-.89.13-.89.6s.51.48.83.55l.93.21c1.75.39,3,1.32,3,3.23,0,2.7-2.48,4-4.93,4a10.22,10.22,0,0,1-4.38-1Z"/><polygon class="cls-3" points="50.56 8.98 50.56 6 53.1 7.49 55.66 8.98 53.11 10.47 50.56 11.97 50.56 8.98"/><polygon class="cls-4" points="50.56 2.98 50.56 0 53.1 1.49 55.66 2.98 53.11 4.48 50.56 5.97 50.56 2.98"/><polygon class="cls-5" points="53.54 5.95 53.54 2.96 56.04 4.46 58.58 5.95 56.06 7.44 53.54 8.93 53.54 5.95"/><path class="cls-4" d="M69.67,11.64H68.05L65.5,6h0v5.63H63.85V2.8h1.62L68,8.43h0V2.8h1.62Z"/><path class="cls-4" d="M74.55,9.92H72.36L72,11.64H70.34L72.59,2.8h1.73l2.26,8.84H75ZM72.72,8.34H74.2l-.73-3.16h0Z"/><path class="cls-4" d="M81.51,4.37H79.67v7.27H78.05V4.37H76.23V2.8h5.28Z"/><path class="cls-4" d="M83.89,11.64H82.28V2.8h1.61Z"/><path class="cls-4" d="M90.86,8a4.34,4.34,0,0,1-.82,2.7,2.69,2.69,0,0,1-4.28,0A4.28,4.28,0,0,1,84.93,8V6.42a4.33,4.33,0,0,1,.82-2.69,2.69,2.69,0,0,1,4.28,0,4.27,4.27,0,0,1,.83,2.69Zm-1.62-1.6a3.16,3.16,0,0,0-.35-1.56,1.1,1.1,0,0,0-1-.6,1.11,1.11,0,0,0-1,.6,3.11,3.11,0,0,0-.34,1.56V8a3.07,3.07,0,0,0,.35,1.57,1.11,1.11,0,0,0,1,.61,1.09,1.09,0,0,0,1-.61A3.07,3.07,0,0,0,89.24,8Z"/><path class="cls-4" d="M97.61,11.64H96L93.45,6h0v5.63H91.79V2.8h1.63L96,8.43h0V2.8h1.61Z"/><path class="cls-4" d="M102.5,9.92h-2.2l-.39,1.72H98.28l2.25-8.84h1.74l2.25,8.84H102.9Zm-1.84-1.58h1.48l-.73-3.16h0Z"/><path class="cls-4" d="M106.64,10.06h3v1.58H105V2.8h1.62Z"/><path class="cls-5" d="M6.25,65H3l-.58,1.76H.05l3.31-9H5.91l3.32,9H6.84Zm-2.7-1.6H5.72L4.65,60.14h0Z"/><path class="cls-5" d="M17.93,63.63h0l1.34-5.91h2.31l-2.36,9H17L15.3,61.17h0l-1.71,5.56H11.31L9,57.72h2.31l1.34,5.91h.05l1.81-5.91h1.65Z"/><path class="cls-5" d="M27.64,65H24.4l-.57,1.76h-2.4l3.31-9H27.3l3.32,9h-2.4Zm-2.71-1.6h2.18L26,60.14h0Z"/><path class="cls-5" d="M33.73,63.27v3.46H31.34v-9h3.94a4.92,4.92,0,0,1,2.83.72,2.29,2.29,0,0,1,1,2,1.79,1.79,0,0,1-.42,1.2,3,3,0,0,1-1.24.82,2.35,2.35,0,0,1,1.36.78,2.24,2.24,0,0,1,.41,1.36v.57a3.18,3.18,0,0,0,.12.81,1,1,0,0,0,.42.64v.13H37.35a1,1,0,0,1-.37-.68,5.09,5.09,0,0,1-.09-.91V64.6a1.25,1.25,0,0,0-.39-1,1.69,1.69,0,0,0-1.13-.34Zm0-1.61H35.3a1.83,1.83,0,0,0,1.1-.28,1,1,0,0,0,.38-.83,1.12,1.12,0,0,0-.39-.89,1.69,1.69,0,0,0-1.11-.34H33.73Z"/><path class="cls-5" d="M40.86,66.73v-9h3.7a4.51,4.51,0,0,1,3,1,3.34,3.34,0,0,1,1.22,2.66V63a3.33,3.33,0,0,1-1.22,2.66,4.51,4.51,0,0,1-3,1Zm2.39-7.41v5.8H44.4a1.91,1.91,0,0,0,1.49-.58A2.14,2.14,0,0,0,46.42,63V61.4a2.14,2.14,0,0,0-.53-1.51,1.94,1.94,0,0,0-1.49-.57Z"/><path class="cls-5" d="M55.72,64.34a.85.85,0,0,0-.36-.74,4.61,4.61,0,0,0-1.28-.55A10.56,10.56,0,0,1,51.2,61.9a2,2,0,0,1-.94-1.78,2.1,2.1,0,0,1,1.12-1.84,5.27,5.27,0,0,1,2.83-.69,4.65,4.65,0,0,1,2.79.77,2.21,2.21,0,0,1,1,2v0H55.73a1.1,1.1,0,0,0-.41-.88,1.81,1.81,0,0,0-1.15-.34,2,2,0,0,0-1.13.28.83.83,0,0,0-.41.69.72.72,0,0,0,.41.63,8.92,8.92,0,0,0,1.55.6,7.68,7.68,0,0,1,2.63,1.13,2.17,2.17,0,0,1,.88,1.84,2.08,2.08,0,0,1-1.05,1.85,5.1,5.1,0,0,1-2.79.68,5.77,5.77,0,0,1-3-.77A2.4,2.4,0,0,1,50,63.87v0h2.32a1.25,1.25,0,0,0,.48,1.11,2.48,2.48,0,0,0,1.45.34,1.92,1.92,0,0,0,1.1-.26A.81.81,0,0,0,55.72,64.34Z"/><path class="cls-2" d="M61.11,57.58a2.74,2.74,0,0,1,.77-2,2.57,2.57,0,0,1,3.73,0,2.91,2.91,0,0,1,0,3.94,2.5,2.5,0,0,1-1.87.81,2.46,2.46,0,0,1-1.86-.81A2.74,2.74,0,0,1,61.11,57.58Zm.45,0a2.34,2.34,0,0,0,.64,1.65,2.07,2.07,0,0,0,1.54.67,2.09,2.09,0,0,0,1.55-.67,2.33,2.33,0,0,0,.63-1.65,2.29,2.29,0,0,0-.63-1.64,2.05,2.05,0,0,0-1.55-.67,2,2,0,0,0-1.54.67A2.3,2.3,0,0,0,61.56,57.58Zm3.35.49v0a1,1,0,0,1-.31.85,1.3,1.3,0,0,1-.91.3,1.21,1.21,0,0,1-.94-.4,1.52,1.52,0,0,1-.35-1v-.44a1.52,1.52,0,0,1,.35-1,1.21,1.21,0,0,1,.94-.4,1.3,1.3,0,0,1,.91.3,1,1,0,0,1,.32.85v0h-.55a.66.66,0,0,0-.17-.51.71.71,0,0,0-.5-.16.61.61,0,0,0-.53.26,1.17,1.17,0,0,0-.19.68v.44a1.17,1.17,0,0,0,.19.68.61.61,0,0,0,.53.26.71.71,0,0,0,.5-.16.66.66,0,0,0,.17-.51Z"/><g class="cls-6"><path class="cls-7" d="M78.59,66.13H69.91V64.94L74,61.82a7.55,7.55,0,0,0,1.27-1.22,1.59,1.59,0,0,0,.37-.93,1.15,1.15,0,0,0-.43-.93A1.85,1.85,0,0,0,74,58.38a1.91,1.91,0,0,0-1.34.42,1.45,1.45,0,0,0-.46,1.13H69.73l0,0a2.37,2.37,0,0,1,1.13-2.06A5.34,5.34,0,0,1,74,57a5.66,5.66,0,0,1,3.08.72,2.18,2.18,0,0,1,.49,3.44A17.63,17.63,0,0,1,75.49,63L73.23,64.7l0,0h5.34Z"/><path class="cls-7" d="M88.73,62.62a3.27,3.27,0,0,1-1.15,2.71,4.88,4.88,0,0,1-3.13.93,4.93,4.93,0,0,1-3.16-.93,3.27,3.27,0,0,1-1.16-2.71v-2a3.27,3.27,0,0,1,1.16-2.71,5.77,5.77,0,0,1,6.28,0,3.27,3.27,0,0,1,1.16,2.71Zm-2.54-2.18a2.27,2.27,0,0,0-.45-1.56,2,2,0,0,0-2.62,0,2.3,2.3,0,0,0-.45,1.57v2.35a2.31,2.31,0,0,0,.45,1.58,1.7,1.7,0,0,0,1.33.49,1.66,1.66,0,0,0,1.3-.49,2.37,2.37,0,0,0,.44-1.58Z"/><path class="cls-7" d="M96.19,66.13H93.64V58.71H91.05V57.44l5.14-.32Z"/><path class="cls-7" d="M109,59.5a1.66,1.66,0,0,1-.5,1.2,3.2,3.2,0,0,1-1.38.81,3.79,3.79,0,0,1,1.59.87,1.73,1.73,0,0,1,.59,1.28,2.08,2.08,0,0,1-1.2,1.92,6.3,6.3,0,0,1-3.12.68,6.4,6.4,0,0,1-3.15-.68,2.08,2.08,0,0,1-1.2-1.92,1.79,1.79,0,0,1,.58-1.29,4,4,0,0,1,1.6-.87,3.29,3.29,0,0,1-1.38-.8,1.66,1.66,0,0,1-.5-1.2A2.06,2.06,0,0,1,102,57.64a5.77,5.77,0,0,1,2.92-.65,5.83,5.83,0,0,1,2.93.65A2.06,2.06,0,0,1,109,59.5Zm-2.25,4a1.12,1.12,0,0,0-.5-1,2.43,2.43,0,0,0-2.58,0,1.15,1.15,0,0,0-.48,1,1.13,1.13,0,0,0,.49,1,2.13,2.13,0,0,0,1.3.35,2.16,2.16,0,0,0,1.28-.35A1.14,1.14,0,0,0,106.73,63.54Zm-.29-4a1.06,1.06,0,0,0-.4-.87,2,2,0,0,0-2.19,0,1.09,1.09,0,0,0-.39.88,1.12,1.12,0,0,0,.39.9,1.71,1.71,0,0,0,1.11.33,1.67,1.67,0,0,0,1.09-.33A1.12,1.12,0,0,0,106.44,59.58Z"/></g><path class="cls-8" d="M4.85,25.82A7.3,7.3,0,0,1,0,24V54.67H9.79V24H9.72A7.32,7.32,0,0,1,4.85,25.82Z"/><circle class="cls-5" cx="4.88" cy="19.8" r="4.84"/><path class="cls-8" d="M49.1,38.91v8.31h-25v-25h25v7.51l9-1.53V22.42A7.46,7.46,0,0,0,50.68,15H22a7.46,7.46,0,0,0-7.46,7.46V47.21A7.46,7.46,0,0,0,22,54.67H50.68a7.46,7.46,0,0,0,7.46-7.46V40.74Z"/><polygon class="cls-8" points="109.59 14.96 63.3 14.96 63.3 22.25 81.82 22.25 81.82 54.67 91 54.67 91 22.25 109.59 22.25 109.59 14.96"/></g></g></g></svg>