<svg xmlns="http://www.w3.org/2000/svg" viewBox="0 0 201.45 36.58"><defs><style>.cls-1{fill:#f79a23;}.cls-2{fill:#88bd42;}.cls-3{fill:#383838;}</style></defs><title>Asset 27</title><g id="Layer_2" data-name="Layer 2"><g id="Layer_1-2" data-name="Layer 1"><g id="Layer_2-2" data-name="Layer 2"><g id="Layer_1-2-2" data-name="Layer 1-2"><path class="cls-1" d="M28,32.33a10.58,10.58,0,0,1-7.78,3.23,10.85,10.85,0,0,1-4.62-1.06A10.85,10.85,0,0,1,11,35.56a10.59,10.59,0,0,1-7.78-3.23A10.62,10.62,0,0,1,0,24.55V19.9a6.19,6.19,0,0,1,1.88-4.52A6.19,6.19,0,0,1,6.4,13.49a6.18,6.18,0,0,1,4.65,2,6,6,0,0,1,4.58-2,6.18,6.18,0,0,1,4.62,2,6.21,6.21,0,0,1,4.62-2,6.42,6.42,0,0,1,6.39,6.4v4.65A10.58,10.58,0,0,1,28,32.33ZM27.18,19.9a2.3,2.3,0,0,0-2.31-2.31h0a2.34,2.34,0,0,0-2.35,2.31v4.65a2.27,2.27,0,1,1-4.54,0V19.9a2.21,2.21,0,0,0-.7-1.64,2.34,2.34,0,0,0-3.3,0,2.3,2.3,0,0,0-.69,1.68v4.62a2.28,2.28,0,0,1-4.55,0V19.9A2.25,2.25,0,0,0,8,18.24a2.27,2.27,0,0,0-1.65-.69,2.21,2.21,0,0,0-1.64.69,2.29,2.29,0,0,0-.67,1.66v4.65a6.67,6.67,0,0,0,2,4.89,6.64,6.64,0,0,0,4.9,2,6.75,6.75,0,0,0,4.62-1.78,6.73,6.73,0,0,0,4.61,1.78,7,7,0,0,0,6.93-6.93Z"/><path class="cls-1" d="M43.82,33.68A6.4,6.4,0,0,1,32.9,29.17V21.6a6.77,6.77,0,0,1,.85-3.2,6.39,6.39,0,0,1,10-7.75l0,0a6.36,6.36,0,0,1,1,7.71,6,6,0,0,1,.89,3.2v7.57A6.1,6.1,0,0,1,43.82,33.68ZM40.93,13.59a2.28,2.28,0,0,0-3.22-.06l-.05.06A2.28,2.28,0,0,0,37,15.24a2.31,2.31,0,0,0,4.62,0h0A2.27,2.27,0,0,0,40.93,13.59Zm.71,8a2.19,2.19,0,0,0-.7-1.63,2.27,2.27,0,0,0-1.65-.68A2.31,2.31,0,0,0,37,21.6h0v7.57a2.31,2.31,0,0,0,2.31,2.31h0a2.27,2.27,0,0,0,1.65-.68,2.19,2.19,0,0,0,.7-1.63Z"/><path class="cls-1" d="M64.52,33.68A6.15,6.15,0,0,1,60,35.56H58.3a10.58,10.58,0,0,1-7.78-3.23,10.62,10.62,0,0,1-3.23-7.78v-9.3a6.43,6.43,0,0,1,6.43-6.4,6.09,6.09,0,0,1,3.8,1.27,6.38,6.38,0,0,1,2.24,3.35H60a6.43,6.43,0,0,1,6.4,6.4,6,6,0,0,1-2.06,4.65,6.17,6.17,0,0,1,2.06,4.62A6.24,6.24,0,0,1,64.52,33.68ZM61.64,27.5A2.24,2.24,0,0,0,60,26.82H58.3A2.29,2.29,0,0,1,56,24.55V22.21h4a2.31,2.31,0,0,0,2.31-2.34A2.29,2.29,0,0,0,60,17.56H56V15.24a2.31,2.31,0,0,0-2.3-2.31h0a2.31,2.31,0,0,0-2.35,2.31v9.3a7,7,0,0,0,6.93,6.93H60a2.31,2.31,0,0,0,2.31-2.35A2.19,2.19,0,0,0,61.64,27.5Z"/><path class="cls-1" d="M84,33.54a5.77,5.77,0,0,1-4.23,1.78h-1.6A10.35,10.35,0,0,1,67.81,25V16.25a6,6,0,0,1,6-6,5.68,5.68,0,0,1,3.57,1.18,5.86,5.86,0,0,1,2.1,3.15h.24a6,6,0,0,1,6,6A5.69,5.69,0,0,1,83.81,25a5.76,5.76,0,0,1,1.93,4.33A5.83,5.83,0,0,1,84,33.54Zm-2.7-5.79a2.08,2.08,0,0,0-1.53-.63h-1.6A2.16,2.16,0,0,1,76,25V22.78h3.73a2.15,2.15,0,0,0,2.16-2.2,2.15,2.15,0,0,0-2.15-2.16H76V16.25a2.17,2.17,0,0,0-2.17-2.16h0a2.07,2.07,0,0,0-1.56.63,2,2,0,0,0-.63,1.53V25a6.5,6.5,0,0,0,6.49,6.49h1.6a2,2,0,0,0,1.53-.63,2.21,2.21,0,0,0,0-3.09Z"/><path class="cls-1" d="M106.61,25.25a10.48,10.48,0,0,1-3.18,3.66v.37a6,6,0,0,1-12,0v-.37a10.48,10.48,0,0,1-3.18-3.66,10,10,0,0,1-1.15-4.67V16.25a6,6,0,0,1,6-6,5.75,5.75,0,0,1,4.33,1.89,5.78,5.78,0,0,1,4.34-1.89,6,6,0,0,1,6,6v4.33A10.1,10.1,0,0,1,106.61,25.25Zm-2.68-9a2.17,2.17,0,0,0-2.16-2.17h0a2.19,2.19,0,0,0-1.55.63,2.09,2.09,0,0,0-.65,1.54v4.33a2.07,2.07,0,0,1-.61,1.5,2.15,2.15,0,0,1-3.65-1.5V16.25a2.06,2.06,0,0,0-.65-1.53,2.19,2.19,0,0,0-3.72,1.53h0v4.33a6.56,6.56,0,0,0,4.3,6.12v2.57a2.08,2.08,0,0,0,.65,1.56,2.2,2.2,0,0,0,3.1,0,2.08,2.08,0,0,0,.65-1.56V26.71a6.56,6.56,0,0,0,4.3-6.13Z"/><path class="cls-2" d="M34.24,6.23V9a15.59,15.59,0,0,1,5-1.1,15.59,15.59,0,0,1,5,1.1V6.19a12.53,12.53,0,0,0-5.07-1.35A11.7,11.7,0,0,0,34.24,6.23Z"/><path class="cls-2" d="M47.13,5.57l1-.54-1-.55V4.21s.28-1.43-1.32-.68a.29.29,0,0,0-.14.13L39.06,0,30.38,5l3.28,1.49V6a13.15,13.15,0,0,1,5.57-1.54,14,14,0,0,1,5.65,1.5v.85l1.81-1V9.74h-.6v1.4l.8-.56.89.56V9.74h-.65V5.57ZM46.69,4v.26l-.53-.29c.2-.13.53-.3.53,0Zm-.18,1.55a.43.43,0,1,1,.42-.42h0A.42.42,0,0,1,46.51,5.52Z"/><path class="cls-3" d="M121.17,16.79h-1.26v8.29h-2.07V16.79h-1.26V15.13h1.26v-.62a2.79,2.79,0,0,1,1-2.35,4.54,4.54,0,0,1,2.78-.77,10.51,10.51,0,0,1,2.19.25,8.94,8.94,0,0,1,1.74.51v1.57a11.25,11.25,0,0,0-1.74-.45,10.73,10.73,0,0,0-2-.22c-1.25,0-1.87.48-1.87,1.44v.64h1.24Z"/><path class="cls-3" d="M130,25.08h-2.07v-6.6c0-1.14-.47-1.72-1.4-1.72a1.17,1.17,0,0,0-.9.37,1.43,1.43,0,0,0-.33,1,1.25,1.25,0,0,0,.35,1,1.35,1.35,0,0,0,.91.31l.48,0v1.81a3.91,3.91,0,0,1-.73.06,2.44,2.44,0,0,1-2.06-.84,2.42,2.42,0,0,1-2,.84,4.87,4.87,0,0,1-1-.1V19.33a4.4,4.4,0,0,0,.73.06,1.12,1.12,0,0,0,1.26-1.28,1.3,1.3,0,0,0-.37-1,1.35,1.35,0,0,0-1-.36h-1.29V15.13h1.6a2.4,2.4,0,0,1,2,.91,2.27,2.27,0,0,1,2-1.06,2.09,2.09,0,0,1,1.69.68V13.94H130v1.19h1.26v1.66H130Z"/><path class="cls-3" d="M146.36,21.4a2.9,2.9,0,0,1-.72,2.07,2.63,2.63,0,0,1-2,.77l-.4,0V22.35h.15a1,1,0,0,0,.72-.24.93.93,0,0,0,.25-.71.89.89,0,0,0-.38-.83,2.24,2.24,0,0,0-1.11-.23l-.52,0v4.71h-2.08A8.75,8.75,0,0,0,138,24a8.3,8.3,0,0,0-2.52-.45,1.63,1.63,0,0,0-1,.3,1,1,0,0,0-.38.86,2.36,2.36,0,0,0,0,.29h-2a4.57,4.57,0,0,1-.07-.77,2.19,2.19,0,0,1,.51-1.44,2.81,2.81,0,0,1,1.47-.84,1.61,1.61,0,0,0,.2-.77c0-.6-.67-.89-2-.89h-.6V18.56H132c1.08,0,1.63-.39,1.63-1.16a1.62,1.62,0,0,0-.14-.61h-2.86V15.13h16.64v1.66h-4.92v1.87l.55,0a4,4,0,0,1,2.49.73A2.39,2.39,0,0,1,146.36,21.4Zm-10.16-.16a1.64,1.64,0,0,1-.11.62,10.58,10.58,0,0,1,4.17,1.22v-2.4a3.42,3.42,0,0,1-.65.06,3.29,3.29,0,0,1-2.12-.64,2.23,2.23,0,0,1-.79-1.85V16.79h-1.16a2,2,0,0,1,.14.73c0,1-.6,1.6-1.81,1.75C135.42,19.44,136.2,20.09,136.2,21.24ZM139.64,19a4.49,4.49,0,0,0,.62,0v-2.2h-1.48v1.44C138.78,18.76,139.06,19,139.64,19Z"/><path class="cls-3" d="M151.25,16.79H150v8.29h-2.08V17.71a1.27,1.27,0,0,0-.15-.75.9.9,0,0,0-.63-.17h-.48V15.13h.74a.81.81,0,0,1,.75.51,7.91,7.91,0,0,1-.15-1.43v-.27h2v1.19h1.26Z"/><path class="cls-3" d="M160.77,24V19.39L155.25,22V20l1.29-.59a2.37,2.37,0,0,0-1.29-.95v-.25a3.43,3.43,0,0,1,.83-2.28,3,3,0,0,1,2.42-1,2.45,2.45,0,0,1,2.27,1.14V13.94h2.08v1.19h1.26v1.66h-1.26v9.6h-2.08v-.3a.47.47,0,0,0-.53-.53,5.43,5.43,0,0,0-1.11.19,5.9,5.9,0,0,1-1.4.19,2.67,2.67,0,0,1-1.79-.62,2.31,2.31,0,0,1-.72-1.84,4.61,4.61,0,0,1,.09-1h2c0,.21,0,.4,0,.54,0,.68.29,1,.88,1a3.1,3.1,0,0,0,.8-.14,3.77,3.77,0,0,1,1-.14A1.24,1.24,0,0,1,160.77,24Zm-3.56-6.28a2.3,2.3,0,0,1,1,.9l2.32-1.05a1.72,1.72,0,0,0-1.66-1,1.8,1.8,0,0,0-1.06.32A1.39,1.39,0,0,0,157.21,17.76Z"/><path class="cls-3" d="M168.11,16.79h-1.26v8.29h-2.08V16.79h-1.26V15.13h1.26v-.62a2.77,2.77,0,0,1,1-2.35,4.52,4.52,0,0,1,2.78-.77,10.66,10.66,0,0,1,2.19.25,9.16,9.16,0,0,1,1.74.51v1.57a11.25,11.25,0,0,0-1.74-.45,10.83,10.83,0,0,0-2-.22q-1.86,0-1.86,1.44v.64h1.24Z"/><path class="cls-3" d="M178,16.79H167.52V15.13H178Zm-.77,3.69A4,4,0,0,1,176,23.53a4.38,4.38,0,0,1-3.15,1.15,4.6,4.6,0,0,1-3.37-1.28,5.24,5.24,0,0,1-1.3-3.89,9.84,9.84,0,0,1,.06-1.12h2c0,.34,0,.71,0,1.1a4.09,4.09,0,0,0,.69,2.49,2.37,2.37,0,0,0,2,.92,2.12,2.12,0,0,0,1.69-.67,2.5,2.5,0,0,0,.6-1.75,2.2,2.2,0,0,0-.22-1,.68.68,0,0,0-.63-.39.68.68,0,0,0-.56.26,1.22,1.22,0,0,0-.2.73,3.43,3.43,0,0,0,.15,1h-1.93a3.07,3.07,0,0,1-.22-1.16,2.38,2.38,0,0,1,.73-1.8,2.66,2.66,0,0,1,1.94-.7,2.82,2.82,0,0,1,2.19.89A3.13,3.13,0,0,1,177.2,20.48Z"/><path class="cls-3" d="M187.35,21.27a3.77,3.77,0,0,1-1,2.75,3.61,3.61,0,0,1-2.72,1.05,3.87,3.87,0,0,1-2.77-1,3.58,3.58,0,0,1-1-2.72,2.75,2.75,0,0,1,0-.34,2.79,2.79,0,0,1-1.47-2.64,2.81,2.81,0,0,1,.46-1.59h-1.42V15.13h4.75a2.78,2.78,0,0,1-.29-1.2,2,2,0,0,1,.65-1.54,2.7,2.7,0,0,1,1.88-.58c.13,0,.38,0,.74.06v1.79l-.33,0c-.64,0-1,.25-1,.74a1.6,1.6,0,0,0,.25.76h4.39v1.66h-3.15l.23.28A7.2,7.2,0,0,1,187.35,21.27Zm-7-2.89a1.55,1.55,0,0,0,.44,1.19A1.7,1.7,0,0,0,182,20a1.79,1.79,0,0,0,1-.27l-2.6-1.79A2.07,2.07,0,0,0,180.35,18.38ZM182,16.79A1.76,1.76,0,0,0,181,17l2.52,1.82a1.78,1.78,0,0,0-.39-1.64A1.64,1.64,0,0,0,182,16.79Zm1.63,6.5a1.54,1.54,0,0,0,1.3-.56,2.3,2.3,0,0,0,.43-1.46,4.89,4.89,0,0,0-.38-1.84c-.33,1.4-1.32,2.09-3,2.09h-.11a1.82,1.82,0,0,0,.5,1.32A1.7,1.7,0,0,0,183.61,23.29Z"/><path class="cls-3" d="M192.46,16.79H191.2v8.29h-2.08V17.71A1.27,1.27,0,0,0,189,17a.86.86,0,0,0-.63-.17h-.48V15.13h.75a.8.8,0,0,1,.74.51,7.91,7.91,0,0,1-.15-1.43v-.27h2v1.19h1.26Z"/><path class="cls-3" d="M200.07,25.08H198a12.19,12.19,0,0,0-.25-1.26,10.32,10.32,0,0,0-.44-1.33,3.2,3.2,0,0,0-.7-1.14,1.32,1.32,0,0,0-.95-.44.9.9,0,0,0-.76.33,1.44,1.44,0,0,0-.25.86,4.47,4.47,0,0,0,.08.82h-2a4.33,4.33,0,0,1-.13-1,2.87,2.87,0,0,1,.72-2,2.56,2.56,0,0,1,2-.82A2.83,2.83,0,0,1,198,20.86V16.79h-6.12V15.13h9.33v1.66h-1.13Z"/><path class="cls-3" d="M122.54,29.54h-.86v5.65H120.3l-3-2.11V31.73a8.3,8.3,0,0,1,3.06-1.63v-.56h-3.64V28.41h5.87Zm-2.23,4.18V31.44a8.17,8.17,0,0,0-1.79,1Z"/><path class="cls-3" d="M125.38,29.54h-3.25V28.41h3.25Zm-1.18,5.65h-1.49a3,3,0,0,0,.64-1.64,4.27,4.27,0,0,0-.33-1.26A4.36,4.36,0,0,1,122.7,31a1.61,1.61,0,0,1,.22-.83,1.93,1.93,0,0,1,.56-.61H125a1.54,1.54,0,0,0-.6.54,1.47,1.47,0,0,0-.26.87,4.39,4.39,0,0,0,.33,1.32,4.51,4.51,0,0,1,.32,1.28A2.88,2.88,0,0,1,124.2,35.19Z"/><path class="cls-3" d="M130.84,29.54H130v5.65H128.6l-3-2.11V31.73a8.3,8.3,0,0,1,3.06-1.63v-.56H125V28.41h5.87Zm-2.23,4.18V31.44a8.17,8.17,0,0,0-1.79,1Z"/><path class="cls-3" d="M132.76,33.06a1.34,1.34,0,0,1,.36-1,1.6,1.6,0,0,1,1-.47,1.21,1.21,0,0,1-.77-.67,1.29,1.29,0,0,1-1.33.78,2.28,2.28,0,0,1-1-.26V30.32a2.69,2.69,0,0,0,1,.21c.53,0,.8-.33.8-1h-2.3V28.41h6.93v1.13h-.72a2.52,2.52,0,0,1,.07.66,1.43,1.43,0,0,1-.4,1,1.78,1.78,0,0,1-1.13.51,1.49,1.49,0,0,1,.79.56,1.53,1.53,0,0,1,.29.92,1.37,1.37,0,0,1-1.17,1.42l1.17.38v1.14l-3.33-1.08V34h.86q1.23,0,1.23-.81a.55.55,0,0,0-.14-.41.53.53,0,0,0-.41-.15.49.49,0,0,0-.38.15.67.67,0,0,0-.13.41,1.58,1.58,0,0,0,0,.34h-1.17A2.14,2.14,0,0,1,132.76,33.06Zm2-2.38c.37,0,.55-.22.55-.67a2.69,2.69,0,0,0,0-.47h-1.22Q134.11,30.68,134.8,30.68Z"/><path class="cls-3" d="M140.09,29.54h-.86v5.65h-1.42v-5a.82.82,0,0,0-.1-.51.58.58,0,0,0-.43-.12H137V28.41h.51a.55.55,0,0,1,.51.34,5.15,5.15,0,0,1-.1-1V27.6h1.36v.81h.86Z"/><path class="cls-3" d="M140.56,32.46l.8-.44a1.85,1.85,0,0,0-1-.85v-.55a2.47,2.47,0,0,1,.59-1.6,2.07,2.07,0,0,1,1.69-.71,1.64,1.64,0,0,1,1.54.77V27.6h1.42v.81h.86v1.13h-.86v5.65h-1.42V31.84l-3.6,2.08Zm1.15-1.83a1.84,1.84,0,0,1,.77.77l1.61-.91a1.15,1.15,0,0,0-1.22-1,1.13,1.13,0,0,0-.83.32A1.06,1.06,0,0,0,141.71,30.63Z"/><path class="cls-3" d="M151.63,35.19h-1.42c0-.28-.1-.57-.17-.86a8,8,0,0,0-.3-.91,2.2,2.2,0,0,0-.48-.77.9.9,0,0,0-.65-.3.61.61,0,0,0-.51.22.92.92,0,0,0-.17.59,2.59,2.59,0,0,0,0,.56H146.6a3,3,0,0,1-.09-.7,2,2,0,0,1,.5-1.36,1.73,1.73,0,0,1,1.37-.55,1.94,1.94,0,0,1,1.83,1.2V29.54H146V28.41h6.35v1.13h-.76Z"/><path class="cls-3" d="M155.12,29.54h-.85v5.65h-1.42v-5a.81.81,0,0,0-.11-.51.57.57,0,0,0-.43-.12H152V28.41h.51a.53.53,0,0,1,.5.34,5.15,5.15,0,0,1-.1-1V27.6h1.37v.81h.85Z"/><path class="cls-3" d="M163,35.19H161.6V33.48c0-.66-.21-1-.62-1a.52.52,0,0,0-.38.18,2,2,0,0,0-.33.41q-.17.26-.36.51a1.56,1.56,0,0,1-.54.42,1.86,1.86,0,0,1-.81.17,2.61,2.61,0,0,1-.79-.12V32.9a2.27,2.27,0,0,0,.59.08.72.72,0,0,0,.37-.11,1,1,0,0,0,.26-.2,3.53,3.53,0,0,0,.26-.36l.23-.34a1.6,1.6,0,0,0-.55-1,1.69,1.69,0,0,0-1.1-.35V29.54h-.58V28.41h6.63v1.13H163Zm-2.34-3.89a1.07,1.07,0,0,1,.93.39V29.54h-2.46a2.48,2.48,0,0,1,1.49,1.76Z"/><path class="cls-3" d="M171.7,32.29a2.07,2.07,0,0,1-.51,1.49,1.84,1.84,0,0,1-1.41.53h-.22V33h.1c.45,0,.67-.25.67-.74s-.46-.92-1.37-.92v3.82h-1.42L164,33.76h0V32.41l1.46-1-1.43-.84V29.54h-.59V28.41h8.77v1.13h-7.38l2,1.3V32l-1.32.92,2,.88V30.15H169a3.3,3.3,0,0,1,1.93.55A1.81,1.81,0,0,1,171.7,32.29Z"/><path class="cls-3" d="M177.42,32.54a2.8,2.8,0,0,1-.75,1.92,2.57,2.57,0,0,1-2,.83,2.16,2.16,0,0,1-1.41-.47,1.55,1.55,0,0,1-.58-1.27v-4h-.86V28.41h4a.86.86,0,0,1,0-.15v-.12a.84.84,0,0,0-.1-.47.48.48,0,0,0-.42-.15,8.11,8.11,0,0,0-.88.09,6.77,6.77,0,0,1-1,.1,2,2,0,0,1-1.05-.22V26.41a2,2,0,0,0,.92.17,7,7,0,0,0,1-.12,7.24,7.24,0,0,1,1.13-.12,1.66,1.66,0,0,1,1.22.42,1.55,1.55,0,0,1,.43,1.17,3.73,3.73,0,0,1,0,.48H178v1.13h-3.85v4a.49.49,0,0,0,.17.39.6.6,0,0,0,.41.14,1.14,1.14,0,0,0,1-.48,1.77,1.77,0,0,0,.35-1.06c0-.54-.28-.81-.86-.81a2,2,0,0,0-.42,0V30.53a2.73,2.73,0,0,1,.64-.07,2,2,0,0,1,1.52.57A2.1,2.1,0,0,1,177.42,32.54Z"/><path class="cls-3" d="M183.89,33.28a1.54,1.54,0,0,1-.68,1.35,3,3,0,0,1-1.73.46,3.51,3.51,0,0,1-1.22-.21,3,3,0,0,1-1-.62,2.87,2.87,0,0,1-.73-1.13,4.87,4.87,0,0,1-.26-1.64c0-.11,0-.28,0-.52h1.33c0,.1,0,.24,0,.43,0,1.67.64,2.5,1.91,2.5.67,0,1-.25,1-.75s-.45-.75-1.34-.75h-.33V31.21H181a1.21,1.21,0,0,0,.81-.26.94.94,0,0,0,.3-.76.92.92,0,0,0-.15-.55.56.56,0,0,0-.45-.2.51.51,0,0,0-.42.17.69.69,0,0,0-.15.46,1.78,1.78,0,0,0,.08.53h-1.28a2.27,2.27,0,0,1-.13-.71,1.45,1.45,0,0,1,.5-1.14,1.92,1.92,0,0,1,1.34-.44,2.24,2.24,0,0,1,1.53.51,1.74,1.74,0,0,1,.59,1.35,1.57,1.57,0,0,1-.36,1.06,1.63,1.63,0,0,1-1,.53,1.9,1.9,0,0,1,1.19.47A1.39,1.39,0,0,1,183.89,33.28Z"/><path class="cls-3" d="M190.42,29.54h-.86v5.65h-1.41l-3.52-1.43h0V32.41l1.46-1-1.43-.84V29.54h-.6V28.41h6.35Zm-4.1,5.73a.75.75,0,1,1-.54-.23A.74.74,0,0,1,186.32,35.27Zm1.12-4.43V32l-1.32.92,2,.88v-4.3h-2.68Z"/><path class="cls-3" d="M193.26,29.54H190V28.41h3.24Zm-1.17,5.65H190.6a3,3,0,0,0,.63-1.64,4.5,4.5,0,0,0-.32-1.26,4.15,4.15,0,0,1-.33-1.31,1.62,1.62,0,0,1,.23-.83,2,2,0,0,1,.55-.61h1.49a1.56,1.56,0,0,0-.61.54A1.46,1.46,0,0,0,192,31a4.61,4.61,0,0,0,.32,1.32,4.28,4.28,0,0,1,.33,1.28A2.88,2.88,0,0,1,192.09,35.19Z"/><path class="cls-3" d="M196,29.54h-.85v5.65h-1.42v-5a.81.81,0,0,0-.11-.51.57.57,0,0,0-.43-.12h-.32V28.41h.51a.53.53,0,0,1,.5.34,5.15,5.15,0,0,1-.1-1V27.6h1.37v.81H196Z"/><path class="cls-3" d="M201.45,29.54h-.85v5.65h-1.38l-3.05-2.11V31.73a8.14,8.14,0,0,1,3.06-1.63v-.56h-3.64V28.41h5.86Zm-4.18,4.91a.72.72,0,0,1,.22.54.75.75,0,0,1-.77.77.72.72,0,0,1-.54-.22A.75.75,0,0,1,196,35a.79.79,0,0,1,.77-.77A.75.75,0,0,1,197.27,34.45Zm2-.73V31.44a8.17,8.17,0,0,0-1.79,1Z"/></g></g></g></g></svg>