<svg xmlns="http://www.w3.org/2000/svg" viewBox="0 0 168.47 72.91"><defs><style>.cls-1{fill:#f79a23;}.cls-2{fill:#88bd42;}.cls-3{fill:#424242;}</style></defs><title>Asset 33</title><g id="Layer_2" data-name="Layer 2"><g id="Layer_1-2" data-name="Layer 1"><g id="Layer_2-2" data-name="Layer 2"><g id="Layer_1-2-2" data-name="Layer 1-2"><path class="cls-1" d="M43.83,50.55a16.6,16.6,0,0,1-12.17,5.06,17.2,17.2,0,0,1-7.22-1.67,17,17,0,0,1-7.22,1.67A16.62,16.62,0,0,1,5.05,50.55,16.57,16.57,0,0,1,0,38.39V31.11a9.63,9.63,0,0,1,2.94-7,9.61,9.61,0,0,1,7.06-3,9.63,9.63,0,0,1,7.28,3.17,9.29,9.29,0,0,1,7.16-3.16,9.67,9.67,0,0,1,7.22,3.11,9.69,9.69,0,0,1,7.22-3.11,10.06,10.06,0,0,1,10,10v7.28A16.57,16.57,0,0,1,43.83,50.55ZM42.5,31.11a3.61,3.61,0,0,0-3.61-3.61h0a3.61,3.61,0,0,0-2.58,1.05,3.45,3.45,0,0,0-1.08,2.56v7.28a3.56,3.56,0,0,1-7.11,0V31.11A3.45,3.45,0,0,0,27,28.55a3.65,3.65,0,0,0-6.24,2.62v7.22a3.56,3.56,0,0,1-7.11,0V31.11a3.53,3.53,0,0,0-1.1-2.58A3.5,3.5,0,0,0,10,27.44a3.45,3.45,0,0,0-2.56,1.09,3.6,3.6,0,0,0-1,2.58v7.28A10.44,10.44,0,0,0,9.55,46a10.33,10.33,0,0,0,7.66,3.2,10.44,10.44,0,0,0,7.22-2.78,10.5,10.5,0,0,0,7.22,2.78A10.86,10.86,0,0,0,42.49,38.4Z"/><path class="cls-1" d="M68.52,52.66a10,10,0,0,1-17.08-7V33.77a10.55,10.55,0,0,1,1.33-5A10,10,0,0,1,68.42,16.65l.07.07A10,10,0,0,1,70.1,28.77a9.6,9.6,0,0,1,1.39,5V45.61A9.53,9.53,0,0,1,68.52,52.66ZM64,21.25a3.55,3.55,0,0,0-5-.09l-.09.09a3.52,3.52,0,0,0-1.05,2.58,3.61,3.61,0,1,0,7.22,0h0A3.56,3.56,0,0,0,64,21.25ZM65.1,33.78A3.43,3.43,0,0,0,64,31.22a3.56,3.56,0,0,0-2.58-1.06,3.6,3.6,0,0,0-3.61,3.61h0V45.61a3.59,3.59,0,0,0,3.6,3.61h0A3.56,3.56,0,0,0,64,48.16a3.42,3.42,0,0,0,1.08-2.55Z"/><path class="cls-1" d="M100.88,52.66a9.64,9.64,0,0,1-7.06,3H91.15A16.58,16.58,0,0,1,79,50.55a16.57,16.57,0,0,1-5-12.16V23.84a10.05,10.05,0,0,1,10-10,9.45,9.45,0,0,1,5.94,2,9.82,9.82,0,0,1,3.5,5.24h.39a10,10,0,0,1,10,10,9.48,9.48,0,0,1-3.22,7.28,9.62,9.62,0,0,1,3.22,7.22A9.72,9.72,0,0,1,100.88,52.66ZM96.38,43a3.52,3.52,0,0,0-2.56-1.06H91.15a3.6,3.6,0,0,1-3.55-3.55V34.72h6.22a3.51,3.51,0,0,0,2.56-1,3.66,3.66,0,0,0-2.54-6.22H87.6V23.83A3.61,3.61,0,0,0,84,20.21h0a3.55,3.55,0,0,0-2.61,1.06,3.5,3.5,0,0,0-1.06,2.55V38.37A10.87,10.87,0,0,0,91.15,49.2h2.67a3.51,3.51,0,0,0,2.56-1.05,3.56,3.56,0,0,0,1.05-2.61A3.49,3.49,0,0,0,96.38,43Z"/><path class="cls-1" d="M131.29,52.45a9,9,0,0,1-6.61,2.77h-2.5A16.18,16.18,0,0,1,106,39.07V25.41A9.43,9.43,0,0,1,115.46,16,8.87,8.87,0,0,1,121,17.88a9.3,9.3,0,0,1,3.29,4.93h.36a9.43,9.43,0,0,1,9.37,9.37A8.88,8.88,0,0,1,131,39a9.26,9.26,0,0,1,.25,13.45Zm-4.21-9.06a3.28,3.28,0,0,0-2.4-1h-2.5a3.38,3.38,0,0,1-3.34-3.33V35.62h5.84a3.25,3.25,0,0,0,2.4-1,3.33,3.33,0,0,0,1-2.44,3.37,3.37,0,0,0-3.37-3.39h-5.85V25.41A3.38,3.38,0,0,0,115.46,22h0A3.34,3.34,0,0,0,113,23a3.28,3.28,0,0,0-1,2.4V39.05a10.18,10.18,0,0,0,10.16,10.16h2.5a3.28,3.28,0,0,0,2.4-1,3.31,3.31,0,0,0,1-2.45A3.25,3.25,0,0,0,127.08,43.39Z"/><path class="cls-1" d="M166.69,39.48a16.41,16.41,0,0,1-5,5.73v.57a9.38,9.38,0,0,1-18.76,0v-.57a16.33,16.33,0,0,1-5-5.73,15.61,15.61,0,0,1-1.8-7.3V25.41A9.43,9.43,0,0,1,145.56,16a9,9,0,0,1,6.77,3,9,9,0,0,1,6.77-3,9.43,9.43,0,0,1,9.37,9.37v6.77A15.59,15.59,0,0,1,166.69,39.48ZM162.5,25.42A3.38,3.38,0,0,0,159.12,22h0a3.34,3.34,0,0,0-2.42,1,3.2,3.2,0,0,0-1,2.4v6.77a3.25,3.25,0,0,1-1,2.35,3.35,3.35,0,0,1-5.7-2.35V25.41A3.24,3.24,0,0,0,148,23a3.33,3.33,0,0,0-2.42-1,3.38,3.38,0,0,0-3.39,3.38h0v6.77a10.26,10.26,0,0,0,6.72,9.58v4a3.29,3.29,0,0,0,1,2.45,3.45,3.45,0,0,0,4.84,0,3.29,3.29,0,0,0,1-2.45v-4a10.27,10.27,0,0,0,6.72-9.59Z"/><path class="cls-2" d="M53.53,9.74v4.35a24.35,24.35,0,0,1,7.87-1.73,24.35,24.35,0,0,1,7.87,1.73V9.68a19.65,19.65,0,0,0-7.93-2.11A18.4,18.4,0,0,0,53.53,9.74Z"/><path class="cls-2" d="M73.69,8.7l1.57-.84L73.69,7V6.59s.44-2.24-2.06-1.07a.43.43,0,0,0-.23.21L61.07,0,47.5,7.77l5.13,2.34V9.34a20.55,20.55,0,0,1,8.71-2.41,22,22,0,0,1,8.84,2.34V10.6L73,9.08v6.15h-.94v2.18l1.25-.86,1.39.86V15.23h-1V8.7ZM73,6.21v.41l-.83-.46c.3-.2.83-.47.83,0Zm-.29,2.42A.66.66,0,1,1,73.39,8h0A.67.67,0,0,1,72.72,8.63Z"/></g></g><path class="cls-3" d="M5,65.07H3.7v6.82H2.79V65.07H1.45v-.79H2.79v-.39c0-1.62.9-2.43,2.69-2.43A10.92,10.92,0,0,1,8.61,62v.78a10.1,10.1,0,0,0-3.1-.51,1.88,1.88,0,0,0-1.41.42,1.66,1.66,0,0,0-.4,1.22v.39H5Z"/><path class="cls-3" d="M11.88,71.89H11V66.72a2.18,2.18,0,0,0-.35-1.24A1.28,1.28,0,0,0,9.46,65a1.3,1.3,0,0,0-1,.37,1.35,1.35,0,0,0-.36,1,1.4,1.4,0,0,0,.34,1,1.24,1.24,0,0,0,.92.35,4.21,4.21,0,0,0,.5,0v.82a3.45,3.45,0,0,1-.57,0,1.81,1.81,0,0,1-1.65-.82,1.76,1.76,0,0,1-1.62.82,3,3,0,0,1-.66-.08v-.8a3.48,3.48,0,0,0,.58,0,1.23,1.23,0,0,0,.93-.35,1.44,1.44,0,0,0,.32-1,1.14,1.14,0,0,0-.36-.91,1.59,1.59,0,0,0-1-.3l-1.21,0v-.79H5.89a2,2,0,0,1,1.77.79,1.93,1.93,0,0,1,1.74-.91,1.86,1.86,0,0,1,1.57.68V63.28h.91v1h1.34v.79H11.88Z"/><path class="cls-3" d="M24.47,69A1.87,1.87,0,0,1,24,70.36a1.76,1.76,0,0,1-1.32.52h-.32V70h.12c.75,0,1.12-.36,1.12-1.07s-.51-1.11-1.54-1.11a5.09,5.09,0,0,0-.67,0v4h-.93a6,6,0,0,0-4.11-1.8,1.29,1.29,0,0,0-.95.32,1.19,1.19,0,0,0-.33.91v.14h-.91a2,2,0,0,1,0-.3,1.71,1.71,0,0,1,1.21-1.74,1.33,1.33,0,0,0,.24-.8c0-.57-.44-.85-1.32-.85h-.53V67h.42c.86,0,1.3-.38,1.3-1.14a1.28,1.28,0,0,0-.21-.75H12.81v-.79H25.64v.79H21.35v2.05a4.62,4.62,0,0,1,.7-.06,2.77,2.77,0,0,1,1.78.51A1.66,1.66,0,0,1,24.47,69Zm-8-.35a1.59,1.59,0,0,1-.13.66,6.15,6.15,0,0,1,2.23.47,7,7,0,0,1,1.87,1.11V68.07a4.54,4.54,0,0,1-.8.08,2,2,0,0,1-1.41-.48,1.63,1.63,0,0,1-.51-1.25V65.07H16.13a1.45,1.45,0,0,1,.2.77,1.4,1.4,0,0,1-1.07,1.47C16.05,67.49,16.45,67.92,16.45,68.62Zm3.19-1.28a6.73,6.73,0,0,0,.78-.08V65.07h-1.8v1.34Q18.62,67.34,19.64,67.34Z"/><path class="cls-3" d="M28.82,65.07H27.49v6.82h-.92V66a1.29,1.29,0,0,0-.16-.71.68.68,0,0,0-.6-.25h-.58v-.79h.62a.87.87,0,0,1,.83.51,7,7,0,0,1-.1-1.15v-.36h.91v1h1.33Z"/><path class="cls-3" d="M36.36,71V67.26L32.2,69.14v-.92l1.1-.48a2.3,2.3,0,0,0-1.13-.94v-.23a2.48,2.48,0,0,1,.62-1.68,2.17,2.17,0,0,1,1.75-.73,2,2,0,0,1,1.82.89V63.28h.91v1h1.34v.79H37.27V72.2h-.91v-.1c0-.36-.16-.53-.47-.53a4.12,4.12,0,0,0-.82.16,5,5,0,0,1-1.15.16,1.71,1.71,0,0,1-1.24-.46,1.74,1.74,0,0,1-.46-1.26,2.47,2.47,0,0,1,.08-.63h.86a2.93,2.93,0,0,0-.06.58c0,.63.3.94.89.94a3.62,3.62,0,0,0,.92-.15,3.57,3.57,0,0,1,.88-.15A.78.78,0,0,1,36.36,71Zm-3.28-4.63a2.38,2.38,0,0,1,1,1l2.27-1a1.83,1.83,0,0,0-.54-1.05,1.61,1.61,0,0,0-1.14-.4,1.43,1.43,0,0,0-1.1.42A1.7,1.7,0,0,0,33.08,66.36Z"/><path class="cls-3" d="M41.8,65.07H40.46v6.82h-.91V65.07H38.21v-.79h1.34v-.39c0-1.62.89-2.43,2.69-2.43a10.92,10.92,0,0,1,3.13.52v.78a10.1,10.1,0,0,0-3.1-.51,1.88,1.88,0,0,0-1.41.42,1.66,1.66,0,0,0-.4,1.22v.39H41.8Z"/><path class="cls-3" d="M49.81,65.07H41.4v-.79h8.41Zm-1,3.11a3.88,3.88,0,0,1-.18,1.18,3.36,3.36,0,0,1-.53,1,2.44,2.44,0,0,1-1,.74,3.32,3.32,0,0,1-1.41.28,2.86,2.86,0,0,1-2.44-1.13,4.64,4.64,0,0,1-.85-2.85,8.23,8.23,0,0,1,.08-1.13h.9a7.08,7.08,0,0,0-.07,1.13,4,4,0,0,0,.61,2.28,2.22,2.22,0,0,0,3.38.22,2.66,2.66,0,0,0,.56-1.75,2.16,2.16,0,0,0-.25-1.08A.91.91,0,0,0,46.16,67a1.26,1.26,0,0,0-.24.79,4.06,4.06,0,0,0,.13.92H45.2a2.55,2.55,0,0,1-.18-1,1.92,1.92,0,0,1,.47-1.32,1.66,1.66,0,0,1,1.33-.53,1.73,1.73,0,0,1,1.43.67A2.59,2.59,0,0,1,48.78,68.18Z"/><path class="cls-3" d="M56.86,69a2.73,2.73,0,0,1-.7,2,2.53,2.53,0,0,1-1.93.75,2.56,2.56,0,0,1-2-.8,3,3,0,0,1-.73-2.11,4.24,4.24,0,0,1,0-.45,2,2,0,0,1-.81-.77,2.19,2.19,0,0,1-.29-1.11A1.87,1.87,0,0,1,51,65.07H49.41v-.79h4A2.18,2.18,0,0,1,53,63.09a1.26,1.26,0,0,1,.41-1,1.57,1.57,0,0,1,1.08-.37c.13,0,.34,0,.63.05v.79l-.44,0q-.78,0-.78.63a2.13,2.13,0,0,0,.46,1.1h3.53v.79h-3l.56.76c.27.37.49.69.66,1a4.89,4.89,0,0,1,.48,1A3.37,3.37,0,0,1,56.86,69Zm-5.51-2.54a1.33,1.33,0,0,0,.43,1,1.79,1.79,0,0,0,2.11.07l-2.43-1.68A1.48,1.48,0,0,0,51.35,66.46Zm1.53-1.39a1.78,1.78,0,0,0-1,.26L54.29,67a1.58,1.58,0,0,0,.11-.58,1.31,1.31,0,0,0-.43-1A1.59,1.59,0,0,0,52.88,65.07Zm1.35,5.81a1.59,1.59,0,0,0,1.28-.5A2.05,2.05,0,0,0,55.94,69a4,4,0,0,0-.75-2.19,2,2,0,0,1-.72,1.33,2.37,2.37,0,0,1-1.59.51l-.44,0v.16a2.26,2.26,0,0,0,.48,1.53A1.65,1.65,0,0,0,54.23,70.88Z"/><path class="cls-3" d="M61.07,65.07H59.73v6.82h-.91V66a1.28,1.28,0,0,0-.17-.71.67.67,0,0,0-.59-.25h-.58v-.79h.61a.87.87,0,0,1,.83.51,7.06,7.06,0,0,1-.09-1.15v-.36h.9v1h1.34Z"/><path class="cls-3" d="M66.53,71.89h-.91v0c-.25-2.48-1-3.72-2.12-3.72a1.12,1.12,0,0,0-.89.35,1.44,1.44,0,0,0-.31,1,3,3,0,0,0,0,.54h-.9a4,4,0,0,1-.06-.59,2.15,2.15,0,0,1,.55-1.52,1.94,1.94,0,0,1,1.5-.6A2.27,2.27,0,0,1,65.62,69v-3.9h-5v-.79h7.18v.79H66.53Z"/><path class="cls-3" d="M76.89,65.07H75.55v6.82h-.9l-3.71-2.84V68a9.82,9.82,0,0,1,1.77-1.29,7.06,7.06,0,0,1,1.94-.8v-.86H70.19v-.79h6.7Zm-2.24,5.75v-4a8.44,8.44,0,0,0-2.92,1.74Z"/><path class="cls-3" d="M80.62,65.07H76.49v-.79h4.13Zm-1.84,6.82h-1A3.77,3.77,0,0,0,78.45,70a5.08,5.08,0,0,0-.38-1.57,5.42,5.42,0,0,1-.38-1.56,2.44,2.44,0,0,1,.76-1.76h1a2.65,2.65,0,0,0-.58.77,2.1,2.1,0,0,0-.23,1A5.1,5.1,0,0,0,79,68.37,5.56,5.56,0,0,1,79.37,70,3.65,3.65,0,0,1,78.78,71.89Z"/><path class="cls-3" d="M86.83,65.07H85.49v6.82h-.9l-3.71-2.84V68a9.82,9.82,0,0,1,1.77-1.29,7.06,7.06,0,0,1,1.94-.8v-.86H80.14v-.79h6.69Zm-2.24,5.75v-4a8.4,8.4,0,0,0-2.91,1.74Z"/><path class="cls-3" d="M89,69.29a1.76,1.76,0,0,1,.39-1.15,1.71,1.71,0,0,1,1.09-.6,1.69,1.69,0,0,1-.82-.9,1.65,1.65,0,0,1-.57.76,1.55,1.55,0,0,1-1,.33,2.19,2.19,0,0,1-1-.23v-.82a2.09,2.09,0,0,0,.87.21,1,1,0,0,0,1-.43,2.84,2.84,0,0,0,.25-1.39H86.43v-.79h7.78v.79H93a5.51,5.51,0,0,1,.07.8,1.89,1.89,0,0,1-.37,1.22,1.61,1.61,0,0,1-1,.58,1.69,1.69,0,0,1,.82.64,1.76,1.76,0,0,1,.3,1c0,1-.59,1.64-1.76,1.84l1.79.58v.81l-3.6-1.17v-.79h1a2.43,2.43,0,0,0,1.27-.3,1.08,1.08,0,0,0,.44-1,1,1,0,0,0-.29-.76,1.09,1.09,0,0,0-.78-.28.94.94,0,0,0-.73.29,1,1,0,0,0-.26.76A3.21,3.21,0,0,0,90,70h-.84A1.85,1.85,0,0,1,89,69.29ZM91.26,67c.63,0,.95-.38.95-1.12a3.7,3.7,0,0,0-.07-.76h-2C90.12,66.32,90.5,67,91.26,67Z"/><path class="cls-3" d="M97.4,65.07H96.06v6.82h-.91V66a1.28,1.28,0,0,0-.17-.71.66.66,0,0,0-.59-.25h-.58v-.79h.62a.88.88,0,0,1,.83.51,6.08,6.08,0,0,1-.1-1.15v-.36h.9v1H97.4Z"/><path class="cls-3" d="M97.91,69l1.23-.75a2.23,2.23,0,0,0-1.32-1.12v-.5a2.54,2.54,0,0,1,.63-1.7,2.18,2.18,0,0,1,1.75-.74,2,2,0,0,1,1.82.89V63.28H103v1h1.32v.79H103v6.82H102V67.46L97.91,70Zm.81-2.36a2.32,2.32,0,0,1,1.12,1.19L102,66.48a1.85,1.85,0,0,0-.53-1.09,1.78,1.78,0,0,0-2.32,0A1.69,1.69,0,0,0,98.72,66.61Z"/><path class="cls-3" d="M109.74,71.89h-.92v0c-.25-2.48-1-3.72-2.12-3.72a1.15,1.15,0,0,0-.89.35,1.49,1.49,0,0,0-.3,1,4.39,4.39,0,0,0,0,.54h-.9a4,4,0,0,1-.06-.59,2.16,2.16,0,0,1,.56-1.52,1.94,1.94,0,0,1,1.49-.6A2.25,2.25,0,0,1,108.82,69v-3.9h-4.95v-.79h7.18v.79h-1.31Z"/><path class="cls-3" d="M114.24,65.07H112.9v6.82H112V66a1.28,1.28,0,0,0-.17-.71.67.67,0,0,0-.59-.25h-.58v-.79h.62a.88.88,0,0,1,.83.51,6.08,6.08,0,0,1-.1-1.15v-.36h.9v1h1.34Z"/><path class="cls-3" d="M122.59,71.89h-.92V69.34a1.42,1.42,0,0,0-.2-.77.7.7,0,0,0-.62-.3.81.81,0,0,0-.52.2,2.43,2.43,0,0,0-.45.5c-.13.19-.28.38-.43.58a1.92,1.92,0,0,1-.56.5,1.57,1.57,0,0,1-.79.2,2.2,2.2,0,0,1-.81-.16v-.81a2.38,2.38,0,0,0,.68.12.87.87,0,0,0,.57-.19,3,3,0,0,0,.54-.62,6.64,6.64,0,0,1,.42-.58,2.81,2.81,0,0,0-.69-1.6,1.92,1.92,0,0,0-1.46-.6v-.74h-.76v-.79h7.34v.79h-1.34Zm-1.89-4.46a1,1,0,0,1,1,.49V65.07h-3.39a2.69,2.69,0,0,1,1.32.92,3.39,3.39,0,0,1,.66,1.5A1.61,1.61,0,0,1,120.7,67.43Z"/><path class="cls-3" d="M132.58,68.55a2.18,2.18,0,0,1-.57,1.61,2,2,0,0,1-1.44.57l-.24,0v-.85h.16c.79,0,1.18-.44,1.18-1.31a1.59,1.59,0,0,0-.64-1.34,2.66,2.66,0,0,0-1.66-.49v5.17h-.92l-4-2v-1l2.13-1.58-2.12-1.5v-.69h-1v-.79h9.8v.79h-8.25l2.3,1.71v1l-2,1.56,3.11,1.63v-5h.92a3.55,3.55,0,0,1,2.31.74A2.34,2.34,0,0,1,132.58,68.55Z"/><path class="cls-3" d="M138.9,68.7a3.34,3.34,0,0,1-.76,2.19,2.48,2.48,0,0,1-2,.93,1.87,1.87,0,0,1-1.32-.49,1.73,1.73,0,0,1-.52-1.34V65.07h-1.34v-.79h5a3,3,0,0,0,.06-.59q0-.81-.75-.81a5.12,5.12,0,0,0-.95.14,4.85,4.85,0,0,1-1.08.15,2.54,2.54,0,0,1-1.19-.24v-.74a3.45,3.45,0,0,0,1.16.18,5.23,5.23,0,0,0,1-.15,5.2,5.2,0,0,1,1.05-.15,1.53,1.53,0,0,1,1.19.43,1.57,1.57,0,0,1,.39,1.09,4.39,4.39,0,0,1-.06.69h1.06v.79h-4.66V70a1,1,0,0,0,.25.75.9.9,0,0,0,.68.27,1.62,1.62,0,0,0,1.35-.69A2.57,2.57,0,0,0,138,68.7c0-.85-.47-1.27-1.4-1.27a2.77,2.77,0,0,0-.49,0v-.82a3.73,3.73,0,0,1,.6-.05,2.22,2.22,0,0,1,1.62.57A2,2,0,0,1,138.9,68.7Z"/><path class="cls-3" d="M146.27,69.59a1.89,1.89,0,0,1-.67,1.5,2.77,2.77,0,0,1-1.84.57,3,3,0,0,1-2.42-1,4.18,4.18,0,0,1-.91-2.82,4.64,4.64,0,0,1,.06-.71h.88a5.22,5.22,0,0,0,0,.67,3.55,3.55,0,0,0,.66,2.32,2.19,2.19,0,0,0,1.77.8,1.75,1.75,0,0,0,1.16-.36,1.24,1.24,0,0,0,.43-1q0-1.2-1.74-1.2h-.35v-.82h.35a1.33,1.33,0,0,0,1.07-.4,1.52,1.52,0,0,0,.35-1,1.21,1.21,0,0,0-.27-.82A1,1,0,0,0,144,65a1,1,0,0,0-.76.29,1.13,1.13,0,0,0-.27.79,3.63,3.63,0,0,0,.07.71h-.86A2.56,2.56,0,0,1,142,66a1.83,1.83,0,0,1,.5-1.31,1.88,1.88,0,0,1,1.42-.52,2,2,0,0,1,1.47.55,1.89,1.89,0,0,1,.54,1.37,2,2,0,0,1-.34,1.17,1.71,1.71,0,0,1-.89.66,1.73,1.73,0,0,1,1.09.48A1.58,1.58,0,0,1,146.27,69.59Z"/><path class="cls-3" d="M153.9,65.07h-1.34v6.82h-.92l-4-2v-1l2.13-1.58-2.12-1.5v-.69h-.95v-.79h7.19Zm-4.67,6.78a.58.58,0,0,1,.19.44.6.6,0,0,1-.18.44.62.62,0,0,1-.46.18.57.57,0,0,1-.44-.18.6.6,0,0,1-.17-.44.6.6,0,0,1,.18-.44.54.54,0,0,1,.43-.19A.58.58,0,0,1,149.23,71.85Zm1.33-5.07v1l-2,1.56,3.11,1.63V65.07h-3.38Z"/><path class="cls-3" d="M157.62,65.07h-4.13v-.79h4.13Zm-1.83,6.82h-1a3.79,3.79,0,0,0,.67-1.93,5.4,5.4,0,0,0-.38-1.57,5.1,5.1,0,0,1-.38-1.56,2.4,2.4,0,0,1,.76-1.76h1a2.51,2.51,0,0,0-.59.77,2.23,2.23,0,0,0-.23,1,5.42,5.42,0,0,0,.38,1.56,5.56,5.56,0,0,1,.38,1.59A3.73,3.73,0,0,1,155.79,71.89Z"/><path class="cls-3" d="M160.73,65.07h-1.34v6.82h-.91V66a1.28,1.28,0,0,0-.17-.71.67.67,0,0,0-.59-.25h-.58v-.79h.61a.87.87,0,0,1,.83.51,7.06,7.06,0,0,1-.09-1.15v-.36h.9v1h1.34Z"/><path class="cls-3" d="M167,65.07h-1.34v6.82h-.9l-3.71-2.84V68a9.82,9.82,0,0,1,1.77-1.29,7.06,7.06,0,0,1,1.94-.8v-.86h-4.45v-.79H167Zm-4.9,6a.61.61,0,0,1,.19.44.6.6,0,0,1-.19.44.61.61,0,0,1-.45.18.6.6,0,0,1-.45-.18.62.62,0,0,1-.17-.44.6.6,0,0,1,.18-.44.6.6,0,0,1,.44-.19A.65.65,0,0,1,162.12,71.09Zm2.66-.27v-4a8.4,8.4,0,0,0-2.91,1.74Z"/></g></g></svg>