<svg xmlns="http://www.w3.org/2000/svg" xmlns:xlink="http://www.w3.org/1999/xlink" viewBox="0 0 178.51 160.54"><defs><style>.cls-1,.cls-3{fill:none;}.cls-2{isolation:isolate;}.cls-3{stroke:#ed7b00;stroke-linecap:round;stroke-linejoin:round;stroke-width:5px;stroke-dasharray:0 12.05;}.cls-4{fill:#ff8154;}.cls-5{fill:#e3734a;}.cls-6{fill:#fff;}.cls-7{fill:#a6a6a6;}.cls-8{fill:#c7c7c7;}.cls-9{clip-path:url(#clip-path);}.cls-10{fill:#f2d29d;}.cls-11{fill:#e3c593;}.cls-12{fill:#edcd99;}.cls-13{fill:#ffdca4;}.cls-14{fill:#5e523d;}.cls-15{fill:#d6d6d6;}.cls-16{fill:#e0724a;}.cls-17{fill:#f0f0f0;}.cls-18{fill:#4b5669;}.cls-19{fill:#616f87;}.cls-20{fill:#bf613f;}.cls-21{opacity:0.07;mix-blend-mode:multiply;}.cls-22{fill:#ebebeb;}.cls-23{fill:#999;}.cls-24{fill:#0066cf;}.cls-25{fill:#fefefe;}.cls-26{fill:#99999b;}.cls-27{fill:#cc171e;}.cls-28{fill:#00aff2;}</style><clipPath id="clip-path"><path class="cls-1" d="M144.21,56.91A51.75,51.75,0,1,0,42,68.21a51.75,51.75,0,1,0,101,0A52,52,0,0,0,144.21,56.91Z"/></clipPath></defs><title>Asset 2</title><g class="cls-2"><g id="Layer_2" data-name="Layer 2"><g id="Layer_1-2" data-name="Layer 1"><circle class="cls-3" cx="92.47" cy="82.55" r="74.8"/><rect class="cls-4" x="58.28" y="143.14" width="68.39" height="17.4" rx="6.54" ry="6.54"/><path class="cls-5" d="M121.82,159.46H63.11a4.84,4.84,0,0,1-4.83-4.84v1.08a4.84,4.84,0,0,0,4.83,4.84h58.71a4.84,4.84,0,0,0,4.84-4.84v-1.08A4.84,4.84,0,0,1,121.82,159.46Z"/><path class="cls-6" d="M80.39,152.79a.8.8,0,0,0-.29-.63,2.59,2.59,0,0,0-1-.44,4.48,4.48,0,0,1-1.61-.73,1.46,1.46,0,0,1-.56-1.18,1.5,1.5,0,0,1,.62-1.24,2.51,2.51,0,0,1,1.61-.49,2.4,2.4,0,0,1,1.65.55,1.69,1.69,0,0,1,.6,1.33v0h-1a1,1,0,0,0-.32-.78,1.33,1.33,0,0,0-.93-.3,1.42,1.42,0,0,0-.88.25.8.8,0,0,0-.3.64.7.7,0,0,0,.33.59,3.63,3.63,0,0,0,1.1.44,3.65,3.65,0,0,1,1.53.75,1.59,1.59,0,0,1,.52,1.21A1.46,1.46,0,0,1,80.8,154a2.65,2.65,0,0,1-1.63.46,2.86,2.86,0,0,1-1.71-.52,1.62,1.62,0,0,1-.72-1.42v0h1a1,1,0,0,0,.4.84,1.69,1.69,0,0,0,1,.28,1.5,1.5,0,0,0,.9-.23A.73.73,0,0,0,80.39,152.79Z"/><path class="cls-6" d="M85.28,153.72a1.53,1.53,0,0,1-.56.57,1.5,1.5,0,0,1-.77.2,1.47,1.47,0,0,1-1.16-.48,2.15,2.15,0,0,1-.42-1.47v-2.77h1v2.78a1.39,1.39,0,0,0,.2.85.73.73,0,0,0,.6.24,1.34,1.34,0,0,0,.63-.13,1,1,0,0,0,.4-.39v-3.35h1v4.63h-.91Z"/><path class="cls-6" d="M91.41,152.24a2.65,2.65,0,0,1-.47,1.63,1.59,1.59,0,0,1-1.32.62,1.68,1.68,0,0,1-.7-.14,1.4,1.4,0,0,1-.52-.42v2.25h-1v-6.41h.87l.11.58a1.49,1.49,0,0,1,.53-.5,1.66,1.66,0,0,1,2.07.51,3.11,3.11,0,0,1,.47,1.79Zm-1-.09a2.21,2.21,0,0,0-.27-1.16.88.88,0,0,0-.8-.46,1.07,1.07,0,0,0-.55.14,1.12,1.12,0,0,0-.36.39v2.09a.92.92,0,0,0,.36.37,1.08,1.08,0,0,0,.56.13.88.88,0,0,0,.79-.39,1.76,1.76,0,0,0,.27-1Z"/><path class="cls-6" d="M96.38,152.24a2.59,2.59,0,0,1-.48,1.63,1.57,1.57,0,0,1-1.32.62,1.71,1.71,0,0,1-.7-.14,1.49,1.49,0,0,1-.52-.42v2.25h-1v-6.41h.88l.1.58a1.6,1.6,0,0,1,.54-.5,1.64,1.64,0,0,1,2.06.51,3,3,0,0,1,.48,1.79Zm-1-.09a2.21,2.21,0,0,0-.27-1.16.86.86,0,0,0-.79-.46,1.11,1.11,0,0,0-.56.14,1.12,1.12,0,0,0-.36.39v2.09a.92.92,0,0,0,.36.37,1.1,1.1,0,0,0,.56.13.9.9,0,0,0,.8-.39,1.84,1.84,0,0,0,.26-1Z"/><path class="cls-6" d="M97.09,152a2.49,2.49,0,0,1,.57-1.69,1.92,1.92,0,0,1,1.55-.67,1.9,1.9,0,0,1,1.56.67,2.49,2.49,0,0,1,.57,1.69v.09a2.48,2.48,0,0,1-.57,1.7,1.92,1.92,0,0,1-1.55.66,2,2,0,0,1-1.56-.66,2.51,2.51,0,0,1-.57-1.7Zm1,.09a2,2,0,0,0,.27,1.1,1,1,0,0,0,1.63,0,1.93,1.93,0,0,0,.28-1.1V152A1.92,1.92,0,0,0,100,151a1,1,0,0,0-1.63,0,2,2,0,0,0-.27,1.09Z"/><path class="cls-6" d="M104.56,150.71l-.45,0a.92.92,0,0,0-.51.13.79.79,0,0,0-.31.36v3.22h-1v-4.63h1l.07.67a1.49,1.49,0,0,1,.45-.56,1.08,1.08,0,0,1,.64-.2l.17,0,.15,0Z"/><path class="cls-6" d="M106.67,148.64v1.13h.83v.77h-.83v2.56a.57.57,0,0,0,.12.41.45.45,0,0,0,.33.12l.17,0,.15,0,.11.77a1.85,1.85,0,0,1-.31.11,1.64,1.64,0,0,1-.38,0,1.15,1.15,0,0,1-.9-.34,1.44,1.44,0,0,1-.33-1.05v-2.56h-.7v-.77h.7v-1.13Z"/><rect class="cls-7" x="17.09" y="108.17" width="17.58" height="29.97" rx="2.99" ry="2.99" transform="translate(-13.67 3.69) rotate(-6.45)"/><rect class="cls-6" x="16.93" y="106.8" width="17.58" height="29.97" rx="2.6" ry="2.6" transform="translate(-13.51 3.66) rotate(-6.45)"/><rect class="cls-8" x="18.04" y="110.33" width="15.36" height="22.9" transform="translate(-13.51 3.66) rotate(-6.45)"/><path class="cls-8" d="M28.37,134.86a1.16,1.16,0,1,1-1.29-1A1.17,1.17,0,0,1,28.37,134.86Z"/><g class="cls-9"><rect class="cls-10" x="77.88" y="65.39" width="29.19" height="33.55"/><path class="cls-11" d="M77.88,84.07a14.82,14.82,0,0,0,3.06,2.49l8.25,5a14.73,14.73,0,0,0,15.31,0L107.06,90V65.39H77.88Z"/><path class="cls-12" d="M74,69.4c-2.7-1-4.12-4-5.26-6.73a26.47,26.47,0,0,1-2.33-7.88,4.12,4.12,0,0,1,1-3.45A2.83,2.83,0,0,1,70,50.87a8.65,8.65,0,0,1,2.47,1.27C77.33,55.36,76.44,63.92,74,69.4Z"/><path class="cls-12" d="M112.26,68.87c2.7-1,4.12-4,5.26-6.73a26.45,26.45,0,0,0,2.32-7.88,4.15,4.15,0,0,0-1-3.45,2.85,2.85,0,0,0-2.62-.47,8.62,8.62,0,0,0-2.46,1.28C109,54.84,109.85,63.39,112.26,68.87Z"/><path class="cls-13" d="M108.17,81.84l-7.82,5a13.39,13.39,0,0,1-14.54,0l-7.82-5a14.93,14.93,0,0,1-6.73-12.6v-31H114.9v31A14.93,14.93,0,0,1,108.17,81.84Z"/><path class="cls-14" d="M114.33,62.2a55.58,55.58,0,0,0-2-10.61A69.69,69.69,0,0,1,78,40.54a33.71,33.71,0,0,1-3.27,14c-1.27,2.63-2.92,5.33-2.59,8.25-1.2-2.68-2.19-5.13-3.39-7.81a51.09,51.09,0,0,1-3.61-9.74,17.62,17.62,0,0,1,.47-10.3,12.22,12.22,0,0,1,8.7-7.44,20.6,20.6,0,0,1,12-9.43c4.85-1.41,10-1.3,15-.68,6,.76,12.46,2.61,16,7.77,2.5,3.63,3.13,8.33,3.1,12.81A51.73,51.73,0,0,1,114.33,62.2Z"/><path class="cls-15" d="M92.47,96.73,77.9,89l-4.2,3.87-11.7,5a26.6,26.6,0,0,0-14.7,15.87L45,130.92H92.47Z"/><path class="cls-15" d="M92.47,96.73,107,89l4.2,3.87,11.7,5a26.63,26.63,0,0,1,14.7,15.87L140,130.92H92.47Z"/><polygon class="cls-16" points="92.47 99.86 85.29 126.75 86.72 130.92 98.22 130.92 99.66 126.7 92.47 99.86"/><path class="cls-4" d="M88.84,104.22h0a4.19,4.19,0,0,1,3.63-6.28h0a4.19,4.19,0,0,1,3.63,6.28h0A4.19,4.19,0,0,1,88.84,104.22Z"/><polygon class="cls-17" points="111.24 92.86 115.99 94.89 105.75 115.44 92.47 96.73 107.04 88.99 111.24 92.86"/><path class="cls-18" d="M140,130.92H98.22l13-38.06,11.7,5a26.63,26.63,0,0,1,14.7,15.87Z"/><path class="cls-19" d="M122.35,97.62c-5.2,5-10.15,9.75-10.15,9.75l4.52,4.52-12.75,19H98.22l13-38.06Z"/><polygon class="cls-17" points="73.7 92.86 68.95 94.89 79.19 115.44 92.47 96.73 77.89 88.99 73.7 92.86"/><path class="cls-18" d="M45,130.92H86.72l-13-38.06-11.7,5a26.6,26.6,0,0,0-14.7,15.87Z"/><path class="cls-19" d="M62.59,97.62c5.2,5,10.14,9.75,10.14,9.75l-4.51,4.52,12.75,19h5.75l-13-38.06Z"/><path class="cls-20" d="M67.92,68.87H64.69v-19a28.39,28.39,0,1,1,56.78,0V68.1h-3.22V49.89a25.17,25.17,0,1,0-50.33,0Z"/><path class="cls-4" d="M66.4,49.82h0a0,0,0,0,1,0,0V69.26a0,0,0,0,1,0,0h0a5.86,5.86,0,0,1-5.86-5.86V55.68A5.86,5.86,0,0,1,66.4,49.82Z"/><rect class="cls-20" x="66.4" y="48.27" width="4.74" height="22.55" rx="2.37" ry="2.37"/><path class="cls-20" d="M96.12,85.27a1.61,1.61,0,0,1-.46-3.16l5.81-1.76a26.1,26.1,0,0,0,17.36-17.21,1.61,1.61,0,0,1,3.08,1,29.38,29.38,0,0,1-19.5,19.33L96.59,85.2A1.49,1.49,0,0,1,96.12,85.27Z"/><path class="cls-4" d="M125.67,49.82h0a0,0,0,0,1,0,0V69.26a0,0,0,0,1,0,0h0a5.86,5.86,0,0,1-5.86-5.86V55.68A5.86,5.86,0,0,1,125.67,49.82Z" transform="translate(245.48 119.09) rotate(180)"/><rect class="cls-20" x="115.07" y="48.27" width="4.74" height="22.55" rx="2.37" ry="2.37" transform="translate(234.88 119.09) rotate(-180)"/><path class="cls-21" d="M122.94,97.87l-.59-.25-11.11-4.76L107.06,89V82.55l1.11-.71a14.29,14.29,0,0,0,3.41-3.07,29.33,29.33,0,0,0,7.29-8,1.32,1.32,0,0,0,.94-1.27v-.23h0a5.86,5.86,0,0,0,5.86-5.85V55.68a5.85,5.85,0,0,0-4.2-5.61v-.18a28.06,28.06,0,0,0-1.25-8.34c.09-1.2.14-2.41.15-3.62,0-4.48-.6-9.18-3.1-12.81-3.55-5.16-10-7-16-7.77A47,47,0,0,0,92.47,17V130.92H140l-2.35-17.18A26.63,26.63,0,0,0,122.94,97.87Zm-8-28.63V66.93l.17-.21v2.77a1.3,1.3,0,0,0,.27.79l-.54.74A17.53,17.53,0,0,0,114.9,69.24Z"/></g><circle class="cls-22" cx="154.72" cy="43.78" r="14.48" transform="translate(99.01 194.61) rotate(-85.53)"/><circle class="cls-6" cx="154.72" cy="43.78" r="12.09" transform="translate(77.3 184.71) rotate(-77.02)"/><path class="cls-23" d="M145.49,41.55v0L144,41.13l0,0c-.09.4-.16.79-.21,1.19l1.55.38A9.56,9.56,0,0,1,145.49,41.55Z"/><path class="cls-23" d="M164,46a10.28,10.28,0,0,1-.36,1.15l1.56.38a10.9,10.9,0,0,0,.34-1.15v0L164,46Z"/><path class="cls-23" d="M156.68,32.87l-.38,1.55.65.13.57.16.37-1.55-.56-.16Z"/><path class="cls-23" d="M152.68,54.68l.38-1.55-.57-.12c-.22,0-.43-.12-.64-.18l-.37,1.55.63.17Z"/><path class="cls-23" d="M150.44,42.65a1.93,1.93,0,0,1-.83,1.21,1.78,1.78,0,0,1-1.44.21,1.72,1.72,0,0,1-1.16-.84,1.94,1.94,0,0,1-.17-1.45L147,41a1.92,1.92,0,0,1,.82-1.21,1.69,1.69,0,0,1,1.41-.22,1.79,1.79,0,0,1,1.19.85,1.9,1.9,0,0,1,.18,1.45Zm-.54-1a1.38,1.38,0,0,0-.08-1,1,1,0,0,0-.71-.55,1,1,0,0,0-.85.17,1.42,1.42,0,0,0-.49.83l-.2.8a1.47,1.47,0,0,0,.06,1,1,1,0,0,0,.68.54,1,1,0,0,0,.89-.16,1.44,1.44,0,0,0,.51-.84Z"/><path class="cls-23" d="M150.94,44.68,151.6,42l-.5-.12.13-.54.5.12.1-.38a1.16,1.16,0,0,1,.49-.77,1.22,1.22,0,0,1,.9-.09l.21.07a1.58,1.58,0,0,1,.23.11l-.21.55-.13-.06-.16-.05a.5.5,0,0,0-.39.05.64.64,0,0,0-.21.36l-.09.39.66.16-.13.54-.66-.16-.66,2.72Z"/><path class="cls-23" d="M153.11,45.2l.66-2.72-.5-.12.14-.55.49.12.1-.38a1,1,0,0,1,1.39-.85.86.86,0,0,1,.21.07,1.46,1.46,0,0,1,.23.1l-.21.55-.13-.05-.15,0a.49.49,0,0,0-.4,0,.58.58,0,0,0-.21.36l-.09.38.66.16-.13.55-.66-.17-.66,2.73Z"/><path class="cls-23" d="M155.83,45.86l-.73-.18.79-3.27.73.18Zm1-4.07-.73-.18.16-.64.73.18Z"/><path class="cls-23" d="M158.13,45.86a.68.68,0,0,0,.49,0,.5.5,0,0,0,.28-.35l.66.16v0a1,1,0,0,1-.57.7,1.4,1.4,0,0,1-1,.11,1.38,1.38,0,0,1-1-.74,1.87,1.87,0,0,1-.1-1.27l0-.1a1.78,1.78,0,0,1,.67-1.09,1.41,1.41,0,0,1,1.22-.19,1.35,1.35,0,0,1,.87.57,1.12,1.12,0,0,1,.14,1h0l-.66-.16a.67.67,0,0,0-.07-.5.66.66,0,0,0-.42-.3.64.64,0,0,0-.65.16,1.45,1.45,0,0,0-.36.71l0,.11a1.56,1.56,0,0,0,0,.8A.65.65,0,0,0,158.13,45.86Z"/><path class="cls-23" d="M161.28,47.24a1.44,1.44,0,0,1-1-.72,1.69,1.69,0,0,1-.13-1.26l0-.13a1.77,1.77,0,0,1,.69-1.08,1.46,1.46,0,0,1,2.06.43,1.61,1.61,0,0,1,.09,1.16l-.1.43-2-.49h0a1.06,1.06,0,0,0,.07.69.73.73,0,0,0,.52.39,1.69,1.69,0,0,0,.53,0,2,2,0,0,0,.46-.11l.11.54a1.38,1.38,0,0,1-.55.15A1.93,1.93,0,0,1,161.28,47.24Zm.6-2.82a.57.57,0,0,0-.5.11A1.07,1.07,0,0,0,161,45v0l1.3.32,0-.08a.84.84,0,0,0,0-.55A.62.62,0,0,0,161.88,44.42Z"/><path class="cls-23" d="M151.44,47.76l-.39-.1.24-1-1-.25-.24,1-.39-.09.57-2.32.38.09-.24,1,1,.25.24-1,.39.09Z"/><path class="cls-23" d="M152,47a1,1,0,0,1,.36-.58.75.75,0,0,1,.64-.11.73.73,0,0,1,.52.39,1,1,0,0,1,.06.68v0a.94.94,0,0,1-.36.58.74.74,0,0,1-.64.1.7.7,0,0,1-.52-.38A1,1,0,0,1,152,47Zm.38.13a.78.78,0,0,0,0,.43.34.34,0,0,0,.27.23.33.33,0,0,0,.34-.08.8.8,0,0,0,.2-.39v0a.77.77,0,0,0,0-.43.37.37,0,0,0-.27-.24.36.36,0,0,0-.34.09.8.8,0,0,0-.19.38Z"/><path class="cls-23" d="M154.88,48.32a.56.56,0,0,1-.25.16.54.54,0,0,1-.31,0,.61.61,0,0,1-.39-.28.83.83,0,0,1,0-.59l.25-1,.38.09-.25,1a.54.54,0,0,0,0,.34.29.29,0,0,0,.2.15.53.53,0,0,0,.25,0,.34.34,0,0,0,.18-.11l.3-1.24.39.09-.42,1.72-.34-.08Z"/><path class="cls-23" d="M156.79,47.59l-.17,0a.34.34,0,0,0-.2,0,.48.48,0,0,0-.15.11l-.29,1.2-.38-.1L156,47l.36.08,0,.26a.69.69,0,0,1,.22-.17.46.46,0,0,1,.26,0l.06,0,0,0Z"/><path class="cls-23" d="M157.81,48.8a.22.22,0,0,0,0-.17,1,1,0,0,0-.26-.17,1,1,0,0,1-.42-.3.36.36,0,0,1-.08-.36.45.45,0,0,1,.27-.33.82.82,0,0,1,.52,0,.81.81,0,0,1,.46.28.49.49,0,0,1,.09.43h0l-.37-.09a.21.21,0,0,0,0-.2.29.29,0,0,0-.2-.13.3.3,0,0,0-.23,0,.18.18,0,0,0-.11.13.21.21,0,0,0,0,.16,1,1,0,0,0,.26.17,1.15,1.15,0,0,1,.44.3.41.41,0,0,1,.08.37.46.46,0,0,1-.29.33.81.81,0,0,1-.54,0,.86.86,0,0,1-.49-.3.52.52,0,0,1-.09-.44h0l.36.08a.29.29,0,0,0,.05.25.55.55,0,0,0,.24.13.48.48,0,0,0,.24,0A.19.19,0,0,0,157.81,48.8Z"/><path class="cls-6" d="M174.83,95.06,149.67,97a1.19,1.19,0,0,0-1.09,1.28l1.91,25.16a1.19,1.19,0,0,0,1.28,1.1l25.16-1.91a1.19,1.19,0,0,0,1.09-1.28l-1.91-25.16A1.19,1.19,0,0,0,174.83,95.06Z"/><path class="cls-24" d="M177.32,94.79H152.09A1.19,1.19,0,0,0,150.9,96v25.23a1.19,1.19,0,0,0,1.19,1.2h25.23a1.19,1.19,0,0,0,1.19-1.2V96A1.19,1.19,0,0,0,177.32,94.79ZM164.7,120.26a11.66,11.66,0,1,1,11.66-11.66A11.67,11.67,0,0,1,164.7,120.26Z"/><polygon class="cls-24" points="168.25 107.14 161.15 107.14 161.79 104.23 155.96 108.6 161.79 112.97 161.15 110.06 168.25 110.06 167.62 112.97 173.44 108.6 167.62 104.23 168.25 107.14"/><path class="cls-6" d="M51.78,27a3.53,3.53,0,0,1-2.54-1l-9.79-9.31a3.56,3.56,0,0,1-.12-5l9.3-9.79a3.57,3.57,0,0,1,5-.13l9.79,9.31a3.55,3.55,0,0,1,.13,5l-9.3,9.79A3.55,3.55,0,0,1,51.78,27Z"/><path class="cls-6" d="M59.58,25.84a3.28,3.28,0,0,1-2.35-.91l-9-8.6a3.23,3.23,0,0,1-1-2.3,3.28,3.28,0,0,1,.9-2.35l8.6-9a3.3,3.3,0,0,1,4.66-.12l9.05,8.6a3.25,3.25,0,0,1,1,2.3,3.28,3.28,0,0,1-.9,2.36l-8.6,9.05A3.32,3.32,0,0,1,59.58,25.84Z"/><path class="cls-25" d="M31.54,65.8A14.42,14.42,0,0,0,12.93,54.22a14.87,14.87,0,0,0-2.1.85A8.72,8.72,0,0,0,.41,66.16a8.75,8.75,0,0,0,2.62,4,15.88,15.88,0,0,0,.51,2.2,14.42,14.42,0,0,0,18.11,9.38,13.25,13.25,0,0,0,2.09-.85,8.72,8.72,0,0,0,7.8-15.06Z"/><path class="cls-26" d="M51.24,26.22a3.51,3.51,0,0,1-2.51-1l-9.55-9.54a3.57,3.57,0,0,1,0-5L48.73,1a3.55,3.55,0,0,1,5,0l9.55,9.55a3.57,3.57,0,0,1,0,5l-9.55,9.54A3.52,3.52,0,0,1,51.24,26.22Zm0-25a2.35,2.35,0,0,0-1.65.68L40,11.45a2.35,2.35,0,0,0,0,3.31l9.55,9.55a2.35,2.35,0,0,0,3.31,0l9.55-9.55a2.35,2.35,0,0,0,0-3.31L52.9,1.9A2.37,2.37,0,0,0,51.24,1.22Z"/><path class="cls-27" d="M59.07,25.23a3.29,3.29,0,0,1-2.33-1l-8.83-8.83a3.31,3.31,0,0,1,0-4.66L56.74,2A3.31,3.31,0,0,1,61.4,2l8.83,8.83a3.31,3.31,0,0,1,0,4.66L61.4,24.26A3.26,3.26,0,0,1,59.07,25.23Z"/><path class="cls-28" d="M34,66.09a13.82,13.82,0,0,0,.18-2.24A14.43,14.43,0,0,0,19.8,49.42a15.07,15.07,0,0,0-2.25.18,8.72,8.72,0,0,0-12,12,15.08,15.08,0,0,0-.17,2.25A14.41,14.41,0,0,0,19.8,78.26a14,14,0,0,0,2.25-.17,8.72,8.72,0,0,0,12-12Zm-7.4,4.31A5.93,5.93,0,0,1,24,72.46a10.61,10.61,0,0,1-4.17.74,9.93,9.93,0,0,1-4.76-1,6.27,6.27,0,0,1-2.17-2A4.23,4.23,0,0,1,12,67.85a1.59,1.59,0,0,1,.52-1.18,1.8,1.8,0,0,1,1.31-.49,1.62,1.62,0,0,1,1.09.39,2.78,2.78,0,0,1,.75,1.11,6.91,6.91,0,0,0,.79,1.42,3.15,3.15,0,0,0,1.19.93,4.73,4.73,0,0,0,2,.37,4.82,4.82,0,0,0,2.79-.74,2.15,2.15,0,0,0,1.06-1.83A1.83,1.83,0,0,0,23,66.42a3.81,3.81,0,0,0-1.5-.83A24.87,24.87,0,0,0,19,65,19,19,0,0,1,15.5,63.9a5.67,5.67,0,0,1-2.26-1.68,4.13,4.13,0,0,1-.84-2.64,4.29,4.29,0,0,1,.89-2.67,5.56,5.56,0,0,1,2.55-1.8,11.3,11.3,0,0,1,3.91-.62,10.28,10.28,0,0,1,3.11.41A6.86,6.86,0,0,1,25,56a4.82,4.82,0,0,1,1.27,1.45,3.18,3.18,0,0,1,.4,1.49,1.74,1.74,0,0,1-.51,1.22,1.71,1.71,0,0,1-1.28.54,1.57,1.57,0,0,1-1.07-.33,4.49,4.49,0,0,1-.78-1,4.46,4.46,0,0,0-1.25-1.57,3.83,3.83,0,0,0-2.34-.56,4.32,4.32,0,0,0-2.41.61,1.71,1.71,0,0,0-.9,1.44,1.39,1.39,0,0,0,.3.89,2.52,2.52,0,0,0,.85.65,5.69,5.69,0,0,0,1.11.44c.38.11,1,.26,1.88.47,1.09.23,2.08.5,3,.78a9.57,9.57,0,0,1,2.27,1.05A4.39,4.39,0,0,1,27,65.11a4.74,4.74,0,0,1,.53,2.32,5.05,5.05,0,0,1-.92,3Z"/></g></g></g></svg>