<svg xmlns="http://www.w3.org/2000/svg" viewBox="0 0 163.11 160.58"><defs><style>.cls-1{fill:#dcaa00;}.cls-2{fill:#ffdab9;}.cls-3{fill:#f5c8aa;}.cls-4{fill:#ffe4c3;}.cls-5{fill:#131314;}.cls-6{fill:#464646;}.cls-7{fill:#e6b400;}.cls-8{fill:#323232;}.cls-9{fill:#787878;}.cls-10{fill:#285a00;}.cls-11{fill:#005a78;}.cls-12{fill:#d24600;}.cls-13{fill:#326400;}.cls-14{fill:#e6e6e6;}.cls-15{fill:#fed9ae;}.cls-16{fill:#643200;}.cls-17{fill:#c83200;}.cls-18{fill:#dc5000;}.cls-19{fill:#e65a00;}.cls-20{fill:#006e8c;}.cls-21{fill:#505050;}.cls-22{fill:#b4b4b4;}.cls-23{fill:#ed7433;}</style></defs><title>Asset 3</title><g id="Layer_2" data-name="Layer 2"><g id="Layer_1-2" data-name="Layer 1"><polygon class="cls-1" points="157.28 87.08 124.9 87.08 124.9 39.71 140.87 35.13 157.28 39.71 157.28 87.08"/><path class="cls-2" d="M147.24,37a7.38,7.38,0,0,1-6.08,3.53A7.57,7.57,0,0,1,134.92,37V26.8h12.32Z"/><path class="cls-3" d="M134.92,34.41a9.69,9.69,0,0,0,12.32,0V26.8H134.92Z"/><path class="cls-2" d="M141.09,35.14c1.13,0,10.26-.44,11.4-13.68,1.23-14.2-2.72-18.68-11.4-18.68s-12.62,4.48-11.4,18.68C130.83,34.7,140,35.14,141.09,35.14Z"/><path class="cls-4" d="M141.09,35.14c1.13,0,10.26-.44,11.4-13.68,1.23-14.2-2.72-18.68-11.4-18.68V35.14Z"/><path class="cls-5" d="M141.09,7c4.58,0,9.23,3.74,9.23,3.74l.81,10.13h.44c.46-3.35,2.57-3.37,2.57-3.37,4.14-16-7.57-17.54-13-17.54s-17.19,1.54-13,17.54c0,0,2.1,0,2.56,3.37h.44l.81-10.13S136.51,7,141.09,7Z"/><rect class="cls-6" x="124.9" y="87.08" width="32.38" height="13.23"/><rect class="cls-6" x="124.9" y="100.31" width="14.31" height="60.27"/><rect class="cls-6" x="142.97" y="100.31" width="14.31" height="60.27"/><path class="cls-2" d="M129.87,85.07c2,3,2,6.56-.12,8s-5.49.22-7.53-2.76-2-6.56.12-8S127.83,82.1,129.87,85.07Z"/><rect class="cls-1" x="106.37" y="47.99" width="27.28" height="11.35" transform="translate(-0.17 106.96) rotate(-48)"/><rect class="cls-1" x="112.57" y="64.16" width="10" height="25.11" transform="translate(-22.46 86.7) rotate(-37.2)"/><path class="cls-1" d="M106.67,60a7.77,7.77,0,0,0-.68,9.73c1.75,2.3,8.45-2.13,8.45-2.13l.72-5.59Z"/><path class="cls-2" d="M153.55,32.94c1.72,3.18,1.27,6.74-1,8s-5.48-.37-7.19-3.54-1.26-6.74,1-8S151.84,29.76,153.55,32.94Z"/><rect class="cls-1" x="148.92" y="40.63" width="11.36" height="27.28" transform="translate(-8 34.09) rotate(-12.27)"/><path class="cls-7" d="M163.05,66.46c.44,2.1-1.7,4.32-4.77,5s-5.91-.56-6.35-2.66,1.71-4.31,4.78-5S162.62,64.36,163.05,66.46Z"/><rect class="cls-7" x="148.63" y="38.01" width="10" height="30.07" transform="translate(-7.8 34.16) rotate(-12.38)"/><path class="cls-8" d="M139.23,160.58v0c0-2.82-3.18-5.1-7.1-5.1s-7.09,2.28-7.09,5.1v0Z"/><path class="cls-8" d="M157.21,160.58v0c0-2.82-3.17-5.1-7.09-5.1s-7.09,2.28-7.09,5.1v0Z"/><rect class="cls-6" x="35.35" y="89.52" width="14.31" height="31.74" transform="translate(-34.22 21.56) rotate(-20.5)"/><rect class="cls-9" x="124.53" y="101.65" width="3.5" height="58.93"/><rect class="cls-9" x="9.12" y="101.65" width="3.51" height="58.93"/><rect class="cls-10" x="78.06" y="85.23" width="10" height="25.11" transform="translate(-3.14 2.76) rotate(-1.87)"/><path class="cls-11" d="M117.7,105.6v9.12c0,3.42-1,8.42-6.4,8.42H73.83L73,110.25l11.15-2.64v-2Z"/><rect class="cls-12" x="57.92" y="37.5" width="11.44" height="41.02" transform="translate(-11.87 16.62) rotate(-13.62)"/><rect class="cls-10" x="72.71" y="67.75" width="27.28" height="11.35" transform="translate(-5.19 140.27) rotate(-76.51)"/><polygon class="cls-13" points="84.11 105.6 117.65 105.6 117.65 58.87 101.11 54.34 84.11 58.87 84.11 105.6"/><rect class="cls-6" x="18.28" y="87.08" width="32.38" height="13.23"/><path class="cls-14" d="M35.4,95.06a1.37,1.37,0,0,1,0-.19c0-2.89,3.23-5.23,7.21-5.23s7.2,2.34,7.2,5.23c0,.06,0,.12,0,.19Z"/><rect class="cls-6" x="18.28" y="100.31" width="14.31" height="60.27"/><path class="cls-15" d="M106,95.57c-5.09.38-9.33-1.36-9.48-3.91s3.85-4.91,8.93-5.29,9.33,1.36,9.49,3.91S111.11,95.19,106,95.57Z"/><polygon class="cls-16" points="85.34 160.58 88.54 160.58 94.38 127.47 91.18 126.9 85.34 160.58"/><polygon class="cls-16" points="118.66 160.58 115.46 160.58 109.62 127.47 112.82 126.9 118.66 160.58"/><rect class="cls-16" x="91.39" y="131.7" width="20.7" height="2.8"/><rect class="cls-17" x="85.05" y="122.31" width="33.6" height="5.7" rx="2.1" ry="2.1"/><polygon class="cls-18" points="18.28 87.08 56.04 87.08 64.45 36.77 45.81 31.2 30.75 34.15 26.39 36.03 18.28 87.08"/><path class="cls-19" d="M34.45,41.27A5.82,5.82,0,0,1,34,43.51l-.36.68L18.06,74.25,7.9,69,23.43,39s0-.08.07-.12l.28-.56a5.73,5.73,0,0,1,10.67,2.92Z"/><rect class="cls-17" x="78.74" y="122.31" width="25.2" height="5.7"/><rect class="cls-20" x="83.69" y="115.34" width="13.42" height="45.16"/><rect class="cls-20" x="67.12" y="115.34" width="13.41" height="45.16"/><path class="cls-20" d="M83.69,115.34c0,2.83,3,5.12,6.72,5.12s6.7-2.29,6.7-5.12-3-5.13-6.7-5.13S83.69,112.5,83.69,115.34Z"/><path class="cls-20" d="M67.12,115.34c0,2.83,3,5.12,6.71,5.12s6.71-2.29,6.71-5.12-3-5.13-6.71-5.13S67.12,112.5,67.12,115.34Z"/><path class="cls-8" d="M65,160.58v0c0-2.67,3-4.82,6.71-4.82s6.7,2.15,6.7,4.82v0Z"/><polygon class="cls-8" points="80.54 157.56 76.94 157.56 77.32 160.58 80.54 160.58 80.54 157.56"/><path class="cls-8" d="M81.54,160.58v0c0-2.67,3-4.82,6.71-4.82S95,157.88,95,160.55v0Z"/><polygon class="cls-8" points="97.11 157.56 93.51 157.56 93.9 160.58 97.11 160.58 97.11 157.56"/><path class="cls-2" d="M93.43,56a7.37,7.37,0,0,0,6.08,3.52A7.6,7.6,0,0,0,105.76,56V45.76H93.43Z"/><path class="cls-3" d="M105.76,53.37a9.67,9.67,0,0,1-12.33,0V45.76h12.33Z"/><path class="cls-2" d="M99.58,54.11c-1.13,0-10.26-.44-11.4-13.68C87,26.22,90.9,21.75,99.58,21.75s12.63,4.47,11.4,18.68C109.84,53.67,100.71,54.11,99.58,54.11Z"/><rect class="cls-19" x="17.21" y="65.5" width="10.43" height="28.94" transform="translate(-49.95 39.23) rotate(-44.96)"/><path class="cls-15" d="M30.65,95h9.49c3.65-1.07,6.16-3.15,5.93-5.2-.29-2.54-4.62-4.05-9.68-3.4s-8.92,3.24-8.64,5.77C27.89,93.38,29,94.37,30.65,95Z"/><path class="cls-5" d="M99.58,26c-4.58,0-9.23,3.75-9.23,3.75l-.81,10.13h-.43c-.47-3.36-2.57-3.38-2.57-3.38C82.4,20.5,94.1,19,99.58,19s17.19,1.54,13,17.54c0,0-2.11,0-2.57,3.38h-.44l-.81-10.13S104.16,26,99.58,26Z"/><rect class="cls-21" x="31.17" y="50.47" width="60.64" height="39"/><rect class="cls-9" x="58.67" y="74.54" width="5.66" height="20.26"/><rect class="cls-9" x="55.6" y="66.1" width="11.8" height="9.58"/><rect class="cls-9" x="52.13" y="92.18" width="18.72" height="2.8"/><rect class="cls-13" x="115.62" y="59.41" width="11.36" height="31.52" transform="translate(-21.39 77.32) rotate(-32.65)"/><rect class="cls-13" x="108.66" y="85.98" width="23.02" height="9.01" transform="translate(-0.52 0.69) rotate(-0.33)"/><path class="cls-13" d="M134.58,85.37c2.8,4.22,1.49,9.56-2.87,9.56s-6.48-6.48-6.48-6.48V84.51Z"/><rect class="cls-22" y="94.99" width="137.15" height="6.66"/><path class="cls-2" d="M43.28,40.69a7.35,7.35,0,0,0,6.07,3.52,7.6,7.6,0,0,0,6.25-3.52V30.48H43.28Z"/><path class="cls-3" d="M55.6,38.09a10.68,10.68,0,0,1-6.18,2.22,10.63,10.63,0,0,1-6.14-2.2V30.48H55.6Z"/><path class="cls-2" d="M49.42,38.82c-1.13,0-10.26-.44-11.4-13.68C36.8,10.93,40.74,6.46,49.42,6.46s12.63,4.47,11.4,18.68C59.68,38.38,50.55,38.82,49.42,38.82Z"/><path class="cls-2" d="M38.61,28.69h0a24.71,24.71,0,0,1-.56-3.55c-.09-1.08-.14-2.09-.18-3.06l0-.12"/><path class="cls-5" d="M49.42,10.71c-4.58,0-9.22,3.75-9.22,3.75l-.82,10.13H39c-.47-3.35-2.57-3.37-2.57-3.37-4.14-16,7.56-17.54,13-17.54s17.19,1.54,13,17.54c0,0-2.11,0-2.57,3.37h-.43l-.82-10.13S54,10.71,49.42,10.71Z"/><path class="cls-19" d="M7.9,69a3.52,3.52,0,0,0,.61,4.45l5.4-.71.26-5.26Z"/><path class="cls-8" d="M32.6,160.58s0,0,0,0c0-2.82-3.18-5.1-7.09-5.1s-7.1,2.28-7.1,5.1v0Z"/><rect class="cls-6" x="41.37" y="122.31" width="14.31" height="38.27"/><path class="cls-8" d="M55.62,160.58v0c0-2.82-3.18-5.1-7.1-5.1s-7.09,2.28-7.09,5.1v0Z"/><path class="cls-6" d="M54.77,117.75a33,33,0,0,1,.91,4.56l-5,3.72-8.15-1.93-.63-3.64Z"/><path class="cls-19" d="M34.45,41.27A5.82,5.82,0,0,1,34,43.51l-.36.68A5.69,5.69,0,0,1,28.72,47a5.75,5.75,0,0,1-5.29-8s0-.08.07-.12l.28-.56a5.73,5.73,0,0,1,10.67,2.92Z"/><path class="cls-23" d="M110.51,74.66h-1.8a.1.1,0,0,0-.09,0,1.64,1.64,0,0,1-.48.31,2.52,2.52,0,0,1-.65.18,2.3,2.3,0,0,1-.52,0,2.2,2.2,0,0,1-.57-.1,2.27,2.27,0,0,1-.54-.27,1.74,1.74,0,0,1-.61-.78s0,0,0,0h5.37c.07,0,.07,0,.08-.07s0-.16,0-.24a2.43,2.43,0,0,0,0-.6A3.3,3.3,0,0,0,110.5,72a3.46,3.46,0,0,0-.49-.77,3.36,3.36,0,0,0-.85-.74,3.76,3.76,0,0,0-.91-.42,4.13,4.13,0,0,0-.61-.13,3.46,3.46,0,0,0-.56,0h0a3.17,3.17,0,0,0-.53,0l-.27.05-.41.12c-.08,0-.09,0-.12,0-.12-.23-.24-.46-.35-.69l-.12-.23a.33.33,0,0,1,0-.06l.12,0c.2-.06.39-.12.59-.16l.42-.06a4.94,4.94,0,0,1,.94,0l.35,0,.31,0,.42.09a1.89,1.89,0,0,1,.34.09,4.88,4.88,0,0,1,.89.36,4.81,4.81,0,0,1,.86.58,4.72,4.72,0,0,1,.84.89,4.08,4.08,0,0,1,.56,1.1c0,.16.1.32.14.49s0,.24,0,.36a2.42,2.42,0,0,1,0,.46,1.76,1.76,0,0,1,0,.23l0,.28a3.21,3.21,0,0,1-.07.43,4.24,4.24,0,0,1-.35,1,4.88,4.88,0,0,1-.6.88,4.07,4.07,0,0,1-.41.42,4.72,4.72,0,0,1-.8.59l-.31.17-.06,0-.51-1,0,0a4.13,4.13,0,0,0,.74-.49,2.91,2.91,0,0,0,.8-1S110.5,74.69,110.51,74.66Z"/><path class="cls-23" d="M109.05,72.63h-3.83l0-.08a1.58,1.58,0,0,1,.24-.39,2.14,2.14,0,0,1,.58-.46,2.45,2.45,0,0,1,.64-.23,3.52,3.52,0,0,1,.56,0,2.19,2.19,0,0,1,.8.2,2,2,0,0,1,.74.57,1.79,1.79,0,0,1,.22.38S109,72.61,109.05,72.63Z"/></g></g></svg>