<svg xmlns="http://www.w3.org/2000/svg" viewBox="0 0 34.51 28.54"><defs><style>.cls-1{fill:#fff;}</style></defs><title>Asset 38</title><g id="Layer_2" data-name="Layer 2"><g id="Layer_1-2" data-name="Layer 1"><rect class="cls-1" y="16.15" width="8.3" height="4.2"/><rect class="cls-1" y="9.95" width="8.3" height="4.2"/><rect class="cls-1" x="10.29" y="9.95" width="6.3" height="4.2"/><rect class="cls-1" x="10.29" y="16.15" width="6.3" height="4.2"/><rect class="cls-1" x="26.88" y="16.15" width="7.63" height="4.2"/><path class="cls-1" d="M34.51,8V3a3,3,0,0,0-3-3H3A3,3,0,0,0,0,3V8Z"/><rect class="cls-1" x="26.88" y="9.95" width="7.63" height="4.2"/><path class="cls-1" d="M8.3,22.34H0v3.21a3,3,0,0,0,3,3H8.3Z"/><rect class="cls-1" x="18.58" y="9.95" width="6.3" height="4.2"/><rect class="cls-1" x="10.29" y="22.34" width="6.3" height="6.19"/><path class="cls-1" d="M26.88,22.34v6.2h4.64a3,3,0,0,0,3-3V22.34Z"/><rect class="cls-1" x="18.58" y="16.15" width="6.3" height="4.2"/><rect class="cls-1" x="18.58" y="22.34" width="6.3" height="6.19"/></g></g></svg>