<svg xmlns="http://www.w3.org/2000/svg" viewBox="0 0 33.21 31.08"><defs><style>.cls-1{fill:#fff;}</style></defs><title>Asset 40</title><g id="Layer_2" data-name="Layer 2"><g id="Layer_1-2" data-name="Layer 1"><path class="cls-1" d="M19.33,24.46H13.81V18.93h5.52Zm7,0H20.8V18.93h5.52Zm-14,0H6.82V18.93h5.53ZM26.32,7H6.82V17.17h19.5Zm2.8-2.93h-25V27h25ZM2,31.08A2,2,0,0,1,.6,30.5,1.94,1.94,0,0,1,0,29.05V2A1.94,1.94,0,0,1,.6.58,2,2,0,0,1,2,0H31.18a2,2,0,0,1,1.43.58A1.94,1.94,0,0,1,33.21,2v27a1.94,1.94,0,0,1-.6,1.45,2,2,0,0,1-1.43.58Z"/></g></g></svg>