<svg xmlns="http://www.w3.org/2000/svg" viewBox="0 0 33.6 33.65"><defs><style>.cls-1{fill:#fff;}</style></defs><title>Asset 31</title><g id="Layer_2" data-name="Layer 2"><g id="Layer_1-2" data-name="Layer 1"><path class="cls-1" d="M33.43,15.39a.71.71,0,0,0-.54-.25H.71a.72.72,0,0,0-.54.25A.73.73,0,0,0,0,16L2.77,33.05a.7.7,0,0,0,.7.6H30.13a.72.72,0,0,0,.71-.6L33.59,16a.7.7,0,0,0-.16-.57Z"/><path class="cls-1" d="M4.54,6.17H29.21V14h2.25V3.8a1,1,0,0,0-1-1H13.27L11.87.48A1,1,0,0,0,11,0H3.28a1,1,0,0,0-1,1V14H4.54Z"/><rect class="cls-1" x="5.61" y="11.78" width="22.43" height="2.24"/><rect class="cls-1" x="6.17" y="9.54" width="21.31" height="1.68"/><rect class="cls-1" x="6.73" y="7.29" width="20.19" height="1.68"/></g></g></svg>