<svg xmlns="http://www.w3.org/2000/svg" viewBox="0 0 32.65 32.65"><defs><style>.cls-1{fill:#fff;}</style></defs><title>Asset 34</title><g id="Layer_2" data-name="Layer 2"><g id="Layer_1-2" data-name="Layer 1"><path class="cls-1" d="M31.49,8.16H25.65v-7A1.16,1.16,0,0,0,24.49,0H1.17A1.17,1.17,0,0,0,0,1.17V28a4.66,4.66,0,0,0,4.66,4.66H28A4.66,4.66,0,0,0,32.65,28V9.33A1.16,1.16,0,0,0,31.49,8.16ZM9.33,5.83h7a1.17,1.17,0,0,1,0,2.33h-7a1.17,1.17,0,1,1,0-2.33ZM19.82,28h-14a1.17,1.17,0,1,1,0-2.34h14a1.17,1.17,0,0,1,0,2.34Zm0-4.67h-14a1.17,1.17,0,1,1,0-2.33h14a1.17,1.17,0,1,1,0,2.33Zm0-4.66h-14a1.17,1.17,0,1,1,0-2.33h14a1.17,1.17,0,1,1,0,2.33Zm0-4.67h-14a1.17,1.17,0,1,1,0-2.33h14a1.17,1.17,0,1,1,0,2.33Zm10.5,14a2.34,2.34,0,0,1-4.67,0V10.5h4.67Z"/></g></g></svg>