<svg xmlns="http://www.w3.org/2000/svg" viewBox="0 0 35.52 35.52"><defs><style>.cls-1{fill:#fff;}</style></defs><title>Asset 32</title><g id="Layer_2" data-name="Layer 2"><g id="Layer_1-2" data-name="Layer 1"><path class="cls-1" d="M12.56,14.64V9.43a6,6,0,0,1,.1-1H8.39a2.08,2.08,0,1,0,0-4.16H4.16a2.08,2.08,0,1,0,0,4.16H2.08V1A1,1,0,0,0,1,0,1,1,0,0,0,0,1V34.48a1,1,0,0,0,1,1,1,1,0,0,0,1-1V29.21H12.56V24a5.91,5.91,0,0,1,.1-1H8.39a2.08,2.08,0,1,0,0-4.16H4.16a2.08,2.08,0,0,0,0,4.16H2.08V14.64Z"/><path class="cls-1" d="M34.48,0a1,1,0,0,0-1,1V6.31H17.76a3.12,3.12,0,0,0-3.12,3.12v5.21H21v6.24c-2.08,0-6.31-.7-6.31,3.12v5.21H21v5.27a1,1,0,1,0,2.08,0v-1h4.16v1a1,1,0,0,0,2.08,0V29.21h4.17v5.27a1,1,0,0,0,2.08,0V1A1,1,0,0,0,34.48,0ZM27.19,31.36H23V29.21h4.16Zm0-10.48H23V18.8h4.16Zm0-4.16H23V14.64h4.16Zm6.25,4.16H29.27V14.64h4.17Z"/></g></g></svg>