<svg xmlns="http://www.w3.org/2000/svg" viewBox="0 0 40.13 34.21"><defs><style>.cls-1{fill:#fff;}</style></defs><title>Asset 35</title><g id="Layer_2" data-name="Layer 2"><g id="Layer_1-2" data-name="Layer 1"><path class="cls-1" d="M0,.16H7.21V3.77H0ZM0,5.21H7.21V29.73H0Zm1.32,20a2.26,2.26,0,1,0,2.26-2.25,2.25,2.25,0,0,0-2.26,2.25ZM0,34.05H7.21V31.17H0Zm8.65-3.39v3.39H18v-3.4c-.38-.28-1.57-.92-4.33-.92a12.27,12.27,0,0,0-5,.93Zm0-20.74a12.23,12.23,0,0,0,5,.94c2.74,0,3.93-.64,4.33-.93V7.37H8.65Zm0,1.56V29.1a14.44,14.44,0,0,1,5-.82A10.93,10.93,0,0,1,18,29V11.57a10.75,10.75,0,0,1-4.33.73,14.44,14.44,0,0,1-5-.82ZM33.32,0,28.37,1l.73,3.54,4.94-1Zm5.94,29-4.94,1L29.39,6l4.94-1Zm-1.71-4.28a2.06,2.06,0,0,0-2.18-1.85,2.05,2.05,0,0,0-1.27,2.56,2,2,0,0,0,2.18,1.85,2.05,2.05,0,0,0,1.27-2.56Zm2,5.69-4.94,1,.58,2.82,4.94-1ZM20.19,3.77H27.4V.16H20.19Zm0,30.28H27.4V31.17H20.19Zm0-7.93H27.4V8.81H20.19Zm0,3.61H27.4V27.56H20.19Zm0-22.36H27.4V5.21H20.19Z"/></g></g></svg>