<svg xmlns="http://www.w3.org/2000/svg" viewBox="0 0 27.28 40.2"><defs><style>.cls-1{fill:#fff;}</style></defs><title>Asset 33</title><g id="Layer_2" data-name="Layer 2"><g id="Layer_1-2" data-name="Layer 1"><path class="cls-1" d="M24.41,24.41H15.79V33h8.62Zm-1.29,6.31a.73.73,0,0,1,.2.7.72.72,0,0,1-1.21.32l-1-1a5.07,5.07,0,0,1-1,.11c-2,0-3.59-1.1-3.59-2.51s1.58-2.51,3.59-2.51,3.59,1.1,3.59,2.51a2.2,2.2,0,0,1-1.11,1.82Z"/><path class="cls-1" d="M8.37,15.74l-.06,0a.57.57,0,0,1-.18-.12l0,0L8,15.4l-.52-1H6.91l-.52,1a.27.27,0,0,1-.07.08.43.43,0,0,1-.2.2L6,15.74l-.15,0-.11,0v1.44H8.62V15.79A.53.53,0,0,1,8.37,15.74Z"/><path class="cls-1" d="M20.1,13.64a1.43,1.43,0,0,0-1.43,1.44,6.52,6.52,0,0,0,1.43,2.47,6.51,6.51,0,0,0,1.44-2.47A1.43,1.43,0,0,0,20.1,13.64Z"/><path class="cls-1" d="M24.41,11.49H15.79V20.1h8.62Zm-3.77,7.66a.73.73,0,0,1-.54.23.7.7,0,0,1-.53-.23c-.39-.44-2.34-2.68-2.34-4.07a2.87,2.87,0,1,1,5.74,0C23,16.47,21,18.71,20.64,19.15Z"/><path class="cls-1" d="M15.79,34.46H0v5a.71.71,0,0,0,.72.71H26.56a.71.71,0,0,0,.72-.71v-5Zm1.71,2.82-3.59,1.44a.72.72,0,0,1-.54,0L9.78,37.28a.73.73,0,0,1-.44-.56.72.72,0,0,1,.27-.67.7.7,0,0,1,.71-.1l3.32,1.33L17,36a.72.72,0,0,1,.94.4A.71.71,0,0,1,17.5,37.28Z"/><path class="cls-1" d="M11.49,24.41H2.87V33h8.62Zm-.92,4.15L9.38,29.78l.28,1.74a.72.72,0,0,1-.29.71.74.74,0,0,1-.77,0l-1.42-.79-1.43.79a.71.71,0,0,1-1-.74L5,29.78,3.79,28.56a.71.71,0,0,1-.16-.73.69.69,0,0,1,.57-.48l1.6-.25.73-1.56a.72.72,0,0,1,1.3,0l.73,1.56,1.6.25a.69.69,0,0,1,.57.48A.73.73,0,0,1,10.57,28.56Z"/><path class="cls-1" d="M7.42,28.06l-.24-.51-.24.51a.7.7,0,0,1-.54.4l-.61.1.47.48a.71.71,0,0,1,.19.62l-.1.63L6.83,30a.73.73,0,0,1,.7,0l.48.27-.1-.63A.71.71,0,0,1,8.1,29l.47-.48L8,28.46A.7.7,0,0,1,7.42,28.06Z"/><path class="cls-1" d="M20.1,27.28c-1.23,0-2.15.57-2.15,1.08s.92,1.08,2.15,1.08a3.63,3.63,0,0,0,1-.14h0c.71-.2,1.18-.58,1.18-.94S21.34,27.28,20.1,27.28Z"/><path class="cls-1" d="M0,33H1.44V24.41A1.44,1.44,0,0,1,2.87,23h8.62a1.44,1.44,0,0,1,1.43,1.44V33h1.44V24.41A1.44,1.44,0,0,1,15.79,23h8.62a1.45,1.45,0,0,1,1.44,1.44V33h1.43V8.62H0ZM14.36,11.49a1.43,1.43,0,0,1,1.43-1.44h8.62a1.44,1.44,0,0,1,1.44,1.44V20.1a1.44,1.44,0,0,1-1.44,1.44H15.79a1.43,1.43,0,0,1-1.43-1.44Zm-12.92,0a1.43,1.43,0,0,1,1.43-1.44h8.62a1.43,1.43,0,0,1,1.43,1.44V20.1a1.43,1.43,0,0,1-1.43,1.44H2.87A1.43,1.43,0,0,1,1.44,20.1Z"/><path class="cls-1" d="M17.23,2.87H3.59a.72.72,0,0,0,0,1.44H17.23a.72.72,0,0,0,0-1.44Z"/><path class="cls-1" d="M26.56,0H.72A.72.72,0,0,0,0,.72V7.18H27.28V.72A.72.72,0,0,0,26.56,0ZM17.23,5.74H3.59a2.15,2.15,0,0,1,0-4.3H17.23a2.15,2.15,0,0,1,0,4.3Zm8.41.51a.72.72,0,0,1-1,0l-.72-.72a2.15,2.15,0,1,1,1.23-1.94,2.11,2.11,0,0,1-.22.92l.73.73A.71.71,0,0,1,25.64,6.25Z"/><path class="cls-1" d="M11.49,11.49H2.87V20.1h8.62ZM10.05,18a.72.72,0,0,1-.72.72H5A.72.72,0,0,1,4.31,18V15.08A.72.72,0,0,1,5,14.36H5.3l.52-1a.72.72,0,0,1,.64-.4H7.9a.72.72,0,0,1,.64.4l.52,1h.27a.72.72,0,0,1,.72.72Z"/><path class="cls-1" d="M23,2.87a.72.72,0,1,0,.51,1.23h0A.72.72,0,0,0,23,2.87Z"/></g></g></svg>