<svg xmlns="http://www.w3.org/2000/svg" viewBox="0 0 31.11 29.92"><defs><style>.cls-1{fill:#fff;}</style></defs><title>Asset 37</title><g id="Layer_2" data-name="Layer 2"><g id="Layer_1-2" data-name="Layer 1"><circle class="cls-1" cx="6.67" cy="5.56" r="1.11"/><path class="cls-1" d="M7.73,7.5a2.16,2.16,0,0,1-2.12,0A2.18,2.18,0,0,0,4.46,9.31a3.88,3.88,0,0,0,4.42,0A2.22,2.22,0,0,0,7.73,7.5Z"/><path class="cls-1" d="M6.67,2.22A3.88,3.88,0,0,0,3.51,8.38,3.3,3.3,0,0,1,4.78,6.71a2.26,2.26,0,0,1-.34-1.15A2.23,2.23,0,1,1,8.56,6.71,3.28,3.28,0,0,1,9.82,8.38,3.89,3.89,0,0,0,6.67,2.22Z"/><path class="cls-1" d="M30.56,11.11H17.22a.56.56,0,0,0-.55.56v7.12a11.76,11.76,0,0,0,1,4.24.56.56,0,0,1,.07.18,14,14,0,0,0,2.33,3.61l.06.06a15.93,15.93,0,0,0,3.75,3c7.12-4.21,7.22-10.85,7.22-11.13V11.67A.56.56,0,0,0,30.56,11.11ZM20.88,25.19a.54.54,0,0,1-.77-.13,11.71,11.71,0,0,1-2.33-6.27V13.33a1.11,1.11,0,0,1,1.11-1.11H25a.56.56,0,0,1,.56.56.55.55,0,0,1-.56.55H18.89v5.46A10.77,10.77,0,0,0,21,24.41a.55.55,0,0,1-.13.78Zm1.83-3.52a.55.55,0,0,1-.39-.16l-1-1.05a.55.55,0,0,1,0-.78.56.56,0,0,1,.78,0l.65.65,4.12-4.12a.56.56,0,0,1,.79.78L23.1,21.51A.55.55,0,0,1,22.71,21.67ZM30,18.79a12.6,12.6,0,0,1-5.8,9.61.54.54,0,0,1-.56.05.55.55,0,0,1-.06-1,11.45,11.45,0,0,0,5.31-8.7V13.33a.54.54,0,0,1-.55-.55.55.55,0,0,1,.55-.56A1.11,1.11,0,0,1,30,13.33Z"/><path class="cls-1" d="M19.45,27.78H7.78a.56.56,0,0,0-.56.56v.55H20.59A15,15,0,0,1,19.45,27.78Z"/><path class="cls-1" d="M29.45,0H1.67A1.67,1.67,0,0,0,0,1.67V18.33H1.11V15.56a1.11,1.11,0,0,1,1.11-1.11H6.67a1.11,1.11,0,0,1,1.11,1.11v2.77H8.89V15.56A1.11,1.11,0,0,1,10,14.45h3.89a.55.55,0,0,1,.56.55.56.56,0,0,1-.56.56H10v2.77h5.56v-5H2.22a.55.55,0,0,1-.55-.55.56.56,0,0,1,.55-.56H15.56v-.55A1.66,1.66,0,0,1,17.22,10H30.56a1.68,1.68,0,0,1,.55.1V1.67A1.66,1.66,0,0,0,30.63.49,1.7,1.7,0,0,0,29.45,0ZM9.81,10l0,0a5,5,0,0,1-6.26,0h0A5,5,0,0,1,6.67,1.11,5,5,0,0,1,9.81,10Zm9.08-1.66H13.33a.55.55,0,0,1-.55-.55.56.56,0,0,1,.55-.56h5.56a.56.56,0,0,1,.56.56A.55.55,0,0,1,18.89,8.33ZM29.45,6.11H13.33a.56.56,0,0,1,0-1.11H29.45a.56.56,0,0,1,0,1.11Zm0-2.22H13.33a.56.56,0,0,1,0-1.11H29.45a.56.56,0,0,1,0,1.11Z"/><path class="cls-1" d="M0,19.45v1.66a1.67,1.67,0,0,0,1.67,1.67H16.38a13.57,13.57,0,0,1-.78-3.33Z"/><rect class="cls-1" x="2.22" y="15.56" width="4.44" height="2.78"/><path class="cls-1" d="M11.67,23.89v2.78h6.85a15.12,15.12,0,0,1-1.68-2.78Z"/></g></g></svg>