<svg xmlns="http://www.w3.org/2000/svg" viewBox="0 0 34.45 34.45"><defs><style>.cls-1{fill:#fff;}</style></defs><title>Asset 30</title><g id="Layer_2" data-name="Layer 2"><g id="Layer_1-2" data-name="Layer 1"><path class="cls-1" d="M34.45,5V27.18H16.68V23.27A4.74,4.74,0,0,0,13.82,19c-.23-.1-.48-.17-.72-.26a7.49,7.49,0,0,0,.35-.69,7.66,7.66,0,0,0,.29-4.24,4.23,4.23,0,0,0-3.68-3.46,4.3,4.3,0,0,0-4.45,2.42,7.63,7.63,0,0,0-.33,4.36,8.74,8.74,0,0,0,.56,1.63l-.17.07a4.69,4.69,0,0,0-3.34,4.68c0,1.11,0,2.22,0,3.33,0,.11,0,.21,0,.31H0V5.05H14.65v5.23c.75,0,1.46,0,2.16,0a.86.86,0,0,1,.49.2c.48.44.93.91,1.39,1.37l.41.41c.59-.6,1.16-1.16,1.71-1.73a.75.75,0,0,1,.61-.26h8.13V5Z"/><path class="cls-1" d="M10.82,34.45v-2h2.87V29.21h7v3.2h2.89v2Z"/><path class="cls-1" d="M27.52,0V8.27h-.39c-2.2,0-4.4,0-6.6,0a.8.8,0,0,0-.49.2c-.32.3-.61.63-.95,1-.33-.35-.64-.65-.91-1a.67.67,0,0,0-.59-.23c-.29,0-.58,0-.9,0V0ZM25.35,3.15H18.86V5.09h6.49Z"/><path class="cls-1" d="M14.66,27.16H4.35a1.62,1.62,0,0,1,0-.18c0-1.31,0-2.63,0-3.94a2.61,2.61,0,0,1,2.39-2.38c1.83,0,3.67,0,5.51,0A2.58,2.58,0,0,1,14.64,23c0,1.31,0,2.62,0,3.94A1.62,1.62,0,0,1,14.66,27.16Z"/><path class="cls-1" d="M11.89,15.48A11,11,0,0,1,11.7,17,2.26,2.26,0,0,1,9.3,18.6a2.29,2.29,0,0,1-2.11-2.2c0-.59,0-1.19,0-1.78a2.33,2.33,0,0,1,4.65,0v.84Z"/></g></g></svg>