<svg xmlns="http://www.w3.org/2000/svg" viewBox="0 0 26.85 34.17"><defs><style>.cls-1{fill:#fff;}</style></defs><title>Asset 39</title><g id="Layer_2" data-name="Layer 2"><g id="Layer_1-2" data-name="Layer 1"><path class="cls-1" d="M3.66.61V3.05a.61.61,0,1,0,1.22,0V.61a.61.61,0,1,0-1.22,0Z"/><path class="cls-1" d="M23.19,3.05V.61A.61.61,0,0,0,22.58,0,.61.61,0,0,0,22,.61V3.05a.61.61,0,0,0,.61.61A.61.61,0,0,0,23.19,3.05Z"/><path class="cls-1" d="M0,32.34a1.83,1.83,0,0,0,1.83,1.83H25a1.83,1.83,0,0,0,1.83-1.83v-25H0ZM24.24,14.23a.61.61,0,0,1,.17.43.68.68,0,0,1-.19.43l-11,10.37a.59.59,0,0,1-.42.17h0a.59.59,0,0,1-.43-.22L9.29,21.75a.6.6,0,0,1-.1-.6.59.59,0,0,1,.47-.39.6.6,0,0,1,.57.21l2.64,3.16L23.38,14.2a.64.64,0,0,1,.44-.17A.62.62,0,0,1,24.24,14.23ZM4.88,12.81A1.22,1.22,0,0,1,6.1,11.59H21.36a.62.62,0,0,1,.61.61v1.22a.61.61,0,0,1-.61.61.61.61,0,0,1-.61-.61v-.61H6.1V27.46H20.75V20.14a.61.61,0,0,1,.61-.61.61.61,0,0,1,.61.61v7.32a1.22,1.22,0,0,1-1.22,1.22H6.1a1.22,1.22,0,0,1-1.22-1.22Z"/><path class="cls-1" d="M6.1,2.44v.61a1.83,1.83,0,0,1-3.66,0V2.44H1.22A1.22,1.22,0,0,0,0,3.66V6.1H26.85V3.66a1.22,1.22,0,0,0-1.22-1.22H24.41v.61a1.83,1.83,0,0,1-3.66,0V2.44Z"/></g></g></svg>