<svg xmlns="http://www.w3.org/2000/svg" viewBox="0 0 35.33 35.23"><defs><style>.cls-1{fill:#fff;}</style></defs><title>Asset 41</title><g id="Layer_2" data-name="Layer 2"><g id="Layer_1-2" data-name="Layer 1"><path class="cls-1" d="M7.61,24,4,25.94a2.69,2.69,0,0,0-1.45,2.39V29H20.19v-.69a2.7,2.7,0,0,0-1.44-2.39L15.1,24a2.27,2.27,0,0,1-1.22-2V20.45a.74.74,0,0,1,.1-.35,10.15,10.15,0,0,0,1.17-2.9.64.64,0,0,1,.27-.39,2.16,2.16,0,0,0,.35-.63V14.83l-.52-.76a.66.66,0,0,1-.11-.36V11.25a.22.22,0,0,1,0-.08,2.64,2.64,0,0,0-.61-1.85,4.16,4.16,0,0,0-3.19-1.07A4.1,4.1,0,0,0,8.17,9.31a2.58,2.58,0,0,0-.6,1.86v2.54a.66.66,0,0,1-.11.36l-.52.76v1.33a2.28,2.28,0,0,0,.4.65.75.75,0,0,1,.26.39,11.08,11.08,0,0,0,1.14,2.92.63.63,0,0,1,.09.33V22A2.43,2.43,0,0,1,7.61,24Z"/><rect class="cls-1" x="30.28" y="21.45" width="5.05" height="4.42"/><path class="cls-1" d="M31.55,1.89A1.9,1.9,0,0,0,29.65,0H1.89A1.89,1.89,0,0,0,0,1.89v1.9H31.55Zm-28.4.63H2.52a.63.63,0,0,1,0-1.26h.63a.63.63,0,1,1,0,1.26Zm3.16,0H5.68a.63.63,0,0,1,0-1.26h.63a.63.63,0,0,1,0,1.26Zm3.15,0H8.83a.63.63,0,1,1,0-1.26h.63a.63.63,0,0,1,0,1.26ZM29,2.52H12a.63.63,0,1,1,0-1.26H29a.63.63,0,0,1,0,1.26Z"/><path class="cls-1" d="M1.26,28.91v-.58a4,4,0,0,1,2.12-3.51L7,22.9a1.17,1.17,0,0,0,.55-.9V20.62a12.56,12.56,0,0,1-1.15-2.94,4,4,0,0,1-.69-1.15.64.64,0,0,1-.05-.24V14.63a.66.66,0,0,1,.11-.36l.52-.75V11.29a3.81,3.81,0,0,1,.9-2.79A5.26,5.26,0,0,1,11.35,7,5.25,5.25,0,0,1,15.5,8.5a3.85,3.85,0,0,1,.9,2.78v2.24l.52.75a.59.59,0,0,1,.11.36v1.66a.71.71,0,0,1,0,.21,3.54,3.54,0,0,1-.67,1.18,11.56,11.56,0,0,1-1.19,2.94V22a1,1,0,0,0,.55.9l3.64,1.92a3.94,3.94,0,0,1,2.12,3.51V29H23.2a10.83,10.83,0,0,1-.47-2.45.64.64,0,0,0,0-.07s0,0,0,0,0-.19,0-.22V21.45A1.26,1.26,0,0,1,24,20.19h7.58V5.05H0V27.13A1.9,1.9,0,0,0,1.26,28.91ZM20.19,7.57h9.46a.63.63,0,0,1,0,1.26H20.19a.63.63,0,1,1,0-1.26Zm0,2.52h9.46a.64.64,0,0,1,0,1.27H20.19a.64.64,0,0,1,0-1.27Zm0,2.53h9.46a.63.63,0,1,1,0,1.26H20.19a.63.63,0,0,1,0-1.26Zm0,2.52h4.42a.63.63,0,0,1,0,1.26H20.19a.63.63,0,1,1,0-1.26Z"/><path class="cls-1" d="M30.28,27.13v5.05a.63.63,0,1,1-1.26,0V27.13h-5a10.73,10.73,0,0,0,.6,2.24l0,.1a11.76,11.76,0,0,0,4.95,5.76,11.5,11.5,0,0,0,5.6-8.1Z"/><rect class="cls-1" x="23.97" y="21.45" width="5.05" height="4.42"/></g></g></svg>