<svg xmlns="http://www.w3.org/2000/svg" viewBox="0 0 35.53 27.8"><defs><style>.cls-1{fill:#fff;}</style></defs><title>Asset 36</title><g id="Layer_2" data-name="Layer 2"><g id="Layer_1-2" data-name="Layer 1"><path class="cls-1" d="M32.05,0H7.22a3.45,3.45,0,0,0-3.1,1.92l-3.51,7A5.83,5.83,0,0,0,0,11.52v4.7H3.48a1.16,1.16,0,0,1,0,2.32H0v1.15a3.48,3.48,0,0,0,3.48,3.48H4.63a4.64,4.64,0,0,0,9.27,0h7.72a4.64,4.64,0,0,0,9.27,0h1.16a3.48,3.48,0,0,0,3.48-3.48V3.48A3.48,3.48,0,0,0,32.05,0ZM2.32,11.58v-.06A3.46,3.46,0,0,1,2.68,10L4.19,7H7v4.63Zm7,13.91a2.32,2.32,0,1,1,2.31-2.32A2.32,2.32,0,0,1,9.27,25.49ZM13.9,11.58H9.27V7H13.9Zm5.41,9.27H16.22v-7h3.09Zm0-9.27H16.22V7h3.09Zm2.31,0V7h4.64v4.63Zm4.64,13.91a2.32,2.32,0,1,1,2.32-2.32A2.32,2.32,0,0,1,26.26,25.49Zm7-13.91H28.58V7h4.63Z"/></g></g></svg>