<svg xmlns="http://www.w3.org/2000/svg" xmlns:xlink="http://www.w3.org/1999/xlink" viewBox="0 0 93.56 157.51"><defs><style>.cls-1{fill:#fff;}.cls-2{fill:#2e3191;}.cls-3{fill:#ec1c24;}.cls-4{fill:url(#linear-gradient);}.cls-5{fill:url(#radial-gradient);}.cls-6{fill:#2a276e;}.cls-7{stroke:#000;stroke-miterlimit:10;stroke-width:0.3px;}</style><linearGradient id="linear-gradient" x1="51.13" y1="43.11" x2="53.21" y2="42.92" gradientUnits="userSpaceOnUse"><stop offset="0" stop-color="#fff"/><stop offset="0.58" stop-color="#403e92"/><stop offset="1" stop-color="#2e3191"/></linearGradient><radialGradient id="radial-gradient" cx="211.48" cy="287.36" r="2.36" gradientTransform="translate(-208.1 -236.66) scale(1.21 0.87)" gradientUnits="userSpaceOnUse"><stop offset="0" stop-color="#fff"/><stop offset="0.17" stop-color="#fcfcfd"/><stop offset="0.31" stop-color="#f2f2f8"/><stop offset="0.44" stop-color="#e0e1ef"/><stop offset="0.57" stop-color="#c8c9e2"/><stop offset="0.69" stop-color="#a9aad2"/><stop offset="0.8" stop-color="#8284bd"/><stop offset="0.91" stop-color="#5658a6"/><stop offset="1" stop-color="#2e3191"/></radialGradient></defs><title>beacon</title><g id="Layer_2" data-name="Layer 2"><g id="Layer_1-2" data-name="Layer 1"><path class="cls-1" d="M48.33,88a99.13,99.13,0,0,1-29-4.41l-.41-.14V25a27,27,0,0,1,4.54-10.43C26.92,9.55,33.78,2.93,46.64,0l.14,0,.13,0c12.87,2.9,19.72,9.52,23.21,14.56A27,27,0,0,1,74.66,25V83.41l-.39.15A73.42,73.42,0,0,1,48.33,88Z"/><path class="cls-2" d="M48.33,88a99.13,99.13,0,0,1-29-4.41l-.41-.14V25a27,27,0,0,1,4.54-10.43C26.92,9.55,33.78,2.93,46.64,0l.14,0,.13,0c12.87,2.9,19.72,9.52,23.21,14.56A27,27,0,0,1,74.66,25V83.41l-.39.15A73.42,73.42,0,0,1,48.33,88ZM20.11,82.55a99.33,99.33,0,0,0,28.22,4.2,72.3,72.3,0,0,0,25.12-4.19V25.16a26.63,26.63,0,0,0-4.37-9.93c-3.35-4.83-9.94-11.17-22.3-14-12.37,2.81-19,9.15-22.31,14a26.51,26.51,0,0,0-4.36,9.93Z"/><path class="cls-2" d="M48.37,81A102.25,102.25,0,0,1,37,80.31a99.15,99.15,0,0,1-17.71-3.56l.38-1.16c.29.09,28.82,9.25,54.16,0l.41,1.15A76.15,76.15,0,0,1,48.37,81Z"/><path class="cls-3" d="M21.68,78.3l.62.18a1.55,1.55,0,0,1,.55.27.65.65,0,0,1,.23.39.94.94,0,0,1,0,.47.89.89,0,0,1-.23.37.83.83,0,0,1-.38.21,1.15,1.15,0,0,1,.31.32.87.87,0,0,1,.13.35,1,1,0,0,1,0,.39,1,1,0,0,1-.47.6,1.07,1.07,0,0,1-.83.06l-.86-.26Zm-.2,1.83-.37,1.28.39.12a1.5,1.5,0,0,0,.53.08.63.63,0,0,0,.32-.15.61.61,0,0,0,.2-.3.64.64,0,0,0,0-.43.72.72,0,0,0-.31-.34,2.64,2.64,0,0,0-.55-.21Zm.42-1.41-.32,1.07.18,0a1.17,1.17,0,0,0,.5.08.51.51,0,0,0,.31-.13.53.53,0,0,0,.18-.28.48.48,0,0,0-.05-.41.7.7,0,0,0-.44-.27Z"/><path class="cls-3" d="M21.94,82a1.31,1.31,0,0,1-.38-.06l-.9-.27v0l1-3.38.65.2a1.38,1.38,0,0,1,.57.27.82.82,0,0,1,.24.41.91.91,0,0,1,0,.49.86.86,0,0,1-.23.39.78.78,0,0,1-.33.19,1.41,1.41,0,0,1,.27.29.9.9,0,0,1,.12.37.91.91,0,0,1,0,.4,1,1,0,0,1-.49.62A1,1,0,0,1,21.94,82Zm-1.19-.38.83.25a1,1,0,0,0,.8-.05,1,1,0,0,0,.46-.58,1.18,1.18,0,0,0,0-.37.92.92,0,0,0-.12-.34,1,1,0,0,0-.31-.31l-.06,0,.08,0a.71.71,0,0,0,.37-.2A.73.73,0,0,0,23,79.6a.86.86,0,0,0,0-.45.74.74,0,0,0-.22-.37,1.43,1.43,0,0,0-.54-.26l-.58-.18Zm1.21,0a1.65,1.65,0,0,1-.47-.09l-.43-.12v0l.39-1.32.21.06a2,2,0,0,1,.56.22.79.79,0,0,1,.33.35.66.66,0,0,1,0,.46.6.6,0,0,1-.2.32.66.66,0,0,1-.35.16Zm-.8-.27.35.11a1.23,1.23,0,0,0,.51.08.59.59,0,0,0,.49-.42.64.64,0,0,0,0-.41.76.76,0,0,0-.3-.32,2.14,2.14,0,0,0-.54-.2l-.14,0ZM22.21,80a1.53,1.53,0,0,1-.46-.08l-.21-.07.33-1.14.4.12a.85.85,0,0,1,.47.29.55.55,0,0,1,.05.44.61.61,0,0,1-.2.3.55.55,0,0,1-.32.14Zm-.58-.2.14,0a1.56,1.56,0,0,0,.49.08.56.56,0,0,0,.28-.13.5.5,0,0,0,.17-.26.42.42,0,0,0,0-.38.76.76,0,0,0-.42-.26l-.33-.1Z"/><path class="cls-3" d="M24.15,79,26,79.5l-.08.33-1.51-.39-.27,1.06,1.5.39-.09.33L24,80.83l-.34,1.33,1.49.39-.08.33-1.81-.48Z"/><path class="cls-3" d="M25.13,82.93l-1.88-.5L24.12,79l1.9.5-.11.41-1.5-.4-.25,1,1.49.39-.1.41-1.49-.4-.32,1.26,1.49.39Zm-1.79-.55,1.73.45.07-.25-1.49-.4.35-1.4,1.49.39.07-.25-1.49-.4.29-1.13,1.5.4.06-.26-1.74-.46Z"/><path class="cls-3" d="M27.73,79.91l.75,3.75-.35-.07-.26-1.24L26.49,82l-.74,1L25.39,83l2.26-3.07Zm-.2.72-.82,1.11,1.1.25Z"/><path class="cls-3" d="M28.53,83.71l-.43-.09-.26-1.24-1.33-.3-.75,1-.43-.1,0,0,2.27-3.09.13,0v0Zm-.37-.16.27.06-.73-3.67h0l-2.21,3,.27.06.75-1h0l1.41.32ZM27.86,82l-1.21-.28.9-1.22Zm-1.08-.33,1,.23-.25-1.22Z"/><path class="cls-3" d="M32.45,81.53l-.29.16a1.54,1.54,0,0,0-.43-.54,1.34,1.34,0,0,0-.62-.27,1.36,1.36,0,0,0-.75.06,1.39,1.39,0,0,0-.61.43,1.57,1.57,0,0,0-.31.72,1.45,1.45,0,0,0,.22,1.12,1.41,1.41,0,0,0,.94.62,1.47,1.47,0,0,0,1.24-.35l.21.25a1.59,1.59,0,0,1-.69.39,2,2,0,0,1-.84,0,1.66,1.66,0,0,1-1.22-.86,1.92,1.92,0,0,1-.2-1.3,1.78,1.78,0,0,1,.73-1.17,1.62,1.62,0,0,1,1.34-.28,1.73,1.73,0,0,1,.78.34A1.6,1.6,0,0,1,32.45,81.53Z"/><path class="cls-3" d="M30.9,84.22a2,2,0,0,1-1.64-.91A2,2,0,0,1,29.07,82a1.82,1.82,0,0,1,.74-1.2,1.71,1.71,0,0,1,1.36-.28,1.77,1.77,0,0,1,.8.35,1.64,1.64,0,0,1,.51.66l0,0-.36.2,0,0a1.42,1.42,0,0,0-.41-.52,1.61,1.61,0,0,0-.61-.27,1.51,1.51,0,0,0-.73.06,1.39,1.39,0,0,0-.59.43,1.44,1.44,0,0,0-.3.69,1.4,1.4,0,0,0,.21,1.1,1.42,1.42,0,0,0,2.12.26l0,0,.27.31,0,0a1.72,1.72,0,0,1-.71.4A1.84,1.84,0,0,1,30.9,84.22Zm-.1-3.68a1.59,1.59,0,0,0-.95.31A1.75,1.75,0,0,0,29.14,82a1.92,1.92,0,0,0,.19,1.28,1.63,1.63,0,0,0,1.2.83,1.73,1.73,0,0,0,.82,0,1.47,1.47,0,0,0,.65-.35l-.17-.2a1.41,1.41,0,0,1-1.23.33,1.47,1.47,0,0,1-1-.63,1.57,1.57,0,0,1-.22-1.15,1.62,1.62,0,0,1,.32-.73,1.41,1.41,0,0,1,.63-.45,1.43,1.43,0,0,1,.77-.06,1.39,1.39,0,0,1,.63.28,1.34,1.34,0,0,1,.42.52l.23-.13a1.56,1.56,0,0,0-.48-.6,1.76,1.76,0,0,0-.76-.34A2.19,2.19,0,0,0,30.8,80.54Z"/><path class="cls-3" d="M34.6,81.11a1.68,1.68,0,0,1,1.16.71,1.87,1.87,0,0,1,.32,1.37,1.81,1.81,0,0,1-.68,1.21,1.56,1.56,0,0,1-1.28.35A1.63,1.63,0,0,1,33,84a1.79,1.79,0,0,1-.32-1.35A1.88,1.88,0,0,1,33,81.8a1.7,1.7,0,0,1,.71-.57A1.66,1.66,0,0,1,34.6,81.11Zm0,.34a1.34,1.34,0,0,0-.71.1,1.39,1.39,0,0,0-.58.46,1.56,1.56,0,0,0-.29.73,1.46,1.46,0,0,0,.26,1.1,1.34,1.34,0,0,0,1.63.48,1.31,1.31,0,0,0,.58-.46,1.51,1.51,0,0,0,.28-.72,1.56,1.56,0,0,0-.07-.78,1.38,1.38,0,0,0-.44-.6A1.34,1.34,0,0,0,34.57,81.45Z"/><path class="cls-3" d="M34.39,84.81l-.27,0a1.72,1.72,0,0,1-1.18-.72,1.91,1.91,0,0,1-.32-1.38,2,2,0,0,1,.36-.91,1.86,1.86,0,0,1,.72-.59,1.63,1.63,0,0,1,.9-.11,1.69,1.69,0,0,1,1.19.72,2,2,0,0,1-.36,2.63A1.63,1.63,0,0,1,34.39,84.81Zm0-3.68a1.69,1.69,0,0,0-.63.13,1.71,1.71,0,0,0-.69.57,1.91,1.91,0,0,0-.35.87A1.8,1.8,0,0,0,33,84a1.6,1.6,0,0,0,1.12.69,1.54,1.54,0,0,0,1.25-.34A1.76,1.76,0,0,0,36,83.18a1.79,1.79,0,0,0-.31-1.34,1.67,1.67,0,0,0-1.14-.69Zm0,3.34h0l-.21,0a1.34,1.34,0,0,1-.93-.58A1.54,1.54,0,0,1,33,82.74a1.61,1.61,0,0,1,.3-.75,1.36,1.36,0,0,1,.59-.47,1.34,1.34,0,0,1,.73-.11,1.46,1.46,0,0,1,.69.32,1.5,1.5,0,0,1,.44.62,1.61,1.61,0,0,1,.08.79,1.76,1.76,0,0,1-.29.75,1.36,1.36,0,0,1-.59.47A1.41,1.41,0,0,1,34.36,84.47Zm0-3a1.17,1.17,0,0,0-.51.11,1.22,1.22,0,0,0-.56.45,1.54,1.54,0,0,0-.28.71,1.43,1.43,0,0,0,.25,1.07,1.29,1.29,0,0,0,.88.56,1.32,1.32,0,0,0,1.27-.54,1.54,1.54,0,0,0,.28-.71,1.56,1.56,0,0,0-.08-.75,1.49,1.49,0,0,0-.42-.6,1.24,1.24,0,0,0-.65-.29Z"/><path class="cls-3" d="M36.47,85l.34-3.48h.08l1.9,2.91.27-2.67.32,0L39,85.28H39L37.07,82.4,36.8,85Z"/><path class="cls-3" d="M39.06,85.32l-.13,0h0l-1.83-2.78-.25,2.56-.42,0v0l.35-3.52.13,0h0l1.84,2.82.26-2.6.4,0v0ZM39,85.23h0l.34-3.4-.25,0-.27,2.74-2-3h0L36.51,85l.26,0,.27-2.7.06.08Z"/><path class="cls-3" d="M41.23,82l.33,0-.23,3.49-.32,0Z"/><path class="cls-3" d="M41.37,85.5l-.4,0,.22-3.56.41,0Zm-.32-.1.25,0L41.52,82l-.25,0Z"/><path class="cls-3" d="M42.07,85.52,42.21,82l.68,0a3.6,3.6,0,0,1,1.06.18,1.54,1.54,0,0,1,.72.66,2.13,2.13,0,0,1,0,2,1.41,1.41,0,0,1-.58.56,1.81,1.81,0,0,1-1,.14Zm.33-.31.38,0a3,3,0,0,0,.94,0,1,1,0,0,0,.6-.43,1.43,1.43,0,0,0,.24-.8,1.57,1.57,0,0,0-.19-.88,1.18,1.18,0,0,0-.62-.52,3.4,3.4,0,0,0-1-.15h-.23Z"/><path class="cls-3" d="M43.29,85.62h-.18l-1.08,0L42.17,82l.72,0a3.44,3.44,0,0,1,1.08.19,1.48,1.48,0,0,1,.73.67A2,2,0,0,1,44.93,84a1.94,1.94,0,0,1-.25.93,1.43,1.43,0,0,1-.59.58A1.81,1.81,0,0,1,43.29,85.62Zm-1.18-.13,1,.05a1.92,1.92,0,0,0,.94-.14,1.29,1.29,0,0,0,.56-.55,1.82,1.82,0,0,0,.25-.89,2,2,0,0,0-.22-1,1.45,1.45,0,0,0-.7-.64,3,3,0,0,0-1-.18l-.64,0Zm1-.21h-.38l-.41,0,.11-2.89h.27a3.42,3.42,0,0,1,1,.15,1.22,1.22,0,0,1,.64.54,1.58,1.58,0,0,1,.2.9,1.5,1.5,0,0,1-.25.82,1,1,0,0,1-.62.45A2,2,0,0,1,43.15,85.28Zm-.71-.11.34,0h.37a2.48,2.48,0,0,0,.56,0,1.06,1.06,0,0,0,.58-.42,1.56,1.56,0,0,0,.24-.78,1.59,1.59,0,0,0-.19-.86,1.16,1.16,0,0,0-.6-.51,3.85,3.85,0,0,0-1-.14h-.19Z"/><path class="cls-3" d="M45.47,82.18l1.88,0v.34l-1.55,0v1.1l1.54,0V84l-1.54,0v1.38l1.54,0v.34l-1.87,0Z"/><path class="cls-3" d="M47.35,85.75h0l-1.91,0,0-3.57h0l1.92,0v.42h0l-1.52,0v1l1.53,0V84h0l-1.5,0v1.3l1.54,0Zm-1.87-.11,1.79,0v-.26l-1.54,0,0-1.46h0l1.5,0v-.26l-1.54,0V82.49h0l1.51,0v-.27l-1.8,0Z"/><path class="cls-3" d="M49.11,82.2l1.61,3.48h-.35l-.55-1.14-1.41,0-.48,1.15h-.37L49,82.2Zm0,.74-.54,1.28,1.12,0Z"/><path class="cls-3" d="M47.51,85.76,49,82.16h.13v0l1.64,3.54h-.44v0l-.53-1.12H48.44L48,85.75Zm1.54-3.52-1.43,3.44h.28l.49-1.16,1.46,0v0l.53,1.12h.27l-1.58-3.4Zm-.55,2,.58-1.41.65,1.39ZM49.09,83l-.48,1.14h1Z"/><path class="cls-3" d="M51,82.15h.33l.17,3.16,1.26-.06,0,.34-1.59.07Z"/><path class="cls-3" d="M51.17,85.69,51,82.12l.4,0,.18,3.16,1.25-.06,0,.42Zm-.11-3.5.19,3.42,1.51-.07,0-.26-1.26.06-.17-3.16Z"/><path class="cls-3" d="M54.28,82l.32,0,.31,3.49-.32,0Z"/><path class="cls-3" d="M54.55,85.5v0l-.32-3.53.41,0v0L55,85.47ZM54.32,82l.3,3.42.25,0L54.57,82Z"/><path class="cls-3" d="M55.72,85.37l-.41-3.48h.07l2.48,2.43-.31-2.66.32,0,.41,3.48H58.2L55.75,82.7l.31,2.64Z"/><path class="cls-3" d="M55.69,85.42v0l-.41-3.52h.14l2.4,2.36-.3-2.6.39,0v0l.41,3.52h-.14L55.8,82.81l.3,2.56Zm-.34-3.49.4,3.4.26,0-.31-2.7,2.52,2.47h0l-.4-3.41-.25,0,.32,2.74-2.54-2.5Z"/><path class="cls-3" d="M58.71,84.39l.25-.22c.25.35.51.51.76.48a.59.59,0,0,0,.29-.13.58.58,0,0,0,.19-.25.52.52,0,0,0,0-.3.65.65,0,0,0-.16-.32,3,3,0,0,0-.64-.48,2.75,2.75,0,0,1-.58-.4,1,1,0,0,1-.25-.51.84.84,0,0,1,0-.42.76.76,0,0,1,.24-.34.79.79,0,0,1,.39-.16.88.88,0,0,1,.45.06,1.76,1.76,0,0,1,.49.38L60,82a1.19,1.19,0,0,0-.36-.3.48.48,0,0,0-.29,0,.42.42,0,0,0-.3.17.43.43,0,0,0-.08.33.49.49,0,0,0,.08.21.72.72,0,0,0,.19.21,5.48,5.48,0,0,0,.47.29,2.35,2.35,0,0,1,.67.51,1.06,1.06,0,0,1,.24.5.9.9,0,0,1-.17.69.88.88,0,0,1-.61.37.92.92,0,0,1-.56-.09A1.62,1.62,0,0,1,58.71,84.39Z"/><path class="cls-3" d="M59.66,85a.92.92,0,0,1-.43-.11,1.52,1.52,0,0,1-.55-.51l0,0,.31-.27,0,0c.24.34.49.5.73.46a.66.66,0,0,0,.27-.12.48.48,0,0,0,.17-.23.45.45,0,0,0,0-.28.6.6,0,0,0-.15-.31,3.27,3.27,0,0,0-.63-.47,2.73,2.73,0,0,1-.59-.41.95.95,0,0,1-.22-1,.78.78,0,0,1,.25-.35.84.84,0,0,1,.4-.17.94.94,0,0,1,.47.06,1.64,1.64,0,0,1,.5.4l0,0-.29.31,0,0a1.72,1.72,0,0,0-.36-.29.41.41,0,0,0-.27,0,.34.34,0,0,0-.27.15.37.37,0,0,0-.07.31.44.44,0,0,0,.07.19.7.7,0,0,0,.19.2s.2.13.46.29a2.43,2.43,0,0,1,.68.51,1.09,1.09,0,0,1,.25.52.94.94,0,0,1-.18.72.91.91,0,0,1-.63.39Zm-.9-.64a1.48,1.48,0,0,0,.5.46.84.84,0,0,0,.54.09.81.81,0,0,0,.58-.35.9.9,0,0,0,.16-.67.93.93,0,0,0-.23-.48,2.57,2.57,0,0,0-.65-.5l-.48-.29a1.07,1.07,0,0,1-.21-.22.58.58,0,0,1-.08-.22.49.49,0,0,1,.08-.36.47.47,0,0,1,.33-.19.51.51,0,0,1,.32,0A1.3,1.3,0,0,1,60,82l.18-.19a1.47,1.47,0,0,0-.45-.36.79.79,0,0,0-.43-.05.77.77,0,0,0-.36.15.73.73,0,0,0-.23.32.8.8,0,0,0,0,.41.86.86,0,0,0,.25.48,2.89,2.89,0,0,0,.57.4,3.11,3.11,0,0,1,.65.48.72.72,0,0,1,.17.35.72.72,0,0,1,0,.32.53.53,0,0,1-.19.26.61.61,0,0,1-.31.13q-.39.06-.78-.45Z"/><path class="cls-3" d="M60.57,81.58l-.06-.33,1.77-.31.06.34-.72.12.56,3.12-.32,0-.57-3.11Z"/><path class="cls-3" d="M61.82,84.62v0l-.56-3.08-.72.13-.08-.42,1.85-.31.07.41-.72.12.57,3.12Zm-.5-3.2v0l.56,3.08.25,0-.57-3.11.72-.12,0-.26-1.7.29.05.26Z"/><path class="cls-3" d="M62.66,80.87l.32-.06.69,3.43-.32.06Z"/><path class="cls-3" d="M63.32,84.35l-.71-3.51.4-.08v0l.7,3.47ZM62.7,80.9l.68,3.36.25-.05L63,80.85Z"/><path class="cls-3" d="M63.45,81.07l-.07-.34,1.75-.37.07.34-.71.15.69,3.08-.33.07-.69-3.08Z"/><path class="cls-3" d="M64.82,84.05v0L64.13,81l-.71.15-.09-.41,1.83-.39.09.41-.71.16L65.22,84Zm-.63-3.18v0l.68,3,.25,0-.69-3.09.72-.15-.06-.26-1.68.35.06.26Z"/><path class="cls-3" d="M65.56,80.26l.32-.07.53,2a3.17,3.17,0,0,0,.13.45.86.86,0,0,0,.19.31.73.73,0,0,0,.33.16.81.81,0,0,0,.38,0,.69.69,0,0,0,.28-.15.61.61,0,0,0,.19-.26.74.74,0,0,0,.07-.34,2.9,2.9,0,0,0-.11-.54l-.53-2.05.32-.08.53,2.05a3.07,3.07,0,0,1,.11.76,1.05,1.05,0,0,1-.21.57.93.93,0,0,1-.55.36,1.22,1.22,0,0,1-.71,0,1,1,0,0,1-.5-.43,3.56,3.56,0,0,1-.24-.7Z"/><path class="cls-3" d="M67.23,83.56a1.11,1.11,0,0,1-.41-.08A1.07,1.07,0,0,1,66.3,83a2.81,2.81,0,0,1-.25-.72l-.54-2.08.39-.1.54,2.09c.07.24.11.39.13.44a.74.74,0,0,0,.19.3.64.64,0,0,0,.31.15.73.73,0,0,0,.36,0A.59.59,0,0,0,67.7,83a.61.61,0,0,0,.18-.24.88.88,0,0,0,.06-.33,3.32,3.32,0,0,0-.1-.53l-.54-2.09.39-.09.54,2.08a2.65,2.65,0,0,1,.1.77,1,1,0,0,1-.78,1A1.25,1.25,0,0,1,67.23,83.56ZM65.6,80.29l.53,2a2.81,2.81,0,0,0,.23.69,1,1,0,0,0,.49.41,1.12,1.12,0,0,0,.68,0,.9.9,0,0,0,.53-.34,1.06,1.06,0,0,0,.2-.55,2.55,2.55,0,0,0-.11-.75l-.52-2-.24.06.52,2a4.18,4.18,0,0,1,.11.55,1,1,0,0,1-.07.36.76.76,0,0,1-.2.27.73.73,0,0,1-.3.16.78.78,0,0,1-.4,0,.73.73,0,0,1-.55-.49c0-.06-.07-.21-.13-.45l-.52-2Z"/><path class="cls-3" d="M68.17,80l-.09-.33,1.72-.49.09.33-.7.2.9,3-.32.09-.9-3Z"/><path class="cls-3" d="M69.75,82.84l-.9-3-.7.2L68,79.6h0l1.76-.5.12.4-.7.2.9,3Zm-.85-3.13.9,3,.24-.07-.89-3,.7-.2-.08-.26-1.65.48.08.25Z"/><path class="cls-3" d="M70.21,79,72,78.44l.11.33-1.48.47.35,1,1.46-.46.11.32-1.46.47.43,1.31L73,81.45l.11.33-1.77.57Z"/><path class="cls-3" d="M71.28,82.39,70.16,79l1.85-.6.14.4-1.48.47.32,1,1.46-.47.14.4-1.46.46.4,1.24L73,81.41l.13.39Zm-1-3.35,1.08,3.26,1.7-.54-.09-.26L71.48,82,71,80.59l1.46-.47-.08-.26L71,80.33l-.37-1.12,1.47-.47L72,78.49Z"/><path class="cls-2" d="M57.32,72.39H35.39l.46-5.4,2.74-.08,4-45.28.25,0c.7-.07,1.73-.11,3.07-.11,2.26,0,4.66.11,4.68.11h.27l0,.26,4,45,2.43.3Zm-21.26-.61H56.72V67.71l-2.39-.29,0-.24-4-45c-.68,0-2.58-.09-4.39-.09-1.16,0-2.09,0-2.75.08L39.15,67.5l-2.74.08Z"/><polygon class="cls-4" points="52.94 63.87 49.87 22.15 51.39 22.15 54.59 63.87 52.94 63.87"/><path class="cls-2" d="M49.31,33.5H46.17v-7h3.14Zm-2.53-.61H48.7V27.1H46.78Z"/><path class="cls-2" d="M47.26,47.25H43.11l1-7.7h3.16Zm-3.46-.61h2.85V40.16h-2Z"/><path class="cls-2" d="M44.83,67.1h-.61V57.17l.27,0c3.09-.37,5-.09,5.61.83A1.1,1.1,0,0,1,50.22,59L50,58.89l-.28-.12a.57.57,0,0,0-.12-.5c-.29-.37-1.3-.94-4.73-.56Z"/><polygon class="cls-2" points="42.16 50.3 44.98 50.3 42.16 59 42.16 50.3"/><path class="cls-2" d="M51.69,34.92a27.54,27.54,0,0,0-9.84,0l-.13-.59a27.85,27.85,0,0,1,10.09,0Z"/><path class="cls-2" d="M52.92,49c-5.6-1.41-12.25-.25-12.32-.24l-.11-.6c.07,0,6.85-1.2,12.58.25Z"/><path class="cls-2" d="M46.7,6.63c2.08.52.79,1.6.79,1.6,0,1.2,1.9,2.82,1.9,2.82,2.89.9,1.52,2.16,1.52,2.16C48.78,15,53.12,16,53.12,16v4.24A31.78,31.78,0,0,0,40.41,20V16s4.34-1.08,2.21-2.82c0,0-1.37-1.26,1.52-2.16,0,0,1.9-1.62,1.9-2.82,0,0-1.15-1,.44-1.54Z"/><path class="cls-1" d="M41.4,16.35s6.44-1,10.7,0l-.05,2.88s-7.15-.8-10.65-.08Z"/><path class="cls-1" d="M43.34,12.2a14.63,14.63,0,0,1,6.84-.11s.72.42.26.86a22.4,22.4,0,0,0-7.13.1A.5.5,0,0,1,43.34,12.2Z"/><rect class="cls-2" x="51.33" y="12.09" width="10.27" height="0.61" transform="translate(-1.34 12.13) rotate(-12.12)"/><rect class="cls-2" x="51.44" y="13.83" width="11.79" height="0.61" transform="translate(-0.21 0.9) rotate(-0.89)"/><rect class="cls-2" x="56.88" y="10.94" width="0.61" height="10.61" transform="translate(27.13 67.54) rotate(-75.49)"/><rect class="cls-2" x="29.42" y="15.94" width="11.71" height="0.61" transform="translate(-2.76 8.42) rotate(-13.09)"/><rect class="cls-2" x="30.26" y="13.83" width="11.45" height="0.61"/><rect class="cls-2" x="35.53" y="6.65" width="0.61" height="11.37" transform="translate(16.56 44.97) rotate(-78.43)"/><rect class="cls-2" x="41.52" y="19.18" width="0.61" height="3.17" transform="translate(-2.68 34.91) rotate(-44.04)"/><rect class="cls-2" x="43.9" y="19.23" width="0.61" height="2.67" transform="translate(-4.47 17.81) rotate(-21.71)"/><rect class="cls-2" x="47.08" y="20.27" width="2.74" height="0.61" transform="translate(8.4 54.73) rotate(-63.46)"/><rect class="cls-2" x="50.28" y="20.67" width="2.88" height="0.61" transform="translate(-1.14 38.88) rotate(-40.78)"/><polygon class="cls-2" points="51.36 22.15 49.87 22.15 52.05 19.23 53.12 20.27 51.36 22.15"/><path class="cls-2" d="M45.51,79.13,46.1,78a8.24,8.24,0,0,1,7.37-4.07s.27,0,.69,0c1.47,0,6.34-.17,7-2.24l.6-1.87v2S61.67,76,55.3,76l-.93,0s-.22,0-.57,0a12.48,12.48,0,0,0-7.25,2.46Zm7.68-4.61A7.42,7.42,0,0,0,47.6,77a13,13,0,0,1,6.2-1.67c.38,0,.61,0,.62,0,.29,0,.59,0,.88,0,3.28,0,4.71-1.13,5.35-2.12-1.74,1.16-4.94,1.31-6.49,1.31h-1Z"/><path class="cls-2" d="M29.71,78.66l.64-1a9,9,0,0,1,6.4-3.57,15.78,15.78,0,0,1,4.17.28,23.39,23.39,0,0,0,4.37.52c2,0,3.06-.53,3.06-1.57H49c0,1-.49,3.24-5.05,3.24a21.66,21.66,0,0,1-3.81-.39H40a14.72,14.72,0,0,0-2.6-.29,5.29,5.29,0,0,0-.72,0A15.74,15.74,0,0,0,30.77,78Zm8-4.06a6.53,6.53,0,0,0-.84.05,9.38,9.38,0,0,0-4.75,2,15.18,15.18,0,0,1,4.51-1.4,6.58,6.58,0,0,1,.8,0,15.68,15.68,0,0,1,2.71.3h.09c3.25.59,5.65.48,7-.28a7.23,7.23,0,0,1-1.87.2,24.59,24.59,0,0,1-4.49-.52A17.58,17.58,0,0,0,37.67,74.6Z"/><path class="cls-1" d="M77.87,94.59,78.15,92a3.45,3.45,0,0,0-2.63-3.8c0,1-.14,3.46-1.66,4.67l-.71.57.23-.88c.05-.19,1.06-4.5-4.95-6.15L67.23,86l1.22-.26a17.58,17.58,0,0,0,5.81-2.43l.15-.11.17.08c.06,0,6.15,3.06,4.16,8.77Z"/><path class="cls-2" d="M77.87,94.59,78.15,92a3.45,3.45,0,0,0-2.63-3.8c0,1-.14,3.46-1.66,4.67l-.71.57.23-.88c.05-.19,1.06-4.5-4.95-6.15L67.23,86l1.22-.26a17.58,17.58,0,0,0,5.81-2.43l.15-.11.17.08c.06,0,6.15,3.06,4.16,8.77Zm-8.26-8.48c3.91,1.45,4.46,4.17,4.45,5.61a7.45,7.45,0,0,0,.84-3.91l0-.37.37,0a3.73,3.73,0,0,1,3.27,2.62c.16-3.61-3.26-5.72-4-6.16A16.28,16.28,0,0,1,69.61,86.11Z"/><path class="cls-1" d="M15.68,94.42l-.87-2.49c-2-5.71,4.09-8.75,4.16-8.78l.17-.08.14.12a17.87,17.87,0,0,0,5.81,2.42l1.22.26-1.2.33c-6,1.66-5,6-4.95,6.15l.23.88-.71-.56C18.16,91.46,18,89,18,88A3.44,3.44,0,0,0,15.4,91.8Z"/><path class="cls-2" d="M15.68,94.42l-.87-2.49c-2-5.71,4.09-8.75,4.16-8.78l.17-.08.14.12a17.87,17.87,0,0,0,5.81,2.42l1.22.26-1.2.33c-6,1.66-5,6-4.95,6.15l.23.88-.71-.56C18.16,91.46,18,89,18,88A3.44,3.44,0,0,0,15.4,91.8Zm3-7.15,0,.38a7.42,7.42,0,0,0,.84,3.9c0-1.44.55-4.16,4.45-5.61a16,16,0,0,1-4.86-2.16c-.81.44-4.25,2.52-4.05,6.18a3.73,3.73,0,0,1,3.28-2.63Z"/><path class="cls-5" d="M50.17,14.27c0,.84-1.53,1.52-3.42,1.52s-3.42-.68-3.42-1.52,1.53-1.53,3.42-1.53S50.17,13.42,50.17,14.27Z"/><path class="cls-6" d="M50.49,13.27h-.06A16.83,16.83,0,0,0,47,13a26.43,26.43,0,0,0-3.9.3l-.07,0L43,13.21c-.33-.3-.46-.59-.38-.87.17-.56,1.19-.73,1.31-.75a7.67,7.67,0,0,1,2-.18c1.8,0,4,.21,4,.21h0c.64.24,1,.51,1,.85s-.47.75-.49.76ZM47,12.64a17.72,17.72,0,0,1,3.42.31c.12-.08.31-.26.29-.44s-.29-.41-.78-.59c-.22,0-2.29-.2-4-.2a7.41,7.41,0,0,0-2,.17c-.26,0-1,.22-1.08.54,0,.17.1.36.25.51A25.52,25.52,0,0,1,47,12.64Z"/><polygon class="cls-2" points="35.83 72.09 57.02 72.09 57.02 67.44 54.69 67.2 54.08 63.84 50.53 63.84 50.23 58.24 45.87 58.24 45.56 67.05 44.34 66.97 44.24 63.44 39.38 63.76 38.87 67.2 36.13 67.28 35.83 72.09"/><path class="cls-7" d="M10.11,112h-2v9.71a.24.24,0,0,0-.12-.11l-.12,0-.12-.05a.26.26,0,0,1-.11-.12.55.55,0,0,1-.09-.23c0-.11,0-.22-.08-.34s0-.25-.08-.39a2.43,2.43,0,0,0-.13-.38,5.42,5.42,0,0,0-.4-.72,4.51,4.51,0,0,0-.48-.57,6.19,6.19,0,0,0-.55-.47c-.2-.14-.4-.27-.62-.4a5.94,5.94,0,0,0-1.12-.51,4.91,4.91,0,0,0-1.2-.24l-1.18-1.68a23.35,23.35,0,0,1,2.63-1.63,19.47,19.47,0,0,1,2.85-1.2V112H1.25L.35,111H9.2Zm-2.92,7v-4.86a12.31,12.31,0,0,0-1.82.81c-.59.32-1.16.66-1.73,1a8.18,8.18,0,0,1,2,1.22A6.43,6.43,0,0,1,7.19,118.92Z"/><path class="cls-7" d="M13.93,112H11.37v9.45l-.16-.14c-.09-.09-.2-.19-.31-.31l-.45-.46V112H9.29l-1-.92h2.27a5.06,5.06,0,0,0-.68-1.74,4.14,4.14,0,0,0-1.15-1.17,4.85,4.85,0,0,0-1.54-.66,7.74,7.74,0,0,0-1.84-.21l-.35,0-.52.06c-.19,0-.38.06-.58.11a2.63,2.63,0,0,0-.54.17,1.17,1.17,0,0,0-.4.23.38.38,0,0,0-.16.31.33.33,0,0,0,.2.31,2.17,2.17,0,0,0,.56.14l.78,0c.29,0,.59,0,.89,0a6.5,6.5,0,0,1,.9.13,2.69,2.69,0,0,1,.78.3,1.67,1.67,0,0,1,.56.56,1.89,1.89,0,0,1,.2.91,1.85,1.85,0,0,1-.08.56h-1a3.69,3.69,0,0,0,.29-.28.55.55,0,0,0,.15-.37.45.45,0,0,0-.2-.39,1.69,1.69,0,0,0-.54-.21,7.45,7.45,0,0,0-.77-.09l-.87-.07a7.93,7.93,0,0,1-.87-.12,2.72,2.72,0,0,1-.76-.27,1.56,1.56,0,0,1-.55-.5,1.48,1.48,0,0,1-.2-.8.86.86,0,0,1,.19-.55,1.73,1.73,0,0,1,.48-.45,3.92,3.92,0,0,1,.68-.34,7.16,7.16,0,0,1,.75-.23,7,7,0,0,1,.72-.14,4.45,4.45,0,0,1,.58,0,5.35,5.35,0,0,1,1.18.14c.39.09.77.2,1.14.32a3.89,3.89,0,0,1,1.27.69,4.7,4.7,0,0,1,.93,1,6.09,6.09,0,0,1,.67,1.23,13.25,13.25,0,0,1,.46,1.34H13Z"/><path class="cls-7" d="M24.36,112H19.47v.68l.06,0h.08a2.43,2.43,0,0,1,1.26.34,3.66,3.66,0,0,1,1,.88,4.37,4.37,0,0,1,.71,1.19,3.38,3.38,0,0,1,.26,1.29,2,2,0,0,1-.1.64,1.84,1.84,0,0,1-.28.58A1.71,1.71,0,0,1,22,118a1.35,1.35,0,0,1-.64.16A1.13,1.13,0,0,1,21,118a1.28,1.28,0,0,1-.39-.24,1.31,1.31,0,0,1-.27-.35,1,1,0,0,1-.1-.44,1,1,0,0,1,.15-.53,1.82,1.82,0,0,1,.36-.42L21,116l.27,0a.88.88,0,0,1,.51.16,3.7,3.7,0,0,1,.43.32.31.31,0,0,0,0-.08v-.08a2.11,2.11,0,0,0-.22-.92,2.6,2.6,0,0,0-.58-.77,2.88,2.88,0,0,0-.81-.52,2.1,2.1,0,0,0-.91-.15h-.21v7.37l-.08,0-.14-.12a1.35,1.35,0,0,1-.17-.17,7.58,7.58,0,0,0-.67-1.47,5.33,5.33,0,0,0-1-1.19,4.48,4.48,0,0,0-1.26-.84,5.18,5.18,0,0,0-1.58-.43l-1.27-1.56a12.45,12.45,0,0,1,1.16-.85c.42-.28.86-.53,1.32-.78s.93-.46,1.39-.65a13.21,13.21,0,0,1,1.34-.5V112H12.9L12,111H23.45Zm-5.81,6.8v-4.83a9.78,9.78,0,0,0-.92.39,7.21,7.21,0,0,0-.83.43c-.27.15-.53.31-.79.49l-.8.54a7.58,7.58,0,0,1,1.92,1.2A6.92,6.92,0,0,1,18.55,118.76Z"/><path class="cls-7" d="M32.7,112h-2v9.62l-.35-.46s0-.08,0-.12,0-.09,0-.14a6.14,6.14,0,0,0-.11-1,10.52,10.52,0,0,0-.32-1.22,8.58,8.58,0,0,0-.52-1.26,6.12,6.12,0,0,0-.69-1.11,3.59,3.59,0,0,0-.87-.79,1.84,1.84,0,0,0-1-.3h-.13a.19.19,0,0,0-.1,0l.23.34a2,2,0,0,1,.19.31,2.09,2.09,0,0,1,.13.35,1.7,1.7,0,0,1,.05.41,1.07,1.07,0,0,1-.1.49,1.06,1.06,0,0,1-.27.35,1.27,1.27,0,0,1-.4.21,1.69,1.69,0,0,1-.5.08,1.74,1.74,0,0,1-1.3-.45,1.78,1.78,0,0,1-.45-1.31,2,2,0,0,1,.18-.85,1.9,1.9,0,0,1,.49-.66,2,2,0,0,1,.71-.42,2.47,2.47,0,0,1,.86-.15,2.28,2.28,0,0,1,1.13.28,3.71,3.71,0,0,1,.93.71,5.73,5.73,0,0,1,.72,1,11.54,11.54,0,0,1,.55,1V112H23.45l-.91-.92h9.2Z"/><path class="cls-7" d="M47.45,112h-2v9.43l-.36-.27a7,7,0,0,0-.77-1.91,12.69,12.69,0,0,0-1.2-1.7,3.39,3.39,0,0,1-.93,1,2.28,2.28,0,0,1-1.3.38,2.67,2.67,0,0,1-1.31-.32,4.44,4.44,0,0,1-1.12-.84,7.09,7.09,0,0,1-.93-1.2,9.6,9.6,0,0,1-.73-1.38,12.34,12.34,0,0,1-.53-1.42,12.56,12.56,0,0,1-.32-1.28l.57.23c.12.33.24.68.38,1s.29.71.46,1a7.84,7.84,0,0,0,.57,1,4.34,4.34,0,0,0,.74.8,3.12,3.12,0,0,0,.91.55,3,3,0,0,0,1.14.2,2.2,2.2,0,0,0,.68-.1,1.49,1.49,0,0,0,.55-.31,1.46,1.46,0,0,0,.39-.49,1.53,1.53,0,0,0,.14-.66,2.58,2.58,0,0,0-.06-.48,2.69,2.69,0,0,0-.17-.57,1.78,1.78,0,0,0-.3-.48.54.54,0,0,0-.41-.19,1.54,1.54,0,0,1-.46.71,1.22,1.22,0,0,1-.8.25,1.6,1.6,0,0,1-.53-.09,1.57,1.57,0,0,1-.48-.25,1.16,1.16,0,0,1-.33-.4,1,1,0,0,1-.14-.53,1,1,0,0,1,.17-.58,1.31,1.31,0,0,1,.42-.39,1.9,1.9,0,0,1,.57-.23,2.58,2.58,0,0,1,.6-.07,2.46,2.46,0,0,1,.89.16,3.23,3.23,0,0,1,.8.42,4,4,0,0,1,.66.64,4.35,4.35,0,0,1,.48.8,3.28,3.28,0,0,1,.24.88,2.49,2.49,0,0,1,0,.9l.95,1.8V112H35.73l-.91-.92H46.51Z"/><path class="cls-7" d="M50.8,112H48.53v9.68a.72.72,0,0,1-.16-.15l-.32-.33-.44-.48v-6.92a3.7,3.7,0,0,0-.07-.76,1.6,1.6,0,0,0-.23-.6,1,1,0,0,0-.43-.37,1.28,1.28,0,0,0-.69-.07l-.75-.92a2.1,2.1,0,0,0,.34,0h.27a2,2,0,0,1,.69.11,1.36,1.36,0,0,1,.49.34,2.12,2.12,0,0,1,.39.63,7.61,7.61,0,0,1,.36.93,4.07,4.07,0,0,0,0-.5c0-.17-.05-.37-.09-.61s-.09-.53-.13-.88-.1-.78-.16-1.31l.37.3a1.68,1.68,0,0,0,.07.33.67.67,0,0,0,.09.21,1.3,1.3,0,0,0,.15.2,3,3,0,0,1,.24.25h1.39Z"/><path class="cls-7" d="M49,111h7.35a1.75,1.75,0,0,0,0-.46,1.11,1.11,0,0,0-.15-.37.91.91,0,0,0-.29-.26,1,1,0,0,0-.44-.09l-.77,0-.8,0L53,110l-.77,0a2.49,2.49,0,0,1-.81-.15,3,3,0,0,1-.8-.4,2.76,2.76,0,0,1-.61-.62,1.39,1.39,0,0,1-.24-.79,3.66,3.66,0,0,1,.06-.65,1.21,1.21,0,0,1,.3-.57l.46.16a1,1,0,0,0-.24.64,1,1,0,0,0,.19.67,1.12,1.12,0,0,0,.49.33,2.28,2.28,0,0,0,.66.12h.69a5.33,5.33,0,0,0,.56,0l.6,0,.6,0,.57,0a2.49,2.49,0,0,1,1,.19A2.21,2.21,0,0,1,57,110.08a2.49,2.49,0,0,1,.18,1h1.31l.93.92H53.86a.3.3,0,0,0,.11.16.7.7,0,0,1,.14.15.61.61,0,0,0,.31.2l.55.22c.2.09.42.2.65.33a2.84,2.84,0,0,1,.62.49,2.55,2.55,0,0,1,.47.73,2.73,2.73,0,0,1,.18,1,2.61,2.61,0,0,1-.17,1,2.39,2.39,0,0,1-1,1.16,4.77,4.77,0,0,1-.62.28c-.2.06-.38.12-.53.15l-.33.07c.35.13.63.26.85.36l.6.31a5.5,5.5,0,0,1,.5.34l.59.45c.14.12.3.25.46.4s.32.29.46.42l.48.48.29,1.25a10.18,10.18,0,0,0-1.5-1.38,10.42,10.42,0,0,0-1.68-1,13.23,13.23,0,0,0-1.86-.77c-.64-.21-1.3-.4-2-.56l-1.11-2.31a4.64,4.64,0,0,0,1.27.56,5.31,5.31,0,0,0,1.37.18,5.54,5.54,0,0,0,.78-.06,3.31,3.31,0,0,0,.81-.2,2.76,2.76,0,0,0,.71-.4,1.79,1.79,0,0,0,.5-.67.88.88,0,0,0,0-.64,1.52,1.52,0,0,0-.36-.61,1.54,1.54,0,0,0-.61-.38,1.14,1.14,0,0,0-.75,0,1.38,1.38,0,0,1-.15.62,1.76,1.76,0,0,1-.41.53,1.79,1.79,0,0,1-.56.38,1.41,1.41,0,0,1-1,.09,1,1,0,0,1-.35-.16.82.82,0,0,1-.23-.29.93.93,0,0,1-.09-.42,1.24,1.24,0,0,1,.21-.74,1.94,1.94,0,0,1,.5-.53,3.69,3.69,0,0,1,.68-.37l.69-.31v0a.19.19,0,0,0-.08-.13.59.59,0,0,0-.17-.13l-.19-.11-.14-.09H49.88Z"/><path class="cls-7" d="M60,110.2a.79.79,0,0,0,.05.15l.11.26.13.26a1.22,1.22,0,0,1,.07.17h1.72L63,112H60.66v9.35l-.47-.45-.32-.31c-.09-.09-.14-.14-.13-.14V112H58.38l-.92-.92h2.37a4,4,0,0,0-.29-.28l-.31-.31a2.52,2.52,0,0,1-.24-.33.72.72,0,0,1-.11-.37,1.87,1.87,0,0,1,.17-.76,2.87,2.87,0,0,1,.43-.7,4.65,4.65,0,0,1,.64-.61,4.94,4.94,0,0,1,.75-.47,4.36,4.36,0,0,1,.79-.32,3,3,0,0,1,.76-.11A5.72,5.72,0,0,1,64,107a6.81,6.81,0,0,1,1.43.58,7.93,7.93,0,0,1,1.31.85,12.72,12.72,0,0,1,1.16,1l.2.6a13.32,13.32,0,0,0-2.12-1.46,7.27,7.27,0,0,0-1.74-.69,3.84,3.84,0,0,0-1.4-.1,3.48,3.48,0,0,0-1.09.32,3,3,0,0,0-.79.57,4.32,4.32,0,0,0-.54.65,2.6,2.6,0,0,0-.3.56A1.06,1.06,0,0,0,60,110.2Z"/><path class="cls-7" d="M72.38,112H66.5v3.58a1.38,1.38,0,0,0,.76-.22,3,3,0,0,0,.61-.52,6.59,6.59,0,0,0,.52-.64,4.18,4.18,0,0,1,.5-.58,1.85,1.85,0,0,1,.68.52,3.67,3.67,0,0,1,.52.8,4.43,4.43,0,0,1,.34.92,3.54,3.54,0,0,1,.12.86,5,5,0,0,1-.2,1.44,3.1,3.1,0,0,1-.61,1.12,2.79,2.79,0,0,1-1,.71,3.74,3.74,0,0,1-1.44.25,3.25,3.25,0,0,1-1.59-.37,4.23,4.23,0,0,1-1.19-1,6.26,6.26,0,0,1-.84-1.43,11.53,11.53,0,0,1-.55-1.66,14.94,14.94,0,0,1-.35-1.69c-.08-.57-.14-1.08-.18-1.54l.53.3a9.72,9.72,0,0,0,.18,1.2,8.83,8.83,0,0,0,.35,1.29,8,8,0,0,0,.54,1.24,5.21,5.21,0,0,0,.76,1.06,3.78,3.78,0,0,0,1,.73,2.74,2.74,0,0,0,1.23.27,3.06,3.06,0,0,0,1-.17A3,3,0,0,0,69,118a2.38,2.38,0,0,0,.64-.74,1.87,1.87,0,0,0,.25-1,1.4,1.4,0,0,0-.15-.64,2.14,2.14,0,0,0-.37-.52,1.61,1.61,0,0,1-.21.37,3.34,3.34,0,0,1-.37.41,4.7,4.7,0,0,1-.47.4c-.18.12-.35.23-.53.33a2.93,2.93,0,0,1-.51.24,1.27,1.27,0,0,1-.43.09,1.21,1.21,0,0,1-.5-.1,1.25,1.25,0,0,1-.41-.26,1.2,1.2,0,0,1-.29-.38,1.06,1.06,0,0,1-.1-.46V112H62l-.91-.92H71.46Z"/><path class="cls-7" d="M80.44,112H78.36v9.51a1.34,1.34,0,0,1-.27-.26,2.14,2.14,0,0,1-.2-.32,3.78,3.78,0,0,1-.17-.35c0-.11-.1-.23-.16-.34a4.57,4.57,0,0,0-1.71-2,5.16,5.16,0,0,0-2.48-.75l-1.23-1.57c.43-.43.87-.84,1.32-1.22s.92-.76,1.41-1.14a2.33,2.33,0,0,0-.4-.33,1.77,1.77,0,0,0-.41-.21,3,3,0,0,0-.45-.12l-.52-.08a2.4,2.4,0,0,1-.82-.21,3.06,3.06,0,0,1-.61-.4,4.59,4.59,0,0,1-.54-.54,8.49,8.49,0,0,0-.6-.63h9Zm-5.56,8.69a1.1,1.1,0,0,1-.4-.08,1,1,0,0,1-.33-.23,1,1,0,0,1-.23-.32,1,1,0,0,1-.08-.39,1,1,0,0,1,.07-.36.93.93,0,0,1,.2-.3,1,1,0,0,1,.29-.21.94.94,0,0,1,.37-.07,1.09,1.09,0,0,1,.39.08,1.38,1.38,0,0,1,.33.2,1,1,0,0,1,.23.31.89.89,0,0,1,.09.39,1,1,0,0,1-.08.37,1.08,1.08,0,0,1-.19.31,1.29,1.29,0,0,1-.3.22A.94.94,0,0,1,74.88,120.65Zm2.55-1.59V112H74.07a6.14,6.14,0,0,1,.63.48l.55.52.51.56.52.59c-.35.39-.72.76-1.1,1.11a14.71,14.71,0,0,0-1.1,1.13,5.41,5.41,0,0,1,1.92,1A6.42,6.42,0,0,1,77.43,119.06Z"/><path class="cls-7" d="M84,112H81.74v9.68l-.16-.15-.31-.33-.44-.48v-6.92a4.56,4.56,0,0,0-.07-.76,1.79,1.79,0,0,0-.23-.6,1,1,0,0,0-.44-.37,1.25,1.25,0,0,0-.69-.07l-.75-.92a2.22,2.22,0,0,0,.35,0h.27a1.94,1.94,0,0,1,.68.11,1.39,1.39,0,0,1,.5.34,2.63,2.63,0,0,1,.39.63,7.74,7.74,0,0,1,.35.93,4.07,4.07,0,0,0,0-.5c0-.17,0-.37-.09-.61s-.08-.53-.13-.88-.1-.78-.15-1.31l.37.3q0,.21.06.33a1,1,0,0,0,.1.21,1.3,1.3,0,0,0,.15.2l.24.25H83.1Z"/><path class="cls-7" d="M93.19,112h-2v9.45l-.39-.37-.3-.3-.23-.22v-5.11a.94.94,0,0,0-.11-.42,1.46,1.46,0,0,0-.27-.38,1.29,1.29,0,0,0-.38-.28,1,1,0,0,0-.43-.11.67.67,0,0,0-.57.25,1,1,0,0,0-.2.61,1.15,1.15,0,0,0,0,.31c0,.1,0,.21,0,.31l-.38.15a1.59,1.59,0,0,0-.26-.63,2.23,2.23,0,0,0-.47-.5,2.36,2.36,0,0,0-.62-.35,2.67,2.67,0,0,0-.66-.17,2.53,2.53,0,0,0-.68,0,1.88,1.88,0,0,0-.56.23,1.42,1.42,0,0,0-.41.4,1.54,1.54,0,0,0-.22.59,1.29,1.29,0,0,0,.1.86,1,1,0,0,0,.75.44,1.42,1.42,0,0,1-.21-.33.85.85,0,0,1-.07-.39,1.3,1.3,0,0,1,.09-.4.87.87,0,0,1,.22-.31,1.08,1.08,0,0,1,.34-.21,1.29,1.29,0,0,1,.4-.07.84.84,0,0,1,.49.15,1.3,1.3,0,0,1,.37.37,2,2,0,0,1,.23.49,1.92,1.92,0,0,1,.08.51.78.78,0,0,1-.14.46,1.37,1.37,0,0,1-.35.33,2,2,0,0,1-.47.21,2.89,2.89,0,0,1-.47.08,2.56,2.56,0,0,1-1.08-.17,1.67,1.67,0,0,1-.71-.54,2,2,0,0,1-.38-.83,3.79,3.79,0,0,1-.06-1.08,2.71,2.71,0,0,1,.2-.85,2.14,2.14,0,0,1,.46-.69,2,2,0,0,1,.69-.47,2.13,2.13,0,0,1,.9-.18,2.31,2.31,0,0,1,.61.08,2.25,2.25,0,0,1,.52.24,2.6,2.6,0,0,1,.45.37,3.6,3.6,0,0,1,.39.47.7.7,0,0,1,.12-.36,1.64,1.64,0,0,1,.29-.36,1.54,1.54,0,0,1,.36-.27.68.68,0,0,1,.36-.11,1.17,1.17,0,0,1,.58.15,1.91,1.91,0,0,1,.47.39A3.41,3.41,0,0,1,90,114a4.09,4.09,0,0,1,.24.54V112H83.1l-.48-.47-.33-.31c-.09-.1-.14-.15-.14-.14H92.23s0,0,.15.13l.33.32Z"/><path class="cls-7" d="M13.91,129h7.35a1.75,1.75,0,0,0-.05-.46,1,1,0,0,0-.16-.37.78.78,0,0,0-.28-.26,1,1,0,0,0-.44-.09l-.77,0-.8,0L18,128l-.77,0a2.49,2.49,0,0,1-.81-.15,2.86,2.86,0,0,1-.8-.4,2.76,2.76,0,0,1-.61-.62,1.39,1.39,0,0,1-.24-.79,3.66,3.66,0,0,1,.06-.65,1.06,1.06,0,0,1,.3-.57l.46.16a1,1,0,0,0-.24.64,1,1,0,0,0,.19.67,1.12,1.12,0,0,0,.49.33,2.28,2.28,0,0,0,.66.12h.68a5.62,5.62,0,0,0,.57,0l.6,0,.6,0,.57,0a2.49,2.49,0,0,1,1,.19,2.23,2.23,0,0,1,.77.5,2.38,2.38,0,0,1,.5.77,2.49,2.49,0,0,1,.18,1h1.31l.93.92H18.8a.3.3,0,0,0,.11.16,1.1,1.1,0,0,1,.14.15.61.61,0,0,0,.31.2l.55.22a6.55,6.55,0,0,1,.64.33,2.68,2.68,0,0,1,.63.49,2.33,2.33,0,0,1,.46.73,2.54,2.54,0,0,1,.19,1,2.61,2.61,0,0,1-.17,1,2.39,2.39,0,0,1-1,1.16,5.46,5.46,0,0,1-.62.28c-.2.06-.38.12-.53.15l-.33.07c.35.13.63.26.85.36l.6.31a5.5,5.5,0,0,1,.5.34l.58.45.47.4.45.42.49.48.29,1.25a10.49,10.49,0,0,0-3.19-2.42,13.1,13.1,0,0,0-1.85-.77c-.64-.21-1.3-.4-2-.56l-1.11-2.31a4.64,4.64,0,0,0,1.27.56,5.26,5.26,0,0,0,1.37.18,5.54,5.54,0,0,0,.78-.06,3.24,3.24,0,0,0,.8-.2,2.82,2.82,0,0,0,.72-.4,1.79,1.79,0,0,0,.5-.67.88.88,0,0,0,0-.64,1.49,1.49,0,0,0-1-1,1.11,1.11,0,0,0-.74,0,1.38,1.38,0,0,1-.15.62,1.76,1.76,0,0,1-.41.53,1.91,1.91,0,0,1-.56.38,1.41,1.41,0,0,1-1,.09,1,1,0,0,1-.35-.16.73.73,0,0,1-.23-.29.93.93,0,0,1-.09-.42,1.32,1.32,0,0,1,.2-.74,2.14,2.14,0,0,1,.51-.53,4,4,0,0,1,.67-.37l.69-.31v-.05a.17.17,0,0,0-.07-.13.76.76,0,0,0-.17-.13l-.19-.11-.14-.09H14.82Z"/><path class="cls-7" d="M32.62,130h-2v9.62l-.35-.46s0-.08,0-.12v-.14a6,6,0,0,0-.1-1,10.52,10.52,0,0,0-.32-1.22,11.51,11.51,0,0,0-.52-1.26,6.12,6.12,0,0,0-.69-1.11,3.59,3.59,0,0,0-.87-.79,1.84,1.84,0,0,0-1-.3h-.13a.27.27,0,0,0-.11,0c.09.12.17.23.24.34a3.21,3.21,0,0,1,.19.31,2.09,2.09,0,0,1,.13.35,1.7,1.7,0,0,1,.05.41,1.07,1.07,0,0,1-.1.49,1.06,1.06,0,0,1-.27.35,1.22,1.22,0,0,1-.41.21,1.57,1.57,0,0,1-.49.08,1.74,1.74,0,0,1-1.3-.45A1.78,1.78,0,0,1,24.1,134a2,2,0,0,1,.18-.85,1.9,1.9,0,0,1,.49-.66,2,2,0,0,1,.71-.42,2.43,2.43,0,0,1,.86-.15,2.28,2.28,0,0,1,1.13.28,3.49,3.49,0,0,1,.92.71,5.28,5.28,0,0,1,.73,1,11.54,11.54,0,0,1,.55,1V130H23.38l-.91-.92h9.2Z"/><path class="cls-7" d="M33.19,128.2a.79.79,0,0,0,.05.15l.11.26c0,.09.09.17.13.26l.07.17h1.72l.92.92H33.87v9.35l-.47-.45-.32-.31c-.09-.09-.14-.14-.13-.14V130H31.59l-.92-.92H33a4,4,0,0,0-.29-.28c-.11-.1-.21-.2-.31-.31a2.52,2.52,0,0,1-.24-.33.72.72,0,0,1-.11-.37,1.87,1.87,0,0,1,.17-.76,2.87,2.87,0,0,1,.43-.7,4.65,4.65,0,0,1,.64-.61,4.94,4.94,0,0,1,.75-.47,4.36,4.36,0,0,1,.79-.32,3,3,0,0,1,.76-.11,5.72,5.72,0,0,1,1.54.21,6.81,6.81,0,0,1,1.43.58,7.93,7.93,0,0,1,1.31.85,12.72,12.72,0,0,1,1.16,1l.2.6a13.32,13.32,0,0,0-2.12-1.46,7.27,7.27,0,0,0-1.74-.69,3.84,3.84,0,0,0-1.4-.1,3.48,3.48,0,0,0-1.09.32,3,3,0,0,0-.79.57,4.32,4.32,0,0,0-.54.65,2.6,2.6,0,0,0-.3.56A1.06,1.06,0,0,0,33.19,128.2Z"/><path class="cls-7" d="M49.15,129l.93.92H43.34v6.18a.59.59,0,0,0,.19.5.8.8,0,0,0,.53.16,1.32,1.32,0,0,0,.56-.14,3.65,3.65,0,0,0,.59-.35,5.27,5.27,0,0,0,.56-.51,5.39,5.39,0,0,0,.47-.6,4.16,4.16,0,0,0,.35-.61,1.65,1.65,0,0,0,.16-.56.75.75,0,0,1-.28,0A1.61,1.61,0,0,1,46,134a1.28,1.28,0,0,1-.38-.21.94.94,0,0,1-.27-.32,1,1,0,0,1-.09-.44,1.44,1.44,0,0,1,.09-.51,1.16,1.16,0,0,1,.26-.39,1.2,1.2,0,0,1,.4-.26,1.44,1.44,0,0,1,.51-.09,1.24,1.24,0,0,1,.64.16,1.6,1.6,0,0,1,.49.41,2,2,0,0,1,.31.58,2.17,2.17,0,0,1,.11.66,4.25,4.25,0,0,1-.24,1.4,3.2,3.2,0,0,1-.73,1.21c-.2.21-.4.41-.62.62a5.94,5.94,0,0,1-.68.56,3.32,3.32,0,0,1-.77.4,2.2,2.2,0,0,1-.86.16,1.73,1.73,0,0,1-.54-.1,2.24,2.24,0,0,1-.59-.27,2,2,0,0,1-.47-.4.8.8,0,0,1-.19-.52v-2.12a1.26,1.26,0,0,0-.12-.51,2.22,2.22,0,0,0-.3-.49,2.17,2.17,0,0,0-.44-.36,1.09,1.09,0,0,0-.51-.14.93.93,0,0,0-.58.22,3.48,3.48,0,0,0-.5.56,8.12,8.12,0,0,0-.46.72c-.16.25-.32.49-.49.72a2.79,2.79,0,0,1-.53.55,1,1,0,0,1-.63.22h-.39a.65.65,0,0,1-.21,0,.26.26,0,0,1-.14-.1.72.72,0,0,1-.4-.26,4.69,4.69,0,0,1-.39-.52c-.13-.2-.24-.4-.35-.6s-.19-.36-.25-.47l.62-.58a.91.91,0,0,0,.09.33,2.22,2.22,0,0,0,.2.41,1.56,1.56,0,0,0,.27.34.46.46,0,0,0,.32.14.5.5,0,0,0,.28-.12,2.33,2.33,0,0,0,.34-.31l.35-.41c.12-.15.22-.29.32-.43l.26-.36a2.45,2.45,0,0,1,.14-.21,3.67,3.67,0,0,0-.27-1.18,1.36,1.36,0,0,0-.48-.6,1.4,1.4,0,0,0-.63-.22l-.72-.05a4.82,4.82,0,0,1-.74-.09,1.69,1.69,0,0,1-.71-.35l-.2-.47-.42-.4-.28-.28a.74.74,0,0,1-.12-.13H47.27a3.59,3.59,0,0,0,.08-.35,2,2,0,0,0,0-.35.5.5,0,0,0-.11-.32.94.94,0,0,0-.29-.21,1.41,1.41,0,0,0-.38-.11c-.14,0-.29,0-.43-.06h-.7l-1.13,0-1.27.08-1.26.08c-.41,0-.78,0-1.12,0a3.64,3.64,0,0,1-1-.13,2.74,2.74,0,0,1-.87-.38,2.1,2.1,0,0,1-.61-.68,2,2,0,0,1-.22-1,1.47,1.47,0,0,1,0-.28,2.17,2.17,0,0,1,.07-.35,1.8,1.8,0,0,1,.14-.31.36.36,0,0,1,.22-.17,2.31,2.31,0,0,0,.16.19.57.57,0,0,1,.12.21,1.07,1.07,0,0,0-.15.22.55.55,0,0,0-.06.26.85.85,0,0,0,.12.46,1.26,1.26,0,0,0,.33.32,2,2,0,0,0,.44.19,1.83,1.83,0,0,0,.46.07l1.13,0,1.26-.07,1.27-.07,1.13,0c.38,0,.77,0,1.18.06a3.69,3.69,0,0,1,1.12.29,2,2,0,0,1,.83.68,1.93,1.93,0,0,1,.33,1.19c0,.08,0,.17,0,.26a.47.47,0,0,1,0,.24Zm-6.73,4.18V130H38.19a6.75,6.75,0,0,1,.55.48,2.47,2.47,0,0,1,.42.51,1.64,1.64,0,0,1,.21.61,2,2,0,0,1,0,.76,1,1,0,0,0,.28-.16l.26-.21a2.22,2.22,0,0,1,.27-.19.71.71,0,0,1,.32-.1,1.21,1.21,0,0,1,.6.15,2.38,2.38,0,0,1,.5.4c.15.16.3.33.44.51A5.21,5.21,0,0,0,42.42,133.22Z"/><path class="cls-7" d="M50.69,128.2a.79.79,0,0,0,.05.15l.11.26c0,.09.09.17.13.26l.07.17h1.72l.92.92H51.37v9.35l-.47-.45-.32-.31c-.09-.09-.14-.14-.13-.14V130H49.09l-.92-.92h2.37a4,4,0,0,0-.29-.28c-.11-.1-.21-.2-.31-.31a2.52,2.52,0,0,1-.24-.33.72.72,0,0,1-.11-.37,1.87,1.87,0,0,1,.17-.76,2.87,2.87,0,0,1,.43-.7,4.65,4.65,0,0,1,.64-.61,4.94,4.94,0,0,1,.75-.47,4.36,4.36,0,0,1,.79-.32,3,3,0,0,1,.76-.11,5.72,5.72,0,0,1,1.54.21,6.81,6.81,0,0,1,1.43.58,7.93,7.93,0,0,1,1.31.85,12.72,12.72,0,0,1,1.16,1l.2.6a13.32,13.32,0,0,0-2.12-1.46,7.27,7.27,0,0,0-1.74-.69,3.84,3.84,0,0,0-1.4-.1,3.48,3.48,0,0,0-1.09.32,3,3,0,0,0-.79.57,4.32,4.32,0,0,0-.54.65,2.6,2.6,0,0,0-.3.56A1.06,1.06,0,0,0,50.69,128.2Z"/><path class="cls-7" d="M61.58,130h-6.7v6.18a.63.63,0,0,0,.19.5.78.78,0,0,0,.53.16,1.36,1.36,0,0,0,.56-.14,3.27,3.27,0,0,0,.59-.35,5.2,5.2,0,0,0,.55-.51,4.51,4.51,0,0,0,.48-.6,3.42,3.42,0,0,0,.35-.61,2.35,2.35,0,0,0,.17-.56l-.14,0H58a1.63,1.63,0,0,1-.45-.07,1.41,1.41,0,0,1-.38-.21.82.82,0,0,1-.26-.32.92.92,0,0,1-.1-.44,1.44,1.44,0,0,1,.09-.51,1.19,1.19,0,0,1,.27-.39,1.2,1.2,0,0,1,.4-.26,1.35,1.35,0,0,1,.5-.09,1.22,1.22,0,0,1,.64.16,1.49,1.49,0,0,1,.49.41,1.8,1.8,0,0,1,.31.58,2.17,2.17,0,0,1,.11.66,4.51,4.51,0,0,1-.23,1.4,3.2,3.2,0,0,1-.73,1.21c-.14.15-.32.32-.53.53a7.83,7.83,0,0,1-.69.58,4,4,0,0,1-.74.47,1.57,1.57,0,0,1-.71.2,1.89,1.89,0,0,1-1.06-.27,1.72,1.72,0,0,1-.62-.69,2.94,2.94,0,0,1-.3-1,7.4,7.4,0,0,1-.08-1V130h-1.4l-.76-.92h7.48a2.26,2.26,0,0,1,0-.26,2.26,2.26,0,0,0,0-.26.55.55,0,0,0-.12-.35,1,1,0,0,0-.29-.26,1.57,1.57,0,0,0-.38-.14,1.2,1.2,0,0,0-.36,0c-.45,0-.89,0-1.33.06a12,12,0,0,1-1.34.07,4.07,4.07,0,0,1-1-.12,3.17,3.17,0,0,1-.91-.37,2.23,2.23,0,0,1-.69-.64,1.59,1.59,0,0,1-.27-.93,1.33,1.33,0,0,1,0-.32,1.8,1.8,0,0,1,.12-.35.79.79,0,0,1,.2-.27.38.38,0,0,1,.29-.1h0a.47.47,0,0,1,0,.17.86.86,0,0,1,0,.16.82.82,0,0,0-.16.22.62.62,0,0,0-.06.26.81.81,0,0,0,.13.47,1.34,1.34,0,0,0,.35.32,1.44,1.44,0,0,0,.46.19,2.12,2.12,0,0,0,.49.06l.45,0,.49,0,.49-.05.46,0,.36,0h.37a4.42,4.42,0,0,1,1.15.14,2.76,2.76,0,0,1,1,.45,2.21,2.21,0,0,1,.67.81,2.31,2.31,0,0,1,.16,1.21h.5l.14.12.32.32Z"/><path class="cls-7" d="M60,129h8.39a2.31,2.31,0,0,0,0-.46,1.38,1.38,0,0,0-.16-.37.81.81,0,0,0-.29-.26.94.94,0,0,0-.43-.09l-.89,0-1,0-1.07,0-.89,0a2.55,2.55,0,0,1-.82-.15,2.94,2.94,0,0,1-.79-.4,2.39,2.39,0,0,1-.61-.62,1.39,1.39,0,0,1-.24-.79,3.66,3.66,0,0,1,.06-.65,1,1,0,0,1,.31-.57l.46.16a.92.92,0,0,0-.25.64,1,1,0,0,0,.2.67,1.07,1.07,0,0,0,.49.33,2.15,2.15,0,0,0,.65.12h.69c.18,0,.41,0,.68,0l.86,0,.84,0,.68,0a2.72,2.72,0,0,1,1,.19,2.22,2.22,0,0,1,.81.5,2.51,2.51,0,0,1,.55.77,2.17,2.17,0,0,1,.2,1h1.24l.93.92h-5.9v2.73a1.22,1.22,0,0,0,0,.26,2.44,2.44,0,0,0,.1.24.69.69,0,0,0,.17.17.44.44,0,0,0,.26.07.35.35,0,0,0,.22-.13c.09-.08.19-.19.3-.31l.35-.4c.13-.15.25-.29.37-.41a4.4,4.4,0,0,1,.33-.31.53.53,0,0,1,.28-.13.7.7,0,0,1,.44.16,1.52,1.52,0,0,1,.4.4,3.33,3.33,0,0,1,.34.56,5.59,5.59,0,0,1,.26.63c.06.2.12.4.16.6a2.4,2.4,0,0,1,.06.48A4.64,4.64,0,0,1,69.4,136a3.24,3.24,0,0,1-.6,1.15,2.71,2.71,0,0,1-1,.74,3.56,3.56,0,0,1-1.44.27,3.41,3.41,0,0,1-1.63-.38,3.93,3.93,0,0,1-1.2-1,6.12,6.12,0,0,1-.84-1.41,11.4,11.4,0,0,1-.55-1.65,14.87,14.87,0,0,1-.34-1.69c-.09-.56-.15-1.07-.2-1.54l.55.3a9.57,9.57,0,0,0,.16,1.19,9.19,9.19,0,0,0,.37,1.28,7.3,7.3,0,0,0,.57,1.24,5,5,0,0,0,.77,1.06,3.83,3.83,0,0,0,1,.74,2.52,2.52,0,0,0,1.19.28,2.78,2.78,0,0,0,1-.18,3.13,3.13,0,0,0,.87-.5,2.5,2.5,0,0,0,.61-.76,2,2,0,0,0,.24-1,1.31,1.31,0,0,0-.13-.59,1.56,1.56,0,0,0-.33-.5,1.59,1.59,0,0,1-.34.53,4.77,4.77,0,0,1-.61.57,4.28,4.28,0,0,1-.71.46,1.53,1.53,0,0,1-.63.18,1.57,1.57,0,0,1-.58-.1,1.54,1.54,0,0,1-.45-.3,1.31,1.31,0,0,1-.31-.43,1.66,1.66,0,0,1-.15-.55V130h-3.8Z"/><path class="cls-7" d="M79.42,130h-6.7v6.18a.63.63,0,0,0,.19.5.81.81,0,0,0,.54.16,1.32,1.32,0,0,0,.55-.14,3.27,3.27,0,0,0,.59-.35,4.38,4.38,0,0,0,.55-.51,4.51,4.51,0,0,0,.48-.6,3.42,3.42,0,0,0,.35-.61,2,2,0,0,0,.17-.56l-.14,0h-.14a1.69,1.69,0,0,1-.45-.07,1.23,1.23,0,0,1-.37-.21.94.94,0,0,1-.27-.32.92.92,0,0,1-.1-.44,1.25,1.25,0,0,1,.1-.51,1.16,1.16,0,0,1,.26-.39,1.31,1.31,0,0,1,.4-.26,1.39,1.39,0,0,1,.5-.09,1.28,1.28,0,0,1,.65.16,1.46,1.46,0,0,1,.48.41,1.8,1.8,0,0,1,.31.58,1.91,1.91,0,0,1,.11.66,4.24,4.24,0,0,1-.23,1.4,3.17,3.17,0,0,1-.72,1.21l-.54.53a7.68,7.68,0,0,1-.68.58,4.05,4.05,0,0,1-.75.47,1.57,1.57,0,0,1-.71.2,1.86,1.86,0,0,1-1-.27,1.82,1.82,0,0,1-.63-.69,2.94,2.94,0,0,1-.3-1,7.37,7.37,0,0,1-.07-1V130H70.39l-.76-.92h7.48c0-.09,0-.17,0-.26a2.26,2.26,0,0,0,0-.26.55.55,0,0,0-.12-.35.92.92,0,0,0-.29-.26,1.66,1.66,0,0,0-.37-.14,1.2,1.2,0,0,0-.36,0c-.45,0-.9,0-1.34.06a11.9,11.9,0,0,1-1.34.07,4,4,0,0,1-1-.12,3.11,3.11,0,0,1-.92-.37,2.23,2.23,0,0,1-.69-.64,1.59,1.59,0,0,1-.27-.93,1.33,1.33,0,0,1,0-.32,1.8,1.8,0,0,1,.12-.35.82.82,0,0,1,.21-.27.36.36,0,0,1,.28-.1h0a.88.88,0,0,1,0,.17.86.86,0,0,1,0,.16,1.12,1.12,0,0,0-.16.22.62.62,0,0,0-.06.26.75.75,0,0,0,.14.47,1.3,1.3,0,0,0,.34.32,1.54,1.54,0,0,0,.46.19,2.12,2.12,0,0,0,.49.06l.46,0,.48,0,.49-.05.46,0,.37,0H75a4.55,4.55,0,0,1,1.16.14,2.64,2.64,0,0,1,1,.45,2.12,2.12,0,0,1,.67.81A2.3,2.3,0,0,1,78,129h.49s0,0,.14.12l.32.32Z"/><path d="M17.77,149.7h-1.3V156a.15.15,0,0,0-.08-.08l-.08,0-.07,0s0,0-.08-.08a.57.57,0,0,1-.06-.15c0-.07,0-.14,0-.22l-.06-.25a1.83,1.83,0,0,0-.08-.25,3.28,3.28,0,0,0-.26-.46,2.38,2.38,0,0,0-.32-.38,3.27,3.27,0,0,0-.35-.3c-.13-.09-.26-.18-.4-.26a4.37,4.37,0,0,0-.73-.34,3.56,3.56,0,0,0-.79-.15L12.31,152A13.85,13.85,0,0,1,14,150.89a11.66,11.66,0,0,1,1.85-.78v-.41H12l-.58-.6h5.75Zm-1.9,4.53v-3.16a8.28,8.28,0,0,0-1.18.52c-.38.21-.76.44-1.12.68a5.57,5.57,0,0,1,1.31.79A4,4,0,0,1,15.87,154.23Z"/><path d="M24.61,149.7H21.43v.45l0,0h.05a1.59,1.59,0,0,1,.82.23,2.49,2.49,0,0,1,.68.57,2.86,2.86,0,0,1,.46.77,2.37,2.37,0,0,1,.17.84,1.52,1.52,0,0,1-.06.42,1.43,1.43,0,0,1-.19.37.86.86,0,0,1-.72.38.72.72,0,0,1-.29-.06.82.82,0,0,1-.25-.16.76.76,0,0,1-.17-.23.55.55,0,0,1-.07-.28.7.7,0,0,1,.09-.35,1.55,1.55,0,0,1,.24-.27l.18,0,.17,0a.56.56,0,0,1,.33.1,2.27,2.27,0,0,1,.28.21.09.09,0,0,0,0,0v-.05a1.26,1.26,0,0,0-.14-.6,1.55,1.55,0,0,0-.38-.5,1.8,1.8,0,0,0-.52-.34,1.41,1.41,0,0,0-.6-.1h-.13v4.79l-.05,0-.09-.07-.11-.12a6,6,0,0,0-.44-1,3.33,3.33,0,0,0-.62-.77,3.36,3.36,0,0,0-.82-.55,3.32,3.32,0,0,0-1-.27l-.82-1a6.62,6.62,0,0,1,.75-.55c.27-.18.56-.35.86-.51s.6-.29.9-.42.59-.24.87-.33v-.46H17.16l-.61-.6H24Zm-3.78,4.43V151c-.21.07-.41.16-.6.24l-.54.29c-.17.09-.34.2-.51.31l-.52.36a4.87,4.87,0,0,1,1.25.78A4.41,4.41,0,0,1,20.83,154.13Z"/><path d="M30.91,149.7H29.43v6.14l-.11-.09-.22-.21-.32-.3,0-3.75a.93.93,0,0,0,0-.24,2.73,2.73,0,0,0-.14-.31,2.82,2.82,0,0,0-.21-.31,1.61,1.61,0,0,0-.24-.28,1.16,1.16,0,0,0-.25-.2.49.49,0,0,0-.24-.07l-.2,0-.21.1a.61.61,0,0,0-.17.15.34.34,0,0,0-.07.19l.31.22.29.26a1.4,1.4,0,0,1,.22.32.74.74,0,0,1,.09.36.82.82,0,0,1-.19.6.77.77,0,0,1-.58.19.64.64,0,0,1-.28-.05,1.19,1.19,0,0,1-.25-.13,1,1,0,0,1-.21-.21,1.88,1.88,0,0,1-.16-.23,1.22,1.22,0,0,1-.16.26,1.2,1.2,0,0,1-.23.22.92.92,0,0,1-.27.16.8.8,0,0,1-.3.06.62.62,0,0,1-.31-.07.74.74,0,0,1-.23-.2,1.08,1.08,0,0,1-.15-.28,1.19,1.19,0,0,1-.05-.32.93.93,0,0,1,.11-.38,2,2,0,0,1,.25-.41,2.73,2.73,0,0,1,.34-.34.71.71,0,0,1,.33-.16,1.51,1.51,0,0,0-.27-.46,1,1,0,0,0-.36-.21,1.52,1.52,0,0,0-.44-.05H24s0,0-.09-.09l-.21-.2-.2-.22-.09-.1h1.23a1.22,1.22,0,0,1,.45.1,1.69,1.69,0,0,1,.41.24,1.79,1.79,0,0,1,.31.36,1.21,1.21,0,0,1,.18.44,2.25,2.25,0,0,1,.24-.42,2.31,2.31,0,0,1,.34-.36,1.49,1.49,0,0,1,.41-.26,1.16,1.16,0,0,1,.48-.11.43.43,0,0,1,.25.12,2.16,2.16,0,0,1,.31.3,4.69,4.69,0,0,1,.33.4c.11.15.21.3.3.44s.17.27.23.38A.92.92,0,0,1,29,151l-.06-.73c0-.23,0-.46-.06-.69s0-.46,0-.69,0-.48,0-.73l.2.17a1.54,1.54,0,0,1,.17.19.34.34,0,0,1,.08.17,1.29,1.29,0,0,0,0,.19.34.34,0,0,0,.1.16.35.35,0,0,0,.24.06h.52Z"/><path d="M33.22,149.7H31.55v6.15l-.1-.09-.21-.2-.29-.3V149.7H30.2l-.65-.6H31a3.29,3.29,0,0,0-.44-1.13,2.86,2.86,0,0,0-.75-.76,3.12,3.12,0,0,0-1-.43,5.08,5.08,0,0,0-1.2-.13h-.22l-.34,0-.38.07a1.79,1.79,0,0,0-.35.11.81.81,0,0,0-.26.15.26.26,0,0,0-.1.2.2.2,0,0,0,.13.2,1.34,1.34,0,0,0,.36.09,3.89,3.89,0,0,0,.51,0l.58,0a5.4,5.4,0,0,1,.58.09,1.93,1.93,0,0,1,.51.19,1.06,1.06,0,0,1,.36.37,1.14,1.14,0,0,1,.14.59,1.13,1.13,0,0,1-.06.36h-.63a1.57,1.57,0,0,0,.19-.18.33.33,0,0,0,.1-.24.32.32,0,0,0-.13-.26,1.24,1.24,0,0,0-.36-.13,3.28,3.28,0,0,0-.49-.06l-.57,0-.57-.08a1.78,1.78,0,0,1-.49-.18.91.91,0,0,1-.35-.32.94.94,0,0,1-.14-.52.56.56,0,0,1,.12-.36,1.12,1.12,0,0,1,.32-.29,2,2,0,0,1,.44-.22,3.06,3.06,0,0,1,.49-.15l.47-.09.37,0a3.37,3.37,0,0,1,.77.09c.25.06.5.13.74.21a2.54,2.54,0,0,1,.83.44,3.41,3.41,0,0,1,.6.66,4.16,4.16,0,0,1,.44.8c.12.29.21.58.3.87h1.08Z"/><path d="M41.57,149.7h-1.3V156a.15.15,0,0,0-.08-.08l-.08,0-.07,0s0,0-.08-.08a.57.57,0,0,1-.06-.15c0-.07,0-.14,0-.22l-.06-.25a1.83,1.83,0,0,0-.08-.25,3.28,3.28,0,0,0-.26-.46,3,3,0,0,0-.31-.38q-.18-.17-.36-.3c-.13-.09-.26-.18-.4-.26a4.37,4.37,0,0,0-.73-.34,3.45,3.45,0,0,0-.79-.15L36.11,152a13.85,13.85,0,0,1,1.71-1.06,12.06,12.06,0,0,1,1.85-.78v-.41H35.81l-.58-.6H41Zm-1.9,4.53v-3.16a8.28,8.28,0,0,0-1.18.52c-.38.21-.76.44-1.12.68a5.57,5.57,0,0,1,1.31.79A4,4,0,0,1,39.67,154.23Z"/><path d="M44,149.7H42.48V156l-.1-.09-.21-.22-.29-.31v-4.5a2.56,2.56,0,0,0,0-.49,1.13,1.13,0,0,0-.15-.39.6.6,0,0,0-.28-.24.8.8,0,0,0-.45-.05l-.49-.6h.4a1.42,1.42,0,0,1,.45.07,1,1,0,0,1,.32.23,1.52,1.52,0,0,1,.25.4,4.15,4.15,0,0,1,.23.61,1.67,1.67,0,0,0,0-.32c0-.11,0-.24-.05-.4s-.06-.35-.09-.57-.06-.51-.1-.85l.24.19a2,2,0,0,0,0,.21,1,1,0,0,0,.06.14.64.64,0,0,0,.1.13l.16.16h.9Z"/><path d="M51.07,149.7H47a.41.41,0,0,0-.12,0l-.15.1a.58.58,0,0,0-.14.13.21.21,0,0,0-.05.11.24.24,0,0,0,.1.19l.26.15.36.12.38.08.34,0,.24,0a1,1,0,0,0,.28,0l.31-.07.31-.1.27-.09c.15.16.3.31.46.46s.3.31.44.47a2.61,2.61,0,0,0-.46.58,3.11,3.11,0,0,0-.3.67,4.21,4.21,0,0,0-.18.72,6,6,0,0,0,0,.73v.44c0,.15,0,.29,0,.44s0,.29.07.43a2.16,2.16,0,0,0,.13.41h0l-.29-.06a.81.81,0,0,1-.27-.11c-.07-.4-.13-.8-.17-1.21a12.16,12.16,0,0,1-.06-1.22,4,4,0,0,1,.11-.9,6.59,6.59,0,0,1,.27-.86,5.58,5.58,0,0,1-1-.07,3.67,3.67,0,0,1-.76-.19,2.68,2.68,0,0,1-.56-.29,2.44,2.44,0,0,1-.4-.38.49.49,0,0,0-.31.13,2.27,2.27,0,0,0-.31.31,2.14,2.14,0,0,0-.23.38.71.71,0,0,0-.1.33.37.37,0,0,0,.12.31.53.53,0,0,0,.32.1,1,1,0,0,0,.29-.07l.36-.15.36-.18.29-.13.08,0a.19.19,0,0,1,.17.07,1.08,1.08,0,0,1,.19.22c.07.1.13.21.2.33s.12.25.17.37a2.53,2.53,0,0,1,.12.36,1,1,0,0,1,0,.27,1.56,1.56,0,0,1-.13.64,1.54,1.54,0,0,1-.35.52,1.73,1.73,0,0,1-.52.36,1.65,1.65,0,0,1-.63.13,2,2,0,0,1-.89-.2,2.45,2.45,0,0,1-.68-.53,3.18,3.18,0,0,1-.51-.73,6.58,6.58,0,0,1-.36-.82,3.77,3.77,0,0,1-.12-.53,4.2,4.2,0,0,1-.07-.62l0-.62v-.55l.16.09.17.1v.25a5.14,5.14,0,0,0,.07.88,3.84,3.84,0,0,0,.27.83,3.08,3.08,0,0,0,.47.72,2.53,2.53,0,0,0,.69.56,1.08,1.08,0,0,0,.29.13,1.13,1.13,0,0,0,.32.05,2.37,2.37,0,0,0,.42-.05,1.9,1.9,0,0,0,.48-.14,1.16,1.16,0,0,0,.38-.26.49.49,0,0,0,.16-.38.77.77,0,0,0,0-.15.76.76,0,0,0-.06-.16.28.28,0,0,0-.11-.13.18.18,0,0,0-.13-.06.59.59,0,0,0-.19.05l-.27.1-.32.1a1.25,1.25,0,0,1-.87-.09,1.51,1.51,0,0,1-.44-.35,1.74,1.74,0,0,1-.28-.5,1.56,1.56,0,0,1-.11-.57,1.27,1.27,0,0,1,.08-.44,1.79,1.79,0,0,1,.2-.39,2.2,2.2,0,0,1,.28-.34l.3-.34H43.36l-.59-.6h7.7Z"/><path d="M53.31,149.7H51.83V156l-.1-.09-.21-.22-.28-.31v-4.5a2.54,2.54,0,0,0-.05-.49A1.13,1.13,0,0,0,51,150a.6.6,0,0,0-.28-.24.8.8,0,0,0-.45-.05l-.49-.6h.4a1.42,1.42,0,0,1,.45.07.9.9,0,0,1,.32.23,1.52,1.52,0,0,1,.25.4,5.56,5.56,0,0,1,.24.61c0-.11,0-.22,0-.32s0-.24-.06-.4-.06-.35-.09-.57-.06-.51-.1-.85l.24.19a2,2,0,0,0,0,.21.46.46,0,0,0,.07.14.31.31,0,0,0,.1.13l.15.16h.9Z"/><path d="M58.28,149.7H57v6.08l-.07,0-.06-.06-.07-.08-.11-.13a3.49,3.49,0,0,1-.24-.44c-.09-.16-.19-.34-.3-.51a3.79,3.79,0,0,0-.39-.53,2.67,2.67,0,0,0-.52-.48,3.29,3.29,0,0,0-.7-.36,3.58,3.58,0,0,0-.93-.17l-.78-1.07a15.08,15.08,0,0,1,1.71-1,10.87,10.87,0,0,1,1.86-.77v-.39H52.71l-.6-.6h5.57Zm-1.89,4.61V151a5.87,5.87,0,0,0-.63.24,6.36,6.36,0,0,0-.59.28l-.56.32-.56.38a5,5,0,0,1,1.37.83A4.09,4.09,0,0,1,56.39,154.31Zm-1.69,1a.69.69,0,0,1-.24,0,.77.77,0,0,1-.21-.14.7.7,0,0,1-.14-.21.53.53,0,0,1,0-.47.59.59,0,0,1,.13-.19.59.59,0,0,1,.18-.13.57.57,0,0,1,.22,0,.47.47,0,0,1,.24.05.57.57,0,0,1,.21.13.6.6,0,0,1,.14.21.47.47,0,0,1,.05.24.54.54,0,0,1,0,.22.67.67,0,0,1-.12.2.59.59,0,0,1-.18.13A.46.46,0,0,1,54.7,155.29Z"/><path d="M60.06,157.51l-.11-.24a2.36,2.36,0,0,0,.32-.2,2.06,2.06,0,0,0,.31-.28,1.61,1.61,0,0,0,.24-.34.74.74,0,0,0,.09-.36.17.17,0,0,0,0-.07s0-.06,0-.09a.21.21,0,0,0,0-.06.09.09,0,0,0-.07,0,.68.68,0,0,0-.2,0,.65.65,0,0,1-.2,0,.68.68,0,0,1-.45-.15.53.53,0,0,1-.19-.43.64.64,0,0,1,.72-.72.92.92,0,0,1,.46.1.71.71,0,0,1,.29.25,1,1,0,0,1,.16.37,2.25,2.25,0,0,1,0,.46,1.31,1.31,0,0,1-.12.53,2.29,2.29,0,0,1-.32.51,2.24,2.24,0,0,1-.44.43A1.67,1.67,0,0,1,60.06,157.51Z"/><path d="M70.44,149.7H66.35v4a.43.43,0,0,0,.08.29.29.29,0,0,0,.26.12.73.73,0,0,0,.38-.12,2.47,2.47,0,0,0,.38-.28,3.69,3.69,0,0,0,.34-.35c.11-.12.2-.23.26-.31a.92.92,0,0,0,.19-.35,2.83,2.83,0,0,0,.08-.4h-.19a.94.94,0,0,1-.52-.18.91.91,0,0,1-.18-.21.64.64,0,0,1-.06-.28,1,1,0,0,1,0-.33.72.72,0,0,1,.14-.26,1.08,1.08,0,0,1,.24-.18.79.79,0,0,1,.32-.06.87.87,0,0,1,.5.13,1.1,1.1,0,0,1,.34.34,1.5,1.5,0,0,1,.19.47,2.22,2.22,0,0,1,.06.51,2,2,0,0,1-.1.55,4.26,4.26,0,0,1-.27.58,4,4,0,0,1-.39.55,3.58,3.58,0,0,1-.49.47,2.32,2.32,0,0,1-.53.33,1.42,1.42,0,0,1-.54.13.85.85,0,0,1-.45-.13,1.93,1.93,0,0,1-.3-.27,2,2,0,0,1-.21-.32,2.41,2.41,0,0,1-.14-.28.85.85,0,0,1-.05-.18v-4h-.85l-.59-.6h5.53Z"/><path d="M72.85,149.7H71.37V156l-.1-.09-.21-.22-.28-.31v-4.5a2.54,2.54,0,0,0,0-.49,1.13,1.13,0,0,0-.15-.39.6.6,0,0,0-.28-.24.8.8,0,0,0-.45-.05l-.48-.6h.39a1.42,1.42,0,0,1,.45.07.9.9,0,0,1,.32.23,1.85,1.85,0,0,1,.26.4c.07.17.15.37.23.61,0-.11,0-.22,0-.32s0-.24-.06-.4-.06-.35-.09-.57-.06-.51-.1-.85l.24.19c0,.09,0,.16,0,.21a.46.46,0,0,0,.07.14.41.41,0,0,0,.1.13l.15.16h.9Z"/><path d="M79.71,149.7H76.53v.45s0,0,0,0h.06a1.61,1.61,0,0,1,.82.23,2.65,2.65,0,0,1,.68.57,3.14,3.14,0,0,1,.46.77,2.37,2.37,0,0,1,.17.84,1.54,1.54,0,0,1-.07.42,1,1,0,0,1-.19.37.89.89,0,0,1-.3.28.93.93,0,0,1-.42.1.71.71,0,0,1-.28-.06.72.72,0,0,1-.25-.16.8.8,0,0,1-.18-.23A.68.68,0,0,1,77,153a.71.71,0,0,1,.1-.35,1.22,1.22,0,0,1,.24-.27l.17,0,.18,0a.56.56,0,0,1,.33.1l.28.21a.09.09,0,0,0,0,0v-.05a1.39,1.39,0,0,0-.14-.6,1.7,1.7,0,0,0-.38-.5,1.85,1.85,0,0,0-.53-.34,1.34,1.34,0,0,0-.59-.1h-.13v4.79l-.06,0a.35.35,0,0,0-.09-.07l-.11-.12a5.2,5.2,0,0,0-.43-1,3.61,3.61,0,0,0-.62-.77,3.57,3.57,0,0,0-.82-.55,3.32,3.32,0,0,0-1-.27l-.83-1a9.09,9.09,0,0,1,.75-.55q.42-.27.87-.51t.9-.42q.45-.19.87-.33v-.46H72.25l-.6-.6h7.47Zm-3.78,4.43V151c-.21.07-.41.16-.6.24s-.37.19-.54.29a4.33,4.33,0,0,0-.51.31l-.53.36A4.7,4.7,0,0,1,75,153,4.24,4.24,0,0,1,75.93,154.13Z"/><path d="M82.12,149.7H80.64V156l-.11-.09-.2-.22-.29-.31v-4.5a2.56,2.56,0,0,0,0-.49,1.13,1.13,0,0,0-.15-.39.62.62,0,0,0-.29-.24.78.78,0,0,0-.44-.05l-.49-.6H79a1.4,1.4,0,0,1,.44.07.9.9,0,0,1,.32.23,1.54,1.54,0,0,1,.26.4,5.71,5.71,0,0,1,.23.61c0-.11,0-.22,0-.32s0-.24-.06-.4,0-.35-.08-.57-.07-.51-.1-.85l.24.19a.87.87,0,0,0,0,.21.3.3,0,0,0,.06.14.64.64,0,0,0,.1.13l.16.16h.9Z"/></g></g></svg>