<svg xmlns="http://www.w3.org/2000/svg" viewBox="0 0 111.34 160.5"><defs><style>.cls-1{stroke:#000;stroke-miterlimit:10;stroke-width:0.3px;}.cls-2{fill:#321d68;}.cls-3{fill:#fefded;}.cls-4{fill:#26a334;}.cls-5{fill:#f0512c;}.cls-6{fill:#f0532e;}</style></defs><title>hbuc</title><g id="Layer_2" data-name="Layer 2"><g id="Layer_1-2" data-name="Layer 1"><path class="cls-1" d="M20.17,125a8.51,8.51,0,0,0-1.49-1.37,11.53,11.53,0,0,0-1.82-1.09,14.43,14.43,0,0,0-2-.81,15.59,15.59,0,0,0-2-.51l-1-2.49a4.78,4.78,0,0,0,2.76.85,3.59,3.59,0,0,0,.53,0,5.19,5.19,0,0,0,.64-.13,5.53,5.53,0,0,0,.65-.22,2.6,2.6,0,0,0,.57-.31,1.6,1.6,0,0,0,.41-.41.83.83,0,0,0,.16-.5,1.15,1.15,0,0,0-.15-.59,1.39,1.39,0,0,0-.37-.43,1.67,1.67,0,0,0-.54-.25,2.08,2.08,0,0,0-.6-.09h-.2a.7.7,0,0,0-.19.06,1.31,1.31,0,0,1-.17.61,2.19,2.19,0,0,1-.41.55,2.33,2.33,0,0,1-.57.42,1.36,1.36,0,0,1-.6.15,1.15,1.15,0,0,1-.78-.26.9.9,0,0,1-.32-.76,1.16,1.16,0,0,1,.21-.7,1.94,1.94,0,0,1,.52-.51,4,4,0,0,1,.68-.36c.24-.1.46-.19.67-.26l0-.08a.4.4,0,0,0-.19-.25,1.52,1.52,0,0,0-.32-.12,1.17,1.17,0,0,0-.3,0c-.09,0-.14,0-.15-.05H11.34l-.95-.92h9.08l.9.92H15.3a.91.91,0,0,0,.08.17.36.36,0,0,0,.08.12l.11.12.11.15a3.23,3.23,0,0,1,1,.29,3.12,3.12,0,0,1,.86.61,2.82,2.82,0,0,1,.59.85,2.38,2.38,0,0,1,.22,1,1.77,1.77,0,0,1-.25,1,2.36,2.36,0,0,1-.63.67,4.36,4.36,0,0,1-.85.48l-.91.44c.35.21.66.38.92.51l.69.36q.32.15.57.3a5,5,0,0,1,.53.36,7.85,7.85,0,0,1,.61.51c.22.21.48.46.77.78Z"/><path class="cls-1" d="M24.07,115H21.8v9.67l-.16-.14-.32-.33-.44-.48v-6.92a4.59,4.59,0,0,0-.06-.76,2,2,0,0,0-.23-.6,1.08,1.08,0,0,0-.44-.38,1.26,1.26,0,0,0-.69-.06l-.75-.92h.61a1.78,1.78,0,0,1,.69.11,1.24,1.24,0,0,1,.49.34,2.46,2.46,0,0,1,.4.62c.11.26.23.57.35.94a4.07,4.07,0,0,0,0-.5c0-.17,0-.37-.09-.61s-.08-.53-.13-.88-.1-.78-.15-1.31l.37.3a1.84,1.84,0,0,0,.06.32.91.91,0,0,0,.09.22,1.27,1.27,0,0,0,.16.2l.24.25h1.38Z"/><path class="cls-1" d="M32,115H30v9.71a.29.29,0,0,0-.13-.12l-.12,0-.11-.05a.34.34,0,0,1-.12-.12,1.23,1.23,0,0,1-.09-.24c0-.1-.05-.21-.07-.34s-.05-.25-.08-.38a3,3,0,0,0-.14-.39,4.37,4.37,0,0,0-.4-.71,3.75,3.75,0,0,0-.47-.57,6,6,0,0,0-.55-.47c-.2-.14-.4-.27-.62-.4a6.24,6.24,0,0,0-1.12-.51,4.91,4.91,0,0,0-1.21-.25l-1.18-1.67a24.4,24.4,0,0,1,2.64-1.63,17.4,17.4,0,0,1,2.84-1.2V115H23.15l-.89-.92h8.85Zm-2.92,7v-4.85a12.2,12.2,0,0,0-1.81.81c-.59.32-1.16.66-1.73,1a8.77,8.77,0,0,1,2,1.22A6.55,6.55,0,0,1,29.09,121.91Z"/><path class="cls-1" d="M35.84,115H33.27v9.45l-.15-.14L32.8,124l-.45-.46V115H31.19l-1-.92h2.26a4.87,4.87,0,0,0-.68-1.74,4,4,0,0,0-1.15-1.17,4.79,4.79,0,0,0-1.53-.66,7.82,7.82,0,0,0-1.85-.21l-.35,0-.52.06c-.19,0-.38.06-.58.11a3.46,3.46,0,0,0-.54.16,1.7,1.7,0,0,0-.4.24.41.41,0,0,0-.16.31.33.33,0,0,0,.21.31,1.78,1.78,0,0,0,.56.13,6,6,0,0,0,.78.05c.29,0,.59,0,.89,0a6.58,6.58,0,0,1,.89.13,2.49,2.49,0,0,1,.79.3,1.64,1.64,0,0,1,.55.56,1.76,1.76,0,0,1,.21.9,2.1,2.1,0,0,1-.08.56h-1a1.92,1.92,0,0,0,.3-.28.51.51,0,0,0,.15-.37.42.42,0,0,0-.21-.38,1.52,1.52,0,0,0-.54-.21,7.24,7.24,0,0,0-.76-.09l-.88-.07a8.7,8.7,0,0,1-.87-.13,2.37,2.37,0,0,1-.76-.27,1.59,1.59,0,0,1-.54-.49,1.51,1.51,0,0,1-.2-.8.94.94,0,0,1,.18-.56,2.1,2.1,0,0,1,.49-.44,4.2,4.2,0,0,1,.67-.34,5.11,5.11,0,0,1,.76-.23,7,7,0,0,1,.72-.14,4.43,4.43,0,0,1,.57,0,4.7,4.7,0,0,1,1.18.14c.4.09.78.2,1.15.32a4,4,0,0,1,1.26.68,5.29,5.29,0,0,1,.94,1,6.41,6.41,0,0,1,.67,1.24,13.25,13.25,0,0,1,.46,1.34h1.66Z"/><path class="cls-1" d="M43.66,115h-2v9.71a.34.34,0,0,0-.12-.12l-.13,0-.11-.05a.34.34,0,0,1-.12-.12,1.23,1.23,0,0,1-.09-.24c0-.1,0-.21-.07-.34s-.05-.25-.08-.38-.08-.26-.13-.39a4.4,4.4,0,0,0-.41-.71,3.75,3.75,0,0,0-.47-.57,4.88,4.88,0,0,0-.55-.47c-.2-.14-.4-.27-.62-.4a5.94,5.94,0,0,0-1.12-.51,4.91,4.91,0,0,0-1.21-.25l-1.18-1.67a24.4,24.4,0,0,1,2.64-1.63,17.4,17.4,0,0,1,2.84-1.2V115H34.8l-.89-.92h8.85Zm-2.92,7v-4.85a12.2,12.2,0,0,0-1.81.81c-.59.32-1.16.66-1.73,1a8.56,8.56,0,0,1,2,1.22A6.55,6.55,0,0,1,40.74,121.91Z"/><path class="cls-1" d="M43.89,127.51l-.12.1-.11-.08a3.77,3.77,0,0,0-.3-.37l-.4-.42-.47-.44-.48-.42c-.16-.13-.31-.24-.46-.34a4.27,4.27,0,0,0-.38-.24l-.33.35a2.6,2.6,0,0,1-.36.3,1.93,1.93,0,0,1-.43.22,2.09,2.09,0,0,1-.53.09,2.56,2.56,0,0,1-.62-.07,1.54,1.54,0,0,1-.56-.23,1.34,1.34,0,0,1-.4-.42,1.21,1.21,0,0,1-.15-.62,1.15,1.15,0,0,1,.14-.59,1.21,1.21,0,0,1,.37-.44,1.53,1.53,0,0,1,.52-.28,2,2,0,0,1,.61-.09,1.28,1.28,0,0,1,.46.08l.43.17.32.18a.51.51,0,0,0,.17.07s.06,0,.07-.1a.61.61,0,0,1,0-.14,4.28,4.28,0,0,0,0-.62,4.4,4.4,0,0,1,0-.62l0,0a.38.38,0,0,1,.28.16,1.79,1.79,0,0,1,.25.38,2.88,2.88,0,0,1,.19.45,2.06,2.06,0,0,1,.09.36,1.37,1.37,0,0,0,0,.31,1.74,1.74,0,0,0,.06.45l.4.33q.23.2.48.45l.49.52a5.11,5.11,0,0,1,.42.56,2.88,2.88,0,0,1,.29.54A1.12,1.12,0,0,1,43.89,127.51Zm-4.34-3.1h-.28a1.14,1.14,0,0,0-.32.07.64.64,0,0,0-.25.15.36.36,0,0,0-.1.27.38.38,0,0,0,.15.35.81.81,0,0,0,.38.11.86.86,0,0,0,.35,0,2.23,2.23,0,0,0,.39-.13,1.35,1.35,0,0,0,.31-.19.32.32,0,0,0,.13-.24.23.23,0,0,0-.09-.18.72.72,0,0,0-.21-.12,1,1,0,0,0-.25-.06A.82.82,0,0,0,39.55,124.41Z"/><path class="cls-1" d="M52.82,115h-2v9.45l-.39-.37-.3-.3-.23-.22v-5.11a.94.94,0,0,0-.11-.42,1.46,1.46,0,0,0-.27-.38,1.29,1.29,0,0,0-.38-.28.86.86,0,0,0-.43-.11.67.67,0,0,0-.57.25.92.92,0,0,0-.2.6,1.17,1.17,0,0,0,0,.32,2.87,2.87,0,0,1,.05.31l-.38.15a1.59,1.59,0,0,0-.26-.63,2.52,2.52,0,0,0-.47-.51,2.33,2.33,0,0,0-.62-.34,2.3,2.3,0,0,0-.66-.17,2.53,2.53,0,0,0-.68,0,1.65,1.65,0,0,0-.56.23,1.3,1.3,0,0,0-.41.4,1.56,1.56,0,0,0-.22.58,1.27,1.27,0,0,0,.1.86,1,1,0,0,0,.75.45,1.42,1.42,0,0,1-.21-.33.85.85,0,0,1-.07-.39,1.3,1.3,0,0,1,.09-.4,1,1,0,0,1,.22-.32,1.27,1.27,0,0,1,.34-.2,1.05,1.05,0,0,1,.4-.07.84.84,0,0,1,.49.15,1.45,1.45,0,0,1,.37.37,1.84,1.84,0,0,1,.23.49,1.92,1.92,0,0,1,.08.51.78.78,0,0,1-.14.46,1.34,1.34,0,0,1-.35.32,2,2,0,0,1-.94.29,2.41,2.41,0,0,1-1.08-.16,1.84,1.84,0,0,1-.71-.54,2,2,0,0,1-.38-.84,3.7,3.7,0,0,1-.06-1.07,2.71,2.71,0,0,1,.2-.85,2.18,2.18,0,0,1,.46-.7,2.14,2.14,0,0,1,1.59-.64,2.31,2.31,0,0,1,.61.08,1.9,1.9,0,0,1,.52.24,2.21,2.21,0,0,1,.45.37,3.5,3.5,0,0,1,.39.46.7.7,0,0,1,.12-.36,1.6,1.6,0,0,1,.28-.35,2.4,2.4,0,0,1,.37-.28.78.78,0,0,1,.36-.11,1.18,1.18,0,0,1,.58.16,1.91,1.91,0,0,1,.47.39,3.3,3.3,0,0,1,.36.51,3.68,3.68,0,0,1,.24.55V115H42.73l-.48-.47-.33-.31c-.09-.1-.14-.15-.14-.14H51.86s0,0,.15.13l.33.32Z"/><path class="cls-1" d="M50.82,125.1l-.25-.13-.21-.15a.54.54,0,0,0,0-.18c0-.08-.08-.19-.12-.32s-.09-.2-.14-.31a1.09,1.09,0,0,0-.21-.27,1,1,0,0,0-.36-.2,1.81,1.81,0,0,0-.56-.05.64.64,0,0,0-.23.06.44.44,0,0,0-.12.15.65.65,0,0,0,0,.21,2.17,2.17,0,0,0,0,.26,1,1,0,0,0,0,.24,1.84,1.84,0,0,0,0,.25l-.56,0a1.7,1.7,0,0,0-.07-.55,1.52,1.52,0,0,0-.25-.49,1.68,1.68,0,0,0-.43-.36,1.56,1.56,0,0,0-.61-.16,1.36,1.36,0,0,0-.44,0,1.84,1.84,0,0,0-.43.17,1.38,1.38,0,0,0-.34.28.62.62,0,0,0-.14.36,1.08,1.08,0,0,0,0,.41.79.79,0,0,0,.15.32.9.9,0,0,0,.23.21.93.93,0,0,0,.26.1,1.28,1.28,0,0,1-.16-.28.85.85,0,0,1-.06-.31.7.7,0,0,1,.25-.57.87.87,0,0,1,.6-.22.7.7,0,0,1,.38.11.93.93,0,0,1,.42.67,1,1,0,0,1,0,.43,1.31,1.31,0,0,1-.37.64.77.77,0,0,1-.61.22,3.26,3.26,0,0,1-.61-.07,1.37,1.37,0,0,1-.58-.25,1.34,1.34,0,0,1-.43-.53,2.14,2.14,0,0,1-.18-.88,1.52,1.52,0,0,1,.11-.53,1.68,1.68,0,0,1,.31-.53,1.66,1.66,0,0,1,.52-.42,1.46,1.46,0,0,1,.71-.16,3,3,0,0,1,.58.06,2.86,2.86,0,0,1,.58.21,2.29,2.29,0,0,1,.47.32.92.92,0,0,1,.25.45,1,1,0,0,1,0-.29,1.68,1.68,0,0,1,.15-.3.73.73,0,0,1,.24-.22.53.53,0,0,1,.31-.07,1.9,1.9,0,0,1,.72.18.9.9,0,0,1,.43.57v-3.33h.74Z"/><path class="cls-1" d="M56.48,115H54.21v9.67s-.07,0-.17-.14l-.31-.33-.44-.48v-6.92a4.56,4.56,0,0,0-.07-.76,1.6,1.6,0,0,0-.23-.6,1,1,0,0,0-.44-.38,1.26,1.26,0,0,0-.69-.06l-.74-.92h.61a1.7,1.7,0,0,1,.68.11,1.28,1.28,0,0,1,.5.34,2.76,2.76,0,0,1,.39.62,8.54,8.54,0,0,1,.36.94,4.07,4.07,0,0,0,0-.5c0-.17-.06-.37-.09-.61s-.09-.53-.14-.88-.1-.78-.15-1.31l.37.3c0,.13,0,.24.06.32a.9.9,0,0,0,.1.22l.15.2.24.25h1.39Z"/><path class="cls-1" d="M64.39,125a8.58,8.58,0,0,0-1.5-1.37,11.1,11.1,0,0,0-1.82-1.09,13.82,13.82,0,0,0-2-.81,15.59,15.59,0,0,0-2-.51l-1-2.49a5.26,5.26,0,0,0,1.33.64,5,5,0,0,0,1.44.21,3.59,3.59,0,0,0,.53,0,5.19,5.19,0,0,0,.64-.13,5.53,5.53,0,0,0,.65-.22,2.6,2.6,0,0,0,.57-.31,1.77,1.77,0,0,0,.41-.41.9.9,0,0,0,.16-.5,1.15,1.15,0,0,0-.15-.59,1.3,1.3,0,0,0-.38-.43,1.53,1.53,0,0,0-.53-.25,2.08,2.08,0,0,0-.6-.09h-.2a.6.6,0,0,0-.19.06,1.44,1.44,0,0,1-.17.61,2.23,2.23,0,0,1-.42.55,2.11,2.11,0,0,1-.56.42,1.4,1.4,0,0,1-.61.15,1.19,1.19,0,0,1-.78-.26.93.93,0,0,1-.32-.76,1.1,1.1,0,0,1,.22-.7,1.94,1.94,0,0,1,.52-.51,4,4,0,0,1,.68-.36c.24-.1.46-.19.67-.26l0-.08a.4.4,0,0,0-.19-.25,1.75,1.75,0,0,0-.32-.12,1.17,1.17,0,0,0-.3,0c-.09,0-.14,0-.15-.05H55.56l-1-.92h9.08l.9.92H59.52a.91.91,0,0,0,.08.17.36.36,0,0,0,.08.12l.1.12a1,1,0,0,1,.12.15,3.23,3.23,0,0,1,1,.29,3.27,3.27,0,0,1,.86.61,2.82,2.82,0,0,1,.59.85,2.54,2.54,0,0,1,.22,1,1.86,1.86,0,0,1-.25,1,2.36,2.36,0,0,1-.63.67,4.67,4.67,0,0,1-.85.48c-.32.14-.62.29-.91.44.35.21.66.38.92.51l.69.36.57.3a5,5,0,0,1,.53.36,7.85,7.85,0,0,1,.61.51c.22.21.47.46.77.78Z"/><path class="cls-1" d="M77.55,115h-2v9.71a.34.34,0,0,0-.12-.12l-.12,0-.12-.05a.26.26,0,0,1-.11-.12.6.6,0,0,1-.09-.24c0-.1,0-.21-.08-.34s0-.25-.08-.38-.08-.26-.13-.39a5.28,5.28,0,0,0-.4-.71,4.51,4.51,0,0,0-.48-.57,4.88,4.88,0,0,0-.55-.47c-.2-.14-.4-.27-.62-.4a5.94,5.94,0,0,0-1.12-.51,4.93,4.93,0,0,0-1.2-.25l-1.18-1.67a23.35,23.35,0,0,1,2.63-1.63,17.51,17.51,0,0,1,2.85-1.2V115H68.7l-.9-.92h8.85Zm-2.91,7v-4.85a11.86,11.86,0,0,0-1.82.81c-.59.32-1.16.66-1.73,1a8.83,8.83,0,0,1,2,1.22A6.73,6.73,0,0,1,74.64,121.91Z"/><path class="cls-1" d="M81.23,115H79v9.67a.83.83,0,0,1-.16-.14l-.32-.33-.44-.48v-6.92A3.7,3.7,0,0,0,78,116a1.6,1.6,0,0,0-.23-.6,1,1,0,0,0-.43-.38,1.28,1.28,0,0,0-.69-.06l-.75-.92h.61a1.78,1.78,0,0,1,.69.11,1.24,1.24,0,0,1,.49.34,2.2,2.2,0,0,1,.39.62,8.54,8.54,0,0,1,.36.94,4.07,4.07,0,0,0,0-.5c0-.17,0-.37-.09-.61s-.08-.53-.13-.88-.1-.78-.15-1.31l.36.3a1.73,1.73,0,0,0,.07.32.63.63,0,0,0,.09.22,1.27,1.27,0,0,0,.16.2l.23.25h1.39Z"/><path class="cls-1" d="M89.14,125a8.17,8.17,0,0,0-1.49-1.37,11.53,11.53,0,0,0-1.82-1.09,14.82,14.82,0,0,0-2-.81,16.47,16.47,0,0,0-2-.51l-1-2.49a4.78,4.78,0,0,0,2.76.85,3.81,3.81,0,0,0,.54,0,5.44,5.44,0,0,0,.63-.13,5,5,0,0,0,.65-.22,2.6,2.6,0,0,0,.57-.31,1.6,1.6,0,0,0,.41-.41.83.83,0,0,0,.16-.5,1.25,1.25,0,0,0-.14-.59,1.57,1.57,0,0,0-.38-.43,1.67,1.67,0,0,0-.54-.25,2,2,0,0,0-.6-.09h-.2a.7.7,0,0,0-.19.06,1.31,1.31,0,0,1-.17.61,2.19,2.19,0,0,1-.41.55,2.49,2.49,0,0,1-.56.42,1.4,1.4,0,0,1-.61.15,1.15,1.15,0,0,1-.78-.26.9.9,0,0,1-.32-.76,1.16,1.16,0,0,1,.21-.7,2,2,0,0,1,.53-.51,3.91,3.91,0,0,1,.67-.36l.67-.26,0-.08a.41.41,0,0,0-.2-.25,1.66,1.66,0,0,0-.31-.12,1.32,1.32,0,0,0-.31,0c-.09,0-.14,0-.15-.05H80.31l-.94-.92h9.07l.9.92H84.28a.54.54,0,0,0,.07.17.36.36,0,0,0,.08.12l.11.12.12.15a3.25,3.25,0,0,1,1,.29,3.12,3.12,0,0,1,.86.61,2.65,2.65,0,0,1,.59.85,2.38,2.38,0,0,1,.22,1,1.77,1.77,0,0,1-.25,1,2.36,2.36,0,0,1-.63.67,4.36,4.36,0,0,1-.85.48l-.91.44c.35.21.66.38.92.51l.69.36q.31.15.57.3a6.32,6.32,0,0,1,.54.36q.27.21.6.51c.22.21.48.46.77.78Z"/><path class="cls-1" d="M93,115H90.77v9.67l-.16-.14-.31-.33-.45-.48v-6.92a4.59,4.59,0,0,0-.06-.76,1.79,1.79,0,0,0-.23-.6,1.08,1.08,0,0,0-.44-.38,1.26,1.26,0,0,0-.69-.06l-.75-.92h.62a1.73,1.73,0,0,1,.68.11,1.28,1.28,0,0,1,.5.34,2.76,2.76,0,0,1,.39.62,8.69,8.69,0,0,1,.35.94,4.07,4.07,0,0,0,0-.5c0-.17,0-.37-.09-.61s-.08-.53-.13-.88-.1-.78-.15-1.31l.37.3c0,.13,0,.24.06.32a.64.64,0,0,0,.1.22l.15.2.24.25h1.39Z"/><path class="cls-1" d="M100.69,115h-2v9.35l-.11-.07-.09-.09-.11-.12-.16-.2c-.12-.19-.25-.42-.38-.67s-.28-.53-.45-.8a7,7,0,0,0-.6-.81,4.66,4.66,0,0,0-.8-.73,4.46,4.46,0,0,0-1.09-.56A4.91,4.91,0,0,0,93.5,120l-1.21-1.65a22.77,22.77,0,0,1,2.63-1.6,16.7,16.7,0,0,1,2.86-1.18V115H92.13L91.2,114h8.56ZM97.78,122v-5.11c-.34.11-.66.24-1,.37s-.61.28-.9.43-.58.33-.86.51-.57.37-.86.57a7.67,7.67,0,0,1,2.1,1.28A6.17,6.17,0,0,1,97.78,122Zm-2.59,1.51a.84.84,0,0,1-.38-.08,1.07,1.07,0,0,1-.54-.54,1,1,0,0,1-.08-.38.8.8,0,0,1,.07-.34,1.12,1.12,0,0,1,.19-.29,1.15,1.15,0,0,1,.29-.2,1,1,0,0,1,.34-.07,1,1,0,0,1,.37.08,1,1,0,0,1,.32.21,1,1,0,0,1,.21.31.8.8,0,0,1,.08.37A1,1,0,0,1,96,123a1.17,1.17,0,0,1-.19.3.83.83,0,0,1-.28.21A.8.8,0,0,1,95.19,123.55Z"/><path class="cls-1" d="M.36,132H7.71a1.66,1.66,0,0,0,0-.46,1.11,1.11,0,0,0-.15-.37.8.8,0,0,0-.29-.26,1,1,0,0,0-.44-.09H6l-.8,0-.81,0c-.27,0-.52,0-.77,0a2.76,2.76,0,0,1-.81-.14,3,3,0,0,1-.8-.41,2.72,2.72,0,0,1-.61-.61,1.39,1.39,0,0,1-.24-.79,3.66,3.66,0,0,1,.06-.65,1.13,1.13,0,0,1,.3-.57L2,128a1,1,0,0,0-.24.64,1,1,0,0,0,.19.68,1.12,1.12,0,0,0,.49.33,2.28,2.28,0,0,0,.66.12h.68l.57,0,.6,0,.6,0,.57,0a2.49,2.49,0,0,1,1,.18,2.25,2.25,0,0,1,.77.51,2.34,2.34,0,0,1,.5.76,2.58,2.58,0,0,1,.18,1H9.83l.93.92H5.25a.34.34,0,0,0,.11.16.6.6,0,0,1,.14.14.68.68,0,0,0,.31.21l.55.22c.2.09.42.2.65.33a2.52,2.52,0,0,1,1.09,1.22,2.66,2.66,0,0,1,.18,1,2.55,2.55,0,0,1-.17,1,2.14,2.14,0,0,1-.44.7,2,2,0,0,1-.59.46,3.73,3.73,0,0,1-.62.28l-.53.16-.33.06c.35.14.63.26.85.37s.42.21.6.31a4,4,0,0,1,.5.34l.59.44.46.4.46.43.48.48.29,1.25a10.26,10.26,0,0,0-1.5-1.39,11.6,11.6,0,0,0-1.69-1,13.79,13.79,0,0,0-1.85-.76c-.64-.22-1.3-.4-2-.57l-1.11-2.3a4.64,4.64,0,0,0,1.27.56,5.31,5.31,0,0,0,1.37.18,5.54,5.54,0,0,0,.78-.06,3.31,3.31,0,0,0,.81-.2,2.53,2.53,0,0,0,.71-.41,1.75,1.75,0,0,0,.5-.66.91.91,0,0,0,0-.65,1.51,1.51,0,0,0-1-1,1.14,1.14,0,0,0-.75,0,1.41,1.41,0,0,1-.15.62,1.76,1.76,0,0,1-.41.53,2,2,0,0,1-.56.38,1.4,1.4,0,0,1-.62.14,1.42,1.42,0,0,1-.42-.05,1,1,0,0,1-.35-.17.79.79,0,0,1-.23-.28.93.93,0,0,1-.09-.42,1.28,1.28,0,0,1,.21-.75,2.05,2.05,0,0,1,.5-.52,3.73,3.73,0,0,1,.68-.38l.68-.3v-.05a.16.16,0,0,0-.07-.13.76.76,0,0,0-.17-.13l-.19-.11L4.11,133H1.27Z"/><path class="cls-1" d="M9,132h8.39a2.16,2.16,0,0,0-.05-.46,1.38,1.38,0,0,0-.16-.37.73.73,0,0,0-.29-.26.94.94,0,0,0-.43-.09h-.89l-1,0-1.07,0c-.34,0-.64,0-.89,0a2.82,2.82,0,0,1-.82-.14,3,3,0,0,1-.79-.41,2.36,2.36,0,0,1-.61-.61,1.39,1.39,0,0,1-.24-.79,3.66,3.66,0,0,1,.06-.65,1,1,0,0,1,.31-.57l.46.15a1,1,0,0,0-.25.64,1,1,0,0,0,.2.68,1.07,1.07,0,0,0,.49.33,2.15,2.15,0,0,0,.65.12h.69l.68,0,.86,0,.84,0,.68,0a2.72,2.72,0,0,1,1,.18,2.24,2.24,0,0,1,.81.51,2.47,2.47,0,0,1,.55.76,2.25,2.25,0,0,1,.2,1h1.24l.93.92h-5.9v2.73a1.07,1.07,0,0,0,0,.25.87.87,0,0,0,.1.24,1,1,0,0,0,.17.18.53.53,0,0,0,.26.07c.06,0,.13-.05.22-.13s.19-.19.3-.31l.35-.41.37-.4a3,3,0,0,1,.33-.31.46.46,0,0,1,.28-.13.75.75,0,0,1,.44.15,1.9,1.9,0,0,1,.4.4,3.9,3.9,0,0,1,.34.57,6.33,6.33,0,0,1,.26.62c.06.21.12.41.16.6a2.58,2.58,0,0,1,.06.49,4.73,4.73,0,0,1-.21,1.44,3,3,0,0,1-.61,1.14,2.73,2.73,0,0,1-1,.75,3.56,3.56,0,0,1-1.44.27,3.41,3.41,0,0,1-1.63-.38,4.08,4.08,0,0,1-1.2-1,6.12,6.12,0,0,1-.84-1.41,12.28,12.28,0,0,1-.55-1.65,14.87,14.87,0,0,1-.34-1.69c-.09-.56-.15-1.08-.2-1.54l.55.29A9.1,9.1,0,0,0,11.3,135a8.93,8.93,0,0,0,.37,1.29,7.3,7.3,0,0,0,.57,1.24,5.24,5.24,0,0,0,.77,1.06,3.83,3.83,0,0,0,1,.74,2.64,2.64,0,0,0,1.19.28,2.78,2.78,0,0,0,1-.18,3.13,3.13,0,0,0,.87-.5,2.62,2.62,0,0,0,.61-.76,2,2,0,0,0,.24-1,1.34,1.34,0,0,0-.13-.59,1.81,1.81,0,0,0-.33-.5,1.52,1.52,0,0,1-.34.54,4.77,4.77,0,0,1-.61.57,5,5,0,0,1-.71.46,1.53,1.53,0,0,1-.63.18,1.58,1.58,0,0,1-.58-.11,1.51,1.51,0,0,1-.45-.29,1.25,1.25,0,0,1-.31-.44,1.67,1.67,0,0,1-.15-.54V133H9.83Z"/><path class="cls-1" d="M21.06,131.2a.79.79,0,0,0,.05.15c0,.08.07.16.11.25l.12.27.08.17h1.72l.92.92H21.73v9.35l-.46-.45-.32-.31c-.1-.09-.14-.14-.13-.14V133H19.45l-.91-.92h2.37l-.29-.28c-.11-.1-.21-.2-.31-.31a2.7,2.7,0,0,1-.25-.34.68.68,0,0,1-.1-.36,1.85,1.85,0,0,1,.16-.76,3.27,3.27,0,0,1,.44-.7,3.65,3.65,0,0,1,.63-.61,5.41,5.41,0,0,1,.76-.48,4,4,0,0,1,.79-.31,2.62,2.62,0,0,1,.75-.11A5.67,5.67,0,0,1,25,128a7.44,7.44,0,0,1,1.44.57,9.47,9.47,0,0,1,1.31.85,12.69,12.69,0,0,1,1.15,1l.2.6A12.65,12.65,0,0,0,27,129.59a7.27,7.27,0,0,0-1.74-.69,3.68,3.68,0,0,0-1.41-.1,3.42,3.42,0,0,0-1.08.32,2.76,2.76,0,0,0-.8.57,4,4,0,0,0-.84,1.2A1.31,1.31,0,0,0,21.06,131.2Z"/><path class="cls-1" d="M32.28,133h-2v9.62l-.35-.46s0-.08,0-.12,0-.09,0-.14a6.14,6.14,0,0,0-.11-1,9.34,9.34,0,0,0-.32-1.23,8.93,8.93,0,0,0-.52-1.25,6.12,6.12,0,0,0-.69-1.11,3.53,3.53,0,0,0-.86-.79,1.89,1.89,0,0,0-1-.3h-.12a.14.14,0,0,0-.11,0l.23.33a2.69,2.69,0,0,1,.19.32,1.81,1.81,0,0,1,.13.35,1.7,1.7,0,0,1,.05.41,1.1,1.1,0,0,1-.1.49.85.85,0,0,1-.27.35,1.27,1.27,0,0,1-.4.21,1.63,1.63,0,0,1-.5.07A1.56,1.56,0,0,1,23.75,137a2,2,0,0,1,.18-.86,2.1,2.1,0,0,1,.49-.65,2,2,0,0,1,.71-.43,2.47,2.47,0,0,1,.86-.15,2.39,2.39,0,0,1,1.13.28,4,4,0,0,1,.93.71,5.73,5.73,0,0,1,.72,1,10.56,10.56,0,0,1,.55,1V133H23l-.91-.92h9.2Z"/><path class="cls-1" d="M42.05,133H31.3l-.92-.92h10.7Zm-1.43,4a4.41,4.41,0,0,1-.25,1.5,4.07,4.07,0,0,1-.72,1.27A3.39,3.39,0,0,1,37,140.94a3.48,3.48,0,0,1-1.57-.34,4.37,4.37,0,0,1-1.23-.91,6.81,6.81,0,0,1-1-1.31,13.49,13.49,0,0,1-.74-1.53,16.6,16.6,0,0,1-.58-1.57c-.17-.53-.33-1-.46-1.46l.59.18c.12.4.25.81.42,1.23a9.33,9.33,0,0,0,.58,1.24,8.45,8.45,0,0,0,.74,1.13,5.52,5.52,0,0,0,.93.94,4,4,0,0,0,1.12.63,3.6,3.6,0,0,0,1.32.24,2.34,2.34,0,0,0,.91-.2,2.85,2.85,0,0,0,.82-.52,2.73,2.73,0,0,0,.59-.76,1.94,1.94,0,0,0,.23-.9,2.67,2.67,0,0,0,0-.32,2.15,2.15,0,0,0-.09-.44,1.38,1.38,0,0,0-.16-.39.26.26,0,0,0-.23-.17,1.44,1.44,0,0,0-.28.27l-.25.29a1.54,1.54,0,0,1-.47.4,2.88,2.88,0,0,1-.62.28,4.74,4.74,0,0,1-.65.16,3.55,3.55,0,0,1-.63,0,2.34,2.34,0,0,1-.79-.13,2.09,2.09,0,0,1-.67-.37,1.92,1.92,0,0,1-.46-.59,1.86,1.86,0,0,1-.17-.79,1.36,1.36,0,0,1,1.45-1.45,1.5,1.5,0,0,1,.47.08,1,1,0,0,1,.38.22.92.92,0,0,1,.26.35,1.16,1.16,0,0,1,.09.47,1,1,0,0,1-.12.48,3.65,3.65,0,0,1-.26.44l0,0a.76.76,0,0,0,.36-.1,2.88,2.88,0,0,0,.41-.27l.41-.37c.13-.14.26-.29.37-.43s.21-.29.3-.43a2.35,2.35,0,0,0,.18-.35l0,0a3.89,3.89,0,0,1,1,.72,4.7,4.7,0,0,1,.62.85,4,4,0,0,1,.33.83A3,3,0,0,1,40.62,137Z"/><path class="cls-1" d="M45.69,133H43.42v9.67l-.16-.14-.31-.33c-.14-.14-.28-.3-.44-.48v-6.92a4.56,4.56,0,0,0-.07-.76,1.79,1.79,0,0,0-.23-.6,1.08,1.08,0,0,0-.44-.38,1.26,1.26,0,0,0-.69-.06l-.75-.92H41a1.73,1.73,0,0,1,.68.11,1.28,1.28,0,0,1,.5.34,2.76,2.76,0,0,1,.39.62,8.69,8.69,0,0,1,.35.94,4.07,4.07,0,0,0,0-.5c0-.17-.05-.37-.09-.61s-.08-.53-.13-.88-.1-.78-.15-1.31l.37.3c0,.13,0,.24.06.32a.9.9,0,0,0,.1.22l.15.2.24.25h1.39Z"/><path class="cls-1" d="M46.32,131.2a.4.4,0,0,0,0,.15c0,.08.07.16.11.25l.12.27.08.17H48.4l.92.92H47v9.35l-.47-.45-.32-.31-.13-.14V133H44.71l-.92-.92h2.37l-.28-.28a3,3,0,0,1-.31-.31,2,2,0,0,1-.25-.34.68.68,0,0,1-.1-.36,1.85,1.85,0,0,1,.16-.76,2.92,2.92,0,0,1,.44-.7,3.65,3.65,0,0,1,.63-.61,6,6,0,0,1,.75-.48,4.39,4.39,0,0,1,.8-.31,2.52,2.52,0,0,1,.75-.11,5.67,5.67,0,0,1,1.54.21,7.44,7.44,0,0,1,1.44.57,9.37,9.37,0,0,1,1.3.85,11.6,11.6,0,0,1,1.16,1l.2.6a12.65,12.65,0,0,0-2.11-1.46,7.17,7.17,0,0,0-1.75-.69,3.63,3.63,0,0,0-1.4-.1,3.42,3.42,0,0,0-1.08.32,2.63,2.63,0,0,0-.8.57,4.27,4.27,0,0,0-.54.64,2.85,2.85,0,0,0-.3.56A1.31,1.31,0,0,0,46.32,131.2Z"/><path class="cls-1" d="M58.13,133h-2v9.45a.75.75,0,0,1-.15-.16l-.32-.35-.45-.53v-4.25a.66.66,0,0,0-.14-.36,2.83,2.83,0,0,0-.35-.34,2.73,2.73,0,0,0-.43-.26.93.93,0,0,0-.39-.1.9.9,0,0,0-.59.22,3,3,0,0,0-.5.55,8,8,0,0,0-.47.71,7.34,7.34,0,0,1-.48.71,2.78,2.78,0,0,1-.53.55,1,1,0,0,1-.62.22h-.4l-.21,0a.28.28,0,0,1-.13-.1.74.74,0,0,1-.4-.26,4.87,4.87,0,0,1-.39-.53c-.12-.2-.24-.4-.34-.6l-.25-.47.6-.58a1.28,1.28,0,0,0,.1.33,2,2,0,0,0,.2.41,1.66,1.66,0,0,0,.28.35.48.48,0,0,0,.31.14.5.5,0,0,0,.28-.12,3,3,0,0,0,.33-.31,4.71,4.71,0,0,0,.35-.41l.33-.43.25-.36.14-.21a4,4,0,0,0-.19-1,1.71,1.71,0,0,0-.31-.59,1,1,0,0,0-.43-.29,2,2,0,0,0-.49-.12l-.53-.05a2.54,2.54,0,0,1-.54-.09,1.6,1.6,0,0,1-.52-.23,1.52,1.52,0,0,1-.46-.48.62.62,0,0,1-.24-.14l-.32-.28-.32-.31-.22-.22h10Zm-2.92,3.26V133H51c.2.16.38.32.55.48A2.42,2.42,0,0,1,52,134a1.86,1.86,0,0,1,.22.61,2,2,0,0,1,0,.76l.3-.24.32-.23a2.59,2.59,0,0,1,.33-.17.87.87,0,0,1,.29-.07.9.9,0,0,1,.51.19,2.92,2.92,0,0,1,.5.44,5.37,5.37,0,0,1,.44.53Z"/><path class="cls-1" d="M58.49,127.59l-3.92,3.82H52.35l5.33-3.94Z"/><path class="cls-1" d="M58.72,131.2a.79.79,0,0,0,.05.15l.12.25.12.27c0,.08.06.14.08.17h1.72l.92.92H59.4v9.35l-.47-.45-.32-.31-.13-.14V133H57.12L56.2,132h2.37a2.6,2.6,0,0,0-.29-.28c-.1-.1-.21-.2-.3-.31a2,2,0,0,1-.25-.34.68.68,0,0,1-.1-.36,1.85,1.85,0,0,1,.16-.76,3.22,3.22,0,0,1,.43-.7,4.12,4.12,0,0,1,.64-.61,6,6,0,0,1,.75-.48,4.13,4.13,0,0,1,.8-.31,2.52,2.52,0,0,1,.75-.11,5.67,5.67,0,0,1,1.54.21,7.44,7.44,0,0,1,1.44.57,9.37,9.37,0,0,1,1.3.85,12.82,12.82,0,0,1,1.16,1l.2.6a12.65,12.65,0,0,0-2.11-1.46,7.17,7.17,0,0,0-1.75-.69,3.63,3.63,0,0,0-1.4-.1,3.42,3.42,0,0,0-1.08.32,2.63,2.63,0,0,0-.8.57,4.27,4.27,0,0,0-.54.64,2.85,2.85,0,0,0-.3.56A1.59,1.59,0,0,0,58.72,131.2Z"/><path class="cls-1" d="M69.61,133H62.92v6.18a.64.64,0,0,0,.18.5.87.87,0,0,0,.54.16,1.32,1.32,0,0,0,.55-.14,2.83,2.83,0,0,0,.59-.36,4.28,4.28,0,0,0,.56-.5,6.51,6.51,0,0,0,.47-.6,3.81,3.81,0,0,0,.35-.61,2.06,2.06,0,0,0,.17-.56l-.14,0h-.14a1.38,1.38,0,0,1-.45-.08,1,1,0,0,1-.37-.2,1,1,0,0,1-.27-.32.92.92,0,0,1-.1-.44,1.19,1.19,0,0,1,.1-.51,1.31,1.31,0,0,1,.26-.4,1.28,1.28,0,0,1,.4-.25,1.46,1.46,0,0,1,1.15.06,1.62,1.62,0,0,1,.48.42,1.71,1.71,0,0,1,.31.58,1.91,1.91,0,0,1,.11.66,4.18,4.18,0,0,1-.23,1.39,3,3,0,0,1-.72,1.21l-.54.53a7.78,7.78,0,0,1-.68.59,4.66,4.66,0,0,1-.75.47,1.57,1.57,0,0,1-.71.2,1.86,1.86,0,0,1-1.05-.27,1.89,1.89,0,0,1-.63-.69,3,3,0,0,1-.3-1,7.37,7.37,0,0,1-.07-1V133H60.58l-.76-.92H67.3c0-.09,0-.17,0-.26a2.35,2.35,0,0,0,0-.26.55.55,0,0,0-.12-.35.81.81,0,0,0-.29-.26,1.69,1.69,0,0,0-.37-.15,1.63,1.63,0,0,0-.36,0c-.45,0-.9,0-1.34.07a11.9,11.9,0,0,1-1.34.07,4,4,0,0,1-1-.12,3.55,3.55,0,0,1-.92-.37,2.23,2.23,0,0,1-.69-.64,1.62,1.62,0,0,1-.27-.94,1.39,1.39,0,0,1,0-.32,2,2,0,0,1,.12-.34,1,1,0,0,1,.21-.27.36.36,0,0,1,.28-.1h0a.88.88,0,0,1,0,.16,1,1,0,0,1,0,.17,1.12,1.12,0,0,0-.16.22.58.58,0,0,0-.06.26.72.72,0,0,0,.14.46,1.33,1.33,0,0,0,.34.33,1.86,1.86,0,0,0,.46.19,2.12,2.12,0,0,0,.49.06l.46,0,.48,0,.49,0,.46-.05h.73a5,5,0,0,1,1.16.14,2.82,2.82,0,0,1,1,.46,2,2,0,0,1,.67.81A2.3,2.3,0,0,1,68.2,132h.49s0,0,.14.12l.32.31C69.28,132.62,69.44,132.78,69.61,133Z"/><path class="cls-1" d="M85.33,133H80.44v.68l.06,0h.09a2.49,2.49,0,0,1,1.26.34,4,4,0,0,1,1,.88A4.47,4.47,0,0,1,83.6,136a3.53,3.53,0,0,1,.26,1.29,2.37,2.37,0,0,1-.1.64,2,2,0,0,1-.29.58,1.42,1.42,0,0,1-.47.41,1.24,1.24,0,0,1-.64.16,1.12,1.12,0,0,1-.44-.09,1.23,1.23,0,0,1-.38-.24,1.22,1.22,0,0,1-.27-.36.92.92,0,0,1-.11-.43,1,1,0,0,1,.15-.53,1.64,1.64,0,0,1,.37-.42l.26-.07.28,0a1,1,0,0,1,.51.15,2.92,2.92,0,0,1,.42.33.13.13,0,0,0,0-.08v-.09a2,2,0,0,0-.22-.91,2.48,2.48,0,0,0-.58-.77,2.67,2.67,0,0,0-.81-.52,2.22,2.22,0,0,0-.91-.16h-.21v7.36a.15.15,0,0,1-.08-.05l-.14-.11-.17-.17a7.67,7.67,0,0,0-.67-1.48,5.24,5.24,0,0,0-.95-1.19,4.67,4.67,0,0,0-1.26-.83,5.24,5.24,0,0,0-1.59-.43l-1.27-1.57a13.91,13.91,0,0,1,1.16-.84c.43-.28.87-.54,1.33-.78s.92-.46,1.38-.66.92-.36,1.34-.49V133H73.87l-.93-.92H84.42Zm-5.81,6.8v-4.83c-.32.12-.63.25-.92.38s-.56.28-.83.44-.53.31-.79.48l-.8.55A7.05,7.05,0,0,1,78.1,138,6.72,6.72,0,0,1,79.52,139.76Z"/><path class="cls-1" d="M90.72,133A2.84,2.84,0,0,0,90,133a7.07,7.07,0,0,0-.74.24,5.24,5.24,0,0,0-1.49.88,4.19,4.19,0,0,0-1,1.19,5.43,5.43,0,0,0-.5,1.47,9.38,9.38,0,0,0-.15,1.71,3.21,3.21,0,0,0,.13.86,3.81,3.81,0,0,0,.36.94,2.62,2.62,0,0,0,.59.75,1.15,1.15,0,0,0,.8.31l.12,0a.15.15,0,0,0,.11-.06.84.84,0,0,1-.21-.18,1.1,1.1,0,0,1-.17-.25,1.17,1.17,0,0,1-.13-.28.93.93,0,0,1,0-.27.76.76,0,0,1,.1-.39.93.93,0,0,1,.26-.33,1.38,1.38,0,0,1,.36-.23,1.1,1.1,0,0,1,.4-.08.87.87,0,0,1,.28,0,.54.54,0,0,1,.24.16,1,1,0,0,1,.44.41,1.18,1.18,0,0,1,.14.6,1.39,1.39,0,0,1-.13.61,1.35,1.35,0,0,1-.37.48,1.72,1.72,0,0,1-1.14.42,2.27,2.27,0,0,1-1-.21,2.68,2.68,0,0,1-.79-.55,3.14,3.14,0,0,1-.59-.79,6.69,6.69,0,0,1-.42-.95,6.05,6.05,0,0,1-.24-1,6.65,6.65,0,0,1-.08-1,6,6,0,0,1,.14-1.27,7,7,0,0,1,.38-1.2,8.57,8.57,0,0,1,.59-1.12,8.44,8.44,0,0,1,.76-1H84.25l-.92-.92h6.48l.45.45.32.32A1,1,0,0,1,90.72,133Z"/><path class="cls-1" d="M100.09,133h-2v9.45l-.39-.37-.31-.3-.22-.22v-5.11a.94.94,0,0,0-.11-.42,1.29,1.29,0,0,0-.28-.38,1.25,1.25,0,0,0-.37-.28.89.89,0,0,0-.43-.11.66.66,0,0,0-.57.25.92.92,0,0,0-.2.6,1.73,1.73,0,0,0,0,.32l.06.31-.39.15a1.57,1.57,0,0,0-.25-.63,2.17,2.17,0,0,0-1.09-.85,2.28,2.28,0,0,0-.67-.17,2.46,2.46,0,0,0-.67,0,1.65,1.65,0,0,0-.56.23,1.21,1.21,0,0,0-.41.4,1.56,1.56,0,0,0-.22.58,1.27,1.27,0,0,0,.1.86,1,1,0,0,0,.75.45,1.15,1.15,0,0,1-.21-.33.85.85,0,0,1-.07-.39.9.9,0,0,1,.09-.4,1,1,0,0,1,.22-.32,1.27,1.27,0,0,1,.34-.2,1.05,1.05,0,0,1,.4-.07.86.86,0,0,1,.49.15,1.41,1.41,0,0,1,.36.37,1.87,1.87,0,0,1,.31,1,.72.72,0,0,1-.14.46,1.2,1.2,0,0,1-.35.32,1.48,1.48,0,0,1-.46.21,1.71,1.71,0,0,1-.47.08,2.37,2.37,0,0,1-1.08-.16,1.77,1.77,0,0,1-.71-.54,2,2,0,0,1-.38-.84,3.7,3.7,0,0,1-.06-1.07,2.71,2.71,0,0,1,.2-.85,2.33,2.33,0,0,1,.45-.7,2.55,2.55,0,0,1,.69-.47,2.38,2.38,0,0,1,.91-.17,2.31,2.31,0,0,1,.61.08,1.9,1.9,0,0,1,.52.24,2.21,2.21,0,0,1,.45.37,4.49,4.49,0,0,1,.39.46.7.7,0,0,1,.12-.36,1.6,1.6,0,0,1,.28-.35,2,2,0,0,1,.37-.28.78.78,0,0,1,.36-.11,1.18,1.18,0,0,1,.58.16,1.71,1.71,0,0,1,.46.39,2.34,2.34,0,0,1,.36.51,2.94,2.94,0,0,1,.25.55V133H90l-.47-.47-.33-.31-.14-.14H99.13l.15.13.33.32Z"/><path class="cls-1" d="M111,133h-6.3a.45.45,0,0,0-.19.06,1.5,1.5,0,0,0-.23.15,1.23,1.23,0,0,0-.2.19.3.3,0,0,0-.09.18.38.38,0,0,0,.16.29,1.84,1.84,0,0,0,.4.23,3.94,3.94,0,0,0,.55.18l.59.13c.19,0,.36.06.52.07l.37,0a2.27,2.27,0,0,0,.42-.05l.49-.12.47-.14.42-.14.7.71.69.71a4,4,0,0,0-.71.89,5,5,0,0,0-.47,1,6.91,6.91,0,0,0-.27,1.11,7.27,7.27,0,0,0-.09,1.13v.68c0,.22,0,.45,0,.67a5,5,0,0,0,.1.66,3.06,3.06,0,0,0,.2.63l-.06,0-.44-.09a1.6,1.6,0,0,1-.42-.17c-.11-.62-.2-1.24-.26-1.86s-.09-1.24-.09-1.88a5.85,5.85,0,0,1,.16-1.38,10.27,10.27,0,0,1,.42-1.33,9.66,9.66,0,0,1-1.5-.1,6.42,6.42,0,0,1-1.15-.29,3.56,3.56,0,0,1-.87-.46,3.15,3.15,0,0,1-.62-.58.79.79,0,0,0-.47.2,3.11,3.11,0,0,0-.48.48,4,4,0,0,0-.36.58,1.23,1.23,0,0,0-.15.5.6.6,0,0,0,.18.49.78.78,0,0,0,.5.15,1.49,1.49,0,0,0,.44-.1l.56-.24.56-.27a3.72,3.72,0,0,1,.44-.2l.12,0a.28.28,0,0,1,.26.1,1.55,1.55,0,0,1,.3.35,4.4,4.4,0,0,1,.3.5c.09.19.18.38.26.57a3.42,3.42,0,0,1,.18.54,1.64,1.64,0,0,1,.07.43,2.57,2.57,0,0,1-.74,1.78,2.73,2.73,0,0,1-.79.55,2.49,2.49,0,0,1-1,.2,2.87,2.87,0,0,1-1.36-.31,3.61,3.61,0,0,1-1.06-.81,5,5,0,0,1-.78-1.12,8.2,8.2,0,0,1-.54-1.27,4.28,4.28,0,0,1-.2-.82,9.33,9.33,0,0,1-.1-.94c0-.32,0-.64,0-.95s0-.59,0-.85l.25.14.26.15v.39a6.71,6.71,0,0,0,.11,1.35,5,5,0,0,0,.41,1.27,5,5,0,0,0,.72,1.11,4.29,4.29,0,0,0,1.06.87,2.25,2.25,0,0,0,.45.19,1.57,1.57,0,0,0,.49.07,4.34,4.34,0,0,0,.65-.06,3.62,3.62,0,0,0,.73-.22,1.92,1.92,0,0,0,.59-.4.81.81,0,0,0,.24-.59,1,1,0,0,0,0-.23,1.06,1.06,0,0,0-.09-.25.83.83,0,0,0-.16-.2.34.34,0,0,0-.21-.08.84.84,0,0,0-.3.07l-.41.15a3.37,3.37,0,0,1-.48.15,1.71,1.71,0,0,1-.49.07,1.91,1.91,0,0,1-.86-.2,2.34,2.34,0,0,1-.67-.54,2.74,2.74,0,0,1-.44-.76,2.68,2.68,0,0,1-.16-.88,1.91,1.91,0,0,1,.12-.68,2.85,2.85,0,0,1,.31-.6,4.06,4.06,0,0,1,.42-.53l.47-.51H99.13l-.91-.92h11.85Z"/><path d="M34.83,152.7H33.36v6.14l-.12-.09-.22-.21-.31-.3,0-3.75a.6.6,0,0,0,0-.24,1.66,1.66,0,0,0-.14-.31l-.2-.31a2.32,2.32,0,0,0-.24-.28,1.51,1.51,0,0,0-.26-.2.46.46,0,0,0-.24-.08.88.88,0,0,0-.2,0,1,1,0,0,0-.21.1.57.57,0,0,0-.16.15.26.26,0,0,0-.07.18l.3.23a1.84,1.84,0,0,1,.29.26,1.6,1.6,0,0,1,.22.31.78.78,0,0,1,.09.37.85.85,0,0,1-.18.59.79.79,0,0,1-.59.2.87.87,0,0,1-.28-.05.89.89,0,0,1-.25-.14,1.26,1.26,0,0,1-.2-.2,2.07,2.07,0,0,1-.17-.24,1,1,0,0,1-.15.26,1.67,1.67,0,0,1-.23.23,1.12,1.12,0,0,1-.28.16.8.8,0,0,1-.3.06.62.62,0,0,1-.31-.07.66.66,0,0,1-.23-.21.82.82,0,0,1-.14-.28.84.84,0,0,1-.05-.31.86.86,0,0,1,.1-.38,2,2,0,0,1,.26-.41,2.13,2.13,0,0,1,.33-.34.7.7,0,0,1,.34-.16,1.4,1.4,0,0,0-.28-.46.84.84,0,0,0-.35-.21,1.27,1.27,0,0,0-.44-.05h-.54l-.09-.09-.2-.21-.2-.21-.1-.1h1.23a1,1,0,0,1,.45.1,1.52,1.52,0,0,1,.41.24,1.59,1.59,0,0,1,.32.36,1.46,1.46,0,0,1,.18.43,1.9,1.9,0,0,1,.23-.41,2.33,2.33,0,0,1,.34-.36,1.88,1.88,0,0,1,.42-.27,1.1,1.1,0,0,1,.47-.1.46.46,0,0,1,.26.12,2.13,2.13,0,0,1,.31.3,4.69,4.69,0,0,1,.33.4c.11.15.21.29.3.43s.16.27.23.39A2.31,2.31,0,0,1,33,154l-.07-.73-.06-.69c0-.23,0-.46,0-.69s0-.48,0-.74a1.71,1.71,0,0,1,.2.18l.18.19a.29.29,0,0,1,.07.17c0,.06,0,.13,0,.19a.39.39,0,0,0,.1.16.4.4,0,0,0,.25.06h.51Z"/><path d="M37,152.7H35.57V159a.38.38,0,0,1-.11-.09l-.2-.22c-.09-.09-.19-.19-.29-.31v-4.5a3.74,3.74,0,0,0,0-.49,1.13,1.13,0,0,0-.15-.39.71.71,0,0,0-.29-.25.91.91,0,0,0-.45,0l-.48-.6H34a1.16,1.16,0,0,1,.44.07.79.79,0,0,1,.32.23,1.54,1.54,0,0,1,.26.4c.07.17.15.37.23.61,0-.11,0-.22,0-.33s0-.24-.06-.39-.05-.35-.08-.57-.07-.51-.1-.86l.24.2a.87.87,0,0,0,0,.21.35.35,0,0,0,.06.14.91.91,0,0,0,.1.13l.15.16h.91Z"/><path d="M37.45,151.56l0,.09c0,.06.05.11.07.17l.08.17a.8.8,0,0,1,0,.11H38.8l.6.6H37.89v6.08l-.31-.29-.21-.2-.08-.09v-5.5H36.4l-.59-.6h1.54l-.19-.18a1.89,1.89,0,0,1-.2-.2,1.77,1.77,0,0,1-.16-.22.51.51,0,0,1-.07-.24,1.24,1.24,0,0,1,.11-.49,2,2,0,0,1,.28-.46,2.62,2.62,0,0,1,.42-.39,3,3,0,0,1,.48-.31,2.83,2.83,0,0,1,.52-.21,1.76,1.76,0,0,1,.49-.07,3.72,3.72,0,0,1,1,.14,4.48,4.48,0,0,1,.94.37,6.56,6.56,0,0,1,.85.56,9.45,9.45,0,0,1,.75.67l.13.39a8.39,8.39,0,0,0-1.38-1,4.73,4.73,0,0,0-1.13-.45,2.42,2.42,0,0,0-.91-.06,2.18,2.18,0,0,0-.71.2,2.22,2.22,0,0,0-.52.37,3.69,3.69,0,0,0-.34.42,2,2,0,0,0-.2.37A.74.74,0,0,0,37.45,151.56Z"/><path d="M41.07,153.85H41l-.12,0a.34.34,0,0,0-.12,0s0,0,0,.07a.19.19,0,0,0,0,.09l.06.11.06.11a.45.45,0,0,1,0,.36.9.9,0,0,1-.15.19.72.72,0,0,1-.21.12.7.7,0,0,1-.25,0,.86.86,0,0,1-.27,0,1,1,0,0,1-.24-.14.68.68,0,0,1-.17-.21.46.46,0,0,1-.07-.26,1.63,1.63,0,0,1,.07-.5,1.09,1.09,0,0,1,.23-.39,1,1,0,0,1,.37-.26,1.22,1.22,0,0,1,.49-.1,1.91,1.91,0,0,1,.61.09,1.8,1.8,0,0,1,.48.24,2.19,2.19,0,0,1,.39.36,4.61,4.61,0,0,1,.36.46V152.7H38.54l-.63-.6h5.82l.6.6H43v2.51h-.56a.74.74,0,0,0,0-.36,1.06,1.06,0,0,0-.18-.33,1.44,1.44,0,0,0-.28-.27,1.26,1.26,0,0,0-.32-.21,1.73,1.73,0,0,0-.32-.14A.78.78,0,0,0,41.07,153.85Z"/><path d="M43.9,156.32a2,2,0,0,1-.08.93,2.09,2.09,0,0,1-.41.73,1.88,1.88,0,0,1-.65.46,1.9,1.9,0,0,1-.81.17,2.27,2.27,0,0,1-1.08-.26,3,3,0,0,1-.86-.71,4.79,4.79,0,0,1-.65-1,9.85,9.85,0,0,1-.47-1.17c-.13-.41-.24-.81-.33-1.21s-.15-.76-.2-1.1l.26.16c.11.25.23.54.34.85s.23.63.35,1,.27.63.42.93a3.91,3.91,0,0,0,.53.81,2.46,2.46,0,0,0,.69.56,1.69,1.69,0,0,0,.88.22,3.06,3.06,0,0,0,.59-.07,1.67,1.67,0,0,0,.54-.25,1.23,1.23,0,0,0,.37-.47,1.4,1.4,0,0,0,.09-.73.66.66,0,0,0-.16-.38,1,1,0,0,0-.32-.21,1.24,1.24,0,0,0-.38-.09,1.13,1.13,0,0,0-.34,0,.89.89,0,0,1,.19.31.92.92,0,0,1,.07.36.59.59,0,0,1-.08.32.79.79,0,0,1-.19.25,1.05,1.05,0,0,1-.29.17,1,1,0,0,1-1-.21,1,1,0,0,1-.24-.71,1,1,0,0,1,.12-.49,1,1,0,0,1,.31-.37,1.61,1.61,0,0,1,.43-.23,1.68,1.68,0,0,1,.5-.07,2.34,2.34,0,0,1,.71.1,1.72,1.72,0,0,1,.57.3,1.55,1.55,0,0,1,.41.47A1.65,1.65,0,0,1,43.9,156.32Z"/><path d="M49.72,152.7H48.4V159l-.22-.3v-.08a.28.28,0,0,0,0-.09,4.63,4.63,0,0,0-.07-.67,6.79,6.79,0,0,0-.21-.8,6.25,6.25,0,0,0-.33-.81,4.23,4.23,0,0,0-.46-.72,2.1,2.1,0,0,0-.56-.52,1.19,1.19,0,0,0-.66-.2h-.08a.09.09,0,0,0-.07,0c0,.08.11.15.15.22a1.37,1.37,0,0,1,.13.2,1.55,1.55,0,0,1,.08.23,1,1,0,0,1,0,.26.79.79,0,0,1-.06.32.58.58,0,0,1-.18.23.72.72,0,0,1-.26.14,1.26,1.26,0,0,1-1.17-.25,1.15,1.15,0,0,1-.29-.85,1.23,1.23,0,0,1,.12-.55,1.35,1.35,0,0,1,.31-.43,1.37,1.37,0,0,1,.47-.27,1.45,1.45,0,0,1,.55-.1,1.53,1.53,0,0,1,.74.18,2.66,2.66,0,0,1,.6.46,3.23,3.23,0,0,1,.47.63,6.32,6.32,0,0,1,.36.67v-3.2H43.71l-.59-.6h6Z"/><path d="M55.2,152.7H53.89V159s0,0-.07-.11l-.22-.24-.33-.36,0-3.24a1.72,1.72,0,0,0-.06-.44,2.34,2.34,0,0,0-.18-.48,2.4,2.4,0,0,0-.27-.46,2.49,2.49,0,0,0-.34-.38A1.82,1.82,0,0,0,52,153a1,1,0,0,0-.44-.1,1.37,1.37,0,0,0-1.37.9,1.17,1.17,0,0,1,.32-.09l.33,0a1.39,1.39,0,0,1,.46.07,1,1,0,0,1,.38.19,1.06,1.06,0,0,1,.26.33,1.16,1.16,0,0,1,.09.47,1.18,1.18,0,0,1-.12.5,2.92,2.92,0,0,1-.28.52c-.12.16-.24.32-.37.47l-.34.39-.69-.78.18-.17.25-.25c.09-.09.19-.19.28-.3a2.32,2.32,0,0,0,.26-.3,2,2,0,0,0,.2-.26.37.37,0,0,0,.07-.19.23.23,0,0,0-.09-.2.44.44,0,0,0-.23-.06.69.69,0,0,0-.25.08l-.32.17-.34.17a.57.57,0,0,1-.27.08.42.42,0,0,1-.26-.08,1,1,0,0,1-.21-.21,1.51,1.51,0,0,1-.15-.28,1,1,0,0,1-.05-.28,1.4,1.4,0,0,1,.15-.64,1.73,1.73,0,0,1,.39-.5,1.82,1.82,0,0,1,.56-.32,2,2,0,0,1,.64-.11,4.38,4.38,0,0,1,.77.06,2.62,2.62,0,0,1,.56.19,1.41,1.41,0,0,1,.4.32,1.82,1.82,0,0,1,.31.44c.08.16.16.35.24.56s.14.45.22.7c0-.3,0-.58,0-.86l-.06-.83c0-.27,0-.55,0-.82s0-.57,0-.86l.36.35a.34.34,0,0,0,0,.18.8.8,0,0,0,.05.33.27.27,0,0,0,.17.13.65.65,0,0,0,.25,0h.41Z"/><path d="M60.15,152.7h-1.3v6.08a.18.18,0,0,1-.07-.05l-.06,0-.07-.08-.11-.13c-.07-.12-.16-.27-.24-.44s-.18-.34-.29-.52a6.41,6.41,0,0,0-.39-.52,2.71,2.71,0,0,0-.53-.48,3.06,3.06,0,0,0-.7-.36,3.2,3.2,0,0,0-.92-.18l-.79-1.07a16.58,16.58,0,0,1,1.71-1,11.21,11.21,0,0,1,1.86-.77v-.39H54.57l-.6-.6h5.57Zm-1.9,4.6V154l-.63.24-.59.28-.56.33c-.18.12-.37.24-.55.38a5.06,5.06,0,0,1,1.36.83A3.93,3.93,0,0,1,58.25,157.3Zm-1.68,1a.7.7,0,0,1-.25,0,.8.8,0,0,1-.21-.15.6.6,0,0,1-.14-.21.49.49,0,0,1,0-.24.54.54,0,0,1,0-.22.64.64,0,0,1,.13-.19.46.46,0,0,1,.18-.13.59.59,0,0,1,.23,0,.69.69,0,0,1,.24,0,.9.9,0,0,1,.2.14.66.66,0,0,1,.14.2.54.54,0,0,1,.06.25.59.59,0,0,1,0,.22.62.62,0,0,1-.12.19.49.49,0,0,1-.18.14A.59.59,0,0,1,56.57,158.29Z"/><path d="M61.92,160.5l-.11-.24a1.58,1.58,0,0,0,.32-.19,2.12,2.12,0,0,0,.31-.28,1.51,1.51,0,0,0,.24-.34.8.8,0,0,0,.09-.36V159s0,0,0-.08a.25.25,0,0,0,0-.07.09.09,0,0,0-.07,0l-.2,0-.2,0a.68.68,0,0,1-.45-.15.54.54,0,0,1-.18-.43.64.64,0,0,1,.72-.72,1,1,0,0,1,.45.09.81.81,0,0,1,.29.26.89.89,0,0,1,.16.37,2.16,2.16,0,0,1,.05.46,1.33,1.33,0,0,1-.13.53,2.29,2.29,0,0,1-.32.51,2.91,2.91,0,0,1-.43.43A1.66,1.66,0,0,1,61.92,160.5Z"/><path d="M72.3,152.7H68.21v4a.52.52,0,0,0,.08.29.28.28,0,0,0,.26.11.69.69,0,0,0,.38-.11,2.55,2.55,0,0,0,.38-.29,2.89,2.89,0,0,0,.35-.35l.25-.3a1,1,0,0,0,.19-.35,2,2,0,0,0,.08-.41l-.09,0H70a.87.87,0,0,1-.28,0,1.19,1.19,0,0,1-.25-.13.68.68,0,0,1-.17-.21.55.55,0,0,1-.07-.28,1.14,1.14,0,0,1,0-.33.61.61,0,0,1,.15-.26.68.68,0,0,1,.23-.18.83.83,0,0,1,.32-.06.92.92,0,0,1,.51.13,1.07,1.07,0,0,1,.33.34,1.41,1.41,0,0,1,.19.47,2.2,2.2,0,0,1,.06.5,1.56,1.56,0,0,1-.1.55,3.38,3.38,0,0,1-.27.58,3.52,3.52,0,0,1-.39.56,4.3,4.3,0,0,1-.49.47,2.32,2.32,0,0,1-.53.33,1.39,1.39,0,0,1-.54.12.79.79,0,0,1-.45-.13,1.27,1.27,0,0,1-.3-.27,2.82,2.82,0,0,1-.21-.31,1.88,1.88,0,0,1-.14-.29.54.54,0,0,1,0-.17v-4h-.86l-.59-.6h5.53Z"/><path d="M74.71,152.7H73.24V159a.38.38,0,0,1-.11-.09l-.2-.22c-.09-.09-.19-.19-.29-.31v-4.5a3.74,3.74,0,0,0,0-.49,1.13,1.13,0,0,0-.15-.39.71.71,0,0,0-.29-.25.91.91,0,0,0-.45,0l-.48-.6h.4a1.16,1.16,0,0,1,.44.07.79.79,0,0,1,.32.23,1.54,1.54,0,0,1,.26.4c.07.17.15.37.23.61,0-.11,0-.22,0-.33s0-.24-.06-.39,0-.35-.08-.57-.07-.51-.1-.86l.24.2a.87.87,0,0,0,0,.21.35.35,0,0,0,.06.14.91.91,0,0,0,.1.13l.15.16h.91Z"/><path d="M81.57,152.7H78.39v.44h.09a1.71,1.71,0,0,1,.82.22,2.5,2.5,0,0,1,.68.58,3.14,3.14,0,0,1,.46.77,2.29,2.29,0,0,1,.17.84,1.23,1.23,0,0,1-.07.42,1.16,1.16,0,0,1-.18.37,1.14,1.14,0,0,1-.31.27.81.81,0,0,1-.41.11.72.72,0,0,1-.29-.06.89.89,0,0,1-.25-.16,1.3,1.3,0,0,1-.18-.23.72.72,0,0,1-.06-.29.67.67,0,0,1,.09-.34,1.55,1.55,0,0,1,.24-.27l.17,0h.18a.56.56,0,0,1,.33.1,2.27,2.27,0,0,1,.28.21.11.11,0,0,0,0,0v-.06a1.38,1.38,0,0,0-.14-.59,1.7,1.7,0,0,0-.38-.5,1.66,1.66,0,0,0-.53-.34,1.34,1.34,0,0,0-.59-.1h-.13v4.79l-.06,0a.6.6,0,0,0-.08-.08.57.57,0,0,1-.11-.11,5.29,5.29,0,0,0-.44-1,3.61,3.61,0,0,0-.62-.77,3,3,0,0,0-.82-.55,3.32,3.32,0,0,0-1-.27l-.83-1a7.84,7.84,0,0,1,.76-.55c.27-.18.56-.35.86-.51s.6-.3.9-.43.59-.23.87-.32v-.46H74.12l-.61-.6H81Zm-3.78,4.42V154c-.21.08-.41.16-.6.25s-.37.18-.54.28l-.51.32-.52.35a4.44,4.44,0,0,1,1.24.79A4.2,4.2,0,0,1,77.79,157.12Z"/><path d="M84,152.7H82.5V159l-.11-.09-.2-.22-.29-.31v-4.5a2.56,2.56,0,0,0,0-.49,1.13,1.13,0,0,0-.15-.39.75.75,0,0,0-.28-.25.91.91,0,0,0-.45,0l-.49-.6h.4a1.16,1.16,0,0,1,.44.07.82.82,0,0,1,.33.23,1.52,1.52,0,0,1,.25.4,5.71,5.71,0,0,1,.23.61,1.83,1.83,0,0,0,0-.33c0-.1,0-.24-.06-.39s0-.35-.08-.57-.07-.51-.1-.86l.24.2a.87.87,0,0,0,0,.21l.06.14.1.13.16.16h.9Z"/><circle class="cls-2" cx="55.66" cy="46.04" r="46.04"/><circle class="cls-3" cx="55.66" cy="45.85" r="44.23"/><path d="M26.75,67.68a.55.55,0,0,0,0-.4l-.85-1.23.17-1,3,4.36-.19,1L27.26,68l0,0-.09.21a1.05,1.05,0,0,1,.16.42,1.59,1.59,0,0,1-.41,1.53,1,1,0,0,1-.22.19,1.43,1.43,0,0,1-1.53.07l-.54-.29a.15.15,0,0,1,0,.07c0,.13,0,.28,0,.43a5.19,5.19,0,0,1-.08,1.16c0,.07-.09.45-.25,1.15l-.78.93c.11-.4.18-.66.21-.79a7.68,7.68,0,0,0,.11-2.29,6,6,0,0,0-.51-2l1-1.59A3.19,3.19,0,0,0,24.85,69a1.9,1.9,0,0,0,1.27.8.42.42,0,0,0,.34,0,.73.73,0,0,0,.08-1l-.08-.09a1.25,1.25,0,0,1-.89,0,.83.83,0,0,1-.53-.35.63.63,0,0,1,.06-.9.94.94,0,0,1,.69-.19,1,1,0,0,1,.51.15Z"/><path d="M29,70c.34-.35.72-.71,1.16-1.09v.52a3.22,3.22,0,0,0-.33.47,1.43,1.43,0,0,0-.05.18l.5.57-.08,1-.93-1.07-4.21,3.66.12-1,2.95-2.55a.84.84,0,0,0,.28-.41.87.87,0,0,0-.15-.84l-.11-.12.06-1a4.34,4.34,0,0,1,.7.77A1,1,0,0,1,29,70Z"/><path d="M32.32,73.58l-3.8,4,.12-.8a2.89,2.89,0,0,0-.49-3.24l.19-1.28a11,11,0,0,1,1.58.28,12.89,12.89,0,0,1,1.77.64l.12-.13-2.35-2.21,0-1,3.88,3.65,0,1ZM31,74a8.62,8.62,0,0,0-1.8-.5,4.13,4.13,0,0,1,.27,2.12Z"/><path d="M33.64,74.58l-3.32,4.31-.12-1,2.88-3.73-.46-.36-.17-1,1.1.85.12-.25a2.16,2.16,0,0,0,.11-.84,2.63,2.63,0,0,0-1.26-2.1,3.88,3.88,0,0,0-.64-.39q-.51-.25-.63-.09c-.06.07,0,.19.21.35s.65.55.92.8l.09.09a1.08,1.08,0,0,1,.24,1.6,1.22,1.22,0,0,1-.31.28l-.71-.55c.37,0,.58,0,.63-.1s0-.35-.41-.67-.67-.57-.68-.59a1.92,1.92,0,0,1-.45-.72.81.81,0,0,1,.12-.82.85.85,0,0,1,.93-.24,3.26,3.26,0,0,1,1.31.59A4.45,4.45,0,0,1,34,71a2.62,2.62,0,0,1,.36,1,2.55,2.55,0,0,1,0,.85,3.08,3.08,0,0,1-.18.85l-.16.39.68.53.12,1Z"/><path d="M37.34,77.05,34.4,81.76l0-.81a2.88,2.88,0,0,0-1.11-3.08l-.07-1.29a11.24,11.24,0,0,1,1.6,0,11.47,11.47,0,0,1,1.87.28l.09-.15L34,75l-.22-1,4.52,2.83.21,1Zm-1.24.66a9.52,9.52,0,0,0-1.86-.14,4.23,4.23,0,0,1,.68,2Z"/><path d="M34.87,83.62a.16.16,0,0,1-.15,0,.18.18,0,0,1-.08-.14,5.57,5.57,0,0,0-.39-1.25c-.11-.27-.16-.41-.14-.42l-.56.13a.94.94,0,0,1-.55-.1,1.24,1.24,0,0,1-.5-.46.69.69,0,0,1-.08-.66A.81.81,0,0,1,33,80.2a1,1,0,0,1,.8.09,1.51,1.51,0,0,1,.5.55l.18-.33a2.44,2.44,0,0,1,.15-.32.24.24,0,0,1,.14,0c.12.06.17.22.17.48a1.45,1.45,0,0,1-.09.54l-.08.15a1.71,1.71,0,0,0-.07.18,2.21,2.21,0,0,1,.19.59A2.17,2.17,0,0,1,35,83.5.14.14,0,0,1,34.87,83.62Zm-1.44-2.7c-.21-.09-.34-.1-.38,0s0,.16.1.22a1,1,0,0,0,.35.1c.15,0,.23,0,.23,0S33.61,81,33.43,80.92Z"/><path d="M41.76,79.09l-2.19,5-.37-.93,1.17-2.65a.56.56,0,0,0,0-.42.54.54,0,0,0-.27-.33.3.3,0,0,0-.3,0,1.39,1.39,0,0,0-.25.58l-.55,0a.37.37,0,0,0,.15-.34,1.9,1.9,0,0,0-.1-.44A.89.89,0,0,0,37.92,79a.77.77,0,0,0-.46.42.56.56,0,0,0,.1.66.46.46,0,0,1,.06-.23.61.61,0,0,1,.37-.35.63.63,0,0,1,.52,0,.64.64,0,0,1,.37.71.89.89,0,0,1-.16.58.85.85,0,0,1-1,.17,1.56,1.56,0,0,1-.76-.67,1.28,1.28,0,0,1-.15-1,1.87,1.87,0,0,1,.13-.4,1.66,1.66,0,0,1,.7-.8,1,1,0,0,1,1-.12,1.34,1.34,0,0,1,.75.81l0,.11a1.16,1.16,0,0,1,.42-.19.54.54,0,0,1,.4,0,.86.86,0,0,1,.4.42c0,.1.05.19.07.27s0,.08,0,.12l.35-.79-3.56-1.57-.38-1,5.49,2.42.38,1Z"/><path d="M39.77,81.86l-.26.59a.56.56,0,0,0,0-.12c0-.08,0-.18-.06-.28a.9.9,0,0,0-.41-.41.54.54,0,0,0-.4,0,1,1,0,0,0-.41.19l0-.11a1.35,1.35,0,0,0-.76-.81,1.08,1.08,0,0,0-1,.11,1.74,1.74,0,0,0-.69.8,2,2,0,0,0-.14.41,1.38,1.38,0,0,0,.15,1,1.66,1.66,0,0,0,.76.67.86.86,0,0,0,1-.17.88.88,0,0,0,.17-.58.66.66,0,0,0-.38-.72.72.72,0,0,0-.52,0,.67.67,0,0,0-.37.35,1.05,1.05,0,0,0-.06.24.55.55,0,0,1-.09-.67.71.71,0,0,1,.45-.41.83.83,0,0,1,.62,0,.86.86,0,0,1,.49.5,1.71,1.71,0,0,1,.11.44.42.42,0,0,1-.15.34l.54,0a1.25,1.25,0,0,1,.26-.57.27.27,0,0,1,.29,0,.56.56,0,0,1,.28.32.58.58,0,0,1,0,.43l-.47,1.14.37.92,1.3-3A3.85,3.85,0,0,1,39.77,81.86Z"/><path d="M43,79.27q.16-.7.42-1.53l.28.44a4.56,4.56,0,0,0,0,.57.94.94,0,0,0,.06.18l.72.23.45.9-1.35-.43-1.7,5.31L41.37,84l1.2-3.71A.88.88,0,0,0,42,79.16l-.15,0-.47-.89a5.37,5.37,0,0,1,1,.3A1,1,0,0,1,43,79.27Z"/><path d="M45.62,80.46a.52.52,0,0,0-.26-.3l-1.46-.33L43.33,79l5.17,1.17L49,81l-2.82-.64v.06l.07.21a1.33,1.33,0,0,1,.41.21,1.58,1.58,0,0,1,.73,1.4,1.36,1.36,0,0,1,0,.29,1.43,1.43,0,0,1-1.08,1.09l-.6.15.06,0,.33.29a4.74,4.74,0,0,1,.72.9l.6,1,0,1.22c-.19-.37-.32-.61-.38-.72a7.37,7.37,0,0,0-1.47-1.76,5.73,5.73,0,0,0-1.76-1.16l-.31-1.87a3.21,3.21,0,0,0,1.57,1,2,2,0,0,0,1.48-.27.53.53,0,0,0,.21-.27.79.79,0,0,0-.06-.41.77.77,0,0,0-.59-.42h-.12a1.28,1.28,0,0,1-.63.64.88.88,0,0,1-.63.1.65.65,0,0,1-.56-.71.93.93,0,0,1,.38-.61,1.08,1.08,0,0,1,.48-.23Z"/><path d="M54.47,81.3l-.26,5.55-.43-.69A2.87,2.87,0,0,0,51.3,84l-.69-1.1A11.8,11.8,0,0,1,52,82.11a13.27,13.27,0,0,1,1.77-.67v-.17l-3.23-.15-.67-.76,5.32.25.67.75Zm-.76,1.18a9.32,9.32,0,0,0-1.69.79A4.3,4.3,0,0,1,53.6,84.7Z"/><path d="M55.71,81.09a15,15,0,0,1-.1-1.58l.4.32c0,.1.07.28.15.55l.12.15.75,0,.73.71-1.42,0,.13,5.58-.71-.75-.09-3.9a.85.85,0,0,0-.13-.48.87.87,0,0,0-.75-.41h-.16l-.73-.68a4.45,4.45,0,0,1,1,0A1,1,0,0,1,55.71,81.09Z"/><path d="M58.65,81.36a.59.59,0,0,0-.35-.21l-1.49.14L56,80.64l5.29-.49.76.66-2.88.26,0,.06.14.18a1.13,1.13,0,0,1,.44.07,1.6,1.6,0,0,1,1.14,1.1,1.5,1.5,0,0,1,.06.29,1.44,1.44,0,0,1-.7,1.37l-.52.32.08,0,.39.17a5,5,0,0,1,1,.63l.88.78.43,1.14-.58-.57A7.76,7.76,0,0,0,60,85.43a5.65,5.65,0,0,0-2-.56l-.87-1.69a3.11,3.11,0,0,0,1.8.49A2,2,0,0,0,60.21,83a.45.45,0,0,0,.11-.32.65.65,0,0,0-.18-.36.74.74,0,0,0-.69-.22l-.12,0a1.29,1.29,0,0,1-.4.81.88.88,0,0,1-.57.29.65.65,0,0,1-.75-.5.94.94,0,0,1,.17-.7,1.16,1.16,0,0,1,.39-.37Z"/><path d="M61.84,80.56c-.12-.47-.23-1-.32-1.56l.44.26a4.63,4.63,0,0,0,.23.53l.14.13.74-.13.82.6-1.4.23.93,5.5-.81-.63L62,81.64a.79.79,0,0,0-.2-.45.85.85,0,0,0-.79-.31l-.16,0L60,80.34a4.44,4.44,0,0,1,1-.2A1,1,0,0,1,61.84,80.56Z"/><path d="M66.62,79.68l1.3,5.2-.45-.26c-.47-.52-.73-.79-.78-.83a2.35,2.35,0,0,0-1-.56,2.65,2.65,0,0,0-1.34-.08l-1-.83A10.63,10.63,0,0,1,66,80l0-.16-3,.74-.88-.52,5-1.25.87.53ZM66.21,81a6.87,6.87,0,0,0-1.41,1.26,3.69,3.69,0,0,1,2,1Zm-.4,3.87a.65.65,0,0,1-.73-.94.58.58,0,0,1,.37-.28.68.68,0,0,1,.73.34.62.62,0,0,1,0,.53A.53.53,0,0,1,65.81,84.84Z"/><path d="M74.79,78.62a1.16,1.16,0,0,0-.61-.44,1.28,1.28,0,0,0-1.05,0L75,82.07l-.51-.18q-.36-.37-.45-.45a2.73,2.73,0,0,0-.58-.32A2.37,2.37,0,0,0,71.37,81l-1.15-.54a8.6,8.6,0,0,1,1.91-2.71l-.1-.2-2.74,1.32-1-.34,6-2.88,1,.35-2.59,1.24.07.15a1.75,1.75,0,0,1,1.32,0,2.3,2.3,0,0,1,1.35,1.15,1.26,1.26,0,0,1,.11.78.82.82,0,0,1-.47.61.74.74,0,0,1-.57,0,.65.65,0,0,1-.43-.36.81.81,0,0,1,0-.71,1,1,0,0,1,.29-.2A.65.65,0,0,1,74.79,78.62Zm-2.26,0a6.71,6.71,0,0,0-.7.89s-.1.19-.29.54a3.6,3.6,0,0,1,1.94.53Z"/><path d="M76.71,75.06a2.31,2.31,0,0,0-.39,2.13,4.65,4.65,0,0,0,.52,1.11,2.66,2.66,0,0,0,.29.38,1.6,1.6,0,0,0,.61.39.77.77,0,0,0,.71,0l.06,0s0,.12-.09.26c.07,0,.09-.08.08-.11l-.2-.09a1.12,1.12,0,0,1-.28-.18.66.66,0,0,1-.06-.8.62.62,0,0,1,.23-.25.46.46,0,0,1,.37-.08.7.7,0,0,1,.66.35.86.86,0,0,1,.1.73,1,1,0,0,1-.44.61,1.28,1.28,0,0,1-.85.23A2.92,2.92,0,0,1,76,78.27a4,4,0,0,1-.56-2.57l-1.15.73-1-.22,3.26-2.09,1,.22A3.29,3.29,0,0,0,76.71,75.06Z"/><path d="M80.21,72.08l3.42,4.22-1-.1L80.81,74a.55.55,0,0,0-.38-.18.58.58,0,0,0-.42.09.29.29,0,0,0-.09.29,1.45,1.45,0,0,0,.4.49l-.27.47a.39.39,0,0,0-.23-.29,2.57,2.57,0,0,0-.45-.11.82.82,0,0,0-.66.22.78.78,0,0,0-.3.54.7.7,0,0,0,.16.59.56.56,0,0,0,.63.22.69.69,0,0,1-.18-.16.63.63,0,0,1-.14-.49.68.68,0,0,1,.25-.45.66.66,0,0,1,.81,0c.26.15.41.28.44.41a.84.84,0,0,1-.31,1,1.58,1.58,0,0,1-.94.38,1.32,1.32,0,0,1-.94-.32,2.13,2.13,0,0,1-.3-.3,1.68,1.68,0,0,1-.39-1,1,1,0,0,1,.36-1,1.36,1.36,0,0,1,1.06-.31l.12,0a1.2,1.2,0,0,1,0-.46.59.59,0,0,1,.19-.35.86.86,0,0,1,.56-.17l.28.06.12,0-.55-.68-3,2.46-1-.1,4.66-3.79,1,.1Z"/><path d="M83.76,70.39a1.26,1.26,0,0,1,.44,0,1.89,1.89,0,0,1,1.18.43,1.87,1.87,0,0,1,.26.3,1.61,1.61,0,0,1,.25.94,1.43,1.43,0,0,1-.37.88,2,2,0,0,1-1.76.6,3.23,3.23,0,0,1-1.08-.29,3.94,3.94,0,0,1-1-.57c-.27-.22-.57-.49-.91-.79a2.18,2.18,0,0,1,.54-.17,3,3,0,0,0,.79.59,7.63,7.63,0,0,0,.7.33,2.37,2.37,0,0,0,1,.1,1.23,1.23,0,0,0,.85-.41,2,2,0,0,0,.32-.59c.09-.28.07-.48-.07-.6A.5.5,0,0,0,84.7,71a.13.13,0,0,0-.16,0,.15.15,0,0,0,0,.08,2.34,2.34,0,0,1-.4.78,1.25,1.25,0,0,1-.47.33,1.58,1.58,0,0,1-1.18-.14,1.37,1.37,0,0,1-.26-.2,1.76,1.76,0,0,1-.48-1.07s0-.09,0-.17L80.47,72l-1,0L84,66.93l1,0-2.26,2.53c0,.06,0,.17-.07.3a.22.22,0,0,0,0,.08c.08.08.25,0,.52-.13a1.51,1.51,0,0,0,.51-.41,4.62,4.62,0,0,0,.45-.88l1.26,0a2.87,2.87,0,0,0,.21,1,2.17,2.17,0,0,0,.5.82,4.53,4.53,0,0,0,.43.44,3.83,3.83,0,0,0,1.38.69.22.22,0,0,1,0,.18,1.19,1.19,0,0,1-.27.19c-.14.08-.23.12-.28.1l-1-.52a5.27,5.27,0,0,1-.88-.59,4.13,4.13,0,0,1-.87-1.15,3.7,3.7,0,0,1-.93.72,1.58,1.58,0,0,1-.81.25l-.45,0a1,1,0,0,0,.07.63,1.54,1.54,0,0,0,.29.61.24.24,0,0,0,.37,0,2.86,2.86,0,0,0,.29-.82,2.49,2.49,0,0,1,.1-.3.21.21,0,0,1,.15-.07Z"/><path class="cls-4" d="M51.21,77.74s2.75-4.85,7.89-.1C59.1,77.64,54.81,76.16,51.21,77.74Z"/><path class="cls-4" d="M57.85,75.39s1.73-2.28,8.1-2.62C66,72.77,61.37,75.49,57.85,75.39Z"/><path class="cls-4" d="M44.67,72.34s5.9.83,8.45,2.85C53.12,75.19,48.67,76.83,44.67,72.34Z"/><path class="cls-4" d="M68.89,71.47,71,66.79s-3.19,1-4.44,5.89c0,0,4.58.82,6.9.19C73.48,72.87,69,72,68.89,71.47Z"/><path class="cls-4" d="M73.56,69.59l1.75-3.87s-2.63.8-3.67,4.86c0,0,4.25.7,6.08-.07C77.72,70.51,73.64,70,73.56,69.59Z"/><path class="cls-4" d="M78.1,66.63l.8-3.92S76.54,64,76.37,68.09c0,0,4.2-.18,5.8-1.29C82.17,66.8,78.25,67,78.1,66.63Z"/><path class="cls-4" d="M81.72,63l.36-3.91s-2.15,1.57-1.8,5.63c0,0,4.33-.53,5.56-2.59C85.84,62.11,81.92,63.32,81.72,63Z"/><path class="cls-4" d="M85,58.85,85,55.44s-1.72,1.5-1.12,4.93c0,.53,3.45-.86,4.58-2.12C88.5,58.25,85.18,59.13,85,58.85Z"/><path class="cls-4" d="M87.55,54.15l-.76-2.75a4.72,4.72,0,0,0,0,4.53c.12.44,3.12-1.71,3.81-3C90.59,52.92,87.77,54.34,87.55,54.15Z"/><path class="cls-4" d="M89.26,48.21,87.73,45.8A5.25,5.25,0,0,0,89,50.45c.24.39,2.51-2.85,2.79-4.29C91.81,46.16,89.52,48.33,89.26,48.21Z"/><path class="cls-4" d="M89.78,42.85l-1.48-2.1a4.71,4.71,0,0,0,1.36,4.12c.23.34,2.13-2.67,2.32-4C92,40.89,90,43,89.78,42.85Z"/><path class="cls-4" d="M89.33,37.28l-2.15-1.91a6,6,0,0,0,2.61,4c.36-.17,1.09-3.29.94-4.61C90.73,34.77,89.59,37.31,89.33,37.28Z"/><path class="cls-4" d="M88.22,31.86l-2.29-1.63a5.79,5.79,0,0,0,3,3.62c.33-.2.71-3.31.43-4.58C89.32,29.27,88.48,31.86,88.22,31.86Z"/><path class="cls-4" d="M86.58,27.12l-2.34-1.29a5.51,5.51,0,0,0,3.18,3.11c.3-.23.32-3.22-.09-4.38C87.33,24.56,86.82,27.1,86.58,27.12Z"/><path class="cls-4" d="M84.46,22.87,82.32,22a4.77,4.77,0,0,0,3.05,2.35,8.06,8.06,0,0,0-.51-3.75A9,9,0,0,1,84.46,22.87Z"/><path class="cls-4" d="M82.32,19.73l-1.56-.37a3.15,3.15,0,0,0,2.51,1.72,7.76,7.76,0,0,0-.78-3.37A8.36,8.36,0,0,1,82.32,19.73Z"/><path class="cls-4" d="M79.67,16.85l-1.79.25a4.24,4.24,0,0,0,3,.92,6.12,6.12,0,0,0-1-3A7.31,7.31,0,0,1,79.67,16.85Z"/><path class="cls-4" d="M76.11,14.31l-1.54,0a2.63,2.63,0,0,0,2.5,1,4.84,4.84,0,0,0-.93-2.73S76.27,14.23,76.11,14.31Z"/><path class="cls-4" d="M73.19,12.32l-1.41.16a2.44,2.44,0,0,0,2.38.69,4.63,4.63,0,0,0-1.08-2.43S73.33,12.23,73.19,12.32Z"/><path class="cls-4" d="M70.17,10.37,69,10.64a2.11,2.11,0,0,0,2.1.38,3.88,3.88,0,0,0-1.14-2S70.29,10.28,70.17,10.37Z"/><path class="cls-4" d="M66.36,8.88l-1.26.28a2.19,2.19,0,0,0,2.21.39,4.13,4.13,0,0,0-1.2-2.09S66.48,8.78,66.36,8.88Z"/><path class="cls-4" d="M42.27,71.06l-2.13-4.68s3.19,1,4.44,5.89c0,0-4.58.82-6.9.19C37.68,72.46,42.17,71.54,42.27,71.06Z"/><path class="cls-4" d="M37.6,69.18l-1.75-3.87s2.63.8,3.67,4.86c0,0-4.25.7-6.09-.07C33.43,70.1,37.52,69.57,37.6,69.18Z"/><path class="cls-4" d="M33.06,66.22l-.8-3.92s2.35,1.29,2.53,5.38c0,0-4.2-.18-5.8-1.29C29,66.39,32.9,66.59,33.06,66.22Z"/><path class="cls-4" d="M29.44,62.57l-.36-3.91s2.15,1.57,1.79,5.63c0,0-4.32-.53-5.56-2.59C25.31,61.7,29.24,62.91,29.44,62.57Z"/><path class="cls-4" d="M26.17,58.44,26.12,55s1.72,1.5,1.12,4.93c0,.53-3.45-.86-4.58-2.12C22.66,57.84,26,58.72,26.17,58.44Z"/><path class="cls-4" d="M23.61,53.74,24.37,51a4.72,4.72,0,0,1,0,4.53c-.12.44-3.12-1.71-3.81-3C20.57,52.51,23.39,53.93,23.61,53.74Z"/><path class="cls-4" d="M21.9,47.8l1.53-2.41A5.25,5.25,0,0,1,22.14,50c-.24.39-2.51-2.85-2.79-4.29C19.35,45.75,21.64,47.92,21.9,47.8Z"/><path class="cls-4" d="M21.72,41.86l1.47-2.1a4.72,4.72,0,0,1-1.35,4.12c-.23.34-2.14-2.67-2.32-4C19.52,39.9,21.48,42,21.72,41.86Z"/><path class="cls-4" d="M22.46,36.29l2.14-1.91a5.91,5.91,0,0,1-2.6,4c-.36-.17-1.09-3.29-.94-4.61C21.06,33.78,22.19,36.32,22.46,36.29Z"/><path class="cls-4" d="M23.61,30.77l2.29-1.63a5.82,5.82,0,0,1-3,3.63c-.33-.2-.71-3.32-.43-4.59C22.51,28.18,23.35,30.78,23.61,30.77Z"/><path class="cls-4" d="M25.55,26l2.34-1.29a5.5,5.5,0,0,1-3.19,3.1c-.29-.23-.31-3.21.09-4.38C24.79,23.47,25.3,26,25.55,26Z"/><path class="cls-4" d="M27.56,22.45l2.14-.87a4.77,4.77,0,0,1-3,2.35,8.06,8.06,0,0,1,.51-3.75A9.32,9.32,0,0,0,27.56,22.45Z"/><path class="cls-4" d="M30,19.32,31.51,19A3.16,3.16,0,0,1,29,20.67a8,8,0,0,1,.79-3.37A7.88,7.88,0,0,0,30,19.32Z"/><path class="cls-4" d="M33.32,16.44l1.79.25a4.22,4.22,0,0,1-3,.92,6,6,0,0,1,1-3A7.75,7.75,0,0,0,33.32,16.44Z"/><path class="cls-4" d="M36,13.9l1.54,0a2.63,2.63,0,0,1-2.5,1A4.84,4.84,0,0,1,36,12.19S35.83,13.82,36,13.9Z"/><path class="cls-4" d="M39.37,11.91l1.41.16a2.44,2.44,0,0,1-2.38.69,4.6,4.6,0,0,1,1.08-2.43S39.23,11.82,39.37,11.91Z"/><path class="cls-4" d="M42.14,10l1.2.27a2.12,2.12,0,0,1-2.11.38,4,4,0,0,1,1.15-2S42,9.87,42.14,10Z"/><path class="cls-4" d="M45.21,8.47l1.26.28a2.19,2.19,0,0,1-2.21.39,4.13,4.13,0,0,1,1.2-2.09S45.09,8.37,45.21,8.47Z"/><polygon class="cls-5" points="55.82 4.84 56.29 5.78 57.34 5.94 56.58 6.67 56.76 7.71 55.82 7.22 54.89 7.71 55.07 6.67 54.31 5.94 55.36 5.78 55.82 4.84"/><polygon class="cls-5" points="52.19 5.27 52.66 6.22 53.7 6.37 52.95 7.11 53.13 8.15 52.19 7.66 51.26 8.15 51.43 7.11 50.68 6.37 51.72 6.22 52.19 5.27"/><polygon class="cls-5" points="48.85 5.87 49.32 6.82 50.37 6.97 49.61 7.71 49.79 8.75 48.85 8.26 47.92 8.75 48.1 7.71 47.34 6.97 48.39 6.82 48.85 5.87"/><polygon class="cls-5" points="59.14 5.27 58.67 6.22 57.63 6.37 58.38 7.11 58.2 8.15 59.14 7.66 60.08 8.15 59.9 7.11 60.65 6.37 59.61 6.22 59.14 5.27"/><polygon class="cls-5" points="62.48 5.87 62.01 6.82 60.96 6.97 61.72 7.71 61.54 8.75 62.48 8.26 63.41 8.75 63.23 7.71 63.99 6.97 62.94 6.82 62.48 5.87"/><path d="M42.14,46.69a2.09,2.09,0,0,1-.59.17l-.24,0a.51.51,0,0,1-.32-.26.94.94,0,0,1-.12-.42,1.06,1.06,0,0,1,.1-.42,1.44,1.44,0,0,1,.24-.39h-1l-.4-.4h4.32l.4.4H42a1.41,1.41,0,0,1,0,.2c0,.1.06.22.11.35s.16.25.19.25,0,0,.07,0a2,2,0,0,1,.33-.32l.16-.11a.68.68,0,0,1,.32-.07.66.66,0,0,1,.65.32,1,1,0,0,1,.1.36.57.57,0,0,1-.27.44,1.38,1.38,0,0,1,.22.55.46.46,0,0,1-.22.38.75.75,0,0,1-.43.12.63.63,0,0,1-.35-.07,1.3,1.3,0,0,1-.45-.48.72.72,0,0,1-.77.55,1.17,1.17,0,0,1-.9-.43,1.41,1.41,0,0,1-.3-.5,4.31,4.31,0,0,1-.19-.76l-.12-.6.35.18c0,.15.06.35.12.61a1.53,1.53,0,0,0,.31.63,1.34,1.34,0,0,0,.27.25.65.65,0,0,0,.33.15.79.79,0,0,0,.4-.13.43.43,0,0,0,.22-.34A.32.32,0,0,0,42.14,46.69Zm-.52-1a.42.42,0,0,0-.22.21.55.55,0,0,0-.14.28c0,.18,0,.27.17.27a.85.85,0,0,0,.5-.22A4.31,4.31,0,0,1,41.62,45.65Zm1.82,1.26a.52.52,0,0,1-.29.09c-.22,0-.33-.1-.33-.29a.46.46,0,0,1,0-.19.35.35,0,0,1,.34-.24.27.27,0,0,1,.22.1c.08-.09.12-.15.12-.2s0-.1-.13-.14A.57.57,0,0,0,43.2,46a.92.92,0,0,0-.55.34c-.11.11-.16.19-.16.22a.9.9,0,0,0,.24.56.66.66,0,0,0,.52.27.27.27,0,0,0,.3-.24A.38.38,0,0,0,43.44,46.91Z"/><path d="M44.53,45.24c0-.27,0-.56,0-.89l.23.19a2.33,2.33,0,0,0,.08.31l.06.09h.43l.4.4h-.8v3.14l-.4-.43V45.86a.41.41,0,0,0-.07-.27.48.48,0,0,0-.41-.25h-.1l-.4-.39a2.37,2.37,0,0,1,.59,0A.56.56,0,0,1,44.53,45.24Z"/><path d="M46.29,46.35a.75.75,0,0,1,.14.26s0,.09,0,.13a.39.39,0,0,1-.12.3.49.49,0,0,1-.34.12.53.53,0,0,1-.6-.61A.64.64,0,0,1,45.6,46a.76.76,0,0,1,.54-.2,1.12,1.12,0,0,1,1,.69l0,.07V45.34h-2l-.4-.4h3.15l.43.4h-.83v3.15l-.22-.3a1.82,1.82,0,0,0-.1-.65A4.62,4.62,0,0,0,47,47a1.46,1.46,0,0,0-.37-.47A.68.68,0,0,0,46.29,46.35Z"/><path d="M52.11,48.14a2.13,2.13,0,0,0-.17-.44.43.43,0,0,0-.36-.13l-.49,0a2.29,2.29,0,0,1-.49,0,1,1,0,0,1-.84-.5,1.34,1.34,0,0,1-.14-.61,2,2,0,0,1,.14-.69.3.3,0,0,1,.07-.13.09.09,0,0,1,.14,0l.15.15a.86.86,0,0,0-.14.27,1.09,1.09,0,0,0,0,.3.6.6,0,0,0,.18.48.53.53,0,0,0,.3.13.93.93,0,0,0,.32,0l.44,0a1.22,1.22,0,0,1,.68.16l.09.09v-2s0,0,0,0a.9.9,0,0,0-.54.31.82.82,0,0,0-.24.36h.07a.27.27,0,0,1,.23.12.47.47,0,0,1,.08.26.46.46,0,0,1-.08.25.37.37,0,0,1-.22.15h-.15a.5.5,0,0,1-.48-.28.53.53,0,0,1-.06-.34,1.53,1.53,0,0,1,.66-1,1,1,0,0,1,.63-.22.6.6,0,0,1,.4.24.41.41,0,0,1,.15.27v3Z"/><path d="M55.63,46.56a.69.69,0,0,0-.21-.38.76.76,0,0,0-.55-.23v2.4l-.21-.21a3.19,3.19,0,0,0-.12-.34,2,2,0,0,0-.22-.31,1.88,1.88,0,0,0-.33-.32,1.81,1.81,0,0,0-.71-.24l-.45-.55a4.82,4.82,0,0,1,1.64-.91v-.13H52.74l-.41-.4h3.78l.4.4H54.87v.1a1,1,0,0,1,.69.3,1.33,1.33,0,0,1,.37.66,1.21,1.21,0,0,1,0,.25.64.64,0,0,1-.14.43.46.46,0,0,1-.38.19.45.45,0,0,1-.31-.12.41.41,0,0,1-.13-.29.45.45,0,0,1,.19-.35l.2,0A.35.35,0,0,1,55.63,46.56ZM54.47,46a6.42,6.42,0,0,0-.58.28l-.28.2a2.1,2.1,0,0,1,.86.75Z"/><path d="M56.07,45.34l-.41-.4h3.78l.43.4Zm2.59,2.28a1.32,1.32,0,0,1-.65.2,1.22,1.22,0,0,1-.41-.07,1,1,0,0,1-.37-.22,2.07,2.07,0,0,1-.27-.32,2.74,2.74,0,0,1-.35-.57,12,12,0,0,1-.45-1.3l.3.13.26.61a3.88,3.88,0,0,0,.33.59,1.16,1.16,0,0,0,1,.55.91.91,0,0,0,.55-.24.56.56,0,0,0,.2-.42.65.65,0,0,0-.11-.38.37.37,0,0,0-.32-.19h-.09a.54.54,0,0,1,.07.29c0,.31-.17.47-.51.47a.5.5,0,0,1-.53-.45.47.47,0,0,1,0-.16.6.6,0,0,1,.23-.48.72.72,0,0,1,.51-.19.93.93,0,0,1,.27,0,1.14,1.14,0,0,1,.82.86,1.2,1.2,0,0,1,0,.38A.93.93,0,0,1,58.66,47.62Z"/><path d="M59.84,45.24c0-.27,0-.56,0-.89l.22.19c0,.05,0,.16.08.31l.07.09h.43l.4.4H60.2v3.14l-.39-.43V45.86a.41.41,0,0,0-.07-.27.48.48,0,0,0-.42-.25h-.09L58.82,45a2.45,2.45,0,0,1,.6,0A.56.56,0,0,1,59.84,45.24Z"/><path d="M65.24,45.34v3.09L65,48.12c0-.07-.08-.18-.14-.34s-.12-.3-.15-.36a3.68,3.68,0,0,0-.25-.31.86.86,0,0,1-.72.41,1,1,0,0,1-.42-.11,1.47,1.47,0,0,1-.38-.25,3.72,3.72,0,0,1-.33-.43,3.29,3.29,0,0,1-.29-.67,5.68,5.68,0,0,1-.21-.72l.3.12.21.58a1.16,1.16,0,0,0,.24.42,3.06,3.06,0,0,0,.39.33.84.84,0,0,0,.5.11.39.39,0,0,0,.43-.43.69.69,0,0,0-.1-.37C64,46,64,46,64,46l-.09.11a.44.44,0,0,1-.26.18.54.54,0,0,1-.39-.12.42.42,0,0,1-.17-.34.52.52,0,0,1,.08-.25.42.42,0,0,1,.18-.13.47.47,0,0,1,.22,0,1.15,1.15,0,0,1,.8.38,1,1,0,0,1,.29.83l.22.38V45.34H62.12l-.41-.4h3.95l.42.4Z"/><path d="M66,45.24c0-.27,0-.56,0-.89l.22.19c0,.05,0,.16.08.31l.07.09h.43l.4.4h-.81v3.14L66,48.05V45.86a.41.41,0,0,0-.07-.27.48.48,0,0,0-.42-.25h-.09L65,45a2.37,2.37,0,0,1,.59,0A.56.56,0,0,1,66,45.24Z"/><path d="M68.32,45.44a1.32,1.32,0,0,0-.85.89,2.61,2.61,0,0,0-.09.69,2.13,2.13,0,0,0,0,.27,1.05,1.05,0,0,0,.18.37.46.46,0,0,0,.34.22h0s0,.06-.13.09c0,0,.07,0,.07,0s0,0-.06-.1a.59.59,0,0,1-.08-.17.36.36,0,0,1,.21-.4.49.49,0,0,1,.19-.05.26.26,0,0,1,.2.08.37.37,0,0,1,.21.36.5.5,0,0,1-.17.38.57.57,0,0,1-.4.16.73.73,0,0,1-.48-.15A1.64,1.64,0,0,1,67,46.73a2.22,2.22,0,0,1,.53-1.39h-.78l-.41-.4h2.21l.39.39A2,2,0,0,0,68.32,45.44Z"/><path d="M69.5,46.35a.69.69,0,0,1,.13.26.62.62,0,0,1,0,.13.39.39,0,0,1-.12.3.45.45,0,0,1-.33.12.54.54,0,0,1-.61-.61.65.65,0,0,1,.23-.51.75.75,0,0,1,.53-.2,1.12,1.12,0,0,1,1,.69l0,.07V45.34H68.39l-.41-.4h3.16l.42.4h-.82v3.15l-.23-.3a1.76,1.76,0,0,0-.09-.65,4.3,4.3,0,0,0-.2-.57,1.23,1.23,0,0,0-.37-.47A.62.62,0,0,0,69.5,46.35Z"/><path d="M46.93,12.48a.52.52,0,0,1,0,.38c-.06.28-.21.42-.46.42a.61.61,0,0,1-.37-.15.85.85,0,0,1-.26-.31,1,1,0,0,1-.31.45.3.3,0,0,1-.15.05.49.49,0,0,1-.28-.14C45,13.09,45,13,45,12.94v0l.06-.12s0,0,.08,0,.15.15.17.15.12-.05.19-.15a.51.51,0,0,0,.09-.24,0,0,0,0,0,0,0h-.82l-.32-.33h2.81l.34.33h-.64Zm-.27.07c0-.05,0-.07-.06-.07h-.54a.38.38,0,0,0,0,.13.37.37,0,0,0,.38.23.21.21,0,0,0,.18-.08.1.1,0,0,0,0-.07A.43.43,0,0,0,46.66,12.55Z"/><path d="M46.4,14.51l0,0a3.72,3.72,0,0,1,.73.56l.23.23.06.36a4,4,0,0,0-1.7-1l-.25-.08-.31-.73a1.32,1.32,0,0,0,.78.27.74.74,0,0,0,.4-.09.5.5,0,0,0,.26-.33.24.24,0,0,0-.06-.21.14.14,0,0,0-.09,0,.18.18,0,0,0-.11,0,.52.52,0,0,1-.27.41.42.42,0,0,1-.23.07.37.37,0,0,1-.25-.09.25.25,0,0,1-.1-.23.69.69,0,0,1,.15-.3,1.16,1.16,0,0,1,.45-.21h.2a.7.7,0,0,1,.5.18.67.67,0,0,1,.18.49C47,14.07,46.8,14.31,46.4,14.51Z"/><path d="M47.6,12.4q0-.33,0-.72l.18.15.06.25.06.07h.34l.33.33h-.65V15l-.32-.35V12.9a.34.34,0,0,0-.06-.22.4.4,0,0,0-.33-.2H47.1l-.33-.32a2.69,2.69,0,0,1,.48,0A.47.47,0,0,1,47.6,12.4Z"/><path d="M50.2,11.69a1.24,1.24,0,0,0-.79-.27,1,1,0,0,0-.53.2,1,1,0,0,0-.16.18.55.55,0,0,0-.1.18l.08.17h.42l.33.33H48.8v2.43l-.33-.32V12.48h-.32l-.32-.33h.6L48.31,12a.25.25,0,0,1-.05-.15.48.48,0,0,1,.05-.22,1.14,1.14,0,0,1,.18-.25,1,1,0,0,1,.7-.33,1.88,1.88,0,0,1,1,.33,2.37,2.37,0,0,1,.43.37l.11.31Z"/><path d="M51,12.83l0-.24,0-.83.22.15,0,0a.27.27,0,0,0,.05.16l.06,0h.32l.32.32h-.66v2.41a2.16,2.16,0,0,1-.34-.31l0-1.22a.86.86,0,0,0-.22-.4l-.78.8-.43-.16.25-.27a.13.13,0,0,0,0-.1c0-.13,0-.19-.11-.18a1.67,1.67,0,0,0-.28.08.15.15,0,0,1-.17-.06.21.21,0,0,1-.08-.17.28.28,0,0,1,0-.15,1,1,0,0,1,.9-.56.83.83,0,0,1,.54.19A1.24,1.24,0,0,1,51,12.83Zm-1,.26.44-.43a.46.46,0,0,0-.29-.12.49.49,0,0,0-.44.21C49.92,12.77,50,12.88,50.05,13.09Z"/><path d="M51.55,12.48l-.33-.33h3l.35.33Zm2.09,1.84a1.13,1.13,0,0,1-.53.15,1,1,0,0,1-.33-.05.79.79,0,0,1-.29-.18,1.69,1.69,0,0,1-.23-.26,2.15,2.15,0,0,1-.27-.46,8.84,8.84,0,0,1-.37-1l.25.1c.1.26.17.42.21.5a2.92,2.92,0,0,0,.26.47.94.94,0,0,0,.78.44.72.72,0,0,0,.45-.19.45.45,0,0,0,.17-.34.54.54,0,0,0-.1-.3.29.29,0,0,0-.25-.16h-.08a.44.44,0,0,1,.06.23c0,.25-.14.38-.41.38a.41.41,0,0,1-.43-.36.62.62,0,0,1,0-.13.48.48,0,0,1,.18-.39.63.63,0,0,1,.41-.15l.22,0a.93.93,0,0,1,.66.69,1.1,1.1,0,0,1,0,.31A.77.77,0,0,1,53.64,14.32Z"/><path d="M56.74,13.25a.51.51,0,0,1-.39.18.57.57,0,0,1-.42-.17.54.54,0,0,1-.18-.41.53.53,0,0,1,.19-.4.61.61,0,0,1,.42-.18.5.5,0,0,1,.39.17.58.58,0,0,1,.16.4A.62.62,0,0,1,56.74,13.25Zm0,1.3a.52.52,0,0,1-.43.24.57.57,0,0,1-.41-.17.58.58,0,0,1-.18-.42.6.6,0,0,1,.19-.41.58.58,0,0,1,.42-.19.48.48,0,0,1,.38.18.61.61,0,0,1,.15.41A.62.62,0,0,1,56.77,14.55Zm-.32-1.94a.3.3,0,0,0-.23.11.36.36,0,0,0-.1.25c0,.1,0,.15.1.15a.45.45,0,0,0,.2-.09c.09-.06.14-.11.14-.15a.37.37,0,0,0,0-.11C56.57,12.66,56.53,12.61,56.45,12.61Zm-.06,1.33a.21.21,0,0,0-.2.1.41.41,0,0,0-.07.25q0,.21.12.21a.29.29,0,0,0,.22-.11.3.3,0,0,0,.1-.23C56.56,14,56.5,13.94,56.39,13.94Z"/><path d="M59.44,14.73a.83.83,0,0,1-.44.14.56.56,0,0,1-.32-.11.35.35,0,0,1-.17-.28.45.45,0,0,1,.13-.29.59.59,0,0,1,.27-.17.35.35,0,0,1,.16,0,.65.65,0,0,1,.46.15.42.42,0,0,0,.11-.26.49.49,0,0,0-.14-.28,9.6,9.6,0,0,0-.72-.74.6.6,0,0,1-.25-.42.35.35,0,0,1,.19-.31.43.43,0,0,1,.14,0,.26.26,0,0,1,.22.1.37.37,0,0,1,.07.23.58.58,0,0,1,0,.14,4,4,0,0,1,.28.29,4.1,4.1,0,0,1,.39.48,1.16,1.16,0,0,1,.18.6A.91.91,0,0,1,59.44,14.73Z"/><path d="M60.82,12.53s.12.08.33.14a5.32,5.32,0,0,1,.56.18,1.15,1.15,0,0,1,.46.35,1.08,1.08,0,0,1,.24.61.83.83,0,0,1-.38.65,1,1,0,0,1-.68.27,2,2,0,0,1,0-.24,2,2,0,0,0,0-.37.22.22,0,0,0,0-.08.62.62,0,0,0-.24-.34l-.16,0c-.05,0-.1,0-.15.14a.56.56,0,0,0-.08.25.14.14,0,0,0,.05.11h0q.24,0,.24.27c0,.2-.08.3-.25.3a.42.42,0,0,1-.42-.36.69.69,0,0,1,0-.2.86.86,0,0,1,.19-.55.62.62,0,0,1,.5-.27.63.63,0,0,1,.48.23.78.78,0,0,1,.2.51v.07l.12-.08a.34.34,0,0,0,.11-.25.45.45,0,0,0-.27-.4l-.66-.26c-.55-.22-.81-.49-.76-.82s.14-.28.28-.28a.24.24,0,0,1,.26.21A.24.24,0,0,1,60.82,12.53Z"/><path d="M63.85,14.79a.92.92,0,0,1-.65-.29,1.9,1.9,0,0,1-.42-.6,6,6,0,0,1-.25-.73,4.38,4.38,0,0,1-.07-.48l.24.1a2.35,2.35,0,0,0,.17.62,2.79,2.79,0,0,0,.34.56.73.73,0,0,0,.63.31.7.7,0,0,0,.38-.11.51.51,0,0,0,.2-.31.57.57,0,0,0,0-.41.69.69,0,0,1-.45.31h-.16a.53.53,0,0,1-.35-.13.54.54,0,0,1-.18-.33l-.09-.59a.22.22,0,0,1-.15-.1.23.23,0,0,1-.07-.17.24.24,0,0,1,.1-.21.32.32,0,0,1,.22-.06c.22,0,.33.15.33.41v.74c0,.07,0,.1.1.09a.27.27,0,0,0,.16-.08,1.25,1.25,0,0,0,.37-.56,1.14,1.14,0,0,1,.51,1,1.21,1.21,0,0,1-.22.73A.8.8,0,0,1,63.85,14.79Z"/><path d="M65.33,12.53s.12.08.33.14a5.32,5.32,0,0,1,.56.18,1.15,1.15,0,0,1,.46.35,1.07,1.07,0,0,1,.23.61.79.79,0,0,1-.37.65,1,1,0,0,1-.69.27,2,2,0,0,0,.05-.24,1.51,1.51,0,0,0,0-.37.22.22,0,0,0,0-.08.62.62,0,0,0-.24-.34l-.16,0c-.05,0-.1,0-.15.14a.56.56,0,0,0-.08.25.18.18,0,0,0,0,.11h.05c.17,0,.25.09.25.27s-.08.3-.25.3a.44.44,0,0,1-.43-.36,1.36,1.36,0,0,1,0-.2.86.86,0,0,1,.19-.55.61.61,0,0,1,.5-.27.65.65,0,0,1,.48.23.78.78,0,0,1,.2.51v.07l.12-.08a.34.34,0,0,0,.11-.25.45.45,0,0,0-.27-.4l-.67-.26c-.54-.22-.8-.49-.76-.82s.15-.28.29-.28a.24.24,0,0,1,.26.21A.24.24,0,0,1,65.33,12.53Z"/><path d="M53.73,59h-.82v-1a.41.41,0,0,1,.41-.41h0a.42.42,0,0,1,.41.41Z"/><path d="M53.5,60.25H51.94c-.15,0-.28-.18-.28-.41h0c0-.23.13-.41.28-.41H53.5Z"/><path d="M53.66,62H52.24a.41.41,0,0,1-.41-.41h0a.41.41,0,0,1,.41-.41h1.42Z"/><path d="M53.68,63.82H52.13c-.15,0-.27-.18-.27-.41h0c0-.22.12-.41.27-.41h1.55Z"/><path d="M53.36,64.84h-.71a.41.41,0,0,1-.41-.41h0a.41.41,0,0,1,.41-.41h.71Z"/><path d="M53.45,65.74H52.22c-.16,0-.28-.18-.28-.41h0c0-.23.12-.41.28-.41h1.23Z"/><path d="M53.43,67.12H52.32a.42.42,0,0,1-.41-.41h0a.41.41,0,0,1,.41-.41h1.11Z"/><path d="M53.47,68.49H51.79c-.15,0-.28-.18-.28-.41h0c0-.23.13-.41.28-.41h1.68Z"/><path d="M53.67,70.74H52.19c-.15,0-.28-.19-.28-.41h0c0-.23.13-.41.28-.41h1.48Z"/><path d="M53.72,72.65H52.41c-.15,0-.28-.18-.28-.41h0c0-.22.13-.41.28-.41h1.31Z"/><rect x="52.6" y="72.96" width="0.83" height="0.82" rx="0.41"/><path d="M53.61,71.75H53a.41.41,0,0,1-.41-.41h0a.41.41,0,0,1,.41-.41h.64Z"/><path d="M53.18,69.79H53a.41.41,0,0,1-.41-.41h0A.42.42,0,0,1,53,69h.21Z"/><path d="M53.37,67.83h-.21a.41.41,0,0,1-.41-.41h0a.41.41,0,0,1,.41-.41h.21Z"/><path d="M53.42,69.09h-.2a.41.41,0,0,1-.41-.41h0a.41.41,0,0,1,.41-.41h.2Z"/><path d="M53.25,66.46h-.2a.41.41,0,0,1-.41-.41h0a.41.41,0,0,1,.41-.41h.2Z"/><path d="M53.35,62.56h-.21a.42.42,0,0,1-.41-.41h0a.42.42,0,0,1,.41-.42h.21Z"/><path d="M53.5,64.37h-.2a.41.41,0,0,1-.41-.42h0a.41.41,0,0,1,.41-.41h.2Z"/><path d="M53.34,61h-.21a.41.41,0,0,1-.41-.41h0a.41.41,0,0,1,.41-.41h.21Z"/><path d="M53.36,61.7h-.2a.41.41,0,0,1-.41-.41h0a.41.41,0,0,1,.41-.41h.2Z"/><path d="M53.42,63.16h-.2a.41.41,0,0,1-.41-.41h0a.41.41,0,0,1,.41-.41h.2Z"/><path class="cls-6" d="M54.78,58.39s.49-.29-.25-1.93,3.44-4.53,1.35-7.24c0,0,6.74,4.06,2.58,7.44A4.67,4.67,0,0,0,57.84,59l-2.94.1Z"/><path d="M59.09,75.4H52.91V58.51h6.18Zm-5.36-.82h4.54V59.33H53.73Z"/><path d="M55.78,35.71l-.22-.1a14.33,14.33,0,0,0-5.14-1.18,14.35,14.35,0,0,0-5.15,1.18l-.22.1V17.17l.08,0A12.26,12.26,0,0,1,50,15.92a17.43,17.43,0,0,1,5.66,1.2l.09,0ZM45.36,17.36V35.24a14.26,14.26,0,0,1,5.06-1.12,14.25,14.25,0,0,1,5,1.12V17.37A16.72,16.72,0,0,0,50,16.22,12,12,0,0,0,45.36,17.36Z"/><path d="M55.67,35.71V17.17l.08,0a12.26,12.26,0,0,1,4.9-1.21,17.41,17.41,0,0,1,5.65,1.2l.1,0V35.71l-.22-.1A14.49,14.49,0,0,0,61,34.43a14.49,14.49,0,0,0-5.15,1.18ZM61,34.12a14.32,14.32,0,0,1,5.06,1.12V17.37a16.79,16.79,0,0,0-5.44-1.15A12,12,0,0,0,56,17.36V35.24A14.38,14.38,0,0,1,61,34.12Z"/><path d="M55.3,41.89a3.42,3.42,0,0,1-2-.76H39.57V19.54h2.85l2.68-2.39.21.23-2.77,2.46H39.88v21H53.39l0,0a2.57,2.57,0,0,0,3.55,0l0,0H71.42V20.28H69.2l-3.06-2.9.21-.23,3,2.82h2.41V41.13H57.16A2.75,2.75,0,0,1,55.3,41.89Z"/><rect x="42.71" y="19.5" width="0.31" height="18.33"/><rect x="42.03" y="19.74" width="0.31" height="18.72"/><rect x="41.16" y="19.64" width="0.31" height="19.76"/><rect x="40.42" y="19.79" width="0.31" height="20.3"/><rect x="68.36" y="19.5" width="0.31" height="18.29"/><rect x="69.03" y="20.15" width="0.31" height="18.33"/><rect x="69.9" y="20.05" width="0.31" height="19.16"/><rect x="70.65" y="20.2" width="0.31" height="19.87"/><rect x="68.78" y="34.27" width="0.31" height="7.68" transform="translate(-6.76 59.91) rotate(-45)"/><rect x="38.55" y="38.05" width="7.86" height="0.31" transform="translate(-14.54 41.75) rotate(-45.53)"/><path d="M67.34,36.72c-4.32-2-11.42-.66-11.49-.64l-.06-.3c.07,0,7.27-1.44,11.68.66Z"/><path d="M44.11,36.72,44,36.44c4.41-2.1,11.61-.68,11.68-.66l.12,0L56,36c-.06.07-.21.25-.38.19a.19.19,0,0,1-.13-.13C54.62,35.9,48.15,34.8,44.11,36.72Z"/><path d="M68.41,37.8c-2.87-1.67-11.23-.82-12.19-.72a.48.48,0,0,1-.33.29c-.26.05-.52-.18-.63-.28-.77-.09-9.31-1-12.22.71l-.16-.27C46,35.72,55,36.74,55.36,36.79h0l0,0c.09.1.28.25.38.23s.11-.11.13-.18l0-.09h.09c.38,0,9.35-1.07,12.48.74Z"/><path d="M55.75,38.79a.93.93,0,0,1-.64-.33c-.82-.1-10.1-1.21-13,.28L42,38.47c3-1.6,12.78-.36,13.19-.31h.07l0,0a.76.76,0,0,0,.45.27.52.52,0,0,0,.37-.26l0-.06h.06c.42,0,10.15-1.29,13.2.31l-.14.27c-2.84-1.48-12.08-.39-13-.28a.72.72,0,0,1-.57.33Z"/><path d="M55.69,39.88h-.07a.94.94,0,0,1-.58-.33c-.9-.09-10.9-1.08-13.93.25L41,39.52c3.24-1.42,13.7-.32,14.15-.27h.07l0,.06a.62.62,0,0,0,.4.25.74.74,0,0,0,.57-.28l0,0h.05c.44,0,10.91-1.15,14.15.27l-.13.28c-3-1.33-13.11-.33-13.93-.25A1.05,1.05,0,0,1,55.69,39.88Z"/><path d="M65.24,18.27a20.15,20.15,0,0,0-8.66,0l0-.1a20.44,20.44,0,0,1,8.72,0Z"/><path d="M65.24,19.33a20.15,20.15,0,0,0-8.66,0l0-.1a20.44,20.44,0,0,1,8.72,0Z"/><path d="M65.24,20.39a20.15,20.15,0,0,0-8.66,0l0-.1a20.44,20.44,0,0,1,8.72,0Z"/><path d="M65.24,21.45a20.33,20.33,0,0,0-8.66,0l0-.1a20.44,20.44,0,0,1,8.72,0Z"/><path d="M65.24,22.51a20.33,20.33,0,0,0-8.66,0l0-.09a20.16,20.16,0,0,1,8.72,0Z"/><path d="M65.24,23.58a20,20,0,0,0-8.66,0l0-.1a20.25,20.25,0,0,1,8.72,0Z"/><path d="M65.24,24.64a20.15,20.15,0,0,0-8.66,0l0-.1a20.44,20.44,0,0,1,8.72,0Z"/><path d="M65.24,25.7a20.15,20.15,0,0,0-8.66,0l0-.1a20.44,20.44,0,0,1,8.72,0Z"/><path d="M65.24,26.76a20.15,20.15,0,0,0-8.66,0l0-.1a20.44,20.44,0,0,1,8.72,0Z"/><path d="M65.24,27.82a20.33,20.33,0,0,0-8.66,0l0-.1a20.44,20.44,0,0,1,8.72,0Z"/><path d="M65.24,28.88a20.33,20.33,0,0,0-8.66,0l0-.09a20.16,20.16,0,0,1,8.72,0Z"/><path d="M65.24,30a20.15,20.15,0,0,0-8.66,0l0-.1a20.25,20.25,0,0,1,8.72,0Z"/><path d="M65.24,31a20.15,20.15,0,0,0-8.66,0l0-.1a20.44,20.44,0,0,1,8.72,0Z"/><path d="M65.24,32.07a20.15,20.15,0,0,0-8.66,0l0-.1a20.44,20.44,0,0,1,8.72,0Z"/><path d="M65.24,33.13a20.15,20.15,0,0,0-8.66,0l0-.1a20.44,20.44,0,0,1,8.72,0Z"/><path d="M54.72,18.27a20.15,20.15,0,0,0-8.66,0l0-.1a20.42,20.42,0,0,1,8.72,0Z"/><path d="M54.72,19.33a20.15,20.15,0,0,0-8.66,0l0-.1a20.42,20.42,0,0,1,8.72,0Z"/><path d="M54.72,20.39a20.15,20.15,0,0,0-8.66,0l0-.1a20.42,20.42,0,0,1,8.72,0Z"/><path d="M54.72,21.45a20.33,20.33,0,0,0-8.66,0l0-.1a20.42,20.42,0,0,1,8.72,0Z"/><path d="M54.72,22.51a20.33,20.33,0,0,0-8.66,0l0-.09a20.14,20.14,0,0,1,8.72,0Z"/><path d="M54.72,23.58a20,20,0,0,0-8.66,0l0-.1a20.24,20.24,0,0,1,8.72,0Z"/><path d="M54.72,24.64a20.15,20.15,0,0,0-8.66,0l0-.1a20.42,20.42,0,0,1,8.72,0Z"/><path d="M54.72,25.7a20.15,20.15,0,0,0-8.66,0l0-.1a20.42,20.42,0,0,1,8.72,0Z"/><path d="M54.72,26.76a20.15,20.15,0,0,0-8.66,0l0-.1a20.42,20.42,0,0,1,8.72,0Z"/><path d="M54.72,27.82a20.33,20.33,0,0,0-8.66,0l0-.1a20.42,20.42,0,0,1,8.72,0Z"/><path d="M54.72,28.88a20.33,20.33,0,0,0-8.66,0l0-.09a20.14,20.14,0,0,1,8.72,0Z"/><path d="M54.72,30a20.15,20.15,0,0,0-8.66,0l0-.1a20.24,20.24,0,0,1,8.72,0Z"/><path d="M54.72,31a20.15,20.15,0,0,0-8.66,0l0-.1a20.42,20.42,0,0,1,8.72,0Z"/><path d="M54.72,32.07a20.15,20.15,0,0,0-8.66,0l0-.1a20.42,20.42,0,0,1,8.72,0Z"/><path d="M54.72,33.13a20.15,20.15,0,0,0-8.66,0l0-.1a20.42,20.42,0,0,1,8.72,0Z"/></g></g></svg>