<svg xmlns="http://www.w3.org/2000/svg" xmlns:xlink="http://www.w3.org/1999/xlink" viewBox="0 0 105.25 158.69"><defs><style>.cls-1{fill:#231f20;}.cls-2{fill:#ea2d2e;}.cls-3{fill:#fff;}.cls-4{fill:#fd0;}.cls-5{fill:url(#linear-gradient);}.cls-6{fill:url(#linear-gradient-2);}.cls-7{fill:url(#linear-gradient-3);}.cls-8{fill:url(#linear-gradient-4);}.cls-9{fill:url(#linear-gradient-5);}.cls-10{fill:url(#linear-gradient-6);}.cls-11{fill:url(#linear-gradient-7);}.cls-12{fill:url(#linear-gradient-8);}.cls-13{fill:url(#linear-gradient-9);}.cls-14{fill:url(#linear-gradient-10);}.cls-15{fill:url(#linear-gradient-11);}.cls-16{fill:url(#linear-gradient-12);}.cls-17{fill:url(#linear-gradient-13);}.cls-18{fill:url(#linear-gradient-14);}.cls-19{fill:url(#linear-gradient-15);}.cls-20{fill:url(#linear-gradient-16);}.cls-21{fill:url(#linear-gradient-17);}.cls-22{fill:url(#linear-gradient-18);}.cls-23{fill:url(#linear-gradient-19);}.cls-24{stroke:#000;stroke-miterlimit:10;stroke-width:0.3px;}</style><linearGradient id="linear-gradient" x1="98.79" y1="74.99" x2="112.65" y2="74.99" gradientTransform="translate(-67.67 -34.34) rotate(1.83)" gradientUnits="userSpaceOnUse"><stop offset="0.05" stop-color="#ec1c24"/><stop offset="0.09" stop-color="#ed2323"/><stop offset="0.16" stop-color="#ef371f"/><stop offset="0.23" stop-color="#f35919"/><stop offset="0.32" stop-color="#f88611"/><stop offset="0.42" stop-color="#fec107"/><stop offset="0.43" stop-color="#ffca05"/></linearGradient><linearGradient id="linear-gradient-2" x1="100.12" y1="71.53" x2="113.42" y2="71.53" xlink:href="#linear-gradient"/><linearGradient id="linear-gradient-3" x1="98.78" y1="74.46" x2="112.65" y2="74.46" xlink:href="#linear-gradient"/><linearGradient id="linear-gradient-4" x1="100.11" y1="74.46" x2="113.43" y2="74.46" xlink:href="#linear-gradient"/><linearGradient id="linear-gradient-5" x1="102.3" y1="68.3" x2="114.55" y2="68.3" xlink:href="#linear-gradient"/><linearGradient id="linear-gradient-6" x1="100.2" y1="72.2" x2="113.41" y2="72.2" xlink:href="#linear-gradient"/><linearGradient id="linear-gradient-7" x1="102.37" y1="72.2" x2="114.52" y2="72.2" xlink:href="#linear-gradient"/><linearGradient id="linear-gradient-8" x1="105.25" y1="65.43" x2="115.97" y2="65.43" xlink:href="#linear-gradient"/><linearGradient id="linear-gradient-9" x1="108.11" y1="62.44" x2="118.36" y2="64.07" xlink:href="#linear-gradient"/><linearGradient id="linear-gradient-10" x1="112.99" y1="61.13" x2="119.52" y2="61.13" xlink:href="#linear-gradient"/><linearGradient id="linear-gradient-11" x1="116.58" y1="59.64" x2="122.57" y2="60.59" xlink:href="#linear-gradient"/><linearGradient id="linear-gradient-12" x1="119.41" y1="58" x2="126.54" y2="62.28" xlink:href="#linear-gradient"/><linearGradient id="linear-gradient-13" x1="126.21" y1="53.66" x2="124.27" y2="67.46" xlink:href="#linear-gradient"/><linearGradient id="linear-gradient-14" x1="131.43" y1="60.61" x2="124.93" y2="60.61" xlink:href="#linear-gradient"/><linearGradient id="linear-gradient-15" x1="135.65" y1="62.3" x2="126.93" y2="62.3" xlink:href="#linear-gradient"/><linearGradient id="linear-gradient-16" x1="139.38" y1="64.57" x2="128.76" y2="64.57" xlink:href="#linear-gradient"/><linearGradient id="linear-gradient-17" x1="142.47" y1="67.34" x2="130.36" y2="67.34" xlink:href="#linear-gradient"/><linearGradient id="linear-gradient-18" x1="144.82" y1="70.5" x2="131.68" y2="70.5" xlink:href="#linear-gradient"/><linearGradient id="linear-gradient-19" x1="146.33" y1="73.94" x2="132.65" y2="73.94" xlink:href="#linear-gradient"/></defs><title>dmrc</title><g id="Layer_2" data-name="Layer 2"><g id="Layer_1-2" data-name="Layer 1"><path class="cls-1" d="M52.92,85.79A81.87,81.87,0,0,1,27,81.49a70.33,70.33,0,0,1-8.25-3.37,111.13,111.13,0,0,0,4.37-47.95A107.7,107.7,0,0,0,18.9,10.51a72,72,0,0,1,8.27-3.43A81.23,81.23,0,0,1,53.28,2.66a76.77,76.77,0,0,1,32.81,7.4A111.87,111.87,0,0,0,82,29.94C80.6,41.68,80.3,59.4,86.48,78.13a77.67,77.67,0,0,1-33.55,7.66Z"/><path class="cls-2" d="M15.51,79.39c13.09-36.85.13-70.16.13-70.16S49.75-11.11,89.2,8.6l.15.14s-12.72,33.8.38,70.65l-.38.24-.15.14c-39.45,19.72-73.63-.31-73.63-.31Zm37.42,6.4a77.67,77.67,0,0,0,33.55-7.66C80.3,59.4,80.6,41.68,82,29.94a111.87,111.87,0,0,1,4.11-19.88,76.77,76.77,0,0,0-32.81-7.4A81.23,81.23,0,0,0,27.17,7.08a72,72,0,0,0-8.27,3.43,107.7,107.7,0,0,1,4.23,19.66,111.13,111.13,0,0,1-4.37,48A70.33,70.33,0,0,0,27,81.49a81.87,81.87,0,0,0,25.91,4.3Z"/><path class="cls-3" d="M28.52,13.62c1.63-.67,3.27-1.28,4.94-1.81a7.08,7.08,0,0,1,2.48-.4,3.81,3.81,0,0,1,1.73.5,3.28,3.28,0,0,1,1.18,1.16,5.28,5.28,0,0,1,.65,1.6,5.27,5.27,0,0,1,.13,2.21A3.91,3.91,0,0,1,39,18.39a3.61,3.61,0,0,1-1.15,1,9.47,9.47,0,0,1-1.66.76q-2.16.69-4.26,1.56Zm4,.61,1.59,4.53.73-.25a4.1,4.1,0,0,0,1.28-.61,1.35,1.35,0,0,0,.44-.82,3.6,3.6,0,0,0-.2-1.53,2.53,2.53,0,0,0-1.07-1.68,2.69,2.69,0,0,0-2,.09Z"/><path class="cls-3" d="M40.28,10q2.25-.46,4.53-.75c.81,1.69,1.58,3.4,2.29,5.12.36-1.83.76-3.65,1.22-5.47,1.52-.11,3-.16,4.58-.16,0,2.93,0,5.86,0,8.79-.82,0-1.64,0-2.46.05-.1-2.23-.19-4.46-.29-6.69-.61,2.26-1.15,4.53-1.6,6.81-.74.05-1.48.13-2.22.22q-1.34-3.23-2.9-6.37l1,6.62c-.81.13-1.62.27-2.43.44Q41.14,14.35,40.28,10Z"/><path class="cls-3" d="M54.85,17.6q.15-4.38.32-8.78c1.93.07,3.87.23,5.79.48a9,9,0,0,1,2.41.58,2.52,2.52,0,0,1,1.21,1,2.05,2.05,0,0,1,.23,1.49,2.15,2.15,0,0,1-.62,1.16,2.93,2.93,0,0,1-1.17.66,4.94,4.94,0,0,1-1.18.16,3.2,3.2,0,0,1,.77.46,2.67,2.67,0,0,1,.43.54,3.45,3.45,0,0,1,.34.61q.51,1.4,1,2.79c-1.11-.23-2.23-.44-3.35-.61-.4-1-.82-1.92-1.27-2.88a2.07,2.07,0,0,0-.5-.74,1.45,1.45,0,0,0-.75-.28l-.29,0c-.1,1.19-.21,2.37-.32,3.55C56.86,17.7,55.85,17.64,54.85,17.6Zm3.49-5,1.38.14a5.2,5.2,0,0,0,.88,0,.94.94,0,0,0,.57-.2.75.75,0,0,0,.28-.47.74.74,0,0,0-.24-.7A2.35,2.35,0,0,0,60,11l-1.48-.16Z"/><path class="cls-3" d="M72.53,17.39c.81.54,1.61,1.11,2.38,1.69a4.43,4.43,0,0,1-1.44,1.22,3.9,3.9,0,0,1-1.72.42,6.58,6.58,0,0,1-2.18-.38,8.2,8.2,0,0,1-2.39-1.14,4.42,4.42,0,0,1-1.37-1.86,4.54,4.54,0,0,1-.15-2.79,3.89,3.89,0,0,1,2.16-2.93,6.08,6.08,0,0,1,4.38,0,6.39,6.39,0,0,1,3,1.75A3.83,3.83,0,0,1,76.09,16c-1-.22-2-.41-3-.58a1.81,1.81,0,0,0-.12-.66,1.85,1.85,0,0,0-.5-.68,2.29,2.29,0,0,0-.83-.45,2.1,2.1,0,0,0-1.91.19,2.65,2.65,0,0,0-.91,1.54,3,3,0,0,0,0,2.07,2,2,0,0,0,1.23.94,2,2,0,0,0,1.44,0A2.69,2.69,0,0,0,72.53,17.39Z"/><path class="cls-4" d="M31.51,69a42.37,42.37,0,0,0,4.13,2c-.17.4-.34.79-.5,1.19-.9-.38-1.8-.79-2.68-1.23-.14.28-.29.57-.43.86.84.41,1.68.81,2.53,1.17l-.48,1.13c-.88-.37-1.74-.77-2.6-1.2L31,74c1,.49,2,.94,3,1.36-.18.42-.36.84-.53,1.27a52.47,52.47,0,0,1-4.78-2.31Z"/><path class="cls-4" d="M34.78,75c.56.18,1.12.36,1.68.52a1.37,1.37,0,0,0,0,.7,1,1,0,0,0,.66.62.89.89,0,0,0,.64,0,.58.58,0,0,0,.34-.35.57.57,0,0,0-.06-.47,2.63,2.63,0,0,0-.78-.62,3.56,3.56,0,0,1-1.35-1.28,1.48,1.48,0,0,1,0-1.27,1.72,1.72,0,0,1,.56-.72,1.81,1.81,0,0,1,.93-.35,3.52,3.52,0,0,1,1.35.23,2.67,2.67,0,0,1,1.39.9,2,2,0,0,1,.26,1.5c-.54-.12-1.07-.24-1.61-.38a1,1,0,0,0-.08-.65.83.83,0,0,0-.48-.36.73.73,0,0,0-.48,0,.46.46,0,0,0-.26.27.34.34,0,0,0,0,.29A1.41,1.41,0,0,0,38,74a8.05,8.05,0,0,1,1.43,1,1.84,1.84,0,0,1,.52.85,1.7,1.7,0,0,1,0,.92,1.87,1.87,0,0,1-.59.94,2,2,0,0,1-1.09.46,3.41,3.41,0,0,1-1.5-.22,3,3,0,0,1-1.86-1.3A2.28,2.28,0,0,1,34.78,75Z"/><path class="cls-4" d="M41.43,73a43.32,43.32,0,0,0,5,1l-.21,1.48c-.58-.09-1.16-.18-1.74-.29-.28,1.49-.56,3-.83,4.47-.63-.12-1.25-.24-1.87-.38.33-1.48.67-3,1-4.44-.58-.13-1.15-.27-1.72-.42C41.18,74,41.31,73.49,41.43,73Z"/><path class="cls-4" d="M47.2,74.14c.82.1,1.64.18,2.47.24a3,3,0,0,1,1.17.29,2,2,0,0,1,.73.67,3,3,0,0,1,.42,1,4.47,4.47,0,0,1,.12,1.17,4.18,4.18,0,0,1-.24,1.5,2.45,2.45,0,0,1-.63.88,1.9,1.9,0,0,1-.87.44,4.22,4.22,0,0,1-1.13.1c-.94-.07-1.88-.16-2.81-.28Q46.81,77.13,47.2,74.14Zm1.54,1.54L48.44,79l.45,0a1.74,1.74,0,0,0,.83-.08.84.84,0,0,0,.41-.42,3.15,3.15,0,0,0,.19-1,2.19,2.19,0,0,0-.22-1.33,1.18,1.18,0,0,0-.94-.42Z"/><path class="cls-4" d="M60.61,79.93c-1.69.26-3.39.44-5.09.53A3.26,3.26,0,0,1,56,79a8.14,8.14,0,0,1,1.47-1.68,3.77,3.77,0,0,0,.8-.92.94.94,0,0,0,.13-.56.63.63,0,0,0-.24-.44.62.62,0,0,0-.49-.15.68.68,0,0,0-.46.25,1.32,1.32,0,0,0-.19.74l-1.57,0a2.94,2.94,0,0,1,.26-1.13,1.71,1.71,0,0,1,.63-.65,2.78,2.78,0,0,1,1.17-.32,3.09,3.09,0,0,1,1.25,0,1.57,1.57,0,0,1,.78.51,1.86,1.86,0,0,1,.4.89,2,2,0,0,1-.15,1.09,4,4,0,0,1-1,1.25l-.6.56c-.1.11-.22.24-.35.41.86-.09,1.72-.2,2.57-.33Z"/><path class="cls-4" d="M60.82,76.81A4,4,0,0,1,61,74.33a2.12,2.12,0,0,1,1.53-1,2.27,2.27,0,0,1,.91-.06,1.91,1.91,0,0,1,.66.23,2.31,2.31,0,0,1,.47.4,3.39,3.39,0,0,1,.37.54,6.39,6.39,0,0,1,.53,1.32,4.08,4.08,0,0,1,.1,2.47,2.19,2.19,0,0,1-1.71,1.2,2.69,2.69,0,0,1-1.29,0,1.86,1.86,0,0,1-.89-.55,2.74,2.74,0,0,1-.5-.84A6.77,6.77,0,0,1,60.82,76.81Zm1.57-.3A3.84,3.84,0,0,0,62.91,78a.63.63,0,0,0,.66.28A.55.55,0,0,0,64,78a1.06,1.06,0,0,0,.14-.61,5.62,5.62,0,0,0-.2-1.2,4.78,4.78,0,0,0-.56-1.53.6.6,0,0,0-.65-.27.57.57,0,0,0-.45.53A4.7,4.7,0,0,0,62.39,76.51Z"/><path class="cls-4" d="M68.47,71.52l2.18,5.75L69,77.86l-1.29-3.81a4.86,4.86,0,0,1-.56.72,6.4,6.4,0,0,1-.78.63c-.13-.44-.26-.88-.4-1.32a3.3,3.3,0,0,0,1-1A2.49,2.49,0,0,0,67.29,72Z"/><path class="cls-4" d="M71.21,73.76a4,4,0,0,1-.41-2.45A2.26,2.26,0,0,1,72.09,70a2.44,2.44,0,0,1,.89-.28,1.75,1.75,0,0,1,.7.08,2.08,2.08,0,0,1,.56.27,2.82,2.82,0,0,1,.49.44,6.05,6.05,0,0,1,.82,1.16A4,4,0,0,1,76.21,74a2.29,2.29,0,0,1-1.43,1.59,2.79,2.79,0,0,1-1.27.32,1.87,1.87,0,0,1-1-.33,2.51,2.51,0,0,1-.67-.7A6.3,6.3,0,0,1,71.21,73.76Zm1.49-.66a4.11,4.11,0,0,0,.85,1.35.66.66,0,0,0,.72.12.65.65,0,0,0,.33-.36,1.12,1.12,0,0,0,0-.63,6.21,6.21,0,0,0-.47-1.12,4.4,4.4,0,0,0-.9-1.36.61.61,0,0,0-1,.51A4.57,4.57,0,0,0,72.7,73.1Z"/><path class="cls-5" d="M40.58,43.6,28.74,41.9,40.17,46a12.25,12.25,0,0,1,.44-2.37Z"/><path class="cls-6" d="M41.51,41.38h0l-11.28-4L40.58,43.6h0A11.66,11.66,0,0,1,41.51,41.38Z"/><path class="cls-7" d="M40.62,43.61h0l0,0Z"/><path class="cls-8" d="M40.62,43.61h0l0,0Z"/><path class="cls-9" d="M42.82,39.35,32.53,33.3l9,8.08h0A12.34,12.34,0,0,1,42.82,39.35Z"/><polygon class="cls-10" points="41.51 41.38 41.5 41.38 41.51 41.38 41.51 41.38"/><polygon class="cls-11" points="41.51 41.38 41.5 41.38 41.51 41.38 41.51 41.38"/><path class="cls-12" d="M44.49,37.61l-8.89-7.9,7.22,9.64A13.07,13.07,0,0,1,44.49,37.61Z"/><path class="cls-13" d="M39.3,26.78,44.51,37.6a13.31,13.31,0,0,1,2-1.38Z"/><path class="cls-14" d="M43.5,24.63l3,11.57a12.92,12.92,0,0,1,2.18-1Z"/><path class="cls-15" d="M48,23.32l.71,11.89a12.8,12.8,0,0,1,2.32-.52Z"/><path class="cls-16" d="M53.52,34.63l-.78-11.71L51.15,34.68A12.45,12.45,0,0,1,53.52,34.63Z"/><path class="cls-17" d="M55.94,35l1.5-11.61L53.61,34.64h.15A12,12,0,0,1,55.94,35Z"/><path class="cls-18" d="M61.94,24.85,56,35.07a13,13,0,0,1,2.2.84Z"/><path class="cls-19" d="M66.09,27.1,58.34,36a12.3,12.3,0,0,1,2,1.26Z"/><path class="cls-20" d="M62.12,38.93l7.6-8.81-9.3,7.18A13.1,13.1,0,0,1,62.12,38.93Z"/><path class="cls-21" d="M72.7,33.78,62.2,39A11.59,11.59,0,0,1,63.54,41Z"/><path class="cls-22" d="M74.92,38,63.61,41.06a12.5,12.5,0,0,1,.94,2.15Z"/><path class="cls-23" d="M76.29,42.47l-11.7.87a12.43,12.43,0,0,1,.49,2.29Z"/><path class="cls-2" d="M65.08,45.63a12.43,12.43,0,0,0-.49-2.29c0-.05,0-.09,0-.13a12.5,12.5,0,0,0-.94-2.15L63.54,41A11.59,11.59,0,0,0,62.2,39l-.08-.1a13.1,13.1,0,0,0-1.7-1.63l-.1-.07a12.3,12.3,0,0,0-2-1.26l-.1-.06a13,13,0,0,0-2.2-.84l-.1,0a12,12,0,0,0-2.18-.39h-.24a12.45,12.45,0,0,0-2.37,0h-.08a12.8,12.8,0,0,0-2.32.52l-.06,0a12.92,12.92,0,0,0-2.18,1l0,0a13.31,13.31,0,0,0-2,1.38h0a13.07,13.07,0,0,0-1.67,1.74h0a12.34,12.34,0,0,0-1.31,2h0a11.66,11.66,0,0,0-.89,2.23h0A12.25,12.25,0,0,0,40.17,46v0"/><path class="cls-3" d="M30.54,46.23V65s8.21-2,12.26-3.38c1-.09,4.45-1.44,9.37,3.19l.11-19s-3.78-6-13.24-1.64C37.4,44.69,30.54,46.23,30.54,46.23Z"/><path d="M52.46,65.45,52,65c-2.37-2.23-4.74-3.36-7-3.36a8.3,8.3,0,0,0-1.68.19l-.4.06c-4,1.34-12.17,3.36-12.25,3.38l-.37.09V46l.23,0c.07,0,6.82-1.54,8.45-2.11a15.66,15.66,0,0,1,6.49-1.61,8.4,8.4,0,0,1,7.11,3.36l0,.08v.08Zm-21.62-19V64.58c1.64-.41,8.36-2.11,11.87-3.28h.07l.38-.07A9.84,9.84,0,0,1,45,61a10.63,10.63,0,0,1,6.93,3.07L52,45.84a8,8,0,0,0-6.56-3,15.24,15.24,0,0,0-6.26,1.55h0C37.65,44.91,32.07,46.19,30.84,46.47Z"/><path class="cls-3" d="M73.86,46.23V65s-8.2-2-12.26-3.38c-1-.09-4.44-1.44-9.36,3.19l-.11-19s3.78-6,13.24-1.64C67,44.69,73.86,46.23,73.86,46.23Z"/><path d="M52,65.45l-.11-19.78,0-.08A8.4,8.4,0,0,1,59,42.23a15.66,15.66,0,0,1,6.49,1.61c1.63.57,8.38,2.09,8.45,2.11l.23,0V65.34l-.37-.09c-.08,0-8.22-2-12.25-3.38l-.4-.06a8.3,8.3,0,0,0-1.68-.19c-2.29,0-4.65,1.13-7,3.36ZM59.46,61a9.84,9.84,0,0,1,1.79.19l.38.07h.07c3.51,1.17,10.23,2.87,11.87,3.28V46.47c-1.23-.28-6.81-1.56-8.3-2.08h0A15.24,15.24,0,0,0,59,42.83a8,8,0,0,0-6.56,3l.1,18.26A10.63,10.63,0,0,1,59.46,61Z"/><path class="cls-3" d="M52.33,67a15.85,15.85,0,0,1,7.89-2c1,.08,11.15,1.06,13.15.38,0,0-7.34-1.84-9.22-2.44-.9-.24-4.75-2-8.23.14a37.77,37.77,0,0,0-3.7,2.71,37.77,37.77,0,0,0-3.7-2.71C45,61,41.19,62.72,40.29,63c-1.88.6-9.21,2.44-9.21,2.44,2,.68,12.15-.3,13.14-.38a15.81,15.81,0,0,1,7.89,2l.1,0Z"/><path class="cls-24" d="M11.7,113.14H5.81v3.58a1.44,1.44,0,0,0,.77-.21,3.73,3.73,0,0,0,.61-.52,8,8,0,0,0,.51-.64,3.7,3.7,0,0,1,.51-.58,1.87,1.87,0,0,1,.67.51,3.78,3.78,0,0,1,.53.81,4.79,4.79,0,0,1,.33.92,3.1,3.1,0,0,1,.13.86,4.64,4.64,0,0,1-.21,1.44,3,3,0,0,1-.61,1.11,2.74,2.74,0,0,1-1,.72,3.73,3.73,0,0,1-1.43.25A3.29,3.29,0,0,1,5,121a3.77,3.77,0,0,1-1.18-1A5.55,5.55,0,0,1,3,118.59a12,12,0,0,1-.56-1.66,15,15,0,0,1-.34-1.7c-.08-.56-.15-1.07-.19-1.54l.53.3a9.45,9.45,0,0,0,.18,1.2,10.29,10.29,0,0,0,.35,1.29,8.18,8.18,0,0,0,.55,1.25,4.56,4.56,0,0,0,.76,1,3.53,3.53,0,0,0,1,.73,2.79,2.79,0,0,0,1.24.28,3.14,3.14,0,0,0,1.86-.64,2.63,2.63,0,0,0,.64-.73,2,2,0,0,0,.25-1,1.33,1.33,0,0,0-.15-.63,2.23,2.23,0,0,0-.38-.53,1,1,0,0,1-.2.37,3.51,3.51,0,0,1-.37.41c-.15.14-.31.27-.48.4a5.13,5.13,0,0,1-.52.34,3.82,3.82,0,0,1-.51.24,1.32,1.32,0,0,1-.44.09,1.44,1.44,0,0,1-.5-.1,1.59,1.59,0,0,1-.41-.26,1.21,1.21,0,0,1-.28-.39,1,1,0,0,1-.11-.46v-3.78H1.27l-.91-.91H10.78Z"/><path class="cls-24" d="M12.51,120.47a1.07,1.07,0,0,1,.8.29,1.13,1.13,0,0,1,.29.81.91.91,0,0,1-.09.41,1,1,0,0,1-.23.32,1.12,1.12,0,0,1-.77.28,1.06,1.06,0,0,1-.78-.29,1.12,1.12,0,0,1-.28-.79,1,1,0,0,1,.09-.41,1.23,1.23,0,0,1,.23-.33,1,1,0,0,1,.34-.21A1.06,1.06,0,0,1,12.51,120.47Z"/><path class="cls-24" d="M28.49,113.14h-2v9.44a.21.21,0,0,1-.08-.06l-.14-.15-.2-.21c0-.18-.09-.38-.15-.59a6.5,6.5,0,0,0-.22-.62,2.89,2.89,0,0,0-.3-.58,2.3,2.3,0,0,0-.38-.48l-.31-.27-.38-.3a3.6,3.6,0,0,0-.4-.28,1.21,1.21,0,0,0-.36-.18l0,0a2,2,0,0,1-.68.63,1.84,1.84,0,0,1-.9.24,1.86,1.86,0,0,1-.83-.16,1.54,1.54,0,0,1-.59-.6,1.59,1.59,0,0,0-.07-.38,1.19,1.19,0,0,1-.06-.37,1.59,1.59,0,0,1,.15-.72A1.43,1.43,0,0,1,21,117a1.86,1.86,0,0,1,.6-.29,2.46,2.46,0,0,1,.72-.1h.36l.2,0a.19.19,0,0,1,.12.09,2.34,2.34,0,0,0-.23-1.06,1.88,1.88,0,0,0-.52-.67,2.31,2.31,0,0,0-.68-.39,5.83,5.83,0,0,0-.72-.22l-.6-.17a.57.57,0,0,1-.36-.22.74.74,0,0,1-.25-.2,1.88,1.88,0,0,1-.16-.23l-.14-.25-.17-.24a4.94,4.94,0,0,0-.45-.47l-.47-.45h9.3Zm-2.93,6.44v-6.44H21.27l.73.61a7.53,7.53,0,0,1,.73.65,5.33,5.33,0,0,1,.62.73,2.37,2.37,0,0,1,.38.84c.07.26.14.56.2.87a4,4,0,0,1,.07.9c.28.29.55.59.8.9S25.31,119.26,25.56,119.58Z"/><path class="cls-24" d="M32.15,113.14H29.88v9.68a.72.72,0,0,1-.16-.15l-.32-.32-.44-.48V115a3.64,3.64,0,0,0-.07-.76,1.54,1.54,0,0,0-.23-.6.93.93,0,0,0-.43-.38,1.38,1.38,0,0,0-.69-.07l-.75-.91h.61a2,2,0,0,1,.69.1,1.38,1.38,0,0,1,.49.35,2.2,2.2,0,0,1,.39.62,9.14,9.14,0,0,1,.36.93,4.32,4.32,0,0,0,0-.5q0-.24-.09-.6c0-.24-.08-.54-.13-.88s-.1-.78-.15-1.31l.36.29a1.68,1.68,0,0,0,.07.33.73.73,0,0,0,.09.22.9.9,0,0,0,.16.19l.23.26h1.39Z"/><path class="cls-24" d="M40.06,123.14a8.21,8.21,0,0,0-1.49-1.38,13.28,13.28,0,0,0-1.82-1.09,16.21,16.21,0,0,0-2-.8,16.47,16.47,0,0,0-2-.51l-1-2.49a4.78,4.78,0,0,0,2.76.85,3.81,3.81,0,0,0,.54,0c.2,0,.41-.08.63-.13a5,5,0,0,0,.65-.22,3.09,3.09,0,0,0,.57-.31,1.6,1.6,0,0,0,.41-.41.83.83,0,0,0,.16-.5,1.15,1.15,0,0,0-.15-.59,1.39,1.39,0,0,0-.37-.43,1.93,1.93,0,0,0-.54-.26,2.35,2.35,0,0,0-.6-.08h-.2a.7.7,0,0,0-.19.06,1.24,1.24,0,0,1-.17.6,2.24,2.24,0,0,1-.41.56,2.18,2.18,0,0,1-.56.41,1.29,1.29,0,0,1-.61.16,1.2,1.2,0,0,1-.78-.26.92.92,0,0,1-.32-.76,1.21,1.21,0,0,1,.21-.71,2.11,2.11,0,0,1,.53-.5A3.91,3.91,0,0,1,34,114l.67-.27,0-.07a.39.39,0,0,0-.2-.25,1.17,1.17,0,0,0-.31-.12l-.31-.06c-.09,0-.14,0-.15,0H31.23l-.94-.91h9.07l.9.91H35.2a.61.61,0,0,0,.07.18.36.36,0,0,0,.08.12,1.14,1.14,0,0,0,.11.11l.12.16a3,3,0,0,1,1,.29,3.31,3.31,0,0,1,.86.6,2.69,2.69,0,0,1,.59.86,2.38,2.38,0,0,1,.22,1,1.76,1.76,0,0,1-.25,1,2.27,2.27,0,0,1-.63.68,5,5,0,0,1-.85.48c-.31.14-.62.28-.91.43.35.21.66.39.92.52l.69.36q.32.15.57.3a6.32,6.32,0,0,1,.54.36,7.5,7.5,0,0,1,.6.51c.22.2.48.46.77.78Z"/><path class="cls-24" d="M48.21,113.14h-2v9.72a.36.36,0,0,0-.13-.12l-.12,0-.12,0a.3.3,0,0,1-.11-.13.55.55,0,0,1-.09-.23c0-.1,0-.21-.07-.34l-.09-.38a2,2,0,0,0-.13-.39,4.37,4.37,0,0,0-.4-.71,4.51,4.51,0,0,0-.48-.57,4.13,4.13,0,0,0-.55-.47,6.41,6.41,0,0,0-.61-.4,6,6,0,0,0-1.13-.51,4.34,4.34,0,0,0-1.2-.25l-1.18-1.67A22.6,22.6,0,0,1,42.45,115a17.4,17.4,0,0,1,2.84-1.2v-.63H39.35l-.89-.91h8.85Zm-2.92,7v-4.86a13.51,13.51,0,0,0-1.82.82c-.58.31-1.16.66-1.72,1a8.77,8.77,0,0,1,2,1.22A6.4,6.4,0,0,1,45.29,120.1Z"/><path class="cls-24" d="M48.43,125.7l-.11.1-.11-.08a4.08,4.08,0,0,0-.3-.37c-.13-.13-.26-.28-.41-.42l-.46-.45-.49-.41c-.15-.13-.31-.24-.45-.35a3,3,0,0,0-.39-.23c-.11.12-.21.24-.33.35a2.6,2.6,0,0,1-.36.3,1.65,1.65,0,0,1-.42.21,1.53,1.53,0,0,1-.54.09,2.18,2.18,0,0,1-.62-.06,1.69,1.69,0,0,1-.55-.23,1.24,1.24,0,0,1-.4-.42,1.21,1.21,0,0,1-.16-.62,1.25,1.25,0,0,1,.14-.59,1.49,1.49,0,0,1,.37-.45,1.66,1.66,0,0,1,.53-.27,2,2,0,0,1,.6-.09,1.24,1.24,0,0,1,.46.08,3.5,3.5,0,0,1,.43.17l.33.17a.7.7,0,0,0,.16.08s.07,0,.08-.1,0-.12,0-.14a3.35,3.35,0,0,0,0-.63c0-.21,0-.41,0-.62l0,0a.41.41,0,0,1,.29.17,2.27,2.27,0,0,1,.25.38,2.11,2.11,0,0,1,.18.45,1.86,1.86,0,0,1,.09.36,1.42,1.42,0,0,0,0,.31,2.3,2.3,0,0,0,0,.45l.4.33a6.39,6.39,0,0,1,.48.44c.17.17.33.34.49.53a5.24,5.24,0,0,1,.43.56,3.19,3.19,0,0,1,.29.54A.94.94,0,0,1,48.43,125.7Zm-4.33-3.1h-.29a1.55,1.55,0,0,0-.31.06.72.72,0,0,0-.25.16.37.37,0,0,0-.11.27.38.38,0,0,0,.15.35.86.86,0,0,0,.39.11,1.15,1.15,0,0,0,.35,0,2.22,2.22,0,0,0,.39-.12,1.38,1.38,0,0,0,.31-.2.32.32,0,0,0,.13-.23.2.2,0,0,0-.09-.18.66.66,0,0,0-.22-.12,1.05,1.05,0,0,0-.24-.06A.9.9,0,0,0,44.1,122.6Z"/><path class="cls-24" d="M56.13,113.14h-2v9.72a.36.36,0,0,0-.13-.12l-.12,0-.12,0a.3.3,0,0,1-.11-.13.55.55,0,0,1-.09-.23c0-.1,0-.21-.07-.34s0-.25-.09-.38a2,2,0,0,0-.13-.39,4.37,4.37,0,0,0-.4-.71,4.51,4.51,0,0,0-.48-.57,4.13,4.13,0,0,0-.55-.47,6.41,6.41,0,0,0-.61-.4,6,6,0,0,0-1.13-.51,4.34,4.34,0,0,0-1.2-.25l-1.18-1.67A22.6,22.6,0,0,1,50.37,115a17.4,17.4,0,0,1,2.84-1.2v-.63H47.27l-.89-.91h8.85Zm-2.92,7v-4.86a14.09,14.09,0,0,0-1.82.82c-.58.31-1.16.66-1.72,1a8.77,8.77,0,0,1,2,1.22A6.4,6.4,0,0,1,53.21,120.1Z"/><path class="cls-24" d="M56.35,125.7l-.11.1-.11-.08a4.08,4.08,0,0,0-.3-.37c-.13-.13-.26-.28-.41-.42l-.46-.45-.48-.41-.46-.35a3,3,0,0,0-.39-.23,3.61,3.61,0,0,1-.33.35,2.6,2.6,0,0,1-.36.3,1.5,1.5,0,0,1-.42.21,1.53,1.53,0,0,1-.54.09,2.18,2.18,0,0,1-.62-.06,1.69,1.69,0,0,1-.55-.23,1.24,1.24,0,0,1-.4-.42,1.21,1.21,0,0,1-.16-.62,1.25,1.25,0,0,1,.14-.59,1.49,1.49,0,0,1,.37-.45,1.66,1.66,0,0,1,.53-.27,2,2,0,0,1,.6-.09,1.21,1.21,0,0,1,.46.08,3.5,3.5,0,0,1,.43.17l.33.17.16.08s.07,0,.08-.1,0-.12,0-.14a3.35,3.35,0,0,0,0-.63c0-.21,0-.41,0-.62l0,0a.39.39,0,0,1,.29.17,1.79,1.79,0,0,1,.25.38,2.88,2.88,0,0,1,.19.45q.06.22.09.36a1,1,0,0,0,0,.31,2.3,2.3,0,0,0,0,.45l.4.33a6.39,6.39,0,0,1,.48.44c.17.17.33.34.49.53a4.19,4.19,0,0,1,.43.56,3.19,3.19,0,0,1,.29.54A.94.94,0,0,1,56.35,125.7ZM52,122.6h-.29a1.55,1.55,0,0,0-.31.06.72.72,0,0,0-.25.16.36.36,0,0,0-.1.27.4.4,0,0,0,.14.35.86.86,0,0,0,.39.11,1.15,1.15,0,0,0,.35,0,2.22,2.22,0,0,0,.39-.12,1.38,1.38,0,0,0,.31-.2.32.32,0,0,0,.13-.23.2.2,0,0,0-.09-.18.72.72,0,0,0-.21-.12l-.25-.06A.9.9,0,0,0,52,122.6Z"/><path class="cls-24" d="M63.76,113.14h-2v9.36l-.11-.07-.09-.09a.81.81,0,0,1-.11-.13L61.3,122c-.12-.19-.25-.42-.38-.68s-.28-.52-.45-.79a5.64,5.64,0,0,0-.6-.81,4.39,4.39,0,0,0-.81-.73,4.58,4.58,0,0,0-1.08-.56,4.91,4.91,0,0,0-1.42-.27l-1.21-1.65A25.49,25.49,0,0,1,58,114.92a16.9,16.9,0,0,1,2.85-1.17v-.61H55.19l-.93-.91h8.57Zm-2.92,7.09v-5.11c-.34.11-.67.24-1,.37a9.3,9.3,0,0,0-.9.43c-.29.16-.58.32-.86.5l-.85.58a8,8,0,0,1,2.1,1.28A6.14,6.14,0,0,1,60.84,120.23Zm-2.58,1.51a1,1,0,0,1-.38-.08,1.07,1.07,0,0,1-.54-.54.84.84,0,0,1-.08-.38.8.8,0,0,1,.07-.34,1,1,0,0,1,.19-.29,1,1,0,0,1,.29-.2.77.77,0,0,1,.34-.07,1,1,0,0,1,.37.08,1,1,0,0,1,.31.21,1,1,0,0,1,.22.31,1,1,0,0,1,.08.37.84.84,0,0,1-.07.35.92.92,0,0,1-.18.3,1,1,0,0,1-.28.2A.68.68,0,0,1,58.26,121.74Z"/><path class="cls-24" d="M76.4,113.14h-2v9.36l-.11-.07-.09-.09-.11-.13-.16-.19c-.12-.19-.25-.42-.38-.68s-.28-.52-.45-.79a5.64,5.64,0,0,0-.6-.81,4.66,4.66,0,0,0-.8-.73,4.46,4.46,0,0,0-1.09-.56,4.91,4.91,0,0,0-1.41-.27L68,116.53a24.34,24.34,0,0,1,2.63-1.61,16.66,16.66,0,0,1,2.86-1.17v-.61H67.84l-.93-.91h8.56Zm-2.91,7.09v-5.11c-.34.11-.66.24-1,.37a9.3,9.3,0,0,0-.9.43c-.3.16-.58.32-.86.5l-.86.58a7.67,7.67,0,0,1,2.1,1.28A6.17,6.17,0,0,1,73.49,120.23Zm-2.59,1.51a1,1,0,0,1-.38-.08,1.07,1.07,0,0,1-.54-.54,1,1,0,0,1-.08-.38.8.8,0,0,1,.07-.34,1,1,0,0,1,.19-.29,1.15,1.15,0,0,1,.29-.2.8.8,0,0,1,.34-.07,1,1,0,0,1,.37.08,1,1,0,0,1,.32.21,1,1,0,0,1,.21.31.8.8,0,0,1,.08.37,1,1,0,0,1-.06.35,1.17,1.17,0,0,1-.19.3,1,1,0,0,1-.28.2A.68.68,0,0,1,70.9,121.74Z"/><path class="cls-24" d="M84.29,123.14a8.56,8.56,0,0,0-1.49-1.38A13.28,13.28,0,0,0,81,120.67a16,16,0,0,0-4-1.31l-1-2.49a4.78,4.78,0,0,0,2.76.85,3.59,3.59,0,0,0,.53,0c.21,0,.42-.08.64-.13a5.53,5.53,0,0,0,.65-.22,3.09,3.09,0,0,0,.57-.31,1.77,1.77,0,0,0,.41-.41.9.9,0,0,0,.16-.5,1.15,1.15,0,0,0-.15-.59,1.3,1.3,0,0,0-.38-.43,1.75,1.75,0,0,0-.53-.26,2.47,2.47,0,0,0-.6-.08h-.2a.6.6,0,0,0-.19.06,1.24,1.24,0,0,1-.17.6,2.52,2.52,0,0,1-.41.56,2.06,2.06,0,0,1-.57.41,1.26,1.26,0,0,1-.61.16,1.19,1.19,0,0,1-.77-.26.92.92,0,0,1-.33-.76,1.22,1.22,0,0,1,.22-.71,2.07,2.07,0,0,1,.52-.5,4,4,0,0,1,.68-.36l.67-.27,0-.07a.37.37,0,0,0-.19-.25,1.24,1.24,0,0,0-.32-.12l-.3-.06c-.09,0-.14,0-.15,0H75.46l-.95-.91h9.08l.9.91H79.42a1.05,1.05,0,0,0,.08.18.36.36,0,0,0,.08.12.57.57,0,0,0,.11.11l.11.16a3,3,0,0,1,1,.29,3.31,3.31,0,0,1,.86.6,2.86,2.86,0,0,1,.59.86,2.38,2.38,0,0,1,.22,1,1.76,1.76,0,0,1-.25,1,2.27,2.27,0,0,1-.63.68,5.36,5.36,0,0,1-.85.48c-.31.14-.62.28-.91.43.35.21.66.39.92.52l.69.36c.21.1.39.2.57.3a5,5,0,0,1,.53.36,6.1,6.1,0,0,1,.61.51c.22.2.47.46.77.78Z"/><path class="cls-24" d="M92.89,113.14h-2v9.44s0,0-.09-.06l-.14-.15-.2-.21c0-.18-.09-.38-.15-.59a4.57,4.57,0,0,0-.22-.62,3.49,3.49,0,0,0-.29-.58,2.72,2.72,0,0,0-.39-.48l-.31-.27-.38-.3a4.73,4.73,0,0,0-.39-.28,1.5,1.5,0,0,0-.36-.18v0a2,2,0,0,1-.68.63,1.78,1.78,0,0,1-.9.24,1.86,1.86,0,0,1-.83-.16A1.54,1.54,0,0,1,85,119a1.22,1.22,0,0,0-.07-.38,1.19,1.19,0,0,1-.06-.37,1.59,1.59,0,0,1,.15-.72,1.36,1.36,0,0,1,.42-.5,1.71,1.71,0,0,1,.59-.29,2.46,2.46,0,0,1,.72-.1h.37l.19,0a.25.25,0,0,1,.13.09,2.64,2.64,0,0,0-.23-1.06,1.9,1.9,0,0,0-.53-.67,2.19,2.19,0,0,0-.68-.39,6.27,6.27,0,0,0-.71-.22l-.61-.17a.6.6,0,0,1-.36-.22.85.85,0,0,1-.25-.2,1.88,1.88,0,0,1-.16-.23l-.14-.25-.17-.24a4.81,4.81,0,0,0-.44-.47c-.17-.15-.32-.3-.47-.45H92ZM90,119.58v-6.44H85.68l.72.61a7.53,7.53,0,0,1,.73.65,5.33,5.33,0,0,1,.62.73,2.58,2.58,0,0,1,.39.84c.06.26.13.56.19.87a3.49,3.49,0,0,1,.07.9q.42.44.81.9Z"/><path class="cls-24" d="M96.55,113.14H94.28v9.68l-.16-.15-.32-.32-.44-.48V115a4.51,4.51,0,0,0-.06-.76,1.93,1.93,0,0,0-.23-.6,1,1,0,0,0-.44-.38,1.35,1.35,0,0,0-.69-.07l-.75-.91h.61a2,2,0,0,1,.69.1,1.3,1.3,0,0,1,.49.35,2.46,2.46,0,0,1,.4.62c.11.26.23.57.35.93a4.32,4.32,0,0,0,0-.5q0-.24-.09-.6c0-.24-.08-.54-.13-.88s-.1-.78-.15-1.31l.37.29q0,.21.06.33a1.12,1.12,0,0,0,.09.22A.9.9,0,0,0,94,112l.24.26h1.38Z"/><path class="cls-24" d="M104.88,113.14h-2v9.63l-.35-.46a1025472382256.62,1025472382256.62,0,0,0,0-.26,6.14,6.14,0,0,0-.11-1,8.59,8.59,0,0,0-.32-1.23,10.25,10.25,0,0,0-.51-1.25,5.65,5.65,0,0,0-.7-1.11,3.53,3.53,0,0,0-.86-.79,1.87,1.87,0,0,0-1-.31h-.13a.16.16,0,0,0-.11,0q.12.18.24.33a3,3,0,0,1,.32.66,1.78,1.78,0,0,1,0,.41,1.31,1.31,0,0,1-.09.5,1.17,1.17,0,0,1-.27.35,1.32,1.32,0,0,1-.41.21,1.63,1.63,0,0,1-.5.07,1.56,1.56,0,0,1-1.74-1.76,2,2,0,0,1,.18-.85,2.24,2.24,0,0,1,.48-.66,2.3,2.3,0,0,1,.71-.42,2.51,2.51,0,0,1,.86-.15,2.43,2.43,0,0,1,1.14.28,3.71,3.71,0,0,1,.92.71,6.38,6.38,0,0,1,.73,1c.21.35.39.7.55,1v-4.92H95.64l-.92-.91h9.21Z"/><path class="cls-24" d="M22.36,131.14a4,4,0,0,0-1.17.31,4,4,0,0,0-1,.62,4.35,4.35,0,0,0-.77.88,6.15,6.15,0,0,0-.56,1,6.49,6.49,0,0,0-.34,1.14,5.86,5.86,0,0,0-.12,1.16,5.6,5.6,0,0,0,0,.69,6.36,6.36,0,0,0,.16.73,4.12,4.12,0,0,0,.27.69,2.51,2.51,0,0,0,.41.58,1.84,1.84,0,0,0,.55.41,1.76,1.76,0,0,0,.71.14l0,0a1,1,0,0,1-.2-.15,1.12,1.12,0,0,1-.17-.2,1.71,1.71,0,0,1-.13-.23.68.68,0,0,1-.05-.23,1.46,1.46,0,0,1,.1-.57.76.76,0,0,1,.28-.33,1.11,1.11,0,0,1,.42-.16,4.68,4.68,0,0,1,.55,0,.54.54,0,0,1,.33.11A1.48,1.48,0,0,1,22,138a1.7,1.7,0,0,1,.19.35,1,1,0,0,1,.07.35,1.59,1.59,0,0,1-.12.62,1.61,1.61,0,0,1-.35.5,1.39,1.39,0,0,1-.51.34,1.59,1.59,0,0,1-.62.12,2.48,2.48,0,0,1-1-.2,3,3,0,0,1-.81-.56,4.05,4.05,0,0,1-.6-.81,5.57,5.57,0,0,1-.42-1,7.09,7.09,0,0,1-.25-1,6.92,6.92,0,0,1-.08-1,7,7,0,0,1,.06-.92,5.51,5.51,0,0,1,.2-1,6.7,6.7,0,0,1,1-2,4.61,4.61,0,0,1,.75-.83,3.37,3.37,0,0,1,.89-.57,2.42,2.42,0,0,1,1-.21Z"/><path class="cls-24" d="M31.38,131.14h-2v9.44s0,0-.09-.06l-.14-.15-.2-.21c0-.18-.09-.38-.15-.59a4.57,4.57,0,0,0-.22-.62,3.49,3.49,0,0,0-.29-.58,2.72,2.72,0,0,0-.39-.48l-.31-.27c-.12-.1-.24-.2-.38-.3a4.73,4.73,0,0,0-.39-.28,1.5,1.5,0,0,0-.36-.18v0a2,2,0,0,1-.68.63,1.78,1.78,0,0,1-.9.24,1.86,1.86,0,0,1-.83-.16,1.54,1.54,0,0,1-.59-.6,1.22,1.22,0,0,0-.07-.38,1.19,1.19,0,0,1-.06-.37,1.59,1.59,0,0,1,.15-.72,1.36,1.36,0,0,1,.42-.5,1.68,1.68,0,0,1,.6-.29,2.34,2.34,0,0,1,.71-.1h.37l.19,0a.25.25,0,0,1,.13.09,2.64,2.64,0,0,0-.23-1.06,1.9,1.9,0,0,0-.53-.67,2.19,2.19,0,0,0-.68-.39,6.27,6.27,0,0,0-.71-.22l-.61-.17a.64.64,0,0,1-.36-.22.8.8,0,0,1-.24-.2,1.24,1.24,0,0,1-.17-.23l-.14-.25-.17-.24a4.81,4.81,0,0,0-.44-.47c-.17-.15-.32-.3-.47-.45h9.29Zm-2.93,6.44v-6.44H24.16l.72.61a7.53,7.53,0,0,1,.73.65,5.33,5.33,0,0,1,.62.73,2.58,2.58,0,0,1,.39.84c.06.26.13.56.19.87a3.49,3.49,0,0,1,.07.9q.42.44.81.9Z"/><path class="cls-24" d="M35,131.14H32.76v9.68l-.16-.15-.31-.32-.45-.48V133a4.51,4.51,0,0,0-.06-.76,1.93,1.93,0,0,0-.23-.6,1,1,0,0,0-.44-.38,1.35,1.35,0,0,0-.69-.07l-.75-.91a1.87,1.87,0,0,0,.34,0h.28a2,2,0,0,1,.68.1,1.42,1.42,0,0,1,.5.35,2.76,2.76,0,0,1,.39.62c.11.26.23.57.35.93a4.32,4.32,0,0,0,0-.5q0-.24-.09-.6c0-.24-.08-.54-.13-.88s-.1-.78-.15-1.31l.37.29q0,.21.06.33a.74.74,0,0,0,.1.22.83.83,0,0,0,.15.19l.24.26h1.38Z"/><path class="cls-24" d="M44.21,131.14h-2v9.46l-.39-.37c-.1-.1-.2-.21-.31-.3l-.22-.22V134.6a.94.94,0,0,0-.11-.42,1.7,1.7,0,0,0-.27-.39,2.07,2.07,0,0,0-.38-.28,1,1,0,0,0-.43-.1.69.69,0,0,0-.57.24,1,1,0,0,0-.2.61,1.63,1.63,0,0,0,0,.31c0,.11,0,.21.06.31L39,135a1.75,1.75,0,0,0-.26-.63,2.28,2.28,0,0,0-.47-.51,2.33,2.33,0,0,0-.62-.34,2.3,2.3,0,0,0-.66-.17,1.91,1.91,0,0,0-.68,0,1.65,1.65,0,0,0-.56.23,1.21,1.21,0,0,0-.41.4,1.56,1.56,0,0,0-.22.58,1.27,1.27,0,0,0,.1.86,1,1,0,0,0,.75.45,1.42,1.42,0,0,1-.21-.33,1,1,0,0,1,0-.79.91.91,0,0,1,.22-.32,1.12,1.12,0,0,1,.74-.27.91.91,0,0,1,.49.14,1.41,1.41,0,0,1,.36.37,1.75,1.75,0,0,1,.23.5,1.59,1.59,0,0,1,.08.51.77.77,0,0,1-.13.45,1.27,1.27,0,0,1-.36.33,1.75,1.75,0,0,1-.46.21,1.65,1.65,0,0,1-.47.08,2.39,2.39,0,0,1-1.08-.16,1.84,1.84,0,0,1-.71-.54,2.09,2.09,0,0,1-.38-.84,3.7,3.7,0,0,1-.06-1.07,2.71,2.71,0,0,1,.2-.85,2.21,2.21,0,0,1,.45-.7,2.34,2.34,0,0,1,.69-.47,2.38,2.38,0,0,1,.91-.17,2.31,2.31,0,0,1,.61.08,1.64,1.64,0,0,1,.52.24,2.54,2.54,0,0,1,.45.36,6.08,6.08,0,0,1,.39.47.7.7,0,0,1,.12-.36,1.64,1.64,0,0,1,.65-.63.78.78,0,0,1,.36-.11,1.08,1.08,0,0,1,.58.16,2.12,2.12,0,0,1,.47.38,4,4,0,0,1,.36.52,3.68,3.68,0,0,1,.24.55v-2.54H34.11l-.47-.46-.33-.32-.14-.13H43.25s0,0,.15.13l.33.32Z"/><path class="cls-24" d="M42.21,141.29l-.25-.13-.21-.15a.54.54,0,0,0,0-.18,2.2,2.2,0,0,1-.12-.32c-.05-.11-.09-.21-.14-.31a1.13,1.13,0,0,0-.22-.27,1,1,0,0,0-.35-.2,1.55,1.55,0,0,0-.56,0,.45.45,0,0,0-.23.06.44.44,0,0,0-.12.15.65.65,0,0,0,0,.21,2.17,2.17,0,0,0,0,.26,1,1,0,0,0,0,.24,2.21,2.21,0,0,0,0,.25l-.56,0a1.7,1.7,0,0,0-.07-.55,1.62,1.62,0,0,0-.25-.49,1.5,1.5,0,0,0-.43-.36,1.45,1.45,0,0,0-.61-.16,1.12,1.12,0,0,0-.44,0,1.49,1.49,0,0,0-.43.17,1.19,1.19,0,0,0-.34.28.56.56,0,0,0-.14.35,1.38,1.38,0,0,0,0,.42,1,1,0,0,0,.16.32,1.07,1.07,0,0,0,.23.2.73.73,0,0,0,.26.11,1.56,1.56,0,0,1-.16-.28.87.87,0,0,1-.06-.32.69.69,0,0,1,.25-.56.87.87,0,0,1,.59-.22.71.71,0,0,1,.39.11.75.75,0,0,1,.28.28,1,1,0,0,1,.14.38,1.25,1.25,0,0,1-.39,1.08.83.83,0,0,1-.61.22,3.37,3.37,0,0,1-.62-.07,1.46,1.46,0,0,1-.57-.25,1.34,1.34,0,0,1-.43-.53,2.15,2.15,0,0,1-.18-.89,1.52,1.52,0,0,1,.11-.52,1.84,1.84,0,0,1,.31-.54,1.78,1.78,0,0,1,.52-.41,1.46,1.46,0,0,1,.71-.17,3.15,3.15,0,0,1,.58.07,2.84,2.84,0,0,1,.58.2,1.74,1.74,0,0,1,.46.33.86.86,0,0,1,.26.45.77.77,0,0,1,0-.29,1.4,1.4,0,0,1,.15-.3.8.8,0,0,1,.23-.22.58.58,0,0,1,.32-.07,1.59,1.59,0,0,1,.72.18.93.93,0,0,1,.43.57V136h.74Z"/><path class="cls-24" d="M47.87,131.14H45.6v9.68s-.07,0-.17-.15l-.31-.32-.44-.48V133a4.47,4.47,0,0,0-.07-.76,1.71,1.71,0,0,0-.23-.6,1,1,0,0,0-.44-.38,1.35,1.35,0,0,0-.69-.07l-.75-.91a2,2,0,0,0,.35,0h.27a1.91,1.91,0,0,1,.68.1,1.42,1.42,0,0,1,.5.35,2.76,2.76,0,0,1,.39.62,9.14,9.14,0,0,1,.36.93,4.38,4.38,0,0,0,0-.5q0-.24-.09-.6c0-.24-.08-.54-.13-.88s-.1-.78-.15-1.31l.37.29q0,.21.06.33a1.12,1.12,0,0,0,.1.22,1.25,1.25,0,0,0,.15.19l.24.26H47Z"/><path class="cls-24" d="M63.43,131.14H58.54v.69l.05,0,.09,0a2.5,2.5,0,0,1,1.26.35,3.64,3.64,0,0,1,1,.88,4.32,4.32,0,0,1,.71,1.19,3.48,3.48,0,0,1,.26,1.28,2.05,2.05,0,0,1-.1.65,1.76,1.76,0,0,1-.29.58,1.33,1.33,0,0,1-.47.41,1.22,1.22,0,0,1-.64.16,1.15,1.15,0,0,1-.44-.09,1.36,1.36,0,0,1-.38-.24,1.22,1.22,0,0,1-.27-.36.92.92,0,0,1-.1-.44,1,1,0,0,1,.14-.52,1.86,1.86,0,0,1,.37-.42,1.07,1.07,0,0,1,.27-.07l.27,0a1,1,0,0,1,.51.15,2.88,2.88,0,0,1,.43.33.37.37,0,0,0,0-.09v-.08a2.14,2.14,0,0,0-.22-.92,2.77,2.77,0,0,0-.59-.77,2.64,2.64,0,0,0-.81-.51,2.06,2.06,0,0,0-.91-.16h-.2v7.36s0,0-.09-.05l-.13-.11-.17-.17a8,8,0,0,0-.67-1.48,5.33,5.33,0,0,0-1-1.19,5,5,0,0,0-1.26-.84,5.47,5.47,0,0,0-1.58-.42l-1.27-1.57a12.45,12.45,0,0,1,1.16-.85c.42-.27.86-.53,1.32-.77s.92-.46,1.39-.66a12.24,12.24,0,0,1,1.34-.49v-.72H52l-.93-.91H62.52ZM57.62,138v-4.83c-.33.12-.63.25-.92.38s-.57.28-.84.43l-.79.49-.8.55a6.76,6.76,0,0,1,1.92,1.2A6.59,6.59,0,0,1,57.62,138Z"/><path class="cls-24" d="M68.81,131.14a3.22,3.22,0,0,0-.76.09,5.43,5.43,0,0,0-.75.24,4.82,4.82,0,0,0-1.48.87,4,4,0,0,0-.95,1.2,5,5,0,0,0-.51,1.47,9.38,9.38,0,0,0-.15,1.71,3.21,3.21,0,0,0,.13.86,4,4,0,0,0,.36.94,2.62,2.62,0,0,0,.59.75,1.19,1.19,0,0,0,.81.31l.12,0a.14.14,0,0,0,.1-.06.84.84,0,0,1-.21-.18,1.56,1.56,0,0,1-.17-.25,1.69,1.69,0,0,1-.12-.28,1,1,0,0,1,0-.27.82.82,0,0,1,.1-.4,1.19,1.19,0,0,1,.62-.55,1.14,1.14,0,0,1,.4-.08.92.92,0,0,1,.29,0,.48.48,0,0,1,.23.17,1,1,0,0,1,.45.41,1.25,1.25,0,0,1,.14.59,1.41,1.41,0,0,1-.14.62,1.68,1.68,0,0,1-.36.48,2,2,0,0,1-.53.31,1.78,1.78,0,0,1-.61.11,2.31,2.31,0,0,1-1-.21,2.83,2.83,0,0,1-.78-.55,3.22,3.22,0,0,1-.6-.8,6.19,6.19,0,0,1-.41-.95,5.85,5.85,0,0,1-.25-1,6.35,6.35,0,0,1-.07-1,6,6,0,0,1,.13-1.27,6.72,6.72,0,0,1,.38-1.2,8,8,0,0,1,.6-1.12,9.33,9.33,0,0,1,.75-1H62.35l-.93-.91h6.49q.24.26.45.45l.31.32Z"/><path class="cls-24" d="M78.18,131.14h-2v9.46l-.39-.37-.3-.3-.23-.22V134.6a.83.83,0,0,0-.11-.42,1.7,1.7,0,0,0-.27-.39,1.78,1.78,0,0,0-.38-.28.94.94,0,0,0-.43-.1.69.69,0,0,0-.57.24,1,1,0,0,0-.19.61,1.63,1.63,0,0,0,0,.31l.06.31L73,135a1.59,1.59,0,0,0-.26-.63,2.28,2.28,0,0,0-.47-.51,2.68,2.68,0,0,0-1.28-.51,1.91,1.91,0,0,0-.68,0,1.74,1.74,0,0,0-.56.23,1.3,1.3,0,0,0-.41.4,1.56,1.56,0,0,0-.22.58,1.33,1.33,0,0,0,.1.86,1,1,0,0,0,.75.45,1.85,1.85,0,0,1-.21-.33.87.87,0,0,1-.07-.39,1.24,1.24,0,0,1,.09-.4.94.94,0,0,1,.23-.32.91.91,0,0,1,.33-.2,1.1,1.1,0,0,1,.41-.07.87.87,0,0,1,.48.14,1.45,1.45,0,0,1,.37.37,2.07,2.07,0,0,1,.23.5,1.92,1.92,0,0,1,.08.51.77.77,0,0,1-.14.45,1.23,1.23,0,0,1-.35.33,1.82,1.82,0,0,1-.47.21,1.65,1.65,0,0,1-.47.08,2.41,2.41,0,0,1-1.08-.16,1.84,1.84,0,0,1-.71-.54,2.23,2.23,0,0,1-.38-.84,3.7,3.7,0,0,1-.06-1.07,2.71,2.71,0,0,1,.2-.85,2.24,2.24,0,0,1,.46-.7,2.11,2.11,0,0,1,.69-.47,2.43,2.43,0,0,1,1.51-.09,1.64,1.64,0,0,1,.52.24,2.54,2.54,0,0,1,.45.36c.14.15.27.3.4.47a.68.68,0,0,1,.11-.36,1.64,1.64,0,0,1,.29-.36,1.88,1.88,0,0,1,.36-.27.78.78,0,0,1,.36-.11,1.08,1.08,0,0,1,.58.16,2.12,2.12,0,0,1,.47.38,2.68,2.68,0,0,1,.36.52,3.68,3.68,0,0,1,.24.55v-2.54H68.09l-.48-.46c-.12-.11-.23-.22-.32-.32l-.15-.13H77.22s0,0,.15.13l.33.32Z"/><path class="cls-24" d="M89.07,131.14h-6.3a.46.46,0,0,0-.18.07,1.58,1.58,0,0,0-.24.15,1.21,1.21,0,0,0-.2.19.3.3,0,0,0-.09.18.37.37,0,0,0,.16.28,1.58,1.58,0,0,0,.41.24,3.23,3.23,0,0,0,.55.18l.58.13.52.07.37,0a2.37,2.37,0,0,0,.43,0l.48-.12.48-.14.41-.14c.24.23.47.47.7.71l.69.71a4.34,4.34,0,0,0-.71.89,5.63,5.63,0,0,0-.47,1,6.91,6.91,0,0,0-.27,1.11,8.59,8.59,0,0,0-.08,1.13v.68c0,.22,0,.45,0,.67a5,5,0,0,0,.1.66,3.06,3.06,0,0,0,.2.63h0l-.45-.09a1.13,1.13,0,0,1-.42-.17c-.11-.62-.2-1.23-.26-1.85s-.09-1.24-.09-1.88a6.35,6.35,0,0,1,.16-1.38,10.27,10.27,0,0,1,.42-1.33,9.44,9.44,0,0,1-1.49-.1,5.76,5.76,0,0,1-1.16-.3,3.55,3.55,0,0,1-.87-.45,3.46,3.46,0,0,1-.62-.58.75.75,0,0,0-.47.2,3.05,3.05,0,0,0-.47.48,3.33,3.33,0,0,0-.37.58,1.19,1.19,0,0,0-.15.5.57.57,0,0,0,.19.49.82.82,0,0,0,.5.14,1.37,1.37,0,0,0,.43-.09l.56-.24.56-.27.44-.21.12.06a.3.3,0,0,1,.27.1,2.11,2.11,0,0,1,.29.34,5.75,5.75,0,0,1,.3.51c.1.19.18.38.26.57a4.37,4.37,0,0,1,.19.54,2.08,2.08,0,0,1,.06.42,2.48,2.48,0,0,1-.19,1,2.7,2.7,0,0,1-.55.81,2.41,2.41,0,0,1-.79.54,2.33,2.33,0,0,1-1,.21,3,3,0,0,1-1.36-.31,3.44,3.44,0,0,1-1-.81,5.26,5.26,0,0,1-.79-1.12,8.2,8.2,0,0,1-.54-1.27,5.19,5.19,0,0,1-.2-.82c0-.31-.08-.62-.1-.94s0-.64,0-.95,0-.6,0-.85l.26.14.25.15v.39a6.83,6.83,0,0,0,.11,1.35,5.54,5.54,0,0,0,.41,1.27,4.73,4.73,0,0,0,.73,1.11,4.24,4.24,0,0,0,1,.86,2.22,2.22,0,0,0,.45.2,1.61,1.61,0,0,0,.49.07,4.23,4.23,0,0,0,.65-.06,3,3,0,0,0,.73-.23,1.9,1.9,0,0,0,.59-.39.82.82,0,0,0,.25-.6,1.24,1.24,0,0,0,0-.23,1,1,0,0,0-.09-.24.64.64,0,0,0-.16-.2.28.28,0,0,0-.21-.08,1,1,0,0,0-.29.06l-.42.16a3.37,3.37,0,0,1-.48.15,1.71,1.71,0,0,1-.49.07,1.91,1.91,0,0,1-.86-.2,2.34,2.34,0,0,1-.67-.54,2.66,2.66,0,0,1-.44-.77,2.57,2.57,0,0,1-.15-.87,2.17,2.17,0,0,1,.11-.69,2.77,2.77,0,0,1,.31-.59,5.43,5.43,0,0,1,.42-.53c.16-.17.32-.34.47-.52H77.22l-.91-.91H88.16Z"/><path d="M33.1,150.89a2.14,2.14,0,0,0-.76.2,2.36,2.36,0,0,0-.62.4,2.5,2.5,0,0,0-.5.57,3,3,0,0,0-.36.68,3.74,3.74,0,0,0-.23.74,4,4,0,0,0-.07.75,3.64,3.64,0,0,0,0,.45,2.73,2.73,0,0,0,.1.48,2.11,2.11,0,0,0,.18.45,1.44,1.44,0,0,0,.26.37,1.54,1.54,0,0,0,.36.27,1.14,1.14,0,0,0,.46.09l0,0a.94.94,0,0,1-.12-.09.76.76,0,0,1-.11-.14.55.55,0,0,1-.08-.15.28.28,0,0,1,0-.15.82.82,0,0,1,.07-.37.56.56,0,0,1,.45-.31,2,2,0,0,1,.36,0,.37.37,0,0,1,.21.08.62.62,0,0,1,.18.18,1,1,0,0,1,.13.23.64.64,0,0,1,0,.22.94.94,0,0,1-.08.41,1,1,0,0,1-.22.32.83.83,0,0,1-.33.22.94.94,0,0,1-.41.08,1.54,1.54,0,0,1-.65-.13,1.71,1.71,0,0,1-.52-.37,2.28,2.28,0,0,1-.39-.52,4.46,4.46,0,0,1-.28-.63,5.28,5.28,0,0,1-.16-.66,4.7,4.7,0,0,1-.05-.63,4.17,4.17,0,0,1,0-.61,3.22,3.22,0,0,1,.13-.63,4.69,4.69,0,0,1,.27-.67,3.4,3.4,0,0,1,.38-.63,2.8,2.8,0,0,1,.48-.54,2.11,2.11,0,0,1,.58-.37,1.65,1.65,0,0,1,.65-.14Z"/><path d="M39.69,150.89H35.86v2.32a.86.86,0,0,0,.5-.14,2,2,0,0,0,.39-.33,4.78,4.78,0,0,0,.34-.42,2.5,2.5,0,0,1,.33-.38,1.25,1.25,0,0,1,.44.34,2.75,2.75,0,0,1,.34.52,3.89,3.89,0,0,1,.22.6,2.36,2.36,0,0,1,.08.56,3.14,3.14,0,0,1-.14.94,1.93,1.93,0,0,1-.39.72,1.68,1.68,0,0,1-.67.46,2.46,2.46,0,0,1-.94.17,2,2,0,0,1-1-.25,2.41,2.41,0,0,1-.77-.65,4,4,0,0,1-.55-.92,6.84,6.84,0,0,1-.36-1.08,8.71,8.71,0,0,1-.22-1.11c-.06-.36-.1-.69-.13-1l.35.2c0,.24.06.5.11.78s.14.56.23.84a5.87,5.87,0,0,0,.36.81,2.89,2.89,0,0,0,.49.68,2.33,2.33,0,0,0,.65.48,1.77,1.77,0,0,0,.8.18,2.05,2.05,0,0,0,.64-.11,2.24,2.24,0,0,0,.57-.31,1.62,1.62,0,0,0,.42-.48,1.18,1.18,0,0,0,.16-.63.83.83,0,0,0-.1-.41,1.16,1.16,0,0,0-.24-.34,1,1,0,0,1-.13.24,2.91,2.91,0,0,1-.24.27,2.72,2.72,0,0,1-.32.25,2.1,2.1,0,0,1-.33.22,2.06,2.06,0,0,1-.34.16.79.79,0,0,1-.28.06.71.71,0,0,1-.32-.07,1,1,0,0,1-.27-.17.79.79,0,0,1-.19-.25.73.73,0,0,1-.06-.3v-2.45H32.91l-.6-.6h6.78Z"/><path d="M45.15,150.89H43.84V157l-.06,0-.09-.09-.13-.14c0-.12-.06-.25-.09-.38a2.86,2.86,0,0,0-.15-.41,1.93,1.93,0,0,0-.19-.38,1.25,1.25,0,0,0-.25-.3l-.2-.18-.25-.2a2,2,0,0,0-.25-.18,1.33,1.33,0,0,0-.24-.12v0a1.33,1.33,0,0,1-.44.41,1.23,1.23,0,0,1-.59.15,1.19,1.19,0,0,1-.53-.1,1,1,0,0,1-.39-.39,1,1,0,0,0,0-.25.69.69,0,0,1-.05-.24,1.12,1.12,0,0,1,.1-.47.94.94,0,0,1,.27-.32,1.18,1.18,0,0,1,.39-.19,1.78,1.78,0,0,1,.47-.07h.24l.12,0a.1.1,0,0,1,.08.06,1.41,1.41,0,0,0-.15-.69,1.27,1.27,0,0,0-.33-.44,1.66,1.66,0,0,0-.45-.25l-.46-.15-.4-.1a.36.36,0,0,1-.23-.15.42.42,0,0,1-.16-.13l-.11-.15L39.2,151l-.11-.15a2.81,2.81,0,0,0-.29-.31l-.3-.3h6Zm-1.91,4.18v-4.18H40.45l.48.39a6.14,6.14,0,0,1,.47.42,3.64,3.64,0,0,1,.4.48,1.56,1.56,0,0,1,.25.54c.05.18.09.37.13.57a2.38,2.38,0,0,1,0,.59,7.29,7.29,0,0,1,.53.58C42.91,154.66,43.08,154.86,43.24,155.07Z"/><path d="M50.1,150.89H48.8V157l-.07-.05-.06,0-.07-.09-.1-.12a4.31,4.31,0,0,1-.25-.44,5.54,5.54,0,0,0-.29-.52,4.48,4.48,0,0,0-.39-.53,3,3,0,0,0-.53-.47,3.06,3.06,0,0,0-.7-.36,3.2,3.2,0,0,0-.92-.18l-.79-1.07A15.79,15.79,0,0,1,46.35,152a10.73,10.73,0,0,1,1.85-.76v-.39H44.53l-.61-.6h5.57Zm-1.9,4.6v-3.32a5.87,5.87,0,0,0-.63.24l-.59.28c-.19.1-.37.21-.56.33s-.37.24-.55.38a4.82,4.82,0,0,1,1.36.83A3.93,3.93,0,0,1,48.2,155.49Zm-1.68,1a.54.54,0,0,1-.25-.06.6.6,0,0,1-.21-.14.77.77,0,0,1-.14-.21.69.69,0,0,1-.05-.24.59.59,0,0,1,0-.23.83.83,0,0,1,.13-.18.46.46,0,0,1,.18-.13.64.64,0,0,1,.23,0,.69.69,0,0,1,.24,0,.7.7,0,0,1,.34.34.53.53,0,0,1,.06.24.59.59,0,0,1-.05.23.62.62,0,0,1-.12.19.62.62,0,0,1-.18.14A.54.54,0,0,1,46.52,156.48Z"/><path d="M52.48,150.89H51v6.29s0,0-.11-.1l-.2-.21c-.09-.09-.19-.19-.29-.31v-4.5a2.46,2.46,0,0,0,0-.49,1,1,0,0,0-.14-.4.67.67,0,0,0-.29-.24.81.81,0,0,0-.45,0l-.48-.6h.39a1.18,1.18,0,0,1,.45.07.79.79,0,0,1,.32.23,1.38,1.38,0,0,1,.26.4c.07.17.15.37.23.61,0-.11,0-.22,0-.33s0-.24-.06-.39,0-.35-.09-.58-.06-.5-.09-.85l.24.2a1,1,0,0,0,0,.21.35.35,0,0,0,.06.14.91.91,0,0,0,.1.13l.15.16h.91Z"/><path d="M53.39,158.69l-.11-.24a2.23,2.23,0,0,0,.32-.19,1.72,1.72,0,0,0,.31-.29,1.55,1.55,0,0,0,.24-.33.8.8,0,0,0,.09-.36.25.25,0,0,0,0-.08s0-.06,0-.08a.16.16,0,0,0,0-.07.09.09,0,0,0-.07,0l-.2,0-.2,0a.68.68,0,0,1-.45-.15.56.56,0,0,1-.19-.43.64.64,0,0,1,.73-.72,1,1,0,0,1,.45.09.79.79,0,0,1,.29.25,1.09,1.09,0,0,1,.16.38,2.19,2.19,0,0,1,0,.46,1.35,1.35,0,0,1-.12.53,2.29,2.29,0,0,1-.32.51,2.91,2.91,0,0,1-.43.43A1.94,1.94,0,0,1,53.39,158.69Z"/><path d="M63.77,150.89H59.68v4a.45.45,0,0,0,.08.29.3.3,0,0,0,.26.11.82.82,0,0,0,.38-.11,2.55,2.55,0,0,0,.38-.29,3.85,3.85,0,0,0,.35-.35l.25-.3a1,1,0,0,0,.19-.36,1.77,1.77,0,0,0,.08-.4l-.09,0h-.09a.87.87,0,0,1-.28,0,.89.89,0,0,1-.25-.14.63.63,0,0,1-.18-.21.6.6,0,0,1-.06-.27.88.88,0,0,1,0-.33.72.72,0,0,1,.14-.26.69.69,0,0,1,.24-.18.79.79,0,0,1,.32-.06.87.87,0,0,1,.5.13,1,1,0,0,1,.34.34,1.44,1.44,0,0,1,.19.46,2.29,2.29,0,0,1,.06.51,1.89,1.89,0,0,1-.1.55,3.77,3.77,0,0,1-.27.58,4,4,0,0,1-.39.56,4.3,4.3,0,0,1-.49.47,2.32,2.32,0,0,1-.53.33,1.39,1.39,0,0,1-.54.12.77.77,0,0,1-.45-.13,1.27,1.27,0,0,1-.3-.27,2.39,2.39,0,0,1-.35-.6.68.68,0,0,1,0-.17v-4h-.85l-.59-.6h5.53Z"/><path d="M66.18,150.89H64.71v6.29s0,0-.11-.1l-.21-.21-.28-.31v-4.5a2.46,2.46,0,0,0,0-.49,1.11,1.11,0,0,0-.15-.4.6.6,0,0,0-.28-.24.81.81,0,0,0-.45,0l-.48-.6h.39a1.18,1.18,0,0,1,.45.07.79.79,0,0,1,.32.23,1.38,1.38,0,0,1,.26.4c.07.17.15.37.23.61,0-.11,0-.22,0-.33s0-.24-.06-.39,0-.35-.09-.58-.06-.5-.1-.85l.24.2c0,.08,0,.16.05.21a.35.35,0,0,0,.06.14.91.91,0,0,0,.1.13l.15.16h.9Z"/><path d="M73,150.89H69.86v.44H70a1.6,1.6,0,0,1,.82.22,2.65,2.65,0,0,1,.68.57,3.41,3.41,0,0,1,.46.78,2.29,2.29,0,0,1,.17.84,1.54,1.54,0,0,1-.07.42,1.09,1.09,0,0,1-.19.37,1,1,0,0,1-.3.27.82.82,0,0,1-.42.1.71.71,0,0,1-.28-.06.7.7,0,0,1-.25-.15,1.3,1.3,0,0,1-.18-.23.73.73,0,0,1-.07-.29.67.67,0,0,1,.1-.34.9.9,0,0,1,.24-.27l.17,0H71a.56.56,0,0,1,.33.1,1.46,1.46,0,0,1,.28.21.13.13,0,0,0,0-.06v0a1.46,1.46,0,0,0-.14-.6,1.84,1.84,0,0,0-.38-.5,1.82,1.82,0,0,0-.53-.33,1.34,1.34,0,0,0-.59-.1h-.13V157l-.06,0-.08-.07-.12-.11a4.66,4.66,0,0,0-.43-1,3.94,3.94,0,0,0-.62-.78,3.24,3.24,0,0,0-.82-.54,3.63,3.63,0,0,0-1-.28l-.83-1c.23-.18.48-.37.75-.55s.57-.34.87-.5.6-.3.9-.43.59-.23.87-.32v-.46H65.58l-.6-.6h7.47Zm-3.78,4.42v-3.14c-.21.08-.41.16-.6.25s-.37.18-.54.28-.35.21-.51.32l-.53.35a4.55,4.55,0,0,1,1.25.78A4.4,4.4,0,0,1,69.26,155.31Z"/><path d="M75.45,150.89H74v6.29l-.11-.1-.2-.21-.29-.31v-4.5a2.49,2.49,0,0,0,0-.49,1.11,1.11,0,0,0-.15-.4.62.62,0,0,0-.29-.24.77.77,0,0,0-.44,0l-.49-.6h.4a1.16,1.16,0,0,1,.44.07.9.9,0,0,1,.33.23,1.62,1.62,0,0,1,.25.4,5.71,5.71,0,0,1,.23.61c0-.11,0-.22,0-.33a3.77,3.77,0,0,0-.06-.39c0-.16,0-.35-.08-.58s-.07-.5-.1-.85l.24.2a1,1,0,0,0,0,.21.59.59,0,0,0,.06.14l.1.13.16.16h.9Z"/></g></g></svg>