<svg xmlns="http://www.w3.org/2000/svg" viewBox="0 0 100.47 133.38"><defs><style>.cls-1{fill:#63000a;}.cls-2{fill:silver;}.cls-3{fill:#630106;}.cls-4{stroke:#000;stroke-miterlimit:10;stroke-width:0.3px;}</style></defs><title>vgs_1</title><g id="Layer_2" data-name="Layer 2"><g id="Layer_1-2" data-name="Layer 1"><path class="cls-1" d="M3.24,71.27S39.86,66.39,46.63,80h7.88s4.1-15.2,42.72-11.65V26.66H93V64S63.67,61.31,51,75.85C50.22,75.19,40.89,63,9.6,66.24c0-1.11-.26-36.91-.26-36.91H3.24Z"/><path class="cls-2" d="M76.47,24.77a25.6,25.6,0,0,1-50.95,0H11.19V62.29C26.73,60.51,48,69.94,48,69.94s3.41-.33,4.44-.33c21-9.47,37.44-8.73,37.44-8.73V24.77Z"/><rect class="cls-1" x="48.03" y="47.36" width="5.18" height="23.75"/><path class="cls-3" d="M58.87,38.15c1.47.16,2.9.39,4.29.68a34,34,0,0,0,3.66-5.15Q64,33.17,61,32.86A31,31,0,0,1,58.87,38.15Z"/><path class="cls-3" d="M61.27,31.86c2.08.22,4.11.51,6.06.88a18.27,18.27,0,0,0,2.23-9.2.36.36,0,0,0,0-.1h-7.1A38.5,38.5,0,0,1,61.27,31.86Z"/><path class="cls-3" d="M50.54,15.23h-.86q-3.91,0-7.67-.27a37.05,37.05,0,0,0-1.08,7.37h9.61Z"/><path class="cls-3" d="M62.49,22.33h7.07a24.44,24.44,0,0,0-2.17-8.61q-2.86.51-5.91.86A35.47,35.47,0,0,1,62.49,22.33Z"/><path class="cls-3" d="M58.67,44.67a24.37,24.37,0,0,0,7.63-4c-.8-.23-1.63-.44-2.47-.63A36.8,36.8,0,0,1,58.67,44.67Z"/><path class="cls-3" d="M39.25,41.09c-.67.22-1.32.45-2,.7a24.72,24.72,0,0,0,9,3.63,9.27,9.27,0,0,1-2.55-1.15A25.52,25.52,0,0,1,39.25,41.09Z"/><path class="cls-3" d="M51.59,31.39h.73c2.6,0,5.14.12,7.61.34a31.62,31.62,0,0,0,1.16-8.29h-9.5Z"/><path class="cls-3" d="M50.54,45.66V39a47.58,47.58,0,0,0-6,.75A13.32,13.32,0,0,0,50.54,45.66Z"/><path class="cls-3" d="M34.79,5.87a23.35,23.35,0,0,0-5.16,6.35c1.17.25,2.36.47,3.58.67A32.58,32.58,0,0,1,37.43,6.7C36.52,6.45,35.64,6.17,34.79,5.87Z"/><path class="cls-3" d="M40.82,33.21c-1.92.26-3.79.6-5.58,1a23.92,23.92,0,0,0,4.46,5.7c1-.32,2.06-.6,3.14-.85A29.82,29.82,0,0,1,40.82,33.21Z"/><path class="cls-3" d="M58.64,7a30.78,30.78,0,0,1,2.58,6.54q2.94-.33,5.73-.82a32.24,32.24,0,0,0-4.54-6.82A38.5,38.5,0,0,1,58.64,7Z"/><path class="cls-3" d="M34,34.47c-1.13.27-2.23.56-3.3.88a23.72,23.72,0,0,0,5.61,5.79q1-.44,2.1-.81A25.09,25.09,0,0,1,34,34.47Z"/><path class="cls-3" d="M50.54,14.19V8.13c-.62,0-1.23,0-1.86,0-1.36,0-2.69-.06-4-.18a32.18,32.18,0,0,0-2.38,5.95c2.41.16,4.87.25,7.39.25Z"/><path class="cls-3" d="M68.17,12.53c1.33-.25,2.63-.52,3.89-.83a23.33,23.33,0,0,0-6.43-7.07q-1.11.51-2.28,1A35,35,0,0,1,68.17,12.53Z"/><path class="cls-3" d="M62.39,39.71c-1.32-.25-2.67-.44-4-.58a22.79,22.79,0,0,1-5.4,6.66,24.3,24.3,0,0,0,3.45-.51A48.21,48.21,0,0,0,62.39,39.71Z"/><path class="cls-3" d="M51.59,32.43v5.46c.63,0,1.27,0,1.92,0,1.31,0,2.61.06,3.88.16a29.48,29.48,0,0,0,2.24-5.27q-3.56-.32-7.31-.31Z"/><path class="cls-3" d="M43.31,40c-.94.21-1.85.44-2.74.7A26.8,26.8,0,0,0,47.46,45,14.12,14.12,0,0,1,43.31,40Z"/><path class="cls-3" d="M50.54,7.09V.29A26.42,26.42,0,0,0,45.22,7c1.13.08,2.29.13,3.46.13C49.31,7.13,49.92,7.12,50.54,7.09Z"/><path class="cls-3" d="M56.74,6.39a25.17,25.17,0,0,0-5.15-6V7A44.71,44.71,0,0,0,56.74,6.39Z"/><path class="cls-3" d="M51.59,38.93v6.41A27.47,27.47,0,0,0,56.82,39c-1.09-.07-2.19-.11-3.31-.11C52.86,38.89,52.22,38.91,51.59,38.93Z"/><path class="cls-3" d="M51.59,22.33h9.47a31.34,31.34,0,0,0-.85-7.62c-2.78.28-5.67.45-8.62.5Z"/><path class="cls-3" d="M39.53,23.44H32.05a26.67,26.67,0,0,0,2.69,9.83c1.88-.43,3.84-.78,5.86-1.07A53.59,53.59,0,0,1,39.53,23.44Z"/><path class="cls-3" d="M51.59,14.17q4.29-.08,8.36-.47A28.15,28.15,0,0,0,57.3,7.32a42,42,0,0,1-5.71.75Z"/><path class="cls-3" d="M40.58,14.85c-2.25-.2-4.45-.46-6.57-.79a16.64,16.64,0,0,0-2.07,8.27h7.57A38.05,38.05,0,0,1,40.58,14.85Z"/><path class="cls-3" d="M50.54,23.44H40.93A45.84,45.84,0,0,0,41.85,32a83.4,83.4,0,0,1,8.69-.62Z"/><path class="cls-3" d="M43.08,7.82c-1.44-.19-2.85-.44-4.22-.76a33.45,33.45,0,0,0-4.34,6q3.06.46,6.32.74A34,34,0,0,1,43.08,7.82Z"/><path class="cls-3" d="M58.13,6.11c1.23-.28,2.42-.61,3.58-1A39.8,39.8,0,0,0,56.8.59,24.23,24.23,0,0,0,53.05,0,23.93,23.93,0,0,1,58.13,6.11Z"/><path class="cls-3" d="M50.54,32.45c-2.91.06-5.74.26-8.46.59a27.48,27.48,0,0,0,2,5.74,47.56,47.56,0,0,1,6.48-.84Z"/><path class="cls-3" d="M43.23,1.13a24.55,24.55,0,0,0-7.55,4c.81.26,1.64.5,2.49.71A38.16,38.16,0,0,1,43.23,1.13Z"/><path class="cls-3" d="M39.65,6.2c1.28.27,2.59.48,3.93.64A24.32,24.32,0,0,1,48.94,0a26.6,26.6,0,0,0-2.86.39A55.35,55.35,0,0,0,39.65,6.2Z"/><path class="cls-3" d="M62.64,4.81c.71-.25,1.4-.52,2.08-.81a24.82,24.82,0,0,0-6-2.9A35.77,35.77,0,0,1,62.64,4.81Z"/><path class="cls-3" d="M67.23,39.88a23.37,23.37,0,0,0,4.43-5.15c-1.14-.29-2.32-.56-3.53-.8a29.2,29.2,0,0,1-3.54,5.22C65.49,39.36,66.37,39.61,67.23,39.88Z"/><path class="cls-3" d="M68.6,33c1.24.25,2.44.53,3.61.84A22,22,0,0,0,75.1,23.44H70.88A22,22,0,0,1,68.6,33Z"/><path class="cls-3" d="M32.74,13.85q-1.84-.31-3.6-.69a21.88,21.88,0,0,0-2.26,9.17h3.77A21.28,21.28,0,0,1,32.74,13.85Z"/><path class="cls-3" d="M30.71,23.44H26.88a22.09,22.09,0,0,0,3.29,11c1.09-.34,2.22-.65,3.38-.93A28.84,28.84,0,0,1,30.71,23.44Z"/><path class="cls-3" d="M68.63,13.49a22.16,22.16,0,0,1,2.19,8.84H75.1a21.92,21.92,0,0,0-2.53-9.71C71.3,12.93,70,13.22,68.63,13.49Z"/><path class="cls-3" d="M46.26,45.42a12,12,0,0,0,2.84.43l-.2-.08A25,25,0,0,1,46.26,45.42Z"/><path class="cls-3" d="M49.87,45.84h0s-.29,0-.78,0h1.44Z"/><path class="cls-3" d="M49.88,45.84h0l-1-.07.2.08C49.59,45.86,49.88,45.84,49.88,45.84Z"/><path class="cls-3" d="M50.54,45.86Z"/><path d="M19.51,34.17H17.78l-3.67-8.26H16l2.66,6.4,2.67-6.4h1.86Z"/><rect x="13.72" y="25.77" width="3.22" height="0.35"/><rect x="20.44" y="25.77" width="3.22" height="0.35"/><rect x="17.17" y="33.82" width="2.99" height="0.35"/><path d="M54.06,48.73a4.21,4.21,0,0,0-2.5-.82,3.08,3.08,0,0,0-3.39,3c0,1.35.94,2.75,3.39,2.75A3.69,3.69,0,0,0,53.78,53V51.57H51.26V50.19h4.22v3.46a5.33,5.33,0,0,1-3.92,1.48c-3.7,0-5.2-2-5.2-4.19s1.72-4.45,5.2-4.45a5.72,5.72,0,0,1,3.65,1.26Z"/><rect x="51.02" y="49.98" width="0.46" height="1.94"/><polygon points="54.07 49.03 53.73 48.75 55.04 47.44 55.38 47.71 54.7 48.4 54.07 49.03"/><rect x="54.39" y="49.31" width="0.42" height="2.17" transform="translate(104.99 -4.2) rotate(90)"/><polygon points="53.94 54.63 53.68 54.29 55.48 53.21 55.74 53.55 53.94 54.63"/><path d="M84.51,26.32a2.47,2.47,0,0,0-2-.82c-1.15,0-1.71.43-1.71,1s.85.82,1.84.92C84.4,27.59,86,28,86,29.74s-1.62,2.33-3.46,2.33c-1.68,0-3-.46-3.59-1.8l1.29-.6a2.42,2.42,0,0,0,2.32,1.17c1,0,1.9-.31,1.9-1.1s-.81-1-1.91-1.08c-1.68-.18-3.24-.58-3.24-2.22s1.68-2.13,3.2-2.14a3.47,3.47,0,0,1,3.24,1.46Z"/><polygon points="79 30.57 78.72 30.22 80.17 29.34 80.44 29.68 79.69 30.15 79 30.57"/><polygon points="84.5 26.55 84.23 26.21 85.58 25.39 85.85 25.74 85.15 26.16 84.5 26.55"/><path class="cls-4" d="M2.89,102.55a.4.4,0,0,0,0,.15c0,.08.07.16.11.25l.12.27c0,.08.06.14.08.17H5l.92.92H3.56v9.35l-.47-.45-.32-.31-.13-.14v-8.45H1.28l-.92-.92H2.73a2.6,2.6,0,0,0-.29-.28c-.1-.1-.21-.2-.3-.31a2,2,0,0,1-.25-.34.65.65,0,0,1-.1-.36,1.85,1.85,0,0,1,.16-.76,2.92,2.92,0,0,1,.44-.7A3.65,3.65,0,0,1,3,100a6,6,0,0,1,.75-.48,4.13,4.13,0,0,1,.8-.31,2.52,2.52,0,0,1,.75-.11,5.67,5.67,0,0,1,1.54.21,7.44,7.44,0,0,1,1.44.57,8.61,8.61,0,0,1,1.3.86,11.38,11.38,0,0,1,1.16,1l.2.6a13.29,13.29,0,0,0-2.11-1.46,7.17,7.17,0,0,0-1.75-.69,3.63,3.63,0,0,0-1.4-.1,3.42,3.42,0,0,0-1.08.32,2.63,2.63,0,0,0-.8.57,4.27,4.27,0,0,0-.54.64,2.85,2.85,0,0,0-.3.56A1.31,1.31,0,0,0,2.89,102.55Z"/><path class="cls-4" d="M15.6,104.31H4.86l-.93-.92H14.64Zm-1.42,4a4.42,4.42,0,0,1-.26,1.5,3.71,3.71,0,0,1-.72,1.27,3.53,3.53,0,0,1-1.14.87,3.44,3.44,0,0,1-1.5.32A3.44,3.44,0,0,1,9,112,4.37,4.37,0,0,1,7.77,111a6.06,6.06,0,0,1-1-1.31,13.55,13.55,0,0,1-.75-1.53c-.22-.52-.41-1-.58-1.57L5,105.17l.6.18c.11.4.25.81.41,1.23a10.78,10.78,0,0,0,.58,1.24A8.52,8.52,0,0,0,7.36,109a5.13,5.13,0,0,0,.92.94,4.19,4.19,0,0,0,1.13.63,3.52,3.52,0,0,0,1.32.24,2.26,2.26,0,0,0,.9-.2,2.72,2.72,0,0,0,.82-.52,3,3,0,0,0,.6-.76,1.94,1.94,0,0,0,.23-.9,2.67,2.67,0,0,0,0-.32,3.43,3.43,0,0,0-.09-.44,1.76,1.76,0,0,0-.16-.39.28.28,0,0,0-.24-.17,1.72,1.72,0,0,0-.27.27l-.25.29a1.71,1.71,0,0,1-.48.4,2.6,2.6,0,0,1-.61.28,5.28,5.28,0,0,1-.66.16,3.5,3.5,0,0,1-.62.06,2.3,2.3,0,0,1-.79-.14,1.9,1.9,0,0,1-.67-.37,1.78,1.78,0,0,1-.46-.59,1.86,1.86,0,0,1-.17-.79,1.44,1.44,0,0,1,.39-1.06,1.42,1.42,0,0,1,1.05-.39,1.4,1.4,0,0,1,.47.08,1.07,1.07,0,0,1,.39.22,1.09,1.09,0,0,1,.23,1.3,2.72,2.72,0,0,1-.27.44l.05,0a.82.82,0,0,0,.36-.1,2.82,2.82,0,0,0,.4-.27,4.72,4.72,0,0,0,.41-.37c.14-.14.26-.29.38-.43a4.65,4.65,0,0,0,.29-.43,1.3,1.3,0,0,0,.18-.35l.06,0a4,4,0,0,1,1,.72,3.91,3.91,0,0,1,.62.85,3.12,3.12,0,0,1,.33.83A2.59,2.59,0,0,1,14.18,108.33Z"/><path class="cls-4" d="M25.23,104.31H23v9.44l-.17-.14c-.11-.09-.22-.2-.34-.32l-.49-.47.07-5.76a1,1,0,0,0-.08-.37,2.73,2.73,0,0,0-.21-.47c-.09-.16-.2-.33-.31-.49a3.82,3.82,0,0,0-.37-.42,1.88,1.88,0,0,0-.4-.31.7.7,0,0,0-.37-.12.89.89,0,0,0-.3.06,1.09,1.09,0,0,0-.33.15,1.1,1.1,0,0,0-.25.23.45.45,0,0,0-.11.28l.47.35a3.47,3.47,0,0,1,.45.41,2.25,2.25,0,0,1,.34.47,1.22,1.22,0,0,1,.13.57,1.27,1.27,0,0,1-.28.91,1.19,1.19,0,0,1-.9.3,1.27,1.27,0,0,1-.44-.07,1.36,1.36,0,0,1-.37-.21,1.88,1.88,0,0,1-.32-.31c-.09-.12-.18-.24-.26-.37a1.29,1.29,0,0,1-.24.4,1.93,1.93,0,0,1-.35.35,1.76,1.76,0,0,1-.42.24,1.09,1.09,0,0,1-.46.1.92.92,0,0,1-.48-.12,1,1,0,0,1-.35-.31,1.58,1.58,0,0,1-.3-.91,1.31,1.31,0,0,1,.16-.58,3.33,3.33,0,0,1,.39-.64,3.2,3.2,0,0,1,.52-.52,1.1,1.1,0,0,1,.51-.25,2,2,0,0,0-.42-.7,1.25,1.25,0,0,0-.55-.33,2.8,2.8,0,0,0-.67-.08h-.82l-.15-.14-.31-.32c-.11-.12-.21-.23-.31-.32a.74.74,0,0,1-.14-.16h1.89a1.89,1.89,0,0,1,.69.14,2.52,2.52,0,0,1,.63.38,2.29,2.29,0,0,1,.48.55,1.88,1.88,0,0,1,.28.67,3.38,3.38,0,0,1,.36-.63,3.58,3.58,0,0,1,.53-.57,2.47,2.47,0,0,1,.64-.4,1.64,1.64,0,0,1,.72-.16.67.67,0,0,1,.39.18,3.4,3.4,0,0,1,.49.46c.16.19.33.39.5.62s.32.45.46.67.26.41.36.59a1.62,1.62,0,0,1,.18.42c0-.39-.07-.77-.1-1.13s-.06-.71-.09-1.06l-.06-1.06c0-.36,0-.74,0-1.13a2.89,2.89,0,0,1,.58.56.47.47,0,0,1,.11.26c0,.1,0,.2.07.3a.49.49,0,0,0,.14.24.62.62,0,0,0,.38.1h.8Z"/><path class="cls-4" d="M33.26,104.31h-2v9.62l-.35-.46s0-.08,0-.12v-.14a5.24,5.24,0,0,0-.11-1,9.34,9.34,0,0,0-.32-1.23A10.25,10.25,0,0,0,30,109.7a6.12,6.12,0,0,0-.69-1.11,3.57,3.57,0,0,0-.87-.79,1.86,1.86,0,0,0-1-.3h-.13a.16.16,0,0,0-.11,0c.09.12.16.23.24.33l.19.32a2.84,2.84,0,0,1,.13.35,1.7,1.7,0,0,1,.05.41,1.26,1.26,0,0,1-.1.49,1.06,1.06,0,0,1-.27.35A1.32,1.32,0,0,1,27,110a1.57,1.57,0,0,1-.49.07,1.55,1.55,0,0,1-1.75-1.75,2,2,0,0,1,.18-.86,2.07,2.07,0,0,1,.48-.65,2.19,2.19,0,0,1,.72-.43,2.47,2.47,0,0,1,2,.13,4,4,0,0,1,.92.71,5.78,5.78,0,0,1,.73,1c.21.36.39.7.55,1v-4.92H24l-.91-.92h9.2Z"/><path class="cls-4" d="M42.4,104.31a3.6,3.6,0,0,0-1.16.3,3.91,3.91,0,0,0-1,.62,5,5,0,0,0-.76.88,5.51,5.51,0,0,0-.56,1,5.74,5.74,0,0,0-.34,1.14,5.86,5.86,0,0,0-.12,1.16,5.6,5.6,0,0,0,0,.69,4.73,4.73,0,0,0,.15.73,3.22,3.22,0,0,0,.28.69,2.49,2.49,0,0,0,.41.59,2,2,0,0,0,.55.4,1.57,1.57,0,0,0,.7.15l0,0a.85.85,0,0,1-.19-.14,1.24,1.24,0,0,1-.18-.21,1,1,0,0,1-.12-.23.68.68,0,0,1,0-.23,1.32,1.32,0,0,1,.1-.57.8.8,0,0,1,.27-.33,1.1,1.1,0,0,1,.43-.16,4.39,4.39,0,0,1,.54,0,.57.57,0,0,1,.33.11,1.34,1.34,0,0,1,.47.64.93.93,0,0,1,.08.34,1.6,1.6,0,0,1-.13.62,1.75,1.75,0,0,1-.34.51,1.72,1.72,0,0,1-.51.33,1.68,1.68,0,0,1-.63.12,2.32,2.32,0,0,1-1-.2,2.81,2.81,0,0,1-.8-.56,3,3,0,0,1-.6-.81,5.82,5.82,0,0,1-.42-1,6.32,6.32,0,0,1-.25-1,6.79,6.79,0,0,1-.08-1c0-.32,0-.62,0-.93a4.8,4.8,0,0,1,.21-1,6.79,6.79,0,0,1,.41-1,6.47,6.47,0,0,1,.58-1,5.46,5.46,0,0,1,.75-.83,3.54,3.54,0,0,1,.89-.57,2.46,2.46,0,0,1,1-.21Z"/><path class="cls-4" d="M51.49,104.31h-2v9.63s0-.06-.11-.17a4.93,4.93,0,0,0-.33-.38l-.51-.55,0-5a2.83,2.83,0,0,0-.09-.68,3.39,3.39,0,0,0-.27-.73,5.09,5.09,0,0,0-.42-.71,3.77,3.77,0,0,0-.53-.59,2.47,2.47,0,0,0-.62-.41,1.68,1.68,0,0,0-.69-.15,2.11,2.11,0,0,0-2.1,1.37,2.09,2.09,0,0,1,.49-.13,4.19,4.19,0,0,1,.5,0,2.72,2.72,0,0,1,.72.1,1.68,1.68,0,0,1,.58.3,1.54,1.54,0,0,1,.4.51,1.81,1.81,0,0,1,.14.72,1.84,1.84,0,0,1-.18.77,5.62,5.62,0,0,1-.44.79,8.27,8.27,0,0,1-.56.73c-.2.23-.37.43-.53.6l-1.06-1.2.27-.26c.12-.12.26-.24.4-.39L45,108c.15-.16.28-.32.4-.46s.22-.29.3-.41a.56.56,0,0,0,.12-.28.35.35,0,0,0-.15-.32.69.69,0,0,0-.36-.09.91.91,0,0,0-.37.12l-.5.27-.52.26a1,1,0,0,1-.41.12.69.69,0,0,1-.41-.13,1.42,1.42,0,0,1-.33-.32,2.1,2.1,0,0,1-.22-.42,1.46,1.46,0,0,1-.08-.43,2.19,2.19,0,0,1,.23-1,2.54,2.54,0,0,1,.61-.77,2.74,2.74,0,0,1,.85-.49,2.8,2.8,0,0,1,1-.18,6.54,6.54,0,0,1,1.17.1,3.17,3.17,0,0,1,.87.3,2.5,2.5,0,0,1,.63.48,3.76,3.76,0,0,1,.46.67,6.66,6.66,0,0,1,.37.88c.11.32.22.68.34,1.06,0-.45,0-.89-.08-1.31s0-.85-.08-1.27,0-.85-.07-1.27,0-.87,0-1.32l.55.54a.6.6,0,0,0-.06.27,1.05,1.05,0,0,0,.09.51.37.37,0,0,0,.24.2,1.19,1.19,0,0,0,.39,0,4.5,4.5,0,0,1,.51,0h.12Z"/><path class="cls-4" d="M49.49,114.45l-.24-.13-.22-.15a.37.37,0,0,0,0-.18l-.12-.32c0-.1-.09-.2-.14-.31a.9.9,0,0,0-.21-.27,1.07,1.07,0,0,0-.35-.2,1.84,1.84,0,0,0-.56,0,.7.7,0,0,0-.24.06.33.33,0,0,0-.11.15.65.65,0,0,0,0,.21c0,.08,0,.17,0,.26a1,1,0,0,0,0,.24c0,.09,0,.17.05.25l-.55-.05a1.7,1.7,0,0,0-.08-.55,1.34,1.34,0,0,0-.25-.49,1.53,1.53,0,0,0-.43-.36,1.56,1.56,0,0,0-.61-.16,1.39,1.39,0,0,0-.44,0,2,2,0,0,0-.43.17,1.52,1.52,0,0,0-.33.28.64.64,0,0,0-.15.36,1.08,1.08,0,0,0,0,.41.8.8,0,0,0,.16.32.76.76,0,0,0,.23.21.82.82,0,0,0,.26.1,1,1,0,0,1-.16-.28.7.7,0,0,1-.07-.31.73.73,0,0,1,.25-.57.87.87,0,0,1,.6-.22.77.77,0,0,1,.39.11,1.07,1.07,0,0,1,.28.28,1,1,0,0,1,.14.39,1,1,0,0,1,0,.43,1.24,1.24,0,0,1-.37.64.76.76,0,0,1-.61.22,3.26,3.26,0,0,1-.61-.07,1.42,1.42,0,0,1-.58-.25,1.54,1.54,0,0,1-.43-.53,2,2,0,0,1-.17-.88,1.5,1.5,0,0,1,.1-.53,1.68,1.68,0,0,1,.31-.53,1.66,1.66,0,0,1,.52-.42,1.53,1.53,0,0,1,.72-.16,2.91,2.91,0,0,1,.57.06,2.66,2.66,0,0,1,.58.21,2,2,0,0,1,.47.32.85.85,0,0,1,.25.45.79.79,0,0,1,.06-.29,1.17,1.17,0,0,1,.14-.3,1.26,1.26,0,0,1,.24-.22.56.56,0,0,1,.32-.07,1.9,1.9,0,0,1,.71.18.9.9,0,0,1,.43.57v-3.33h.74Z"/><path class="cls-4" d="M55.15,104.31H52.88V114a.83.83,0,0,1-.16-.14l-.32-.33L52,113v-6.92a3.7,3.7,0,0,0-.07-.76,1.6,1.6,0,0,0-.23-.6,1,1,0,0,0-.43-.38,1.28,1.28,0,0,0-.69-.06l-.75-.92h.61a1.78,1.78,0,0,1,.69.11,1.24,1.24,0,0,1,.49.34,2.2,2.2,0,0,1,.39.62,8.54,8.54,0,0,1,.36.94,4.07,4.07,0,0,0,0-.5c0-.17,0-.37-.09-.61s-.08-.53-.13-.88-.1-.78-.16-1.31l.37.3a2.09,2.09,0,0,0,.07.33.67.67,0,0,0,.09.21,1.27,1.27,0,0,0,.16.2l.23.25h1.39Z"/><path class="cls-4" d="M63.09,104.31h-2V114a.36.36,0,0,0-.13-.12l-.12,0-.12,0a.33.33,0,0,1-.11-.12.6.6,0,0,1-.09-.24c0-.1-.05-.21-.07-.34s-.05-.25-.09-.38a2,2,0,0,0-.13-.39,4.37,4.37,0,0,0-.4-.71,4.51,4.51,0,0,0-.48-.57,4.13,4.13,0,0,0-.55-.47c-.19-.14-.4-.27-.61-.4a6,6,0,0,0-1.13-.51,4.74,4.74,0,0,0-1.2-.25l-1.18-1.67a22.6,22.6,0,0,1,2.64-1.63,17.4,17.4,0,0,1,2.84-1.2v-.62H54.23l-.89-.92h8.85Zm-2.92,7v-4.85a12.31,12.31,0,0,0-1.82.81c-.58.32-1.16.66-1.72,1a8.77,8.77,0,0,1,2,1.22A6.55,6.55,0,0,1,60.17,111.26Z"/><path class="cls-4" d="M66.77,104.31H64.49V114l-.16-.14-.31-.33-.44-.48v-6.92a4.56,4.56,0,0,0-.07-.76,1.79,1.79,0,0,0-.23-.6,1.08,1.08,0,0,0-.44-.38,1.26,1.26,0,0,0-.69-.06l-.75-.92H62a1.7,1.7,0,0,1,.68.11,1.28,1.28,0,0,1,.5.34,2.76,2.76,0,0,1,.39.62,8.54,8.54,0,0,1,.36.94,4,4,0,0,0,0-.5c0-.17,0-.37-.09-.61s-.08-.53-.13-.88-.1-.78-.15-1.31l.37.3q0,.19.06.33a1,1,0,0,0,.1.21l.15.2.24.25h1.39Z"/><path class="cls-4" d="M75.94,104.31h-2v9.45l-.39-.37-.3-.3-.23-.22v-5.11a.94.94,0,0,0-.11-.42,1.46,1.46,0,0,0-.27-.38,1.29,1.29,0,0,0-.38-.28.86.86,0,0,0-.43-.11.67.67,0,0,0-.57.25.92.92,0,0,0-.2.6,1.75,1.75,0,0,0,0,.32l.06.31-.39.15a1.59,1.59,0,0,0-.26-.63,2.52,2.52,0,0,0-.47-.51,2.33,2.33,0,0,0-.62-.34,2.3,2.3,0,0,0-.66-.17,2.53,2.53,0,0,0-.68,0,1.65,1.65,0,0,0-.56.23,1.3,1.3,0,0,0-.41.4,1.56,1.56,0,0,0-.22.58,1.33,1.33,0,0,0,.1.86,1,1,0,0,0,.75.45,1.85,1.85,0,0,1-.21-.33.85.85,0,0,1-.07-.39,1.3,1.3,0,0,1,.09-.4.9.9,0,0,1,.23-.32,1.07,1.07,0,0,1,.73-.27.81.81,0,0,1,.49.15,1.3,1.3,0,0,1,.37.37,1.84,1.84,0,0,1,.23.49,1.92,1.92,0,0,1,.08.51.78.78,0,0,1-.14.46,1.34,1.34,0,0,1-.35.32,2,2,0,0,1-.94.29,2.41,2.41,0,0,1-1.08-.16,1.75,1.75,0,0,1-.71-.54,2,2,0,0,1-.38-.84,3.7,3.7,0,0,1-.06-1.07,2.71,2.71,0,0,1,.2-.85,2.18,2.18,0,0,1,.46-.7,2.14,2.14,0,0,1,1.59-.64,2.31,2.31,0,0,1,.61.08,1.9,1.9,0,0,1,.52.24,2.21,2.21,0,0,1,.45.37,4.55,4.55,0,0,1,.4.46.68.68,0,0,1,.11-.36,1.59,1.59,0,0,1,.29-.35,1.93,1.93,0,0,1,.36-.28.78.78,0,0,1,.36-.11,1.18,1.18,0,0,1,.58.16,1.91,1.91,0,0,1,.47.39,3.3,3.3,0,0,1,.36.51,3.68,3.68,0,0,1,.24.55v-2.53H65.85l-.48-.47-.33-.31c-.09-.1-.14-.15-.14-.14H75s0,0,.15.13l.33.32Z"/><path class="cls-4" d="M88.58,104.31H86.87v3.93h-.15l-.32,0-.46,0V107a1,1,0,0,0-.08-.36,1.69,1.69,0,0,0-.23-.36,1.27,1.27,0,0,0-.3-.27.51.51,0,0,0-.33-.08,1.65,1.65,0,0,0-.61.17,1.09,1.09,0,0,0-.34.29,1.24,1.24,0,0,0-.18.34,1.48,1.48,0,0,1-.15.31l-.18.22a2.86,2.86,0,0,1-.3.32,2.5,2.5,0,0,1-.41.29,1,1,0,0,1-.47.12.83.83,0,0,1-.59-.23,2.29,2.29,0,0,1-.42-.54,3.27,3.27,0,0,1-.26-.62,2.43,2.43,0,0,1-.1-.46l.6-.58a1.15,1.15,0,0,0,.09.34,3.17,3.17,0,0,0,.21.41,1.54,1.54,0,0,0,.28.34.42.42,0,0,0,.3.14.79.79,0,0,0,.32-.06.6.6,0,0,0,.22-.16.63.63,0,0,0,.13-.2.46.46,0,0,0,0-.21,1.21,1.21,0,0,0-.14-.75.8.8,0,0,0-.45-.31A2.13,2.13,0,0,0,82,105a4.58,4.58,0,0,1-.74,0,2.67,2.67,0,0,1-.69-.16,1.13,1.13,0,0,1-.54-.5,4.09,4.09,0,0,1-.48-.29l-.48-.3-.54-.34h9.18Zm-2.64,1.78v-1.78H82.7l.38.22a2.31,2.31,0,0,1,.36.25,1.83,1.83,0,0,1,.3.32,1.49,1.49,0,0,1,.21.44.36.36,0,0,1,.07-.22.66.66,0,0,1,.19-.18.75.75,0,0,1,.25-.13.85.85,0,0,1,.26-.05.7.7,0,0,1,.42.12,1.36,1.36,0,0,1,.31.28,2.25,2.25,0,0,1,.24.36A3.41,3.41,0,0,0,85.94,106.09Z"/><path class="cls-4" d="M87.19,106.83l.19,0,.22.07.22.09.18.07a4.91,4.91,0,0,1,.82.44,3.22,3.22,0,0,1,.63.59A2.71,2.71,0,0,1,90,109.8a1.76,1.76,0,0,1-.09.55,1.73,1.73,0,0,1-.25.51,1.52,1.52,0,0,1-.39.37,1.1,1.1,0,0,1-.55.14.7.7,0,0,1-.31-.07.87.87,0,0,1-.26-.18.78.78,0,0,1-.17-.26.71.71,0,0,1-.07-.32.8.8,0,0,1,.87-.86.58.58,0,0,1,.26.06,1.38,1.38,0,0,1,.24.14.22.22,0,0,0,0-.11s0-.08,0-.11a1.21,1.21,0,0,0-.18-.63,2.13,2.13,0,0,0-.44-.51,2.25,2.25,0,0,0-.6-.35,1.85,1.85,0,0,0-.64-.12h-.16l-.15,0v6l-.43-.4a11.78,11.78,0,0,0-.62-1.32,3.18,3.18,0,0,0-.74-.94,2.78,2.78,0,0,0-1-.56,4.84,4.84,0,0,0-1.48-.19L82,109.34a21.14,21.14,0,0,1,1.87-1.26q.93-.57,2-1.11l.69-.1C86.73,106.85,87,106.83,87.19,106.83Zm-.93,4.65v-3.43a3,3,0,0,0-.69.26,6,6,0,0,0-.6.37,5.56,5.56,0,0,0-.54.42l-.52.44a6.8,6.8,0,0,1,.66.41c.19.14.38.28.56.44s.37.32.55.5Zm2.07-7.17-.89-.92h3.3l.91.92Z"/><path class="cls-4" d="M88.61,117.67a8.27,8.27,0,0,0-.54-.82c-.21-.26-.43-.52-.66-.76a6.88,6.88,0,0,0-.77-.66,5.79,5.79,0,0,0-.82-.54,5.41,5.41,0,0,1-.36.5,2.18,2.18,0,0,1-.4.35,1.63,1.63,0,0,1-.49.2A2.27,2.27,0,0,1,84,116a2.15,2.15,0,0,1-.55-.08,1.67,1.67,0,0,1-.5-.25,1.32,1.32,0,0,1-.38-.4,1,1,0,0,1-.14-.54,1.26,1.26,0,0,1,.15-.62,1.77,1.77,0,0,1,.4-.46,1.81,1.81,0,0,1,.55-.29,2.31,2.31,0,0,1,.64-.1,1.6,1.6,0,0,1,.41.07l.4.14.33.15.15.07s0,0,.07,0,0-.07,0-.12,0-.08,0-.12v-.08a2.19,2.19,0,0,0,0-.36c0-.12,0-.24,0-.36a1.09,1.09,0,0,0,0-.17,1.22,1.22,0,0,1,0-.17,1.18,1.18,0,0,1,.42.55,2.26,2.26,0,0,1,.11.69,5.78,5.78,0,0,0,0,.58c.27.18.56.38.87.62a6,6,0,0,1,.82.77,4.14,4.14,0,0,1,.61.91,2.33,2.33,0,0,1,.25,1A1,1,0,0,1,88.61,117.67ZM84,114.06a1,1,0,0,0-.28,0,.68.68,0,0,0-.26.12.61.61,0,0,0-.19.2.5.5,0,0,0-.08.27.35.35,0,0,0,.15.32.6.6,0,0,0,.35.1,1.29,1.29,0,0,0,.33-.06,3.16,3.16,0,0,0,.43-.16,2,2,0,0,0,.36-.23.39.39,0,0,0,.16-.27.2.2,0,0,0-.13-.17,1.24,1.24,0,0,0-.29-.1l-.33-.05Z"/><path class="cls-4" d="M100.1,104.31h-2v9.45l-.39-.37-.3-.3-.23-.22v-5.11a.94.94,0,0,0-.11-.42,1.46,1.46,0,0,0-.27-.38,1.29,1.29,0,0,0-.38-.28.86.86,0,0,0-.43-.11.67.67,0,0,0-.57.25.92.92,0,0,0-.2.6,1.17,1.17,0,0,0,0,.32,2.87,2.87,0,0,1,0,.31l-.38.15a1.75,1.75,0,0,0-.26-.63,2.52,2.52,0,0,0-.47-.51,2.33,2.33,0,0,0-.62-.34,2.3,2.3,0,0,0-.66-.17,2.53,2.53,0,0,0-.68,0,1.65,1.65,0,0,0-.56.23,1.3,1.3,0,0,0-.41.4,1.56,1.56,0,0,0-.22.58,1.27,1.27,0,0,0,.1.86,1,1,0,0,0,.75.45,1.42,1.42,0,0,1-.21-.33.85.85,0,0,1-.07-.39,1.3,1.3,0,0,1,.09-.4,1,1,0,0,1,.22-.32,1.27,1.27,0,0,1,.34-.2,1.05,1.05,0,0,1,.4-.07.84.84,0,0,1,.49.15,1.45,1.45,0,0,1,.37.37,1.56,1.56,0,0,1,.22.49,1.61,1.61,0,0,1,.09.51.78.78,0,0,1-.14.46,1.34,1.34,0,0,1-.35.32,2,2,0,0,1-.94.29,2.41,2.41,0,0,1-1.08-.16,1.75,1.75,0,0,1-.71-.54,2,2,0,0,1-.38-.84,3.7,3.7,0,0,1-.06-1.07,2.71,2.71,0,0,1,.2-.85,2.18,2.18,0,0,1,.46-.7,2.14,2.14,0,0,1,1.59-.64,2.31,2.31,0,0,1,.61.08,1.9,1.9,0,0,1,.52.24,2.21,2.21,0,0,1,.45.37,3.5,3.5,0,0,1,.39.46.7.7,0,0,1,.12-.36,1.87,1.87,0,0,1,.28-.35,2.4,2.4,0,0,1,.37-.28.78.78,0,0,1,.36-.11,1.18,1.18,0,0,1,.58.16,1.91,1.91,0,0,1,.47.39,3.3,3.3,0,0,1,.36.51,3.68,3.68,0,0,1,.24.55v-2.53H90l-.48-.47-.33-.31c-.09-.1-.14-.15-.14-.14H99.14s0,0,.15.13l.33.32Z"/><path d="M29.58,125l.18.32.27.5.31.58.28.61c.09.2.16.39.22.56a1.59,1.59,0,0,1,.08.43.66.66,0,0,1-.06.27.87.87,0,0,1-.16.23,1.26,1.26,0,0,1-.2.2,2.39,2.39,0,0,1-.22.16,1.33,1.33,0,0,1,.19.42,1.43,1.43,0,0,1,.07.46,1.4,1.4,0,0,1-.12.6,1.12,1.12,0,0,1-.32.42,1.38,1.38,0,0,1-.48.25,1.87,1.87,0,0,1-.59.08l-.43,0a1.15,1.15,0,0,1-.33-.1,2.1,2.1,0,0,1-.3-.15l-.36-.23a3.48,3.48,0,0,1-.69-.59,5.36,5.36,0,0,1-.55-.77,6.57,6.57,0,0,1-.44-.88c-.12-.31-.23-.62-.32-.94s-.17-.63-.23-.94a7.72,7.72,0,0,1-.15-.88l.43.28c.05.27.11.54.18.82a8.29,8.29,0,0,0,.25.85,6.2,6.2,0,0,0,.36.79A3,3,0,0,0,27,129l.45.42a3.07,3.07,0,0,0,.51.38,3,3,0,0,0,.57.27,2.11,2.11,0,0,0,.61.1l.32,0a1.35,1.35,0,0,0,.34-.11,1.05,1.05,0,0,0,.27-.2.49.49,0,0,0,.1-.32v-.11s0-.08,0-.12a1.13,1.13,0,0,1-.21.12.6.6,0,0,1-.24.05.8.8,0,0,1-.3-.06.82.82,0,0,1-.25-.16.81.81,0,0,1-.17-.24.82.82,0,0,1-.07-.31.75.75,0,0,1,.05-.26.83.83,0,0,1,.14-.22.69.69,0,0,1,.22-.16.55.55,0,0,1,.26-.06.69.69,0,0,1,.24,0,1,1,0,0,1,.24.11h.1a1.27,1.27,0,0,0,.2-.16.31.31,0,0,0,.11-.22,1.3,1.3,0,0,0-.06-.32c-.05-.15-.1-.3-.16-.45s-.14-.29-.21-.41-.15-.18-.21-.19l-.62,1a2.5,2.5,0,0,0-.12-.47,2.73,2.73,0,0,0-.25-.48,1.71,1.71,0,0,0-.35-.36.83.83,0,0,0-.46-.14.93.93,0,0,0-.49.14,1.37,1.37,0,0,0-.38.34l.22-.07a.78.78,0,0,1,.22,0,1.05,1.05,0,0,1,.33.06,1,1,0,0,1,.56.42.57.57,0,0,1,.09.32.89.89,0,0,1-.11.39,3.87,3.87,0,0,1-.27.43c-.11.14-.22.27-.34.4l-.31.3-.75-.64.14-.1.22-.17a2.47,2.47,0,0,0,.27-.21l.24-.21a1.7,1.7,0,0,0,.19-.2.25.25,0,0,0,.07-.15.08.08,0,0,0-.06-.09l-.12,0a1.18,1.18,0,0,0-.25,0l-.25.06L27,127a1,1,0,0,1-.24,0,.43.43,0,0,1-.36-.13.58.58,0,0,1-.1-.37.93.93,0,0,1,.13-.47,1.94,1.94,0,0,1,.77-.77,1.08,1.08,0,0,1,.48-.13,1.37,1.37,0,0,1,.49.09,1.76,1.76,0,0,1,.42.24,1.64,1.64,0,0,1,.32.37,1.82,1.82,0,0,1,.2.45Z"/><path d="M37.69,125.58h-1.3v6.15l-.26-.25-.2-.19-.14-.15v-3.32a.68.68,0,0,0-.07-.27,1.44,1.44,0,0,0-.18-.25,1.14,1.14,0,0,0-.25-.18.55.55,0,0,0-.28-.07.44.44,0,0,0-.37.16.65.65,0,0,0-.12.4.71.71,0,0,0,0,.2,1.42,1.42,0,0,0,0,.2l-.26.1a1,1,0,0,0-.16-.41,1.62,1.62,0,0,0-.31-.33,1.56,1.56,0,0,0-.4-.22A1.36,1.36,0,0,0,33,127a1.27,1.27,0,0,0-.44,0,1.35,1.35,0,0,0-.37.14.87.87,0,0,0-.27.27,1.07,1.07,0,0,0-.14.38.87.87,0,0,0,.07.56.62.62,0,0,0,.48.29,1,1,0,0,1-.13-.22.53.53,0,0,1,0-.25,1,1,0,0,1,.06-.26.8.8,0,0,1,.15-.21.57.57,0,0,1,.21-.13.81.81,0,0,1,.27,0,.48.48,0,0,1,.31.1.69.69,0,0,1,.24.24.94.94,0,0,1,.15.32,1,1,0,0,1,0,.33.51.51,0,0,1-.09.3.78.78,0,0,1-.23.21,1,1,0,0,1-.3.14,1.17,1.17,0,0,1-.3.05,1.5,1.5,0,0,1-.7-.11,1,1,0,0,1-.47-.35,1.33,1.33,0,0,1-.24-.54,2.28,2.28,0,0,1,0-.7,1.48,1.48,0,0,1,.13-.55,1.51,1.51,0,0,1,.29-.45,1.38,1.38,0,0,1,1-.42,1.29,1.29,0,0,1,.4,0,2.07,2.07,0,0,1,.34.15,2.17,2.17,0,0,1,.29.24,2.6,2.6,0,0,1,.25.31.52.52,0,0,1,.08-.24,1.3,1.3,0,0,1,.18-.23,1.88,1.88,0,0,1,.24-.18.64.64,0,0,1,.24-.07.79.79,0,0,1,.37.1,1.48,1.48,0,0,1,.31.25,2.54,2.54,0,0,1,.23.34,1.89,1.89,0,0,1,.16.36v-1.65H31.13l-.31-.3c-.08-.08-.15-.14-.21-.21l-.1-.09h6.56l.1.09.21.21Z"/><path d="M44,125.58H42.49v6.14l-.12-.09-.22-.21-.32-.3.05-3.75a.86.86,0,0,0-.05-.24,2.73,2.73,0,0,0-.14-.31l-.2-.31a2.32,2.32,0,0,0-.24-.28A1.51,1.51,0,0,0,41,126a.46.46,0,0,0-.24-.08.88.88,0,0,0-.2,0,1,1,0,0,0-.21.1.61.61,0,0,0-.17.15.3.3,0,0,0-.06.18l.3.23a2.43,2.43,0,0,1,.29.26,1.6,1.6,0,0,1,.22.31.78.78,0,0,1,.09.37.81.81,0,0,1-.19.59.75.75,0,0,1-.58.2.82.82,0,0,1-.28,0,.89.89,0,0,1-.25-.14,1,1,0,0,1-.2-.2l-.17-.24a1,1,0,0,1-.16.26,1,1,0,0,1-.23.23.92.92,0,0,1-.27.16.8.8,0,0,1-.3.06.62.62,0,0,1-.31-.07.77.77,0,0,1-.23-.21.82.82,0,0,1-.14-.28.84.84,0,0,1-.05-.31.86.86,0,0,1,.1-.38,2,2,0,0,1,.26-.41,2.13,2.13,0,0,1,.33-.34.62.62,0,0,1,.34-.16,1.59,1.59,0,0,0-.28-.46.88.88,0,0,0-.36-.21,1.24,1.24,0,0,0-.44,0h-.53l-.09-.09a2,2,0,0,1-.2-.21l-.21-.21-.09-.1h1.23a1.2,1.2,0,0,1,.45.09,1.87,1.87,0,0,1,.41.25,1.34,1.34,0,0,1,.31.36,1.16,1.16,0,0,1,.18.43,2.55,2.55,0,0,1,.24-.41,1.67,1.67,0,0,1,.34-.36,1.88,1.88,0,0,1,.42-.27,1.07,1.07,0,0,1,.47-.1.43.43,0,0,1,.25.12,1.73,1.73,0,0,1,.32.3,3.3,3.3,0,0,1,.32.4c.11.15.21.29.3.43a4.35,4.35,0,0,1,.23.39,1.52,1.52,0,0,1,.13.27l-.07-.73-.06-.69c0-.23,0-.46,0-.69s0-.48,0-.74l.2.17.18.19a.36.36,0,0,1,.07.17,1.18,1.18,0,0,0,0,.2.39.39,0,0,0,.1.16.37.37,0,0,0,.24.06h.52Z"/><path d="M46.17,125.58H44.69v6.29l-.1-.1-.21-.21-.28-.31v-4.5a2.46,2.46,0,0,0-.05-.49,1.13,1.13,0,0,0-.15-.39.68.68,0,0,0-.28-.25.91.91,0,0,0-.45,0l-.49-.6h.4a1.18,1.18,0,0,1,.45.07.79.79,0,0,1,.32.23,1.85,1.85,0,0,1,.26.4c.07.17.15.37.23.61,0-.11,0-.22,0-.33s0-.24-.06-.39-.06-.35-.09-.57-.06-.51-.1-.86l.24.2c0,.09,0,.16,0,.21a.61.61,0,0,0,.07.14.5.5,0,0,0,.1.13l.15.16h.9Z"/><path d="M51.58,125.58H50.27v6.26l-.23-.3a.19.19,0,0,1,0-.08v-.09a3.55,3.55,0,0,0-.07-.67,6.79,6.79,0,0,0-.21-.8,5.73,5.73,0,0,0-.33-.81,4.08,4.08,0,0,0-.45-.73,2.27,2.27,0,0,0-.57-.51,1.19,1.19,0,0,0-.66-.2h-.08a.11.11,0,0,0-.07,0l.15.21a2.39,2.39,0,0,1,.13.21,1.55,1.55,0,0,1,.08.23,1,1,0,0,1,0,.26.79.79,0,0,1-.06.32.58.58,0,0,1-.18.23.72.72,0,0,1-.26.14,1.12,1.12,0,0,1-.32,0A1,1,0,0,1,46,128.19a1.3,1.3,0,0,1,.44-1,1.42,1.42,0,0,1,.46-.28,1.67,1.67,0,0,1,.55-.09,1.53,1.53,0,0,1,.74.18,2.28,2.28,0,0,1,.6.46,3.74,3.74,0,0,1,.48.63c.13.23.25.45.35.67v-3.2H45.57L45,125h6Z"/><path d="M53.34,133.38l-.11-.24a1.58,1.58,0,0,0,.32-.19,2.12,2.12,0,0,0,.31-.28,1.51,1.51,0,0,0,.24-.34.8.8,0,0,0,.09-.36v-.08s0,0,0-.08a.16.16,0,0,0,0-.07.09.09,0,0,0-.07,0l-.2,0-.2,0a.7.7,0,0,1-.45-.15.54.54,0,0,1-.18-.43.64.64,0,0,1,.72-.72,1,1,0,0,1,.45.09.81.81,0,0,1,.29.26.83.83,0,0,1,.16.37,2.16,2.16,0,0,1,.05.46,1.18,1.18,0,0,1-.13.53,2.29,2.29,0,0,1-.32.51,2.91,2.91,0,0,1-.43.43A1.94,1.94,0,0,1,53.34,133.38Z"/><path d="M63.72,125.58H59.63v4a.52.52,0,0,0,.08.29A.29.29,0,0,0,60,130a.68.68,0,0,0,.37-.11,2.55,2.55,0,0,0,.38-.29,2.89,2.89,0,0,0,.35-.35l.25-.3a1,1,0,0,0,.19-.36,1.77,1.77,0,0,0,.08-.4l-.09,0h-.09a.87.87,0,0,1-.28,0,.92.92,0,0,1-.24-.13.55.55,0,0,1-.18-.22.5.5,0,0,1-.07-.27,1.14,1.14,0,0,1,.05-.33.61.61,0,0,1,.15-.26.58.58,0,0,1,.23-.18.84.84,0,0,1,.33-.06.91.91,0,0,1,.5.13,1.07,1.07,0,0,1,.33.34,1.44,1.44,0,0,1,.19.46,2.35,2.35,0,0,1,.06.51,1.56,1.56,0,0,1-.1.55,3.38,3.38,0,0,1-.27.58,3.52,3.52,0,0,1-.39.56,3.61,3.61,0,0,1-.49.47,2.32,2.32,0,0,1-.53.33,1.39,1.39,0,0,1-.54.12.79.79,0,0,1-.45-.13,1.27,1.27,0,0,1-.3-.27,2.82,2.82,0,0,1-.21-.31,1.88,1.88,0,0,1-.14-.29.54.54,0,0,1,0-.17v-4h-.86l-.59-.6h5.53Z"/><path d="M66.13,125.58H64.66v6.29s0,0-.11-.1l-.2-.21c-.09-.09-.19-.19-.29-.31v-4.5a3.6,3.6,0,0,0,0-.49,1.13,1.13,0,0,0-.15-.39.71.71,0,0,0-.29-.25.91.91,0,0,0-.45,0l-.48-.6h.4a1.16,1.16,0,0,1,.44.07.79.79,0,0,1,.32.23,1.54,1.54,0,0,1,.26.4c.07.17.15.37.23.61,0-.11,0-.22,0-.33a3.77,3.77,0,0,0-.06-.39c0-.16,0-.35-.08-.57s-.07-.51-.1-.86l.24.2a.87.87,0,0,0,0,.21.35.35,0,0,0,.06.14.91.91,0,0,0,.1.13l.15.16h.91Z"/><path d="M73,125.58H69.81V126h.09a1.6,1.6,0,0,1,.82.22,2.5,2.5,0,0,1,.68.58,3.14,3.14,0,0,1,.46.77,2.29,2.29,0,0,1,.17.84,1.23,1.23,0,0,1-.07.42,1.16,1.16,0,0,1-.18.37,1.14,1.14,0,0,1-.31.27.8.8,0,0,1-.41.1.71.71,0,0,1-.29,0,.89.89,0,0,1-.25-.16,1.3,1.3,0,0,1-.18-.23.72.72,0,0,1-.06-.29.67.67,0,0,1,.09-.34,1.55,1.55,0,0,1,.24-.27l.17,0H71a.56.56,0,0,1,.33.1,1.21,1.21,0,0,1,.28.21.11.11,0,0,0,0,0v-.06a1.38,1.38,0,0,0-.14-.59,1.74,1.74,0,0,0-.38-.51,1.69,1.69,0,0,0-.53-.33,1.34,1.34,0,0,0-.59-.1h-.13v4.79l-.06,0-.08-.07a.57.57,0,0,1-.11-.11,5.29,5.29,0,0,0-.44-1,3.33,3.33,0,0,0-.62-.77,3,3,0,0,0-.82-.55,3.32,3.32,0,0,0-1-.27l-.83-1a7.84,7.84,0,0,1,.76-.55c.27-.18.56-.35.86-.51s.6-.3.9-.43.59-.23.87-.32v-.46H65.54l-.61-.6H72.4ZM69.21,130v-3.14c-.21.08-.41.16-.6.25s-.37.18-.54.28l-.51.32-.52.35a4.44,4.44,0,0,1,1.24.79A4.2,4.2,0,0,1,69.21,130Z"/><path d="M75.4,125.58H73.92v6.29l-.1-.1-.21-.21-.29-.31v-4.5a2.49,2.49,0,0,0,0-.49,1.13,1.13,0,0,0-.15-.39.75.75,0,0,0-.28-.25.91.91,0,0,0-.45,0l-.49-.6h.4a1.13,1.13,0,0,1,.44.07.82.82,0,0,1,.33.23,1.52,1.52,0,0,1,.25.4,4.15,4.15,0,0,1,.23.61,1.83,1.83,0,0,0,0-.33,3.77,3.77,0,0,0-.06-.39c0-.16,0-.35-.08-.57s-.07-.51-.1-.86l.24.2a2,2,0,0,0,0,.21l.06.14.1.13.16.16h.9Z"/></g></g></svg>