<?xml version="1.0" encoding="utf-8"?>
<!-- Generator: Adobe Illustrator 18.0.0, SVG Export Plug-In . SVG Version: 6.00 Build 0)  -->
<!DOCTYPE svg PUBLIC "-//W3C//DTD SVG 1.1//EN" "http://www.w3.org/Graphics/SVG/1.1/DTD/svg11.dtd">
<svg version="1.1" id="Layer_1" xmlns="http://www.w3.org/2000/svg" xmlns:xlink="http://www.w3.org/1999/xlink" x="0px" y="0px"
	 viewBox="0 0 150 150" enable-background="new 0 0 150 150" xml:space="preserve">
<g id="_x35_">
	<g>
		<g>
			<path fill="#2B2924" d="M104.1,12.2c-0.5-0.5-1-1-1.4-1.5C103.1,11.2,103.6,11.7,104.1,12.2z"/>
			<path fill="#2B0D04" d="M43.1,40.6c0-2.4,0.2-4.8,0.5-7.2C46.3,13.7,63.4-3.3,84.1-0.1c22.1,3.5,33.1,19.7,35.3,41.6
				c0.8,7.5-0.6,13.7,1.6,21c2.3,7.8,4.9,15.5,7.1,23.3c3.4,12.5,6.8,25,8.6,37.8c1.1,7.7,0.6,17.4-6.4,20.8c-3,1.5-6.5,1.3-9.8,1.2
				c-22.5-1.1-45.1-2.4-67.6-3.2c-6.6-0.2-15.9,2.6-22,0.1c-23-9.5-0.7-40.1,4-53.3c3.4-9.3,5.9-18.9,7.5-28.7
				C43.5,53.7,42.9,47.2,43.1,40.6z"/>
		</g>
		<g>
			<path fill="#DEB09D" d="M58.2,92.2c0,0,4.5-9.8,2.8-21.2C59.7,62.3,96,74.2,96,74.2s-1.5,8.3,0,15.5c1.5,7.3-17.3,21.1-17.3,21.1
				l-12.4-6.3l-1.7,1.8L58.2,92.2z"/>
			<path fill="#F9CFB3" d="M89.6,29.9c2.1-1.5,10.4-5.3,10-8.2c0.4,3.4,2.1,6.2,3,9.4c1,3.6,2.5,7,3.2,10.7
				c1.3,6.8,1.4,14.7-0.9,21.4c-2.1,6.2-6.4,11-11.2,15.3c-0.3,0.3-0.7,0.6-1,0.9c-3.8,3.4-7.6,5-11.4,4.9l-0.1-50.1
				C84.1,32.7,87,31.7,89.6,29.9z"/>
			<path fill="#E2BBA1" d="M67.6,42.8c4.5-2.5,13.4-8.8,13.7-8.7v50.2c-3.8,0.1-7.6-1.5-11.4-4.9c-0.3-0.3-0.7-0.6-1-0.9
				c-5.2-4.7-9.9-9.5-11-16.3c-0.2-0.9-0.7-2-1.6-2c-3-0.2-4.4-5.4-5-8.5C55.9,47.8,62.3,45.7,67.6,42.8z"/>
		</g>
	</g>
	<g>
		<path fill="#E6E7E8" d="M72,150h10.8L94,123.5c0.4-0.8,0.2-1.8-0.3-2.5c-3.9-5.1-9.8-10.6-16.3-12.3C70.8,110.4,65,115.9,61,121
			c-0.6,0.7-0.7,1.7-0.3,2.5L72,150z"/>
		<path fill="#728D96" d="M145.1,150c-1.1-11.6-2.6-22.4-4-27.7c-3-11.2-9.6-14.2-20.6-17.5c-1.7-0.5-25.2-5.5-23.7-10.4
			c-5,16.2-10,32.5-15,48.7c-0.7,2.3-1.4,4.6-2.1,6.9H145.1z"/>
		<path fill="#647C82" d="M34.9,150h39.7c-0.7-2.3-1.4-4.6-2.1-6.9c-5-16.2-10-32.5-15-48.7c0,0.8-9.8,6.9-11,7.4
			c-4.5,1.8-8.4,1.9-12.4,2.7C36.6,119.2,35.5,134.6,34.9,150z"/>
		<g>
			<path fill="#3D5872" d="M68.7,146.8c0,0.1,0,0.3,0,0.4l1.1,2.8H85l1.1-2.8c0-0.1,0.1-0.3,0-0.4l-5.7-25.7
				c-0.2-0.8-0.1-1.7,0.3-2.4l2.1-4c0.1-0.2,0-0.5-0.1-0.7c-0.7-0.7-1.5-1.5-2.2-2.2c-0.5-0.5-1.2-1-1.6-1.6
				c-0.4-0.6-0.6-1.3-1.3-1.7c-0.7-0.5-1.4,0.7-1.6,1.2c-0.3,0.7-1,1.3-1.6,1.8c-0.8,0.8-1.7,1.6-2.5,2.5c-0.2,0.2-0.2,0.5-0.1,0.7
				l2.1,4c0.4,0.7,0.5,1.6,0.3,2.4L68.7,146.8z"/>
			<path fill="#FFFFFF" d="M54.5,102.2l4.2-12.1l3.4,6.2c3.8,5.4,12.3,10.9,15.2,11c3-0.1,11-5.3,15.2-11l3.4-6.2l4.2,12.1
				c0.1,0.2,0.1,0.4,0,0.5l-7.8,25.1c-0.2,0.7-1.2,4.5-1.6,0.3l-4.3-7.5c-0.5-0.9-1.1-1.7-1.8-2.5l-7.4-9.3l-7.4,9.3
				c-0.7,0.8-1.3,1.6-1.8,2.5l-4.3,7.5c-0.4,4.2-1.4,0.4-1.6-0.3l-7.8-25.1C54.4,102.6,54.4,102.4,54.5,102.2z"/>
			<g>
				<path fill="#647C82" d="M93.6,150c6.8-10.2,13.1-19.2,12.8-19.8c0,0-7.2-12.8-7.2-12.8l9.7,1c-1-3.1-3.2-18.3-6.1-19.8l-5.5-4.4
					l-11.7,34.9L79.4,150H93.6z"/>
				<path fill="#728D96" d="M48.4,130.2c-0.3,0.5,5.8,9.6,12.6,19.8h14.4l-6.3-20.9L57.4,94.3l-5.5,4.4c-2.9,1.5-5.1,16.7-6.1,19.8
					l9.7-1C55.5,117.4,48.4,130.2,48.4,130.2z"/>
			</g>
		</g>
		<path fill="#647C82" d="M37.1,150c-0.5-5.7-1.3-11.5-1.1-17.2c0.2-9.5-0.3-19-1.9-28.4c-2,0.4-4,1-6.1,2
			c-9.1,4.5-15.5,18.6-18.3,27.7C8,139.4,6.9,144.7,6,150H37.1z"/>
	</g>
</g>
</svg>
