<?xml version="1.0" encoding="utf-8"?>
<!-- Generator: Adobe Illustrator 18.0.0, SVG Export Plug-In . SVG Version: 6.00 Build 0)  -->
<!DOCTYPE svg PUBLIC "-//W3C//DTD SVG 1.1//EN" "http://www.w3.org/Graphics/SVG/1.1/DTD/svg11.dtd">
<svg version="1.1" id="Layer_1" xmlns="http://www.w3.org/2000/svg" xmlns:xlink="http://www.w3.org/1999/xlink" x="0px" y="0px"
	 viewBox="0 0 150 150" enable-background="new 0 0 150 150" xml:space="preserve">
<g id="_x31_4">
	<g id="_x31_0">
		<g>
			<path fill="#DEB09D" d="M69,104.6c-2.7-0.4-5.3-1.1-7.6-2.4c-2-1.1-3.6-2.6-5.1-4.3c-1.2,2-2.5,3.9-3.3,6.2
				c-0.1,0.2-0.1,0.4,0,0.5c3.3,10.8,6.5,22.4,16.3,29.2c1.4,1,2.9,1.9,4.6,2.4c4.1,1.4,9,0.6,12.4-2.1c4.9-3.8,5.2-10.3,6.9-15.8
				c1.4-4.6,2.8-9.2,4.3-13.8c0.1-0.2,0-0.4,0-0.5l-1.6-4.5C88,104.2,78.2,106,69,104.6z"/>
			<g>
				<path fill="#DEB09D" d="M93.3,92.4c0-0.1,0-0.3,0-0.4c-1-5-0.6-10.6-0.3-13.3c-0.6,0.6-1.3,1.2-2,1.9c-0.3,0.3-0.7,0.6-1,0.9
					c-3.7,3.3-7.4,4.9-11.1,4.8c-3.7,0.1-7.3-1.5-11.1-4.8c-0.3-0.3-0.7-0.6-1-0.9c-1.9-1.7-3.8-3.5-5.4-5.4
					c0.5,5,0.1,10.1-1.2,14.9c-0.8,3-2.4,5.4-3.9,7.8c1.4,1.7,3.1,3.2,5.1,4.3c2.3,1.3,5,2,7.6,2.4c9.1,1.4,18.9-0.4,26.9-5
					L93.3,92.4L93.3,92.4z"/>
				<path fill="#F9CFB3" d="M103,44.8c-0.1-0.1-0.1-0.2-0.2-0.3c-1.5-2.8-2.2-6.8-3.1-9.9c-0.9-3.1-2.5-5.9-2.9-9.1
					c0.3,2.8-7.7,6.6-9.8,8c-2.5,1.7-5.3,2.7-8.1,4.1v35.7v13.1c3.7,0.1,7.3-1.5,11.1-4.8c0.3-0.3,0.7-0.6,1-0.9
					c0.7-0.6,1.3-1.2,2-1.9c3.9-3.7,7.2-7.9,8.9-13c0.4-1.3,0.2-1.1,0.5-2.4c1,0,2.4-0.3,2.9-1.2c0.5-0.8,0.6-1.8,0.7-2.7
					c0.1-1.2,0.2-4.2,0.4-5.4C106.9,49.3,104.9,48.2,103,44.8z"/>
				<path fill="#E2BBA1" d="M79,37.4c-0.2-0.1-10.2,2.9-14.6,5.3c-5.1,2.8-10,8-14.6,11.7c0.6,3.1,1.9,8.1,4.8,8.3
					c0.9,0.1,1.4,1.1,1.5,2c0.7,4.1,2.7,7.4,5.3,10.5c1.6,1.9,3.5,3.6,5.4,5.4c0.3,0.3,0.7,0.6,1,0.9c3.7,3.3,7.4,4.9,11.1,4.8
					l0-13.1L79,37.4C79,37.5,79,37.5,79,37.4L79,37.4z"/>
			</g>
			<path fill="#E2BBA1" d="M56.7,97.3c0,0.3,0,0.5-0.1,0.8c-0.1-0.1-0.2-0.2-0.3-0.3C56.5,97.7,56.6,97.5,56.7,97.3z"/>
			<path fill="#7B371C" d="M83.8,0.2C71.2-1.4,58.5,4.1,51,14.5c-2.3,3.2-3.9,6.8-5.1,10.5c-3,8.7-4.9,18.3-3.3,27.5
				c0.8,4.3,2.4,8.4,5,11.9c2.4,3.1,5.7,5.6,9.4,6.9c-0.8-0.7-1.2-1.6-1.6-2.5c-0.4-0.8-0.8-1.6-1.1-2.5c-0.5-1.5-0.8-3.1-1-4.7
				c-0.3-3.1,0.3-6.4,2.1-9c4.2-5.8,14.5-8.3,20.8-10.8c6.4-2.5,21.1-7.6,20.7-16.3c0.5,4.1,1.3,8.9,3,12.6
				c2.5,5.6,5.6,10.1,6.2,16.5c0.6,7-1.1,14.1-4.8,20c2.3,0.1,4.6-1.2,6.1-3c8-9.1,11.9-22.2,11.6-34.2
				c-0.2-10.3-3.3-19.1-11.6-25.5c-0.7-0.6-7.7-4.5-7.7-3.2C99.5,4.1,87.2,0.7,83.8,0.2z"/>
		</g>
		<g>
			<path fill="#728D96" d="M141,150c-1-11.3-2.5-21.8-3.8-26.9c-2.9-10.9-9.3-13.8-20-17c-1.6-0.5-23.5-3.8-22.1-8.6
				c-4.8,15.8-10.7,30-15.5,45.8c-0.7,2.2-1.4,4.5-2.1,6.7H141z"/>
			<path fill="#647C82" d="M34,150h38.6c-0.7-2.2-1.4-4.5-2.1-6.7c-4.8-15.8-8.6-30.8-13.4-46.6c0,0.8-10.7,6-11.8,6.4
				c-4.4,1.7-8.2,1.8-12.1,2.6C35.7,120.1,34.6,135,34,150z"/>
			<path fill="#E6E7E8" d="M70,150h10.5c2.3-5.3,4.5-10.7,6.8-16c1.7-4.1,3.8-7.5,5.1-11.7c0.7-2.5,1.9-4.8,2.6-7.3
				c0.4-1.3,0.5-7,1.3-7.6c-5.4,4.6-12.5,7.2-19.5,7.1c-4.1,0-8.2-1-12-2.6c-3.1-1.4-6.1-4.9-9.5-5.1C59,121.8,64,135.7,70,150z"/>
			<g>
				<g>
					<path fill="#647C82" d="M91,150c6.6-9.9,12.7-18.7,12.4-19.2c0,0-6.9-12.4-6.9-12.4l9.5,1c-1-3-3.1-17.7-5.9-19.2l-5.3-4.3
						l-11.4,33.9L77.2,150H91z"/>
					<path fill="#728D96" d="M47.1,130.8c-0.3,0.5,5.7,9.3,12.2,19.2h14l-6.1-20.3L56.8,96l-6.3,4.2c-2.8,1.5-5,16.2-5.9,19.2l9.5-1
						C54.1,118.4,47.1,130.8,47.1,130.8z"/>
				</g>
			</g>
			<path fill="#647C82" d="M36.1,150c-0.5-5.6-1.2-11.1-1.1-16.7c0.2-9.2-0.3-18.4-1.8-27.5c-1.9,0.4-3.7,1.4-6,2
				C11.1,112,10.7,123,9.5,134.6C9,139.9,9.7,144.9,8.8,150H36.1z"/>
		</g>
		<path fill="#7B371C" d="M60.3,90.1c-0.3,1.1-0.7,2.4-1.5,3.2c-0.4,0.4-2.7,1.8-2.6,2.3c0.8,3.8,0.9,7.7,0.1,11.5
			c-0.7,3.3-1.9,6.5-5.1,8c-0.5,0.2-0.9,0.4-1.3,0.7c-0.2,0.1-0.3,0.3-0.5,0.4c-0.9,0.8-0.5,1.2-0.3,2.3c0,0.2,0.1,0.4,0.1,0.6
			c0.2,1.6,0.3,3.3,0,4.8c-0.2,1.4-0.5,2.7-0.9,4.1c-1.4,5-2.9,9.8-7.8,12.5c-3.1,1.8-7.3,2.7-8.4,6.2c-4-11.7,1.7-23.1,10.9-30.4
			c0.1-0.1,0.1-0.1,0.2-0.2c0.3-0.2,0.6-0.5,0.8-0.8c0.3-0.5,0.3-1.2,0.1-1.8c-0.1-0.4-0.3-0.8-0.5-1.1c-1.8-4.1-1.1-9,1.5-12.6
			c1.9-2.6,8.5-3.7,8.1-7.7c-0.1-1-0.7-1.8-1.2-2.7c-3.6-6.4,2.3-11.3,7.5-14.6c0.4-0.3,0.9-0.5,1.2-0.8c0.3,0.3,0.5,0.7,0.8,1
			C62,80.1,61.6,85.2,60.3,90.1z"/>
	</g>
	<path fill="#E6E7E8" d="M49.4,116.2c-0.9,0.8-0.5,1.2-0.3,2.3c0,0.2,0.1,0.4,0.1,0.6c-1.8-0.9-4.2-2-6.3-2.8
		c0.1-0.1,0.1-0.1,0.2-0.2c0.3-0.2,0.6-0.5,0.8-0.8c0.3-0.5,0.3-1.2,0.1-1.8c1.6,0.4,3.9,1.2,5.9,2.3
		C49.7,116,49.6,116.1,49.4,116.2z"/>
</g>
</svg>
