<?xml version="1.0" encoding="utf-8"?>
<!-- Generator: Adobe Illustrator 18.0.0, SVG Export Plug-In . SVG Version: 6.00 Build 0)  -->
<!DOCTYPE svg PUBLIC "-//W3C//DTD SVG 1.1//EN" "http://www.w3.org/Graphics/SVG/1.1/DTD/svg11.dtd">
<svg version="1.1" id="Layer_1" xmlns="http://www.w3.org/2000/svg" xmlns:xlink="http://www.w3.org/1999/xlink" x="0px" y="0px"
	 viewBox="0 0 150 150" enable-background="new 0 0 150 150" xml:space="preserve">
<g id="_x34__1_">
	<path fill="#DEB09D" d="M44.6,127.2c3.4,5.9,6.8,11.7,10.3,17.6c0.4,0.7,1.8,2.8,3.5,5.3h13.8c5.6-7.9,11.8-15.4,18.6-22.3
		c10.9-11.1,21.1-18.1,34.4-26.2c-5,3-9.6,0.6-14.9,0.5c-3.4,0-5.4-1.1-6.2-1.4c-1.1-0.4-6.4-2.4-9.3-6.1
		c-5.7-7.2-3.3-20.3-3.3-20.3s-6.4,1-17.6,0.2c-3.5-0.2-7-0.8-10.5-0.9c-1.6,0-4.5-0.4-5.9,0.6c-1.2,0.9-1.7,1.2-1.7,1.6
		c-0.2,1.2,0.4,2.3,0.7,2.6c1.8,2.9,0.7,11-2.7,15.9c-1.3,1.8-5.3,4.1-13.3,8.9c-3,1.8-6,3.4-6.3,6.3c-0.1,1.2,0.2,2.5,1.1,3.9
		C37.9,117.9,41.7,122.3,44.6,127.2z"/>
	<path fill="#E2BBA1" d="M42.6,24.2c-2.8,6-3.3,13.1-2.6,19.9c-4.6,0.4-3.5,6.6-1.3,11.8c1.3,3,2.9,5.8,4,6.8c1.2,1.2,2.4,1.8,3.4,2
		c4.3,9.3,10.3,18,19.6,22.1c1.8,0.8,3.7,1.2,5.5,1.4V7.9C59.3,7.5,48,12.5,42.6,24.2z"/>
	<path fill="#F9CFB3" d="M104,42c-0.5-12-5.2-23.7-15.8-29.7c-1.8-1-3.7-1.9-5.9-2.5C78.7,8.6,74.9,8,71.1,7.9v80.3
		c12,0.8,23.1-12.2,28.7-24.3c5.1-2.7,8.8-8.3,9.1-14.3C109.1,46.8,107.1,42.3,104,42z"/>
	<path fill="#FFFFFF" d="M85,150c6.3-20.1,11.6-39.6,11.8-47.6c-30.3,19.8-45,1.9-45,1.9l-10.4,45.2c0,0,0,0.2,0.1,0.5H85z"/>
	<path fill="#1C75BC" d="M143.2,114.5c-0.7-3.6-2.9-6.6-6-8.5c-0.3-0.3-0.6-0.6-1-0.9c-2.6-2-6-2.8-9-3.6c-16.3-4.4-32.5-7-32.5-7
		c0.2,7.4,2.7,15.3-3.2,29.7c-5,12.1-11.9,20.6-16.6,25.7h48.9h7.7H148C147.5,142.6,144,118.5,143.2,114.5z"/>
	<path fill="#1C75BC" d="M6.5,114.5c0.7-3.6,2.9-6.6,6-8.5c0.3-0.3,0.6-0.6,1-0.9c2.6-2,6-2.8,9-3.6c16.3-4.4,31.1-7.2,31.1-7.2
		c-0.3,6.4,0.1,17.6,5,30.2c4.8,12.5,11.9,20.9,16.3,25.5H26h-7.7H1.7C2.2,142.6,5.7,118.5,6.5,114.5z"/>
	<path fill="#186EA8" d="M95.7,150c7.1-9.2,14.2-17.7,21.1-25.4l-9.4-6.2l9.4-11.8l-7.8-10.4l-15.1-3.1c-0.2,7.5-0.7,17.3-4.9,29.6
		c-4.2,12.1-9.9,21.3-14.4,27.2H95.7z"/>
	<path fill="#186EA8" d="M53.6,150c-7.1-9.2-14.2-17.7-21.1-25.4l9.4-6.2l-9.4-11.8l6.7-8.4l14.3-4c0.9,7.2,2.6,16.2,6,26
		c4.4,12.7,10.2,22.6,15.1,29.7H53.6z"/>
	<path fill="#594A42" d="M39.7,43.9c0.5,3.6,1.4,7.2,2.5,10.5c-3.1-9.1,2.5-23.9,8.3-31C72.9,38.8,96.6,45.6,100.7,52
		c0.8-2.2,1.4-4.4,2.3-6.5c0.2-0.6,0.5-2.6,1.2-2.9c0.2-0.1,1.9-0.2,1.8,0.1c0.5-10.1,0.6-21.1-6.1-29.1C93.2,5.6,83,0.5,72.5,0.7
		C49.1,1.1,36.7,22.8,39.7,43.9z"/>
	<path fill="#594A42" d="M110.5,90c0.2,11.6-5.1,23.2-14,30.6c3.9-5.8,3.7-13.6,1.9-20.4c-1.8-6.8-4.9-13.2-6.5-20.1
		c-0.2-1-0.4-1.9-0.5-2.9c3.4-4,6.2-8.6,8.3-13.1C106.3,71,110.3,80.4,110.5,90z"/>
</g>
</svg>
