<?xml version="1.0" encoding="utf-8"?>
<!-- Generator: Adobe Illustrator 18.0.0, SVG Export Plug-In . SVG Version: 6.00 Build 0)  -->
<!DOCTYPE svg PUBLIC "-//W3C//DTD SVG 1.1//EN" "http://www.w3.org/Graphics/SVG/1.1/DTD/svg11.dtd">
<svg version="1.1" id="Layer_1" xmlns="http://www.w3.org/2000/svg" xmlns:xlink="http://www.w3.org/1999/xlink" x="0px" y="0px"
	 viewBox="0 0 150 150" enable-background="new 0 0 150 150" xml:space="preserve">
<g id="_x36_">
	<g>
		<g>
			<g>
				<path fill="#F0D09F" d="M52.2,51.1c0.3-1.3-0.6-3.6-1.1-4.9c-0.2-0.4-0.3-0.8-0.5-1.2c-0.3-0.6-0.7-1.1-1.3-1.4
					c-2.6-1-5,2.5-5.3,4.7C44,48.9,44,49.5,44,50c0,1.1,0.3,2.2,0.7,3.3c0.2,0.5,0.4,1,0.6,1.5c2.6,3.4,2.6,10.9,8.1,7.2
					c1.9-1.9,0-7.4-1.2-9.3C52.2,52.2,52.1,51.6,52.2,51.1z"/>
			</g>
			<g>
				<path fill="#E2B477" d="M101.8,43.7c-0.6,0.2-1,0.8-1.3,1.4c-0.2,0.4-0.4,0.8-0.5,1.2c-0.5,1.2-1.3,3.5-1.1,4.9
					c0.1,0.6,0.1,1.1,0,1.6c-1.2,1.9-3.1,7.4-1.2,9.3c5.6,3.7,5.6-3.7,8.1-7.2c0.2-0.5,0.4-1,0.6-1.5c0.4-1,0.6-2.1,0.7-3.3
					c0-0.6,0-1.1,0-1.6C106.9,46.2,104.4,42.6,101.8,43.7z"/>
			</g>
		</g>
		<g>
			<g>
				<path fill="#D2A965" d="M91.6,77.2C91.6,77.3,91.6,77.3,91.6,77.2c-0.6,0.7-1.2,1.2-1.8,1.8c-3.6,3.5-8,6.7-12.4,7.5
					c-0.3,0.1-1.1,0.1-1.9,0.1c-0.5,0-1,0-1.3,0v28.8c0.3,0,0.6,0,0.9-0.1c0.2,0,0.8,0,0.9,0c9.4,1.3,9.5-8.6,16.8-16.9
					c-0.6-4.1-1.2-8.5-1.6-13C90.8,81.4,91.6,80.4,91.6,77.2z"/>
			</g>
			<g>
				<path fill="#E2B477" d="M61.1,78.9c-0.5-0.5-1-1.1-1.5-1.6c0,0,0,0-0.1-0.1c-0.2,3.7,0.6,4.2,0.2,8.2c-0.5,4.5-1,8.8-1.6,13
					c7,8,7.6,17.5,16.2,17V86.6c-0.2,0-0.4,0-0.5,0C69.2,85.7,64.7,82.4,61.1,78.9z"/>
			</g>
			<g>
				<path fill="#F0D09F" d="M50.1,32.1c-0.2,1.4-0.4,2.9-0.4,4.5c-0.7,5.3,0.6,20.1,0.6,20.4c0.1,6.7,3,12.9,7.3,18
					c0.6,0.7,1.3,1.5,2,2.3c0.5,0.5,1,1.1,1.5,1.6c3.6,3.5,8.1,6.9,12.6,7.7c0.1,0,0.3,0,0.5,0V15.5C59.4,16.5,52.2,19.8,50.1,32.1z
					"/>
			</g>
			<g>
				<path fill="#E2B477" d="M101,32.1c-2.2-12.7-9.7-15.8-25.5-16.7c-0.5,0-0.9,0.1-1.3,0.1v71.1c0.4,0,0.9,0,1.3,0
					c0.8,0,1.5,0,1.9-0.1c4.4-0.8,8.8-4,12.4-7.5c0.6-0.6,1.2-1.2,1.7-1.7c0.7-0.8,1.4-1.5,2-2.3c4.3-5.1,7.2-11.3,7.3-18
					c0-0.3,1.3-15.2,0.6-20.4C101.4,35,101.3,33.5,101,32.1z"/>
			</g>
		</g>
		<g>
			<path fill="#894E3A" d="M49.7,12.1c-6.1,7.2-5.7,14.7-3.8,23.6c0.5,2.4,1.8,10.8,3.5,17.6c0.3,1,1.6,0.2,2.3,0.3
				c0.9-2.8,0-15.7,0.7-19.2c0.7-3.4,1.4-9.5,4.2-11.7c2.1-1.6,4.8-2.1,7.5-2c2.6,0.1,5.2,0.7,7.8,1.1c1,0.1,2,0.1,3,0V1.9
				c-1.1,0.1-2.3,0.1-3.4,0.3C63.3,2.9,55.2,5.7,49.7,12.1z"/>
		</g>
		<g>
			<path fill="#7B371C" d="M99.3,0C91.3,2,83,1.4,74.8,1.9v19.8c4.9-0.5,10.4-2.8,14.8-1.4c4.9,1.6,7.6,11,8.7,15.5
				c1.3,5.4,0.9,10.7,1,16.2c0.8-0.1,1.6-0.3,2.4-0.4c1.4-7.7,5.9-14.3,6.3-22.6c0.1-1.7,0-3.3-0.1-5C107.6,21.8,102.2-0.7,99.3,0z"
				/>
		</g>
		<g>
			<g>
				<path fill="#FFFFFF" d="M58.5,95.7l-9,7.8c1.7,3.4,3.8,7.1,6.6,11c3.6,5.1,7.2,9.2,10.5,12.4c0,0,2.5-9.9,9-14.8
					C65.6,108.7,58.5,95.7,58.5,95.7z"/>
			</g>
			<g>
				<path fill="#78919E" d="M75.5,150l0-37.9c0,0-4.3,9.3-9.3,6.8l-7.6-19.1l-6.7,3.1l-7.8,3.6l-2.4,0.7l-6.4,2l-16.3,5
					c-1.8,0.6-3.5,1.6-4.8,3l-6.3,6.6c-1.5,1.6-2.5,3.5-2.9,5.6C4.6,132,3.9,145.3,3,150H75.5z"/>
			</g>
		</g>
		<g>
			<g>
				<path fill="#6A828C" d="M148.1,150c-0.9-4.7-1.6-18-2-20.5c-0.4-2.1-1.4-4-2.9-5.6l-6.2-6.6c-1.3-1.4-3-2.4-4.8-3l-16.3-5
					l-6.4-2l-2.4-0.7l-7.8-3.6l-6.7-3.1l-7.6,19.1c-5,2.5-9.3-6.8-9.3-6.8l0,37.9H148.1z"/>
			</g>
		</g>
	</g>
	<g>
		<g>
			<path fill="#BAD1DD" d="M90.5,150l4.2-20.7L77.4,110h-2.3c0,0-18.2,19.1-18.1,20.5l4.1,19.5H90.5z"/>
		</g>
		<g>
			<path fill="#1C75BC" d="M72.5,122.9L68.6,150H83l-3.9-27.1c-0.2-0.9-0.1-1.8,0.4-2.6l2.3-4.4c0.1-0.3,0-0.6-0.2-0.8
				c-0.9-0.9-1.8-1.8-2.7-2.7c-0.6-0.6-1.3-1.2-1.7-2c-0.3-0.6-1-1.8-1.8-1.3c-0.7,0.5-0.9,1.2-1.4,1.8c-0.5,0.6-1.2,1.2-1.7,1.7
				c-0.8,0.8-1.6,1.6-2.4,2.4c-0.2,0.2-0.3,0.5-0.2,0.8l2.3,4.4C72.6,121,72.7,122,72.5,122.9z"/>
		</g>
		<g>
			<path fill="#E4F4FF" d="M76.3,108.5c-0.3,0.3-0.7,0.3-0.9,0L58,91.6l-3.9,12.2l7.5,26.7l13.6-20.6c0.3-0.4,0.9-0.4,1.1,0
				L90,130.5l7.5-26.7l-3.9-12.2L76.3,108.5z"/>
		</g>
		<g>
			<path fill="#64787D" d="M41.9,122.7l9.3,27.3h15.9l-1.2-3.9l-5.2-25l-6.6-19.5c-1.5,0.4-6.4,2.6-11.5,4.1
				c-1.4,3.2-1.7,5.6-2.2,7.4l11.3,5.5L41.9,122.7z"/>
			<path fill="#64787D" d="M100.4,150l9.4-27.3l-9.8-4.1l11.2-5.5c-0.6-1.7-0.8-3.7-2.2-6.9c-5-1.5-10-4.2-11.4-4.6L88.7,128
				l-2.9,18.1l-1.3,3.9H100.4z"/>
		</g>
	</g>
</g>
</svg>
