<?xml version="1.0" encoding="utf-8"?>
<!-- Generator: Adobe Illustrator 18.0.0, SVG Export Plug-In . SVG Version: 6.00 Build 0)  -->
<!DOCTYPE svg PUBLIC "-//W3C//DTD SVG 1.1//EN" "http://www.w3.org/Graphics/SVG/1.1/DTD/svg11.dtd">
<svg version="1.1" id="Layer_1" xmlns="http://www.w3.org/2000/svg" xmlns:xlink="http://www.w3.org/1999/xlink" x="0px" y="0px"
	 viewBox="0 0 150 150" enable-background="new 0 0 150 150" xml:space="preserve">
<g id="_x33_">
	<g>
		<g>
			<polygon fill="#CCA692" points="57.6,73.9 57.5,75.6 56.8,89.6 76.7,107.6 83.6,101.3 94.8,91 95.7,73.8 			"/>
			<path fill="#E2BBA1" d="M79.6,20.8c-5.1-1.9-11.7-2.3-16.8-0.7C57.6,21.6,52,25,51,30.3c-0.7,3.8,1,7.7,0.4,11.6
				c-0.2,1-0.4,3.3-2.1,2.2c-0.7-0.5-0.2-1.7-1-2.3c-1.6-1.2-2.4,0.7-2.5,1.9c-0.4,4.2,0,8.9,1.8,12.8c1.1,2.3,2.6,3,4.2,4.7
				c1.7,1.9,1.2,5.4,1.8,7.6c0.4,1.5,1,2.9,1.9,4.2c1.9,2.7,5.3,4,7.4,6.5c2,2.3,3.9,4.6,6.8,6.1c1.7,0.9,4.2,1.1,6.5,1.1
				c0.3,0,0.6,0.1,0.9,0.1l3.4-66.3C80.2,20.6,79.9,20.7,79.6,20.8z"/>
			<path fill="#F9CFB3" d="M110.8,47.1c0-1.2-0.6-3.2-2.3-2.2c-0.8,0.5-0.5,1.8-1.2,2.2c-1.7,0.9-1.8-1.4-1.8-2.4
				c-0.2-3.9,1.9-7.6,1.5-11.5c-0.4-5.4-5.6-9.3-10.6-11.4c-4.7-1.9-10.8-2.3-15.9-1.2l-3.4,66.3c2,0.2,4.1,0.2,5.7-0.5
				c3-1.3,5.1-3.3,7.4-5.4c2.4-2.2,5.9-3.2,8.1-5.7c1-1.2,1.8-2.5,2.3-4c0.8-2.2,0.7-5.7,2.6-7.4c1.7-1.5,3.4-2.1,4.6-4.2
				C109.9,55.9,110.8,51.3,110.8,47.1z"/>
			<path fill="#5F5C54" d="M48.3,38.6c0.6,2.3,0.6,3.9,0.4,6.1c0,0.3-0.1,0.7-0.1,1.2l3,0.2c0.1-0.6,0.1-1.2,0.1-1.5
				c0-1.6,0.1-2.9,0.3-4.5c0.2-2.2,0.1-4.4,0.4-6.6c0.9-5.6,6.3-9.4,12.1-9.5c4.3-0.1,8.5,0.9,12.7,1.2c5.3,0.3,7.7-2,12-4.2
				c1.1-0.6,0.5-0.7,1.6-0.4c0.7,0.2,1.7,1.2,2.3,1.6c3.8,2.4,10.8,5,11.7,9.8c0.7,3.8,0.3,7.6,0,11.3c0,0.5-0.7,3.4-0.7,5.3
				l2.4,0.1c0.9-2.2,2-5.3,2.4-6.5c1.2-4.8,1.1-6.9,1.5-8.9c1.2-7.2,2-14.1-2.5-20.5C103.1,6.2,95.7,2,91.6,2.3
				c-0.2,0-3,0.1-2.7,0.4c-1.4-1.3-3.9-1.5-5.7-2c-9.4-2.6-21.8,2.3-29,7.9c-7.6,5.9-7,13.9-6.5,21.7C47.8,33,47.7,36,48.3,38.6z"/>
		</g>
		<g>
			<path fill="#BAD1DD" d="M65,150h37.4c-0.6-4.4-1.3-8.9-2.2-13.3c-1.9-9.3-3.6-16.7-10.4-23.2c-2.9-2.8-8.7-12-12.9-11.2
				c-3.5,0-13.3,14-14.2,17c-0.4,1.1-0.5,2.1-0.6,3.1c-0.1,2.7,1,4.9,1.4,8.7C64.2,137.4,64.6,143.7,65,150z"/>
			<path fill="#3D5872" d="M72,144.1l2.6,5.9h14.1l1.3-4c0-0.1,0-0.3,0-0.4l-8-29.3c-0.3-1-0.2-1.9,0.1-2.7l2-4.5
				c0.1-0.3,0-0.6-0.2-0.8c-1-1-1.9-2.1-2.9-3.1c-0.7-0.7-1.4-1.4-1.8-2.3c-0.3-0.6-1.1-2.1-1.9-1.6c-0.7,0.5-0.8,1.2-1.2,1.9
				c-0.4,0.6-1.1,1.2-1.6,1.7c-0.7,0.8-1.4,1.6-2.2,2.4c-0.2,0.2-0.2,0.5-0.1,0.8l2.7,4.9c0.5,0.9,0.7,1.9,0.6,2.8l-3.5,28
				C72,143.8,72,143.9,72,144.1z"/>
			<path fill="#728D96" d="M151.5,150c-0.4-3.8-1.9-20-2.6-24.9c-0.9-5.8-2.1-11.8-5.8-16.3c-4-5-5.7-7.5-12.1-8.4
				c-7-1-28.6-5.4-32.6-7.5c-2.2,9.3-3.8,19.1-6,28.5c0,0.2-3.7,15.7-6.7,28.7H151.5z"/>
			<path fill="#E4F4FF" d="M95.7,83.3l-17.6,17.3c-0.3,0.3-0.7,0.2-1-0.1l-20-19.8l-8.2,14.8l15.8,27.1l12.4-20.5
				c0.3-0.4,0.9-0.4,1.2,0.1l16,23.2l6.4-28L95.7,83.3z"/>
			<path fill="#647C82" d="M95.3,150c5.5-13.3,12-23.8,17.4-31.2c-3.4-1.8-6.8-3.5-10.2-5.3l11.2-5c-0.7-1.9-2.1-4.9-4.1-9
				c-3-6.1-9.9-10.9-11.5-11.5l-6.4,34.6l-2.2,8.6L85.3,150H95.3z"/>
		</g>
		<g>
			<path fill="#647C82" d="M77.8,150c-4-12.6-9.5-25-13.9-37.2l-7.7-21.5c0,0-0.2,0.1-0.6,0.2c-1.4,0.4-5.1,2.7-9.8,4
				c-9.1,2.5-18.5,6.5-27.7,8C2.1,106,0.3,132.6,0,150H77.8z"/>
			<path fill="#728D96" d="M42.7,120.6c7.5,9.2,15.2,17.5,22.4,29.4h13.3l-8.1-20.8l-6.4-16.5L55,85.5c-1.4,0.4-15.8,15.6-16.2,17.4
				l16.1,6.5L42.7,120.6z"/>
		</g>
	</g>
</g>
</svg>
