<svg xmlns="http://www.w3.org/2000/svg" viewBox="0 0 54.21 44.65"><defs><style>.cls-1{fill:#fff;}.cls-2{fill:#7ec242;}.cls-3{fill:#5d556b;}.cls-4{fill:#babbc1;}.cls-5{fill:#bbdff1;}.cls-6{fill:#e6f2e0;}.cls-7{fill:#f8ddb8;}.cls-8{fill:#438bca;}.cls-9{fill:#7bceef;}.cls-10{fill:#8c8a97;}.cls-11{fill:#242d2b;}.cls-12{fill:#2a3733;}.cls-13{fill:#181e1d;}.cls-14{fill:#bc9930;}.cls-15{fill:#2b2c2a;}</style></defs><title>Asset 2</title><g id="Layer_2" data-name="Layer 2"><g id="Layer_1-2" data-name="Layer 1"><rect class="cls-1" x="4.3" y="15.28" width="37.25" height="22.92"/><rect class="cls-2" x="4.3" y="15.28" width="37.25" height="5.73"/><path class="cls-3" d="M41.11,12.41H4.73a3.3,3.3,0,0,0-3.3,3.29V41.78a.72.72,0,0,0,.72.72H43.7a.71.71,0,0,0,.71-.72V15.7a3.3,3.3,0,0,0-3.3-3.29ZM4.3,37.48V16A.71.71,0,0,1,5,15.28H40.83a.71.71,0,0,1,.72.71V37.48a.72.72,0,0,1-.72.72H5a.71.71,0,0,1-.71-.72Z"/><path class="cls-4" d="M45.13,41.06H.72a.72.72,0,0,0-.72.72,2.88,2.88,0,0,0,2.87,2.87H43a2.87,2.87,0,0,0,2.86-2.87.71.71,0,0,0-.71-.72Z"/><path class="cls-1" d="M12.89,18.86h-5a.72.72,0,1,1,0-1.43h5a.72.72,0,1,1,0,1.43Z"/><path class="cls-1" d="M25.79,18.86h-.72a.72.72,0,0,1,0-1.43h.72a.72.72,0,0,1,0,1.43Z"/><path class="cls-1" d="M29.37,18.86h-.72a.72.72,0,0,1,0-1.43h.72a.72.72,0,1,1,0,1.43Z"/><path class="cls-1" d="M33,18.86h-.72a.72.72,0,0,1,0-1.43H33a.72.72,0,1,1,0,1.43Z"/><path class="cls-1" d="M36.53,18.86h-.71a.72.72,0,1,1,0-1.43h.71a.72.72,0,1,1,0,1.43Z"/><path class="cls-5" d="M37.25,24.59H13.57a.72.72,0,1,1,0-1.43H37.25a.72.72,0,1,1,0,1.43Z"/><path class="cls-6" d="M19.3,30.32H13.57a.72.72,0,1,1,0-1.43H19.3a.72.72,0,0,1,0,1.43Z"/><path class="cls-7" d="M19.3,33.18H13.57a.72.72,0,1,1,0-1.43H19.3a.72.72,0,0,1,0,1.43Z"/><path class="cls-6" d="M19.3,36.05H13.57a.72.72,0,1,1,0-1.43H19.3a.72.72,0,0,1,0,1.43Z"/><path class="cls-4" d="M38,30.32H22.16a.72.72,0,0,1,0-1.43H38a.72.72,0,0,1,0,1.43Z"/><path class="cls-4" d="M38,33.18H22.16a.72.72,0,0,1,0-1.43H38a.72.72,0,0,1,0,1.43Z"/><path class="cls-4" d="M38,36.05H22.16a.72.72,0,0,1,0-1.43H38a.72.72,0,0,1,0,1.43Z"/><path class="cls-8" d="M28.47,27.45H13.57a.72.72,0,1,1,0-1.43h14.9a.72.72,0,1,1,0,1.43Z"/><path class="cls-9" d="M37.8,27.45H31.4a.72.72,0,1,1,0-1.43h6.4a.72.72,0,1,1,0,1.43Z"/><path class="cls-4" d="M11.68,30.32H6a.72.72,0,0,1,0-1.43h5.73a.72.72,0,1,1,0,1.43Z"/><path class="cls-2" d="M11.68,33.18H6a.72.72,0,0,1,0-1.43h5.73a.72.72,0,1,1,0,1.43Z"/><path class="cls-4" d="M11.68,24.59H6a.72.72,0,0,1,0-1.43h5.73a.72.72,0,1,1,0,1.43Z"/><path class="cls-4" d="M11.68,27.45H6A.72.72,0,0,1,6,26h5.73a.72.72,0,1,1,0,1.43Z"/><path class="cls-4" d="M11.68,36.05H6a.72.72,0,0,1,0-1.43h5.73a.72.72,0,1,1,0,1.43Z"/><path class="cls-10" d="M20.06,42.5h5.73a1.43,1.43,0,0,0,1.43-1.44h-8.6a1.44,1.44,0,0,0,1.44,1.44Z"/><path class="cls-11" d="M25.55,5.9l-2,5.09s1.7,6.18,11,7.3S47,13.81,47,13.81l-.78-5.43Z"/><path class="cls-12" d="M25.55,5.9l-2,5.09s1.7,6.18,11,7.3L35.81,7.13Z"/><path class="cls-13" d="M25.55,5.9l-.61,1.47,9.21,3.93a5.27,5.27,0,0,0,2.64.31L46.51,10l-.25-1.62Z"/><path class="cls-12" d="M36.86,11.07a5.33,5.33,0,0,1-2.65-.32L18.64,3.87c-.7-.31-.66-.68.1-.81l16.75-3a5.43,5.43,0,0,1,2.65.32L53.71,7.25c.7.31.66.68-.1.81Z"/><path class="cls-14" d="M45,9.6a.23.23,0,0,0-.25.2l-1.06,8.88a.22.22,0,1,0,.43.05l1.07-8.88A.23.23,0,0,0,45,9.6Z"/><path class="cls-14" d="M45,9.62l-8.82-4a.23.23,0,0,0-.19.41l8.83,4a.23.23,0,0,0,.3-.11A.22.22,0,0,0,45,9.62Z"/><path class="cls-14" d="M45,14.58a.62.62,0,1,1-1.22-.14.66.66,0,0,1,.7-.62.65.65,0,0,1,.52.76Z"/><path class="cls-14" d="M44.1,15.05s-.69.63-.74,1.05c0,.18-.15,1.16-.24,1.87a1.25,1.25,0,0,1-.42.73c0,.24,2.25.52,2.28.27a1.19,1.19,0,0,1-.23-.78c.08-.7.18-1.67.21-1.86a2.63,2.63,0,0,0-.47-1.23Z"/><path class="cls-15" d="M37.32,6.05c0,.39-.6.65-1.23.57S35,6.17,35,5.78s.6-.65,1.23-.57,1.11.45,1.06.84Z"/></g></g></svg>