<svg xmlns="http://www.w3.org/2000/svg" viewBox="0 0 61.95 61.95"><defs><style>.cls-1{fill:#f28838;}.cls-2{fill:#4baf78;}.cls-3{fill:#ffb92e;}.cls-4{fill:#ef711d;}.cls-5{fill:#299956;}.cls-6{fill:#ef9a1d;}.cls-7{fill:#7c7a75;}.cls-8{fill:#6b6861;}.cls-9{fill:#fca468;}.cls-10{fill:#61c98d;}.cls-11{fill:#ccc3a8;}.cls-12{fill:#c9b585;}.cls-13{fill:#36a1cb;}.cls-14{fill:#ea6428;}.cls-15{fill:#dd4d14;}.cls-16{fill:#1e834e;}.cls-17{fill:#147540;}.cls-18{fill:#605e5a;}</style></defs><title>Asset 21</title><g id="Layer_2" data-name="Layer 2"><g id="Layer_1-2" data-name="Layer 1"><path class="cls-1" d="M27.92,37.77H11a.77.77,0,0,0-.77.76V48.86a.77.77,0,0,0,.77.76h16.9a.77.77,0,0,0,.77-.76V38.53A.77.77,0,0,0,27.92,37.77Z"/><path class="cls-2" d="M33.76,13.79h16.9a.76.76,0,0,1,.76.76V24.87a.76.76,0,0,1-.76.77H33.76a.76.76,0,0,1-.77-.77V14.55A.76.76,0,0,1,33.76,13.79Z"/><path class="cls-3" d="M51.42,34.63a1.34,1.34,0,0,0-1.35-1.35H30a1.34,1.34,0,0,0-1.35,1.35V48.27A1.35,1.35,0,0,0,30,49.62h20a1.35,1.35,0,0,0,1.35-1.35V34.63Z"/><path class="cls-3" d="M10.25,10.65A1.35,1.35,0,0,1,11.61,9.3h20A1.34,1.34,0,0,1,33,10.65V24.29a1.35,1.35,0,0,1-1.35,1.35h-20a1.36,1.36,0,0,1-1.36-1.35Z"/><path class="cls-4" d="M13,48.85V38.53a.76.76,0,0,1,.76-.76H11a.77.77,0,0,0-.77.76V48.85a.77.77,0,0,0,.77.77h2.69A.76.76,0,0,1,13,48.85Z"/><path class="cls-5" d="M35.69,24.87V14.55a.76.76,0,0,1,.76-.76H33.76a.76.76,0,0,0-.77.76V24.87a.76.76,0,0,0,.77.77h2.69A.76.76,0,0,1,35.69,24.87Z"/><path class="cls-6" d="M31.38,48.27V34.63a1.35,1.35,0,0,1,1.35-1.35H30a1.34,1.34,0,0,0-1.35,1.35V48.27A1.35,1.35,0,0,0,30,49.62h2.69A1.36,1.36,0,0,1,31.38,48.27Z"/><path class="cls-6" d="M13,24.29V10.65A1.34,1.34,0,0,1,14.3,9.3H11.61a1.35,1.35,0,0,0-1.36,1.35V24.29a1.36,1.36,0,0,0,1.36,1.35H14.3A1.35,1.35,0,0,1,13,24.29Z"/><path class="cls-7" d="M42.18,46.44H37.93a.81.81,0,0,0-.81.81v2.37H43V47.25A.81.81,0,0,0,42.18,46.44Z"/><path class="cls-7" d="M37.12,33.28v5.65a.81.81,0,0,0,.46.73.8.8,0,0,0,.85-.09l1.63-1.28,1.62,1.28a.82.82,0,0,0,.5.17.72.72,0,0,0,.35-.08.81.81,0,0,0,.46-.73V33.28Z"/><path class="cls-7" d="M18.69,9.3V15a.82.82,0,0,0,.46.73.85.85,0,0,0,.35.08.82.82,0,0,0,.5-.17l1.62-1.28,1.62,1.28a.84.84,0,0,0,.86.09.81.81,0,0,0,.45-.73V9.3Z"/><path class="cls-7" d="M23.75,22.46H19.5a.81.81,0,0,0-.81.81v2.37h5.86V23.27A.8.8,0,0,0,23.75,22.46Z"/><polygon class="cls-7" points="9.82 29.29 3.66 35.46 3.66 29.29 9.82 29.29"/><polygon class="cls-7" points="52.13 29.29 58.29 35.46 58.29 29.29 52.13 29.29"/><polygon class="cls-7" points="9.82 5.31 3.66 11.48 3.66 5.31 9.82 5.31"/><polygon class="cls-7" points="52.13 5.31 58.29 11.48 58.29 5.31 52.13 5.31"/><polygon class="cls-7" points="9.82 53.27 3.66 59.44 3.66 53.27 9.82 53.27"/><polygon class="cls-8" points="6.48 29.29 3.66 29.29 3.66 35.46 6.48 32.63 6.48 29.29"/><polygon class="cls-8" points="6.48 5.31 3.66 5.31 3.66 11.48 6.48 8.65 6.48 5.31"/><polygon class="cls-8" points="6.48 53.27 3.66 53.27 3.66 59.44 6.48 56.61 6.48 53.27"/><polygon class="cls-7" points="52.13 53.27 58.29 59.44 58.29 53.27 52.13 53.27"/><path class="cls-9" d="M22.69,46.65H16.9a1,1,0,1,1,0-2h5.79a1,1,0,1,1,0,2Z"/><path class="cls-10" d="M44.78,22.67H39a1,1,0,0,1,0-2h5.79a1,1,0,0,1,0,2Z"/><polygon class="cls-11" points="10.78 25.64 2.23 25.64 2.23 29.43 10.78 29.43 45.78 29.43 49.55 29.43 51.5 29.43 60.05 29.43 60.05 25.64 51.5 25.64 10.78 25.64"/><polygon class="cls-11" points="10.78 49.62 2.23 49.62 2.23 53.41 10.78 53.41 51.5 53.41 60.05 53.41 60.05 49.62 51.5 49.62 10.78 49.62"/><polygon class="cls-11" points="51.5 1.66 10.78 1.66 2.23 1.66 2.23 5.45 10.78 5.45 45.78 5.45 49.55 5.45 51.5 5.45 60.05 5.45 60.05 1.66 51.5 1.66"/><polygon class="cls-12" points="2.85 25.64 2.23 25.64 2.23 29.43 2.85 29.43 5.43 29.43 5.71 29.43 5.85 29.43 6.48 29.43 6.48 25.64 5.85 25.64 2.85 25.64"/><polygon class="cls-12" points="2.85 49.62 2.23 49.62 2.23 53.41 2.85 53.41 5.85 53.41 6.48 53.41 6.48 49.62 5.85 49.62 2.85 49.62"/><polygon class="cls-12" points="5.85 1.66 2.85 1.66 2.23 1.66 2.23 5.45 2.85 5.45 5.43 5.45 5.71 5.45 5.85 5.45 6.48 5.45 6.48 1.66 5.85 1.66"/><path class="cls-13" d="M62,11V1.69A1.69,1.69,0,0,0,60.26,0h-.42a1.69,1.69,0,0,0-1.68,1.69V60.26A1.69,1.69,0,0,0,59.84,62h.42A1.69,1.69,0,0,0,62,60.26V14.41"/><path class="cls-13" d="M0,1.69V60.26A1.69,1.69,0,0,0,1.69,62H2.1a1.69,1.69,0,0,0,1.69-1.69V1.69A1.69,1.69,0,0,0,2.1,0H1.69A1.69,1.69,0,0,0,0,1.69Z"/><path class="cls-14" d="M27.92,37.77H11a.77.77,0,0,0-.77.76v3.41H28.69V38.53A.77.77,0,0,0,27.92,37.77Z"/><path class="cls-15" d="M13,38.53a.76.76,0,0,1,.76-.76H11a.77.77,0,0,0-.77.76v3.41H13Z"/><path class="cls-16" d="M33.76,13.79h16.9a.76.76,0,0,1,.76.76V18H33V14.55A.76.76,0,0,1,33.76,13.79Z"/><path class="cls-17" d="M35.69,14.55a.76.76,0,0,1,.76-.76H33.76a.76.76,0,0,0-.77.76V18h2.7Z"/><path class="cls-18" d="M21.62,22.46H19.5a.81.81,0,0,0-.81.81v2.37h2.93Z"/><path class="cls-18" d="M21.62,9.3H18.69V15a.82.82,0,0,0,.46.73.85.85,0,0,0,.35.08.82.82,0,0,0,.5-.17l1.62-1.28Z"/><path class="cls-18" d="M40.06,46.44H37.93a.81.81,0,0,0-.81.81v2.37h2.94Z"/><path class="cls-18" d="M40.06,33.28H37.12v5.65a.81.81,0,0,0,.46.73.8.8,0,0,0,.85-.09l1.63-1.28h0v-5Z"/></g></g></svg>