<svg xmlns="http://www.w3.org/2000/svg" viewBox="0 0 81.01 67.27"><defs><style>.cls-1{fill:#a5eb78;}.cls-2{fill:#afb9d2;}.cls-3{fill:#c7cfe2;}.cls-4{fill:#eff2fa;}.cls-5{fill:#5d9cec;}.cls-6{fill:#eac6bb;}.cls-7{opacity:0.2;}.cls-8{opacity:0.5;}.cls-9{fill:#fff;}.cls-10{fill:#ffce54;}.cls-11{fill:#e6e9ed;}.cls-12{fill:#656d78;}.cls-13{opacity:0.3;}</style></defs><title>Asset 18</title><g id="Layer_2" data-name="Layer 2"><g id="Layer_1-2" data-name="Layer 1"><path class="cls-1" d="M39.66,4.61H20.29a1.85,1.85,0,1,1,0-3.69H39.66a1.85,1.85,0,0,1,0,3.69Z"/><path class="cls-1" d="M7.38,0a7.38,7.38,0,1,0,7.38,7.38A7.37,7.37,0,0,0,7.38,0Zm4.34,5.57L6.8,10.49a.92.92,0,0,1-.65.27.91.91,0,0,1-.65-.27L3,8a.92.92,0,0,1,1.3-1.3l1.81,1.8,4.27-4.26a.92.92,0,0,1,1.3,1.3Z"/><path class="cls-2" d="M48.88,9.22H30.43a.92.92,0,1,1,0-1.84H48.88a.92.92,0,1,1,0,1.84Z"/><path class="cls-2" d="M26.75,9.22H19.37a.92.92,0,1,1,0-1.84h7.38a.92.92,0,0,1,0,1.84Z"/><path class="cls-3" d="M52.57,12.91H47a.92.92,0,0,1,0-1.84h5.54a.92.92,0,1,1,0,1.84Z"/><path class="cls-3" d="M43.35,12.91h-24a.92.92,0,1,1,0-1.84h24a.92.92,0,1,1,0,1.84Z"/><path class="cls-1" d="M39.66,24H20.29a1.85,1.85,0,1,1,0-3.69H39.66a1.85,1.85,0,0,1,0,3.69Z"/><path class="cls-1" d="M7.38,19.37a7.38,7.38,0,1,0,7.38,7.38,7.37,7.37,0,0,0-7.38-7.38Zm4.34,5.57L6.8,29.86a.92.92,0,0,1-.65.27.91.91,0,0,1-.65-.27L3,27.4a.93.93,0,0,1,0-1.31.92.92,0,0,1,1.3,0L6.15,27.9l4.27-4.27a.92.92,0,0,1,1.3,0,.93.93,0,0,1,0,1.31Z"/><path class="cls-2" d="M48.88,28.59H30.43a.92.92,0,0,1,0-1.84H48.88a.92.92,0,1,1,0,1.84Z"/><path class="cls-2" d="M26.75,28.59H19.37a.92.92,0,1,1,0-1.84h7.38a.92.92,0,1,1,0,1.84Z"/><path class="cls-3" d="M52.57,32.28H47a.93.93,0,0,1,0-1.85h5.54a.93.93,0,0,1,0,1.85Z"/><path class="cls-3" d="M43.35,32.28h-24a.93.93,0,1,1,0-1.85h24a.93.93,0,0,1,0,1.85Z"/><path class="cls-4" d="M36.89,43.35H20.29a1.85,1.85,0,1,1,0-3.69h16.6a1.85,1.85,0,0,1,0,3.69Z"/><path class="cls-4" d="M7.38,38.73a7.38,7.38,0,1,0,7.38,7.38,7.38,7.38,0,0,0-7.38-7.38Z"/><path class="cls-2" d="M48.88,48H30.43a.93.93,0,0,1,0-1.85H48.88a.93.93,0,0,1,0,1.85Z"/><path class="cls-2" d="M26.75,48H19.37a.93.93,0,1,1,0-1.85h7.38a.93.93,0,0,1,0,1.85Z"/><path class="cls-3" d="M52.57,51.65H47a.93.93,0,0,1,0-1.85h5.54a.93.93,0,0,1,0,1.85Z"/><path class="cls-3" d="M43.35,51.65h-24a.93.93,0,1,1,0-1.85h24a.93.93,0,0,1,0,1.85Z"/><rect class="cls-5" x="55.43" y="53.49" width="13.78" height="13.78"/><path class="cls-6" d="M79.75,27.12a2.51,2.51,0,0,0-3.44.92l-3.17,4.53V26.92h0V9.21h0a2,2,0,1,0-3.93,0V26.92h-2V7.7a1.76,1.76,0,0,0,.06-.46,2,2,0,1,0-3.94,0h0V26.92H61.4V9.21h0a2,2,0,1,0-3.94,0V26.92h-2V14.14h0a2,2,0,1,0-3.93,0V38.59a10.93,10.93,0,0,0-.06,1.15,10.81,10.81,0,0,0,5.9,9.63v4.12h9.84V49.37a10.89,10.89,0,0,0,4.8-4.9l8.64-13.91A2.52,2.52,0,0,0,79.75,27.12Z"/><path class="cls-6" d="M41.16,24.46a1.47,1.47,0,0,0-1.47,1.48v9.84h-2V22.49a1.48,1.48,0,0,0-2.95,0V35.78h-2V20.53a1.48,1.48,0,1,0-2.95,0V35.78h-2V22.49a1.48,1.48,0,0,0-2.95,0v17.9l-2.38-3.14a1.88,1.88,0,1,0-3.25,1.88L26.4,50.5h0a8.83,8.83,0,0,0,3.45,3v3.91H38.7V53a8.83,8.83,0,0,0,3.94-7.36V25.94A1.48,1.48,0,0,0,41.16,24.46Z"/><g class="cls-7"><path d="M41.16,24.46a1.63,1.63,0,0,0-.49.09,1.49,1.49,0,0,1,1,1.39V45.61A8.85,8.85,0,0,1,37.72,53v3.47h1V53a8.83,8.83,0,0,0,3.94-7.36V25.94A1.48,1.48,0,0,0,41.16,24.46Z"/></g><g class="cls-8"><path class="cls-9" d="M25.91,41.68V22.49a1.46,1.46,0,0,1,1-1.38,1.39,1.39,0,0,0-.5-.09,1.47,1.47,0,0,0-1.47,1.47v17.9Z"/><path class="cls-9" d="M27.39,50.5h0l-7.1-11.37A1.89,1.89,0,0,1,21,36.56a2.58,2.58,0,0,1,.46-.18,1.88,1.88,0,0,0-2.13,2.75L26.4,50.5h0a8.83,8.83,0,0,0,3.45,3v2.92h1V53.52A8.8,8.8,0,0,1,27.39,50.5Z"/></g><path class="cls-10" d="M59.37,56.44a1,1,0,1,1-1-1A1,1,0,0,1,59.37,56.44Z"/><g class="cls-8"><path class="cls-9" d="M58.38,56.44a1,1,0,0,1,.49-.83.89.89,0,0,0-.49-.15,1,1,0,0,0,0,2,.89.89,0,0,0,.49-.16A1,1,0,0,1,58.38,56.44Z"/></g><rect class="cls-11" x="28.86" y="57.43" width="10.82" height="3.94"/><rect class="cls-12" x="27.88" y="61.36" width="12.79" height="5.9"/><g class="cls-7"><rect x="57.4" y="52.51" width="9.84" height="0.98"/></g><g class="cls-7"><rect x="29.85" y="56.44" width="8.86" height="0.98"/></g><g class="cls-7"><rect x="28.86" y="60.38" width="10.82" height="0.98"/></g><rect class="cls-9" x="28.86" y="57.43" width="0.98" height="2.95"/><g class="cls-13"><rect class="cls-9" x="27.88" y="61.36" width="1.97" height="5.9"/></g><g class="cls-13"><rect class="cls-9" x="55.43" y="53.49" width="1.97" height="13.78"/></g><g class="cls-7"><rect x="38.7" y="61.36" width="1.97" height="5.9"/></g><g class="cls-7"><rect x="67.24" y="53.49" width="1.97" height="13.78"/></g><g class="cls-7"><rect x="38.7" y="57.43" width="0.98" height="2.95"/></g></g></g></svg>