<svg xmlns="http://www.w3.org/2000/svg" xmlns:xlink="http://www.w3.org/1999/xlink" viewBox="0 0 62.57 68.12"><defs><style>.cls-1{fill:none;}.cls-2{fill:#d5e3ef;}.cls-3{fill:#99b4cd;}.cls-4{fill:#c9d5e3;}.cls-5{fill:#3689c9;}.cls-6{fill:#3d545f;}.cls-7{fill:#ee2c39;}.cls-8{fill:#cc202c;}.cls-9{fill:#f6b545;}.cls-10{fill:#e78825;}.cls-11{fill:#ffcb5b;}.cls-12{fill:#f19920;}.cls-13{fill:#1470b8;}.cls-14{fill:#4c9cd6;}.cls-15{fill:#82a7c4;}.cls-16{fill:#6c9abb;}.cls-17{clip-path:url(#clip-path);}.cls-18{fill:#00acea;}.cls-19{fill:#00efd1;}.cls-20{fill:#fedb41;}</style><clipPath id="clip-path"><rect class="cls-1" x="35.01" y="43.82" width="27.56" height="24.34"/></clipPath></defs><title>Asset 22</title><g id="Layer_2" data-name="Layer 2"><g id="Layer_1-2" data-name="Layer 1"><path class="cls-2" d="M42.66,12V53.33A2.67,2.67,0,0,1,40,56H2.67A2.67,2.67,0,0,1,0,53.33V2.67A2.68,2.68,0,0,1,2.67,0h28V9.33A2.68,2.68,0,0,0,33.33,12Z"/><path class="cls-3" d="M42.66,12H33.33a2.68,2.68,0,0,1-2.67-2.67V0Z"/><path class="cls-4" d="M42.66,38.66,30.66,48h6a4,4,0,0,0,1.2-.26l4.8-2.4Z"/><polygon class="cls-4" points="42.66 12 34.66 12 42.66 17.33 42.66 12"/><path class="cls-5" d="M52.39,27.06l-.8-.8a3.22,3.22,0,0,0-4.53,0L45.33,28,32,41.33l5.33,5.33L50.66,33.33l1.73-1.73a3.13,3.13,0,0,0,.94-2.27h0A3.47,3.47,0,0,0,52.39,27.06Z"/><path class="cls-6" d="M6,17.33H16.66a.64.64,0,0,1,.67.67h0a.63.63,0,0,1-.67.66H6A.63.63,0,0,1,5.33,18h0A.64.64,0,0,1,6,17.33Z"/><path class="cls-6" d="M14,25.33H24.66a.64.64,0,0,1,.67.67h0a.63.63,0,0,1-.67.66H14a.63.63,0,0,1-.67-.66h0A.64.64,0,0,1,14,25.33Z"/><path class="cls-6" d="M16.66,29.33H30a.63.63,0,0,1,.66.67h0a.62.62,0,0,1-.66.66H16.66A.62.62,0,0,1,16,30h0A.63.63,0,0,1,16.66,29.33Z"/><path class="cls-6" d="M6,21.33h8a.63.63,0,0,1,.66.67h0a.62.62,0,0,1-.66.66H6A.63.63,0,0,1,5.33,22h0A.64.64,0,0,1,6,21.33Z"/><path class="cls-6" d="M27.33,17.33h8A.64.64,0,0,1,36,18h0a.63.63,0,0,1-.67.66h-8a.63.63,0,0,1-.67-.66h0A.64.64,0,0,1,27.33,17.33Z"/><path class="cls-6" d="M19.33,17.33h5.33a.64.64,0,0,1,.67.67h0a.63.63,0,0,1-.67.66H19.33a.63.63,0,0,1-.67-.66h0A.64.64,0,0,1,19.33,17.33Z"/><path class="cls-6" d="M31.33,21.33H34a.63.63,0,0,1,.66.67h0a.62.62,0,0,1-.66.66H31.33a.63.63,0,0,1-.67-.66h0A.64.64,0,0,1,31.33,21.33Z"/><path class="cls-6" d="M32.66,29.33h2.67A.64.64,0,0,1,36,30h0a.63.63,0,0,1-.67.66H32.66A.62.62,0,0,1,32,30h0A.63.63,0,0,1,32.66,29.33Z"/><path class="cls-6" d="M14,33.33h5.33A.64.64,0,0,1,20,34h0a.63.63,0,0,1-.67.66H14a.63.63,0,0,1-.67-.66h0A.64.64,0,0,1,14,33.33Z"/><path class="cls-6" d="M26,46.66h5.33a.64.64,0,0,1,.67.67h0c0,.4-1.34.66-1.34.66H26a.63.63,0,0,1-.67-.66h0A.64.64,0,0,1,26,46.66Z"/><path class="cls-6" d="M27.33,25.33h5.33a.64.64,0,0,1,.67.67h0a.63.63,0,0,1-.67.66H27.33a.63.63,0,0,1-.67-.66h0A.64.64,0,0,1,27.33,25.33Z"/><path class="cls-6" d="M16.66,21.33h12a.64.64,0,0,1,.67.67h0a.63.63,0,0,1-.67.66h-12A.62.62,0,0,1,16,22h0A.63.63,0,0,1,16.66,21.33Z"/><path class="cls-6" d="M15.33,12h12a.64.64,0,0,1,.67.67h0a.63.63,0,0,1-.67.66h-12a.63.63,0,0,1-.67-.66h0A.64.64,0,0,1,15.33,12Z"/><path class="cls-6" d="M6,25.33h5.33A.64.64,0,0,1,12,26h0a.63.63,0,0,1-.67.66H6A.63.63,0,0,1,5.33,26h0A.64.64,0,0,1,6,25.33Z"/><path class="cls-6" d="M6,29.33h8a.63.63,0,0,1,.66.67h0a.62.62,0,0,1-.66.66H6A.63.63,0,0,1,5.33,30h0A.64.64,0,0,1,6,29.33Z"/><path class="cls-6" d="M6,33.33h5.33A.64.64,0,0,1,12,34h0a.63.63,0,0,1-.67.66H6A.63.63,0,0,1,5.33,34h0A.64.64,0,0,1,6,33.33Z"/><polygon class="cls-7" points="17.33 58.66 13.33 57.33 9.33 58.66 9.33 49.33 17.33 49.33 17.33 58.66"/><path class="cls-8" d="M17.33,52.39V50.66h-8v8l4-1.33v-4A8,8,0,0,0,17.33,52.39Z"/><circle class="cls-9" cx="13.33" cy="45.33" r="6.67"/><circle class="cls-10" cx="13.33" cy="45.33" r="2.67"/><path class="cls-11" d="M8,46.66a1.25,1.25,0,0,1-1.33-1.33,6.6,6.6,0,0,1,6.66-6.67,1.34,1.34,0,0,1,0,2.67,3.93,3.93,0,0,0-4,4A1.25,1.25,0,0,1,8,46.66Z"/><path class="cls-12" d="M18.66,44A1.27,1.27,0,0,1,20,45.33,6.6,6.6,0,0,1,13.33,52a1.33,1.33,0,0,1,0-2.66,3.93,3.93,0,0,0,4-4A1.26,1.26,0,0,1,18.66,44Z"/><path class="cls-13" d="M53.33,29.33h0a1.34,1.34,0,0,0-2.27-.93l-16,16,2.27,2.27L50.66,33.33l1.73-1.73a2.38,2.38,0,0,0,.67-.94,4.84,4.84,0,0,0,.27-1.33Z"/><path class="cls-14" d="M34.26,41.46a.81.81,0,0,1-.53-.13.65.65,0,0,1,0-.94l4-4a.66.66,0,0,1,.93.93l-4,4A.49.49,0,0,1,34.26,41.46Z"/><path class="cls-14" d="M40,35.73a.82.82,0,0,1-.53-.13.66.66,0,0,1,0-.94l1.33-1.33a.66.66,0,0,1,.94.93L40.39,35.6A1.29,1.29,0,0,1,40,35.73Z"/><polygon class="cls-15" points="37.33 46.66 30.66 47.99 32 41.33 37.33 46.66"/><polygon class="cls-16" points="30.66 47.99 37.33 46.66 35.06 44.39 30.66 47.99"/><g class="cls-17"><path class="cls-18" d="M62.57,52.38v8.19a2.52,2.52,0,0,1-2.52,2.52H55.28V59.36A1.26,1.26,0,0,0,54,58.1H43.56a1.25,1.25,0,0,0-1.26,1.26v3.73H37.53A2.52,2.52,0,0,1,35,60.57V52.38a2.51,2.51,0,0,1,2.52-2.51H60.05a2.51,2.51,0,0,1,2.52,2.51Z"/></g><path class="cls-19" d="M59,48.28v1.59h-4.4V47h3.15A1.25,1.25,0,0,1,59,48.28Z"/><path class="cls-19" d="M55.28,63.09v5h-13V59.36a1.25,1.25,0,0,1,1.26-1.26H54a1.26,1.26,0,0,1,1.26,1.26Z"/><path class="cls-20" d="M54.63,47v2.85H43V45.13a1.27,1.27,0,0,1,1.26-1.26h9.16a1.27,1.27,0,0,1,1.26,1.26Z"/><path class="cls-19" d="M43,47v2.85H38.54V48.28A1.27,1.27,0,0,1,39.8,47Z"/><path class="cls-18" d="M52.76,63.89H44.82a.63.63,0,1,1,0-1.25h7.94a.63.63,0,1,1,0,1.25Z"/><path class="cls-18" d="M52.76,65.91H44.82a.63.63,0,1,1,0-1.26h7.94a.63.63,0,0,1,0,1.26Z"/><path class="cls-18" d="M52.76,61.88H44.82a.63.63,0,1,1,0-1.26h7.94a.63.63,0,1,1,0,1.26Z"/><path class="cls-19" d="M43,54.55H38.47a.63.63,0,1,1,0-1.26H43a.63.63,0,1,1,0,1.26Z"/></g></g></svg>