<svg xmlns="http://www.w3.org/2000/svg" viewBox="0 0 76.69 64.1"><defs><style>.cls-1{fill:#e4eaf8;}.cls-2{fill:#ff5050;}.cls-3{fill:#707487;}.cls-4{fill:#7f8499;}.cls-5{fill:#d5dced;}.cls-6{fill:#ffdc64;}.cls-7{fill:#ffc850;}.cls-8{fill:#faebc8;}.cls-9{fill:#f5dcb4;}.cls-10{fill:#a5a8a0;}.cls-11{fill:#d2d6ce;}.cls-12{fill:#474747;}.cls-13{fill:#656663;}.cls-14{fill:#ff5200;}.cls-15{fill:#c00;}.cls-16{fill:#fff;}</style></defs><title>Asset 19</title><g id="Layer_2" data-name="Layer 2"><g id="Layer_1-2" data-name="Layer 1"><path class="cls-1" d="M44.64,41.9H2.73A2.73,2.73,0,0,1,0,39.17V2.73A2.73,2.73,0,0,1,2.73,0H44.64a2.73,2.73,0,0,1,2.73,2.73V39.17A2.73,2.73,0,0,1,44.64,41.9Z"/><path class="cls-2" d="M10.93,6.38a.92.92,0,0,0,0-1.83H5.47a.92.92,0,0,0-.92.92v9.11a.92.92,0,0,0,.92.91h5.46a.92.92,0,0,0,0-1.83H6.38V10.93H10a.91.91,0,0,0,0-1.82H6.38V6.38Z"/><path class="cls-2" d="M21.52,4.75a.92.92,0,0,0-1.28.15L17.31,8.56,14.38,4.9a.91.91,0,0,0-1.28-.15A.92.92,0,0,0,13,6l3.19,4L13,14a.91.91,0,0,0,.15,1.28.89.89,0,0,0,.56.2.91.91,0,0,0,.72-.35l2.93-3.66,2.93,3.66a.91.91,0,0,0,.71.35.94.94,0,0,0,.57-.2A.91.91,0,0,0,21.66,14l-3.18-4,3.18-4A.92.92,0,0,0,21.52,4.75Z"/><path class="cls-2" d="M28,4.55h-1.4a2.3,2.3,0,0,0-2.24,1.84l-1.6,8a.91.91,0,0,0,1.79.35l.4-2h4.7l.4,2a.92.92,0,0,0,.89.74l.18,0a.92.92,0,0,0,.72-1.07l-1.61-8A2.28,2.28,0,0,0,28,4.55Zm-2.69,6.38.84-4.19a.45.45,0,0,1,.45-.36H28a.46.46,0,0,1,.45.36l.83,4.19Z"/><path class="cls-2" d="M42.16,4.59a.9.9,0,0,0-1,.38L37.8,10.16,34.47,5a.9.9,0,0,0-1-.38.92.92,0,0,0-.66.88v9.11a.92.92,0,0,0,1.83,0v-6L37,12.34a1,1,0,0,0,1.53,0L41,8.57v6a.92.92,0,0,0,1.83,0V5.47A.92.92,0,0,0,42.16,4.59Z"/><circle class="cls-2" cx="7.29" cy="20.95" r="1.82"/><circle class="cls-2" cx="7.29" cy="28.24" r="1.82"/><circle class="cls-2" cx="7.29" cy="35.53" r="1.82"/><path class="cls-3" d="M27.33,21.86H12.75a.91.91,0,0,1,0-1.82H27.33a.91.91,0,0,1,0,1.82Z"/><path class="cls-4" d="M16.4,29.15H12.75a.91.91,0,0,1,0-1.82H16.4a.91.91,0,0,1,0,1.82Z"/><path class="cls-3" d="M21.86,36.44H12.75a.91.91,0,1,1,0-1.82h9.11a.91.91,0,1,1,0,1.82Z"/><path class="cls-4" d="M40.08,29.15H20a.91.91,0,0,1,0-1.82h20a.91.91,0,1,1,0,1.82Z"/><path class="cls-5" d="M47.37,9.11,26.94,29.54l-2.34,5a.73.73,0,0,0,1,1l5-2.34L47.37,16.4Z"/><polygon class="cls-3" points="36.44 27.33 29.15 27.33 27.33 29.15 34.62 29.15 36.44 27.33"/><path class="cls-6" d="M23.69,34.67l4.42-2.06a3.59,3.59,0,0,0,1-.72L52.57,8.47a.92.92,0,0,0,0-1.29L50.21,4.82a.92.92,0,0,0-1.29,0L25.51,28.24a3.43,3.43,0,0,0-.73,1L22.72,33.7A.73.73,0,0,0,23.69,34.67Z"/><path class="cls-7" d="M22.86,34.53a.72.72,0,0,0,.83.14l4.42-2.06a3.59,3.59,0,0,0,1-.72L50.48,10.55,48.66,8.73Z"/><path class="cls-8" d="M30.06,31l-3.64-3.64-.91.91a3.43,3.43,0,0,0-.73,1L22.72,33.7a.73.73,0,0,0,1,1l4.42-2.06a3.59,3.59,0,0,0,1-.72Z"/><path class="cls-9" d="M28.24,29.15l-5.38,5.38a.72.72,0,0,0,.83.14l4.42-2.06a3.59,3.59,0,0,0,1-.72l.91-.92Z"/><path class="cls-8" d="M50.21,4.82a.92.92,0,0,0-1.29,0L46.84,6.91l3.64,3.64,2.09-2.08a.92.92,0,0,0,0-1.29Z"/><path class="cls-9" d="M52.57,7.18,51.39,6,48.66,8.73l1.82,1.82,2.09-2.08A.92.92,0,0,0,52.57,7.18Z"/><path class="cls-10" d="M69.93,40.94V62.17a2,2,0,0,1-2.05,1.93H41.11a2,2,0,0,1-2.06-1.93V40.94Z"/><path class="cls-11" d="M69.93,59.28H39.05a1.93,1.93,0,0,1-1.93-1.93V24.53a1.93,1.93,0,0,1,1.93-1.93H69.93a1.93,1.93,0,0,1,1.93,1.93V57.35a1.93,1.93,0,0,1-1.93,1.93Z"/><path class="cls-10" d="M53.53,31.29a.73.73,0,0,1-.73.72H41.22a.72.72,0,0,1-.72-.72.73.73,0,0,1,.72-.73H52.8a.73.73,0,0,1,.73.73Zm-4.59,7H41.22a.73.73,0,0,0-.72.73.72.72,0,0,0,.72.72h7.72a.73.73,0,0,0,.73-.72.73.73,0,0,0-.73-.73Zm3,0h-.09a.73.73,0,0,0-.73.73.73.73,0,0,0,.73.72h.09a.73.73,0,0,0,.73-.72.73.73,0,0,0-.73-.73Zm-3,3.87H41.22a.72.72,0,0,0,0,1.44h7.72a.72.72,0,1,0,0-1.44Zm0,3.86H41.22a.72.72,0,0,0,0,1.44h7.72a.72.72,0,1,0,0-1.44Zm3,0h-.09a.72.72,0,1,0,0,1.44h.09a.72.72,0,1,0,0-1.44Zm-3,3.86H41.22a.72.72,0,0,0,0,1.44h7.72a.72.72,0,1,0,0-1.44Zm0,3.86H41.22a.72.72,0,0,0,0,1.44h7.72a.72.72,0,1,0,0-1.44Zm3-3.86h-.09a.72.72,0,1,0,0,1.44h.09a.72.72,0,1,0,0-1.44ZM65,42.15H57.29a.72.72,0,0,0,0,1.44H65a.72.72,0,1,0,0-1.44ZM65,46H57.29a.72.72,0,0,0,0,1.44H65A.72.72,0,1,0,65,46Zm2.9-2.42H68a.72.72,0,1,0,0-1.44h-.09a.72.72,0,1,0,0,1.44ZM65,49.87H57.29a.72.72,0,1,0,0,1.44H65a.72.72,0,1,0,0-1.44Zm0,3.86H57.29a.72.72,0,0,0,0,1.44H65a.72.72,0,1,0,0-1.44Zm3-3.86h-.09a.72.72,0,1,0,0,1.44H68a.72.72,0,1,0,0-1.44Z"/><path class="cls-12" d="M48.7,25.5H42.91A1.93,1.93,0,0,1,41,23.57V21.64a1.92,1.92,0,0,1,1.93-1.93H48.7a1.92,1.92,0,0,1,1.93,1.93v1.93A1.93,1.93,0,0,1,48.7,25.5Z"/><path class="cls-13" d="M47.74,22.6H42a1,1,0,0,1-1-1,1.92,1.92,0,0,1,1.93-1.93h3.86a1.92,1.92,0,0,1,1.93,1.93,1,1,0,0,1-1,1Z"/><path class="cls-14" d="M67,19.71a9.65,9.65,0,1,1-9.65,9.65A9.65,9.65,0,0,1,67,19.71Z"/><path class="cls-15" d="M67,21.64a7.72,7.72,0,1,1-7.72,7.72A7.72,7.72,0,0,1,67,21.64Z"/><path class="cls-16" d="M67.74,26.3a2.15,2.15,0,0,0-2.06-1.53H65.4a2.13,2.13,0,0,0-2.05,1.53l-1.83,6.09a.71.71,0,0,0,.49.9.72.72,0,0,0,.9-.48l.69-2.33h3.88l.7,2.33a.72.72,0,0,0,.69.51.76.76,0,0,0,.21,0,.73.73,0,0,0,.49-.9ZM64,29l.69-2.32a.7.7,0,0,1,.67-.5h.28a.7.7,0,0,1,.67.5l.7,2.32Zm10,0a.73.73,0,0,1-.73.72H72.7v.61a.72.72,0,0,1-1.44,0v-.61h-.61a.73.73,0,0,1-.73-.72.73.73,0,0,1,.73-.73h.61v-.6a.72.72,0,1,1,1.44,0v.6h.61a.73.73,0,0,1,.73.73Z"/></g></g></svg>