<svg xmlns="http://www.w3.org/2000/svg" viewBox="0 0 65.62 65.62"><defs><style>.cls-1{fill:#e4edfb;}.cls-2{fill:#57565c;}.cls-3{fill:#d7e1f2;}.cls-4{fill:#e76e54;}.cls-5{fill:#fff;}</style></defs><title>Asset 17</title><g id="Layer_2" data-name="Layer 2"><g id="Layer_1-2" data-name="Layer 1"><path class="cls-1" d="M53.32,0V58.53L45.12,64,39,59.88,32.81,64l-6.15-4.1-2.05,1.36L20.49,64l-6.16-4.1L8.2,64,0,58.53V0Z"/><rect class="cls-2" x="8.2" y="12.3" width="24.61" height="4.1"/><rect class="cls-2" x="36.91" y="12.3" width="8.2" height="4.1"/><rect class="cls-2" x="8.2" y="20.51" width="12.3" height="4.1"/><rect class="cls-2" x="8.2" y="28.71" width="12.3" height="4.1"/><rect class="cls-2" x="8.2" y="36.91" width="12.3" height="4.1"/><path class="cls-3" d="M24.61,24.61V56.94L20.5,59.68l-6.15-4.1L8.2,59.68,0,54.21v4.31L8.2,64l6.15-4.1L20.5,64l6.16-4.11L32.81,64,39,59.89,45.12,64l8.2-5.46V16.41H32.81a8.2,8.2,0,0,0-8.2,8.2Z"/><path class="cls-4" d="M61.52,65.62H32.81a4.1,4.1,0,0,1-4.1-4.1V24.61a4.1,4.1,0,0,1,4.1-4.1H61.52a4.09,4.09,0,0,1,4.1,4.1V61.52a4.09,4.09,0,0,1-4.1,4.1Z"/><rect class="cls-5" x="36.91" y="28.71" width="20.51" height="12.3"/><rect class="cls-5" x="36.91" y="45.12" width="4.1" height="4.1"/><rect class="cls-5" x="36.91" y="53.32" width="4.1" height="4.1"/><rect class="cls-5" x="45.12" y="45.12" width="4.1" height="4.1"/><rect class="cls-5" x="45.12" y="53.32" width="4.1" height="4.1"/><rect class="cls-5" x="53.32" y="45.12" width="4.1" height="4.1"/><rect class="cls-5" x="53.32" y="53.32" width="4.1" height="4.1"/><rect class="cls-5" x="8.2" y="4.1" width="4.1" height="4.1"/><rect class="cls-5" x="16.41" y="4.1" width="4.1" height="4.1"/></g></g></svg>