<svg xmlns="http://www.w3.org/2000/svg" xmlns:xlink="http://www.w3.org/1999/xlink" viewBox="0 0 82.75 50.63"><defs><style>.cls-1{fill:none;}.cls-2{clip-path:url(#clip-path);}.cls-3{clip-path:url(#clip-path-2);}.cls-4{fill:#cdc1ab;}.cls-5{fill:#ccc2ab;}.cls-6{fill:#ccc3ac;}.cls-7{fill:#ccc4ac;}.cls-8{fill:#cbc5ad;}.cls-9{fill:#cbc6ad;}.cls-10{fill:#cac7ae;}.cls-11{fill:#c9c8ad;}.cls-12{fill:#c9c8ae;}.cls-13{fill:#c8caae;}.cls-14{fill:#c8caaf;}.cls-15{fill:#c7cbaf;}.cls-16{fill:#c7ccaf;}.cls-17{fill:#c6cdb0;}.cls-18{fill:#c5ceb0;}.cls-19{fill:#c5cfb1;}.cls-20{fill:#c4cfb0;}.cls-21{fill:#c4d1b1;}.cls-22{fill:#c3d1b1;}.cls-23{fill:#c3d2b2;}.cls-24{fill:#c2d2b2;}.cls-25{fill:#c2d3b2;}.cls-26{fill:#c2d4b2;}.cls-27{fill:#c2d5b3;}.cls-28{fill:#c1d5b3;}.cls-29{fill:#c1d6b3;}.cls-30{fill:#c0d6b4;}.cls-31{fill:#c0d7b4;}.cls-32{fill:#c0d7b3;}.cls-33{fill:#bfd7b3;}.cls-34{fill:#bfd8b4;}.cls-35{fill:#bfd9b4;}.cls-36{fill:#bedab5;}.cls-37{fill:#bcdbb6;}.cls-38{fill:#bcdcb6;}.cls-39{fill:#bddcb5;}.cls-40{fill:#bcddb6;}.cls-41{fill:#bbddb6;}.cls-42{fill:#bbdeb6;}.cls-43{fill:#bedeb7;}.cls-44{fill:#c0dcb8;}.cls-45{fill:#c3dcb8;}.cls-46{fill:#c5dcba;}.cls-47{fill:#c8dcba;}.cls-48{fill:#cadcbc;}.cls-49{fill:#ccdcbd;}.cls-50{fill:#cddbbd;}.cls-51{fill:#cfdbbe;}.cls-52{fill:#d1dbbf;}.cls-53{fill:#d3dbbf;}.cls-54{fill:#d4dbc0;}.cls-55{fill:#d5dac1;}.cls-56{fill:#d7dac1;}.cls-57{fill:#d9dbc2;}.cls-58{fill:#dadac2;}.cls-59{fill:#dbdac3;}.cls-60{fill:#dcdac3;}.cls-61{fill:#dddac4;}.cls-62{fill:#ded9c4;}.cls-63{fill:#e0dac5;}.cls-64{fill:#e1dac5;}.cls-65{fill:#e2d9c5;}.cls-66{fill:#e2dac6;}.cls-67{fill:#e3d9c6;}.cls-68{fill:#e4d9c6;}.cls-69{fill:#e4d9c7;}.cls-70{fill:#e5d9c7;}.cls-71{fill:#e6d9c7;}.cls-72{fill:#e7d9c7;}.cls-73{fill:#e8d9c8;}.cls-74{fill:#e8d8c8;}.cls-75{fill:#e9d9c8;}.cls-76{fill:#e9d8c8;}.cls-77{fill:#e9d8c9;}.cls-78{fill:#ead9c9;}.cls-79{fill:#ead8c8;}.cls-80{fill:#ead8c9;}.cls-81{fill:#ebd8c9;}.cls-82{fill:#56816f;}.cls-83{fill:#f7faf5;}.cls-84{fill:#e42329;}.cls-85{fill:#fff;}.cls-86{clip-path:url(#clip-path-3);}.cls-87{clip-path:url(#clip-path-4);}.cls-88{fill:#e6e6e6;}.cls-89{fill:#b1b6bb;}.cls-90{fill:#d5e5f5;}.cls-91{fill:#a4c6e8;}.cls-92{fill:#87bc41;}.cls-93{fill:#f69924;}</style><clipPath id="clip-path"><rect class="cls-1" x="53.48" y="8.69" width="19.27" height="33.51" transform="translate(31.91 85.91) rotate(-84.66)"/></clipPath><clipPath id="clip-path-2"><rect class="cls-1" x="50.37" y="6.9" width="25.47" height="37.08" transform="translate(31.91 85.91) rotate(-84.66)"/></clipPath><clipPath id="clip-path-3"><rect class="cls-1" x="50.98" y="17.4" width="19.26" height="33.51" transform="translate(20.97 91.32) rotate(-84.66)"/></clipPath><clipPath id="clip-path-4"><rect class="cls-1" x="47.88" y="15.61" width="25.47" height="37.08" transform="translate(20.97 91.32) rotate(-84.66)"/></clipPath></defs><title>Asset 20</title><g id="Layer_2" data-name="Layer 2"><g id="Layer_1-2" data-name="Layer 1"><g class="cls-2"><g class="cls-3"><polygon class="cls-4" points="47.63 11.04 44.94 39.85 43.47 39.85 43.47 11.04 47.63 11.04"/><polygon class="cls-4" points="47.88 11.04 45.19 39.85 44.94 39.85 47.63 11.04 47.88 11.04"/><polygon class="cls-5" points="48.13 11.04 45.44 39.85 45.19 39.85 47.88 11.04 48.13 11.04"/><polygon class="cls-6" points="48.38 11.04 45.69 39.85 45.44 39.85 48.13 11.04 48.38 11.04"/><polygon class="cls-7" points="48.63 11.04 45.94 39.85 45.69 39.85 48.38 11.04 48.63 11.04"/><polygon class="cls-8" points="48.88 11.04 46.19 39.85 45.94 39.85 48.63 11.04 48.88 11.04"/><polygon class="cls-9" points="49.13 11.04 46.44 39.85 46.19 39.85 48.88 11.04 49.13 11.04"/><polygon class="cls-10" points="49.38 11.04 46.69 39.85 46.44 39.85 49.13 11.04 49.38 11.04"/><polygon class="cls-11" points="49.63 11.04 46.94 39.85 46.69 39.85 49.38 11.04 49.63 11.04"/><polygon class="cls-12" points="49.88 11.04 47.19 39.85 46.94 39.85 49.63 11.04 49.88 11.04"/><polygon class="cls-13" points="50.13 11.04 47.44 39.85 47.19 39.85 49.88 11.04 50.13 11.04"/><polygon class="cls-14" points="50.38 11.04 47.69 39.85 47.44 39.85 50.13 11.04 50.38 11.04"/><polygon class="cls-15" points="50.63 11.04 47.94 39.85 47.69 39.85 50.38 11.04 50.63 11.04"/><polygon class="cls-16" points="50.88 11.04 48.19 39.85 47.94 39.85 50.63 11.04 50.88 11.04"/><polygon class="cls-17" points="51.13 11.04 48.44 39.85 48.19 39.85 50.88 11.04 51.13 11.04"/><polygon class="cls-17" points="51.38 11.04 48.69 39.85 48.44 39.85 51.13 11.04 51.38 11.04"/><polygon class="cls-18" points="51.63 11.04 48.94 39.85 48.69 39.85 51.38 11.04 51.63 11.04"/><polygon class="cls-19" points="51.88 11.04 49.19 39.85 48.94 39.85 51.63 11.04 51.88 11.04"/><polygon class="cls-20" points="52.14 11.04 49.44 39.85 49.19 39.85 51.88 11.04 52.14 11.04"/><polygon class="cls-21" points="52.39 11.04 49.7 39.85 49.44 39.85 52.14 11.04 52.39 11.04"/><polygon class="cls-22" points="52.64 11.04 49.95 39.85 49.7 39.85 52.39 11.04 52.64 11.04"/><polygon class="cls-23" points="52.89 11.04 50.2 39.85 49.95 39.85 52.64 11.04 52.89 11.04"/><polygon class="cls-24" points="53.14 11.04 50.45 39.85 50.2 39.85 52.89 11.04 53.14 11.04"/><polygon class="cls-25" points="53.39 11.04 50.7 39.85 50.45 39.85 53.14 11.04 53.39 11.04"/><polygon class="cls-26" points="53.64 11.04 50.95 39.85 50.7 39.85 53.39 11.04 53.64 11.04"/><polygon class="cls-26" points="53.89 11.04 51.2 39.85 50.95 39.85 53.64 11.04 53.89 11.04"/><polygon class="cls-27" points="54.14 11.04 51.45 39.85 51.2 39.85 53.89 11.04 54.14 11.04"/><polygon class="cls-28" points="54.39 11.04 51.7 39.85 51.45 39.85 54.14 11.04 54.39 11.04"/><polygon class="cls-29" points="54.64 11.04 51.95 39.85 51.7 39.85 54.39 11.04 54.64 11.04"/><polygon class="cls-30" points="54.89 11.04 52.2 39.85 51.95 39.85 54.64 11.04 54.89 11.04"/><polygon class="cls-31" points="55.14 11.04 52.45 39.85 52.2 39.85 54.89 11.04 55.14 11.04"/><polygon class="cls-32" points="55.39 11.04 52.7 39.85 52.45 39.85 55.14 11.04 55.39 11.04"/><polygon class="cls-33" points="55.64 11.04 52.95 39.85 52.7 39.85 55.39 11.04 55.64 11.04"/><polygon class="cls-34" points="55.89 11.04 53.2 39.85 52.95 39.85 55.64 11.04 55.89 11.04"/><polygon class="cls-34" points="56.14 11.04 53.45 39.85 53.2 39.85 55.89 11.04 56.14 11.04"/><polygon class="cls-35" points="56.39 11.04 53.7 39.85 53.45 39.85 56.14 11.04 56.39 11.04"/><polygon class="cls-36" points="56.64 11.04 53.95 39.85 53.7 39.85 56.39 11.04 56.64 11.04"/><polygon class="cls-36" points="56.89 11.04 54.2 39.85 53.95 39.85 56.64 11.04 56.89 11.04"/><polygon class="cls-36" points="57.14 11.04 54.45 39.85 54.2 39.85 56.89 11.04 57.14 11.04"/><polygon class="cls-36" points="57.39 11.04 54.7 39.85 54.45 39.85 57.14 11.04 57.39 11.04"/><polygon class="cls-37" points="57.64 11.04 54.95 39.85 54.7 39.85 57.39 11.04 57.64 11.04"/><polygon class="cls-38" points="57.89 11.04 55.2 39.85 54.95 39.85 57.64 11.04 57.89 11.04"/><polygon class="cls-39" points="58.15 11.04 55.45 39.85 55.2 39.85 57.89 11.04 58.15 11.04"/><polygon class="cls-40" points="58.4 11.04 55.7 39.85 55.45 39.85 58.15 11.04 58.4 11.04"/><polygon class="cls-40" points="58.65 11.04 55.95 39.85 55.7 39.85 58.4 11.04 58.65 11.04"/><polygon class="cls-41" points="58.9 11.04 56.2 39.85 55.95 39.85 58.65 11.04 58.9 11.04"/><polygon class="cls-42" points="59.15 11.04 56.45 39.85 56.2 39.85 58.9 11.04 59.15 11.04"/><polygon class="cls-42" points="59.4 11.04 56.7 39.85 56.45 39.85 59.15 11.04 59.4 11.04"/><polygon class="cls-42" points="59.65 11.04 56.96 39.85 56.7 39.85 59.4 11.04 59.65 11.04"/><polygon class="cls-42" points="59.9 11.04 57.21 39.85 56.96 39.85 59.65 11.04 59.9 11.04"/><polygon class="cls-42" points="60.15 11.04 57.46 39.85 57.21 39.85 59.9 11.04 60.15 11.04"/><polygon class="cls-42" points="60.4 11.04 57.71 39.85 57.46 39.85 60.15 11.04 60.4 11.04"/><polygon class="cls-42" points="60.79 11.04 58.1 39.85 57.71 39.85 60.4 11.04 60.79 11.04"/><polygon class="cls-43" points="61.19 11.04 58.49 39.85 58.1 39.85 60.79 11.04 61.19 11.04"/><polygon class="cls-44" points="61.58 11.04 58.89 39.85 58.49 39.85 61.19 11.04 61.58 11.04"/><polygon class="cls-45" points="61.97 11.04 59.28 39.85 58.89 39.85 61.58 11.04 61.97 11.04"/><polygon class="cls-46" points="62.37 11.04 59.68 39.85 59.28 39.85 61.97 11.04 62.37 11.04"/><polygon class="cls-47" points="62.76 11.04 60.07 39.85 59.68 39.85 62.37 11.04 62.76 11.04"/><polygon class="cls-48" points="63.16 11.04 60.47 39.85 60.07 39.85 62.76 11.04 63.16 11.04"/><polygon class="cls-49" points="63.55 11.04 60.86 39.85 60.47 39.85 63.16 11.04 63.55 11.04"/><polygon class="cls-50" points="63.95 11.04 61.25 39.85 60.86 39.85 63.55 11.04 63.95 11.04"/><polygon class="cls-51" points="64.34 11.04 61.65 39.85 61.25 39.85 63.95 11.04 64.34 11.04"/><polygon class="cls-52" points="64.73 11.04 62.04 39.85 61.65 39.85 64.34 11.04 64.73 11.04"/><polygon class="cls-53" points="65.13 11.04 62.44 39.85 62.04 39.85 64.73 11.04 65.13 11.04"/><polygon class="cls-54" points="65.52 11.04 62.83 39.85 62.44 39.85 65.13 11.04 65.52 11.04"/><polygon class="cls-55" points="65.92 11.04 63.22 39.85 62.83 39.85 65.52 11.04 65.92 11.04"/><polygon class="cls-56" points="66.31 11.04 63.62 39.85 63.22 39.85 65.92 11.04 66.31 11.04"/><polygon class="cls-57" points="66.7 11.04 64.01 39.85 63.62 39.85 66.31 11.04 66.7 11.04"/><polygon class="cls-58" points="67.1 11.04 64.41 39.85 64.01 39.85 66.7 11.04 67.1 11.04"/><polygon class="cls-59" points="67.49 11.04 64.8 39.85 64.41 39.85 67.1 11.04 67.49 11.04"/><polygon class="cls-60" points="67.89 11.04 65.19 39.85 64.8 39.85 67.49 11.04 67.89 11.04"/><polygon class="cls-61" points="68.28 11.04 65.59 39.85 65.19 39.85 67.89 11.04 68.28 11.04"/><polygon class="cls-62" points="68.67 11.04 65.98 39.85 65.59 39.85 68.28 11.04 68.67 11.04"/><polygon class="cls-63" points="69.07 11.04 66.38 39.85 65.98 39.85 68.67 11.04 69.07 11.04"/><polygon class="cls-64" points="69.46 11.04 66.77 39.85 66.38 39.85 69.07 11.04 69.46 11.04"/><polygon class="cls-65" points="69.86 11.04 67.17 39.85 66.77 39.85 69.46 11.04 69.86 11.04"/><polygon class="cls-66" points="70.25 11.04 67.56 39.85 67.17 39.85 69.86 11.04 70.25 11.04"/><polygon class="cls-67" points="70.64 11.04 67.95 39.85 67.56 39.85 70.25 11.04 70.64 11.04"/><polygon class="cls-68" points="71.04 11.04 68.35 39.85 67.95 39.85 70.64 11.04 71.04 11.04"/><polygon class="cls-69" points="71.43 11.04 68.74 39.85 68.35 39.85 71.04 11.04 71.43 11.04"/><polygon class="cls-70" points="71.83 11.04 69.14 39.85 68.74 39.85 71.43 11.04 71.83 11.04"/><polygon class="cls-71" points="72.22 11.04 69.53 39.85 69.14 39.85 71.83 11.04 72.22 11.04"/><polygon class="cls-72" points="72.61 11.04 69.92 39.85 69.53 39.85 72.22 11.04 72.61 11.04"/><polygon class="cls-72" points="73.01 11.04 70.32 39.85 69.92 39.85 72.61 11.04 73.01 11.04"/><polygon class="cls-73" points="73.4 11.04 70.71 39.85 70.32 39.85 73.01 11.04 73.4 11.04"/><polygon class="cls-74" points="73.8 11.04 71.11 39.85 70.71 39.85 73.4 11.04 73.8 11.04"/><polygon class="cls-75" points="74.19 11.04 71.5 39.85 71.11 39.85 73.8 11.04 74.19 11.04"/><polygon class="cls-75" points="74.59 11.04 71.89 39.85 71.5 39.85 74.19 11.04 74.59 11.04"/><polygon class="cls-76" points="74.98 11.04 72.29 39.85 71.89 39.85 74.59 11.04 74.98 11.04"/><polygon class="cls-76" points="75.37 11.04 72.68 39.85 72.29 39.85 74.98 11.04 75.37 11.04"/><polygon class="cls-77" points="75.77 11.04 73.08 39.85 72.68 39.85 75.37 11.04 75.77 11.04"/><polygon class="cls-78" points="76.16 11.04 73.47 39.85 73.08 39.85 75.77 11.04 76.16 11.04"/><polygon class="cls-78" points="76.56 11.04 73.86 39.85 73.47 39.85 76.16 11.04 76.56 11.04"/><polygon class="cls-79" points="76.95 11.04 74.26 39.85 73.86 39.85 76.56 11.04 76.95 11.04"/><polygon class="cls-80" points="77.34 11.04 74.65 39.85 74.26 39.85 76.95 11.04 77.34 11.04"/><polygon class="cls-81" points="77.74 11.04 75.05 39.85 74.65 39.85 77.34 11.04 77.74 11.04"/><polygon class="cls-81" points="78.13 11.04 75.44 39.85 75.05 39.85 77.74 11.04 78.13 11.04"/><polygon class="cls-81" points="78.53 11.04 75.83 39.85 75.44 39.85 78.13 11.04 78.53 11.04"/><polygon class="cls-81" points="78.92 11.04 76.23 39.85 75.83 39.85 78.53 11.04 78.92 11.04"/><polygon class="cls-81" points="79.31 11.04 76.62 39.85 76.23 39.85 78.92 11.04 79.31 11.04"/><polygon class="cls-81" points="79.71 11.04 77.02 39.85 76.62 39.85 79.31 11.04 79.71 11.04"/><polygon class="cls-81" points="80.1 11.04 77.41 39.85 77.02 39.85 79.71 11.04 80.1 11.04"/><polygon class="cls-81" points="80.5 11.04 77.81 39.85 77.41 39.85 80.1 11.04 80.5 11.04"/><polygon class="cls-81" points="80.89 11.04 78.2 39.85 77.81 39.85 80.5 11.04 80.89 11.04"/><polygon class="cls-81" points="81.28 11.04 78.59 39.85 78.2 39.85 80.89 11.04 81.28 11.04"/><polygon class="cls-81" points="78.59 39.85 81.28 11.04 82.75 11.04 82.75 39.85 78.59 39.85"/></g></g><path class="cls-82" d="M48.43,15.58,46.86,32.41,77.79,35.3l1.58-16.83ZM76.86,32.25a1.8,1.8,0,0,0-2,1.59L50,31.52a1.8,1.8,0,0,0-1.66-1.93l1-11a1.8,1.8,0,0,0,2-1.59l24.87,2.32a1.8,1.8,0,0,0,1.66,1.93Z"/><path class="cls-83" d="M55.79,18.76c2.69.25,4.63,3.12,4.32,6.4s-2.74,5.74-5.43,5.49-4.62-3.12-4.31-6.4,2.73-5.74,5.42-5.49"/><path class="cls-82" d="M54.79,28.7a2.38,2.38,0,0,1-1-.34,1.92,1.92,0,0,1-.73-.71,3,3,0,0,1,0-1.37l.1-1.08a.39.39,0,0,0-.35-.42l-.63-.06a.39.39,0,0,1-.35-.43l0-.28a.4.4,0,0,1,.43-.35l.63.05a.38.38,0,0,0,.42-.35l0-.28c0-.33,0-.67,0-1a.33.33,0,0,0,0-.17,1,1,0,0,0-.36-.4.4.4,0,0,1-.08-.56l.12-.16a.4.4,0,0,1,.53-.09,2,2,0,0,1,.71.69,2.15,2.15,0,0,1,.19,1.33l-.08.76a.39.39,0,0,0,.36.43l.29,0a.4.4,0,0,1,.35.43l0,.28a.4.4,0,0,1-.43.36l-.29,0a.39.39,0,0,0-.43.35L54,26.94a.37.37,0,0,0,.13.33,1.24,1.24,0,0,0,.65.34,1.69,1.69,0,0,0,1.3-.44,1.82,1.82,0,0,0,.64-1.23,1,1,0,0,0-.33-.87.4.4,0,0,1,.06-.62l.27-.17a.4.4,0,0,1,.52.09,2.24,2.24,0,0,1,.54,1.69,2.91,2.91,0,0,1-1,1.93,2.58,2.58,0,0,1-2,.71"/><path class="cls-84" d="M72.53,27.28a2.59,2.59,0,1,1-2.34-2.82,2.6,2.6,0,0,1,2.34,2.82"/><path class="cls-82" d="M72,25.83c-.13,1.36-.25,2.67-.38,4,0,0,0,.05,0,.05l-.32,0s0,0,0,0v0c.17-1.79.33-3.59.5-5.38,0-.24.07-.47.11-.71s.07-.45.11-.68l.12-.76c0-.06,0-.06-.05-.06l-1.62-.11s0,0,0,0c0,.47,0,.94,0,1.41,0,.24,0,.47,0,.71v0l-.51,5.39s0,.05,0,.05l-.35,0a0,0,0,0,1,0,0,0,0,0,0,0,0,0l.48-5.12c0-.25,0-.49,0-.73s0-.47,0-.71,0-.63,0-.95c0,0,0,0-.05-.05l-1.44-.11s0,0,0,0c0,.38,0,.76.08,1.14l.06,1v.07c-.17,1.78-.34,3.56-.5,5.34,0,.05,0,.06-.06.05l-.31,0s0,0,0,0c0-.32.07-.64.1-1l.39-4.19c0-.21,0-.41,0-.62l0-.8c0-.29,0-.58,0-.87,0-.13,0-.26,0-.39s0,0,0,0l2,.15,2.11.15h.15s0,0,0,0c0,.27-.07.54-.11.81s-.08.65-.13,1c-.11.71-.16,1.43-.22,2.1"/><path class="cls-82" d="M66.84,26.85l-.23,2.48s0,.05,0,.05l-.22,0s0,0,0,0v0c.15-1.56.29-3.12.44-4.69,0,0,0-.05-.05-.05l-.5-.05s0,0,0,0L65.75,29a1.79,1.79,0,0,0,0,.23s0,0,0,0l-.26,0s0,0,0,0h0c.15-1.65.3-3.3.46-4.95,0-.05,0-.06,0-.06l1.11.11s0,0,0,.05c-.08.83-.15,1.66-.23,2.48"/><path class="cls-82" d="M72.88,27.42l.23-2.48s0-.05.06-.05l1.11.11s0,0,0,0c-.16,1.66-.31,3.32-.47,5,0,0,0,0,0,0l-.25,0a0,0,0,0,1,0,0s0,0,0,0c.14-1.56.29-3.12.43-4.68,0-.05,0-.06,0-.06l-.5,0s-.05,0-.05,0c0,.58-.11,1.15-.16,1.72-.1,1-.19,2-.28,3,0,0,0,.06-.06,0l-.2,0s0,0,0,0v-.05c.08-.82.16-1.64.23-2.45"/><path class="cls-82" d="M65.11,27.37c-.06.59-.12,1.18-.17,1.76,0,0,0,.05,0,.05l-.21,0s0,0,0,0v0c.1-1.09.21-2.18.31-3.27,0,0,0-.05,0-.05l-.46-.05s0,0,0,.05c-.1,1.09-.21,2.19-.31,3.28,0,0,0,.05,0,.05l-.22,0s0,0,0,0c0-.26,0-.51.07-.77.09-.92.18-1.85.26-2.77,0,0,0,0,0,0l1.07.1s0,0,0,.05c0,.59-.11,1.18-.16,1.78"/><path class="cls-82" d="M74.49,28.24c.06-.59.12-1.18.17-1.77,0,0,0,0,0,0l1.07.1s0,0,0,0l-.33,3.54s0,.05,0,0l-.24,0a0,0,0,0,1,0,0,0,0,0,0,0,0,0l.3-3.27s0-.06,0-.06l-.47,0s0,0,0,0L74.62,30s0,.06-.06,0l-.19,0s0,0,0,0c0-.59.11-1.18.16-1.77"/><rect class="cls-85" x="69.2" y="23.81" width="0.73" height="12.18" transform="translate(33.32 96.38) rotate(-84.66)"/><rect class="cls-82" x="68.83" y="23.44" width="1.47" height="12.92" transform="translate(33.32 96.38) rotate(-84.66)"/><g class="cls-86"><g class="cls-87"><polygon class="cls-4" points="45.13 19.75 42.44 48.56 40.97 48.56 40.97 19.75 45.13 19.75"/><polygon class="cls-4" points="45.38 19.75 42.69 48.56 42.44 48.56 45.13 19.75 45.38 19.75"/><polygon class="cls-5" points="45.63 19.75 42.94 48.56 42.69 48.56 45.38 19.75 45.63 19.75"/><polygon class="cls-6" points="45.88 19.75 43.19 48.56 42.94 48.56 45.63 19.75 45.88 19.75"/><polygon class="cls-7" points="46.13 19.75 43.44 48.56 43.19 48.56 45.88 19.75 46.13 19.75"/><polygon class="cls-8" points="46.38 19.75 43.69 48.56 43.44 48.56 46.13 19.75 46.38 19.75"/><polygon class="cls-9" points="46.63 19.75 43.94 48.56 43.69 48.56 46.38 19.75 46.63 19.75"/><polygon class="cls-10" points="46.88 19.75 44.19 48.56 43.94 48.56 46.63 19.75 46.88 19.75"/><polygon class="cls-11" points="47.13 19.75 44.44 48.56 44.19 48.56 46.88 19.75 47.13 19.75"/><polygon class="cls-12" points="47.38 19.75 44.69 48.56 44.44 48.56 47.13 19.75 47.38 19.75"/><polygon class="cls-13" points="47.63 19.75 44.94 48.56 44.69 48.56 47.38 19.75 47.63 19.75"/><polygon class="cls-14" points="47.88 19.75 45.19 48.56 44.94 48.56 47.63 19.75 47.88 19.75"/><polygon class="cls-15" points="48.13 19.75 45.44 48.56 45.19 48.56 47.88 19.75 48.13 19.75"/><polygon class="cls-16" points="48.38 19.75 45.69 48.56 45.44 48.56 48.13 19.75 48.38 19.75"/><polygon class="cls-17" points="48.63 19.75 45.94 48.56 45.69 48.56 48.38 19.75 48.63 19.75"/><polygon class="cls-17" points="48.88 19.75 46.19 48.56 45.94 48.56 48.63 19.75 48.88 19.75"/><polygon class="cls-18" points="49.13 19.75 46.44 48.56 46.19 48.56 48.88 19.75 49.13 19.75"/><polygon class="cls-19" points="49.39 19.75 46.69 48.56 46.44 48.56 49.13 19.75 49.39 19.75"/><polygon class="cls-20" points="49.64 19.75 46.95 48.56 46.69 48.56 49.39 19.75 49.64 19.75"/><polygon class="cls-21" points="49.89 19.75 47.2 48.56 46.95 48.56 49.64 19.75 49.89 19.75"/><polygon class="cls-22" points="50.14 19.75 47.45 48.56 47.2 48.56 49.89 19.75 50.14 19.75"/><polygon class="cls-23" points="50.39 19.75 47.7 48.56 47.45 48.56 50.14 19.75 50.39 19.75"/><polygon class="cls-24" points="50.64 19.75 47.95 48.56 47.7 48.56 50.39 19.75 50.64 19.75"/><polygon class="cls-25" points="50.89 19.75 48.2 48.56 47.95 48.56 50.64 19.75 50.89 19.75"/><polygon class="cls-26" points="51.14 19.75 48.45 48.56 48.2 48.56 50.89 19.75 51.14 19.75"/><polygon class="cls-26" points="51.39 19.75 48.7 48.56 48.45 48.56 51.14 19.75 51.39 19.75"/><polygon class="cls-27" points="51.64 19.75 48.95 48.56 48.7 48.56 51.39 19.75 51.64 19.75"/><polygon class="cls-28" points="51.89 19.75 49.2 48.56 48.95 48.56 51.64 19.75 51.89 19.75"/><polygon class="cls-29" points="52.14 19.75 49.45 48.56 49.2 48.56 51.89 19.75 52.14 19.75"/><polygon class="cls-30" points="52.39 19.75 49.7 48.56 49.45 48.56 52.14 19.75 52.39 19.75"/><polygon class="cls-31" points="52.64 19.75 49.95 48.56 49.7 48.56 52.39 19.75 52.64 19.75"/><polygon class="cls-32" points="52.89 19.75 50.2 48.56 49.95 48.56 52.64 19.75 52.89 19.75"/><polygon class="cls-33" points="53.14 19.75 50.45 48.56 50.2 48.56 52.89 19.75 53.14 19.75"/><polygon class="cls-34" points="53.39 19.75 50.7 48.56 50.45 48.56 53.14 19.75 53.39 19.75"/><polygon class="cls-34" points="53.64 19.75 50.95 48.56 50.7 48.56 53.39 19.75 53.64 19.75"/><polygon class="cls-35" points="53.89 19.75 51.2 48.56 50.95 48.56 53.64 19.75 53.89 19.75"/><polygon class="cls-36" points="54.14 19.75 51.45 48.56 51.2 48.56 53.89 19.75 54.14 19.75"/><polygon class="cls-36" points="54.39 19.75 51.7 48.56 51.45 48.56 54.14 19.75 54.39 19.75"/><polygon class="cls-36" points="54.64 19.75 51.95 48.56 51.7 48.56 54.39 19.75 54.64 19.75"/><polygon class="cls-36" points="54.89 19.75 52.2 48.56 51.95 48.56 54.64 19.75 54.89 19.75"/><polygon class="cls-37" points="55.14 19.75 52.45 48.56 52.2 48.56 54.89 19.75 55.14 19.75"/><polygon class="cls-38" points="55.4 19.75 52.7 48.56 52.45 48.56 55.14 19.75 55.4 19.75"/><polygon class="cls-39" points="55.65 19.75 52.95 48.56 52.7 48.56 55.4 19.75 55.65 19.75"/><polygon class="cls-40" points="55.9 19.75 53.2 48.56 52.95 48.56 55.65 19.75 55.9 19.75"/><polygon class="cls-40" points="56.15 19.75 53.45 48.56 53.2 48.56 55.9 19.75 56.15 19.75"/><polygon class="cls-41" points="56.4 19.75 53.7 48.56 53.45 48.56 56.15 19.75 56.4 19.75"/><polygon class="cls-42" points="56.65 19.75 53.95 48.56 53.7 48.56 56.4 19.75 56.65 19.75"/><polygon class="cls-42" points="56.9 19.75 54.21 48.56 53.95 48.56 56.65 19.75 56.9 19.75"/><polygon class="cls-42" points="57.15 19.75 54.46 48.56 54.21 48.56 56.9 19.75 57.15 19.75"/><polygon class="cls-42" points="57.4 19.75 54.71 48.56 54.46 48.56 57.15 19.75 57.4 19.75"/><polygon class="cls-42" points="57.65 19.75 54.96 48.56 54.71 48.56 57.4 19.75 57.65 19.75"/><polygon class="cls-42" points="57.9 19.75 55.21 48.56 54.96 48.56 57.65 19.75 57.9 19.75"/><polygon class="cls-42" points="58.29 19.75 55.6 48.56 55.21 48.56 57.9 19.75 58.29 19.75"/><polygon class="cls-43" points="58.69 19.75 55.99 48.56 55.6 48.56 58.29 19.75 58.69 19.75"/><polygon class="cls-44" points="59.08 19.75 56.39 48.56 55.99 48.56 58.69 19.75 59.08 19.75"/><polygon class="cls-45" points="59.48 19.75 56.78 48.56 56.39 48.56 59.08 19.75 59.48 19.75"/><polygon class="cls-46" points="59.87 19.75 57.18 48.56 56.78 48.56 59.48 19.75 59.87 19.75"/><polygon class="cls-47" points="60.26 19.75 57.57 48.56 57.18 48.56 59.87 19.75 60.26 19.75"/><polygon class="cls-48" points="60.66 19.75 57.97 48.56 57.57 48.56 60.26 19.75 60.66 19.75"/><polygon class="cls-49" points="61.05 19.75 58.36 48.56 57.97 48.56 60.66 19.75 61.05 19.75"/><polygon class="cls-50" points="61.45 19.75 58.75 48.56 58.36 48.56 61.05 19.75 61.45 19.75"/><polygon class="cls-51" points="61.84 19.75 59.15 48.56 58.75 48.56 61.45 19.75 61.84 19.75"/><polygon class="cls-52" points="62.23 19.75 59.54 48.56 59.15 48.56 61.84 19.75 62.23 19.75"/><polygon class="cls-53" points="62.63 19.75 59.94 48.56 59.54 48.56 62.23 19.75 62.63 19.75"/><polygon class="cls-54" points="63.02 19.75 60.33 48.56 59.94 48.56 62.63 19.75 63.02 19.75"/><polygon class="cls-55" points="63.42 19.75 60.72 48.56 60.33 48.56 63.02 19.75 63.42 19.75"/><polygon class="cls-56" points="63.81 19.75 61.12 48.56 60.72 48.56 63.42 19.75 63.81 19.75"/><polygon class="cls-57" points="64.2 19.75 61.51 48.56 61.12 48.56 63.81 19.75 64.2 19.75"/><polygon class="cls-58" points="64.6 19.75 61.91 48.56 61.51 48.56 64.2 19.75 64.6 19.75"/><polygon class="cls-59" points="64.99 19.75 62.3 48.56 61.91 48.56 64.6 19.75 64.99 19.75"/><polygon class="cls-60" points="65.39 19.75 62.7 48.56 62.3 48.56 64.99 19.75 65.39 19.75"/><polygon class="cls-61" points="65.78 19.75 63.09 48.56 62.7 48.56 65.39 19.75 65.78 19.75"/><polygon class="cls-62" points="66.17 19.75 63.48 48.56 63.09 48.56 65.78 19.75 66.17 19.75"/><polygon class="cls-63" points="66.57 19.75 63.88 48.56 63.48 48.56 66.17 19.75 66.57 19.75"/><polygon class="cls-64" points="66.96 19.75 64.27 48.56 63.88 48.56 66.57 19.75 66.96 19.75"/><polygon class="cls-65" points="67.36 19.75 64.67 48.56 64.27 48.56 66.96 19.75 67.36 19.75"/><polygon class="cls-66" points="67.75 19.75 65.06 48.56 64.67 48.56 67.36 19.75 67.75 19.75"/><polygon class="cls-67" points="68.14 19.75 65.45 48.56 65.06 48.56 67.75 19.75 68.14 19.75"/><polygon class="cls-68" points="68.54 19.75 65.85 48.56 65.45 48.56 68.14 19.75 68.54 19.75"/><polygon class="cls-69" points="68.93 19.75 66.24 48.56 65.85 48.56 68.54 19.75 68.93 19.75"/><polygon class="cls-70" points="69.33 19.75 66.64 48.56 66.24 48.56 68.93 19.75 69.33 19.75"/><polygon class="cls-71" points="69.72 19.75 67.03 48.56 66.64 48.56 69.33 19.75 69.72 19.75"/><polygon class="cls-72" points="70.11 19.75 67.42 48.56 67.03 48.56 69.72 19.75 70.11 19.75"/><polygon class="cls-72" points="70.51 19.75 67.82 48.56 67.42 48.56 70.11 19.75 70.51 19.75"/><polygon class="cls-73" points="70.9 19.75 68.21 48.56 67.82 48.56 70.51 19.75 70.9 19.75"/><polygon class="cls-74" points="71.3 19.75 68.61 48.56 68.21 48.56 70.9 19.75 71.3 19.75"/><polygon class="cls-75" points="71.69 19.75 69 48.56 68.61 48.56 71.3 19.75 71.69 19.75"/><polygon class="cls-75" points="72.09 19.75 69.39 48.56 69 48.56 71.69 19.75 72.09 19.75"/><polygon class="cls-76" points="72.48 19.75 69.79 48.56 69.39 48.56 72.09 19.75 72.48 19.75"/><polygon class="cls-76" points="72.87 19.75 70.18 48.56 69.79 48.56 72.48 19.75 72.87 19.75"/><polygon class="cls-77" points="73.27 19.75 70.58 48.56 70.18 48.56 72.87 19.75 73.27 19.75"/><polygon class="cls-78" points="73.66 19.75 70.97 48.56 70.58 48.56 73.27 19.75 73.66 19.75"/><polygon class="cls-78" points="74.06 19.75 71.36 48.56 70.97 48.56 73.66 19.75 74.06 19.75"/><polygon class="cls-79" points="74.45 19.75 71.76 48.56 71.36 48.56 74.06 19.75 74.45 19.75"/><polygon class="cls-80" points="74.84 19.75 72.15 48.56 71.76 48.56 74.45 19.75 74.84 19.75"/><polygon class="cls-81" points="75.24 19.75 72.55 48.56 72.15 48.56 74.84 19.75 75.24 19.75"/><polygon class="cls-81" points="75.63 19.75 72.94 48.56 72.55 48.56 75.24 19.75 75.63 19.75"/><polygon class="cls-81" points="76.03 19.75 73.33 48.56 72.94 48.56 75.63 19.75 76.03 19.75"/><polygon class="cls-81" points="76.42 19.75 73.73 48.56 73.33 48.56 76.03 19.75 76.42 19.75"/><polygon class="cls-81" points="76.81 19.75 74.12 48.56 73.73 48.56 76.42 19.75 76.81 19.75"/><polygon class="cls-81" points="77.21 19.75 74.52 48.56 74.12 48.56 76.81 19.75 77.21 19.75"/><polygon class="cls-81" points="77.6 19.75 74.91 48.56 74.52 48.56 77.21 19.75 77.6 19.75"/><polygon class="cls-81" points="78 19.75 75.31 48.56 74.91 48.56 77.6 19.75 78 19.75"/><polygon class="cls-81" points="78.39 19.75 75.7 48.56 75.31 48.56 78 19.75 78.39 19.75"/><polygon class="cls-81" points="78.78 19.75 76.09 48.56 75.7 48.56 78.39 19.75 78.78 19.75"/><polygon class="cls-81" points="76.09 48.56 78.78 19.75 80.25 19.75 80.25 48.56 76.09 48.56"/></g></g><path class="cls-82" d="M45.93,24.29,44.36,41.12,75.3,44l1.57-16.83ZM74.36,41a1.8,1.8,0,0,0-2,1.59L47.5,40.23a1.8,1.8,0,0,0-1.66-1.93l1-11a1.8,1.8,0,0,0,2-1.59l24.87,2.32A1.8,1.8,0,0,0,75.38,30Z"/><path class="cls-83" d="M53.29,27.47c2.69.25,4.63,3.12,4.32,6.4s-2.74,5.74-5.43,5.49-4.62-3.12-4.31-6.4,2.73-5.74,5.42-5.49"/><path class="cls-82" d="M52.29,37.41a2.38,2.38,0,0,1-1-.34,1.92,1.92,0,0,1-.73-.71,3,3,0,0,1,0-1.37l.1-1.08a.41.41,0,0,0-.35-.43l-.63,0a.39.39,0,0,1-.35-.43l0-.28a.4.4,0,0,1,.43-.35l.63.05a.39.39,0,0,0,.42-.35l0-.29c0-.32,0-.66,0-1a.39.39,0,0,0,0-.18,1.13,1.13,0,0,0-.36-.4.39.39,0,0,1-.08-.55l.12-.16a.4.4,0,0,1,.53-.09,2.12,2.12,0,0,1,.71.68,2.2,2.2,0,0,1,.18,1.34l-.07.76a.39.39,0,0,0,.36.43l.29,0a.39.39,0,0,1,.35.43l0,.28a.4.4,0,0,1-.43.36l-.29,0a.39.39,0,0,0-.43.35l-.15,1.64a.37.37,0,0,0,.13.33,1.24,1.24,0,0,0,.65.34,1.69,1.69,0,0,0,1.3-.44,1.82,1.82,0,0,0,.64-1.23,1,1,0,0,0-.32-.87.39.39,0,0,1,0-.62l.27-.17a.39.39,0,0,1,.52.09,2.24,2.24,0,0,1,.54,1.69,2.87,2.87,0,0,1-1,1.92,2.54,2.54,0,0,1-2,.72"/><path class="cls-84" d="M70,36a2.59,2.59,0,1,1-5.16-.49A2.59,2.59,0,0,1,70,36"/><path class="cls-82" d="M69.48,34.54c-.13,1.36-.25,2.67-.38,4,0,0,0,0,0,0a1.73,1.73,0,0,0-.32,0s0,0,0,0v0c.17-1.79.34-3.59.5-5.39,0-.23.07-.46.11-.7s.07-.45.11-.68l.12-.76c0-.06,0-.06-.05-.06l-1.62-.12s0,0,0,0c0,.48,0,.95,0,1.42,0,.23,0,.47,0,.7v0c-.17,1.8-.34,3.59-.5,5.39,0,0,0,0-.06,0l-.35,0a0,0,0,0,1,0,0,0,0,0,0,0,0,0l.48-5.13c0-.24,0-.48,0-.72s0-.48,0-.71,0-.63,0-.95c0,0,0-.05-.05-.05L66,30.64s0,0,0,0c0,.38,0,.76.08,1.14l.06,1v.07c-.17,1.78-.34,3.56-.5,5.34,0,.05,0,.06-.06.05l-.31,0s0,0,0,0l.09-1L65.7,33c0-.21,0-.41,0-.62l0-.8c0-.29,0-.58,0-.88,0-.12,0-.25,0-.38s0,0,0,0l2,.15,2.11.16h.15s0,0,0,0c0,.27-.07.54-.11.81s-.08.65-.13,1c-.1.71-.16,1.43-.22,2.1"/><path class="cls-82" d="M64.34,35.56,64.11,38s0,.05,0,.05l-.21,0s0,0,0,0v0c.15-1.56.29-3.12.44-4.69,0,0,0-.05-.05-.05l-.5,0s0,0,0,0l-.42,4.5a1.79,1.79,0,0,0,0,.23s0,0,0,0l-.25,0s0,0,0,0v0c.15-1.65.3-3.3.46-5,0,0,0,0,.05,0l1.11.11s0,0,0,0c-.08.83-.15,1.66-.23,2.48"/><path class="cls-82" d="M70.38,36.13c.08-.83.16-1.66.23-2.49,0,0,0,0,.06,0l1.11.1s0,0,0,0c-.16,1.66-.31,3.32-.46,5,0,0,0,0,0,0a2.13,2.13,0,0,0-.25,0,0,0,0,0,1,0,0,.06.06,0,0,0,0,0c.14-1.56.29-3.12.43-4.68,0-.05,0-.06,0-.06l-.5,0s-.05,0-.05,0c0,.58-.11,1.15-.16,1.72-.09,1-.19,2-.28,3,0,0,0,0-.06,0l-.2,0s0,0,0,0v-.05c.08-.82.16-1.64.23-2.45"/><path class="cls-82" d="M62.61,36.08c-.06.59-.11,1.18-.17,1.76,0,0,0,0,0,0l-.21,0s0,0,0,0v0c.1-1.09.21-2.18.31-3.27,0,0,0-.05-.05-.05l-.46,0s-.05,0-.05,0c-.1,1.09-.2,2.19-.31,3.28,0,0,0,.05-.05.05l-.22,0s0,0,0,0c0-.26,0-.51.07-.77.09-.92.18-1.85.26-2.77,0,0,0-.05,0-.05l1.07.1s.05,0,0,0c-.05.59-.11,1.18-.16,1.78"/><path class="cls-82" d="M72,37c.06-.59.12-1.18.17-1.77,0,0,0,0,0,0l1.07.1s0,0,0,0L73,38.83s0,.05,0,0l-.24,0a0,0,0,0,1,0,0,0,0,0,0,0,0,0l.3-3.27s0-.06,0-.06l-.47,0s0,0,0,0l-.3,3.28s0,.06-.06,0l-.19,0s0,0,0-.05c.06-.59.11-1.18.16-1.77"/><rect class="cls-85" x="66.7" y="32.52" width="0.73" height="12.18" transform="translate(22.38 101.79) rotate(-84.66)"/><rect class="cls-82" x="66.33" y="32.15" width="1.47" height="12.92" transform="translate(22.37 101.79) rotate(-84.65)"/><path class="cls-88" d="M21.3,3A3.28,3.28,0,0,0,18,6.25V40.76H41v5.58a4.22,4.22,0,0,0,3.7,4.26,4.11,4.11,0,0,0,4.52-4.09V7.07A4.11,4.11,0,0,1,53.37,3Z"/><path class="cls-88" d="M21.3,3A3.28,3.28,0,0,0,18,6.25V40.76H41v5.58a4.22,4.22,0,0,0,3.7,4.26,4.11,4.11,0,0,0,4.52-4.09V7.07A4.11,4.11,0,0,1,53.37,3Z"/><path class="cls-89" d="M53.37,3h0a4.11,4.11,0,0,0-4.11,4.11v5.76h6.56a1.65,1.65,0,0,0,1.66-1.65V7.07A4.12,4.12,0,0,0,53.37,3"/><path class="cls-89" d="M45.15,50.63h0A4.11,4.11,0,0,1,41,46.52V40.77H11.45A1.65,1.65,0,0,0,9.8,42.41v4.11a4.11,4.11,0,0,0,4.11,4.11Z"/><path class="cls-89" d="M38.57,8.71H28.71a.82.82,0,0,1,0-1.64h9.86a.82.82,0,1,1,0,1.64"/><path class="cls-89" d="M44.32,13.64H23A.82.82,0,1,1,23,12H44.32a.82.82,0,1,1,0,1.64"/><path class="cls-89" d="M44.32,18.58H23a.83.83,0,0,1,0-1.65H44.32a.83.83,0,1,1,0,1.65"/><path class="cls-89" d="M32.79,23.51H23a.83.83,0,0,1,0-1.65h9.84a.83.83,0,0,1,0,1.65"/><path class="cls-89" d="M29.69,28.44H23a.82.82,0,0,1,0-1.64h6.74a.82.82,0,1,1,0,1.64"/><path class="cls-89" d="M30.21,33.37H23a.82.82,0,0,1,0-1.64h7.26a.82.82,0,1,1,0,1.64"/><path class="cls-90" d="M18.69,25.27A18.72,18.72,0,0,0,0,44,2.44,2.44,0,0,0,2.44,46.4h32.5A2.44,2.44,0,0,0,37.38,44,18.72,18.72,0,0,0,18.69,25.27"/><path class="cls-91" d="M18.13,25.62V46.75H34.38a2.44,2.44,0,0,0,2.44-2.44A18.71,18.71,0,0,0,18.13,25.62"/><path class="cls-92" d="M18.69,25.27a2.44,2.44,0,0,0-2.44,2.44v19.5a2.44,2.44,0,1,0,4.88,0V27.71a2.44,2.44,0,0,0-2.44-2.44"/><path class="cls-89" d="M45.15,50.63h0A4.11,4.11,0,0,1,41,46.52V40.77H11.45A1.65,1.65,0,0,0,9.8,42.41v4.11a4.11,4.11,0,0,0,4.11,4.11Z"/><path class="cls-93" d="M18.69,0a10.2,10.2,0,1,0,10.2,10.2A10.22,10.22,0,0,0,18.69,0"/><path class="cls-92" d="M46,29.26a8.22,8.22,0,1,0-8.22,8.22A8.22,8.22,0,0,0,46,29.26"/><path class="cls-85" d="M36.93,34.19a.78.78,0,0,1-.58-.24l-3.29-3.29a.82.82,0,1,1,1.16-1.16l2.58,2.58,4.37-6.56a.82.82,0,0,1,1.37.91l-4.93,7.4a.83.83,0,0,1-.6.36h-.08"/></g></g></svg>