<svg xmlns="http://www.w3.org/2000/svg" xmlns:xlink="http://www.w3.org/1999/xlink" viewBox="0 0 91.33 87.67"><defs><style>.cls-1{fill:none;}.cls-2{fill:#fef9f3;}.cls-3{clip-path:url(#clip-path);}.cls-4{fill:#919497;}.cls-5{fill:#78b8eb;}.cls-6{fill:#b0d7f3;}.cls-7{fill:#006bf0;}.cls-8{fill:#237ff0;}.cls-9{fill:#3a87c5;}.cls-10{fill:#1973ba;}.cls-11{fill:#8ac2ee;}.cls-12{fill:#9eccf0;}.cls-13{fill:#f0f0f0;}.cls-14{fill:#ff9102;}.cls-15{fill:url(#Degradado_sin_nombre);}.cls-16{fill:url(#Degradado_sin_nombre_7);}.cls-17{fill:#c2cece;}.cls-18{fill:url(#Degradado_sin_nombre_7-2);}.cls-19{fill:url(#Degradado_sin_nombre_5);}.cls-20{fill:url(#Degradado_sin_nombre_5-2);}.cls-21{fill:url(#Degradado_sin_nombre_6);}.cls-22{fill:#fff;}.cls-23{fill:url(#Degradado_sin_nombre_7-3);}.cls-24{fill:#e04f5f;}</style><clipPath id="clip-path"><rect class="cls-1" x="10.65" y="24.3" width="35.44" height="44.58"/></clipPath><linearGradient id="Degradado_sin_nombre" x1="-32.59" y1="-5205.19" x2="2.22" y2="-5240" gradientTransform="matrix(1.07, 0, 0, -1.07, 82.81, -5516.16)" gradientUnits="userSpaceOnUse"><stop offset="0" stop-color="#fff"/><stop offset="1" stop-color="#e8efee"/></linearGradient><linearGradient id="Degradado_sin_nombre_7" x1="-2.42" y1="-5231.5" x2="-37.54" y2="-5234.32" gradientTransform="matrix(1.07, 0, 0, -1.07, 82.81, -5516.16)" gradientUnits="userSpaceOnUse"><stop offset="0" stop-color="#c2cece" stop-opacity="0"/><stop offset="0.18" stop-color="#afbcbc" stop-opacity="0.18"/><stop offset="1" stop-color="#5b6a6a"/></linearGradient><linearGradient id="Degradado_sin_nombre_7-2" x1="-2.35" y1="-5220.71" x2="-10.51" y2="-5212.55" xlink:href="#Degradado_sin_nombre_7"/><linearGradient id="Degradado_sin_nombre_5" x1="-19.33" y1="-5224.16" x2="-19.33" y2="-5237.6" gradientTransform="matrix(1.07, 0, 0, -1.07, 82.81, -5516.16)" gradientUnits="userSpaceOnUse"><stop offset="0" stop-color="#ffc200"/><stop offset="0.27" stop-color="#fb0"/><stop offset="0.66" stop-color="#ffa801"/><stop offset="1" stop-color="#ff9102"/></linearGradient><linearGradient id="Degradado_sin_nombre_5-2" x1="-19.26" y1="-5234.42" x2="-19.26" y2="-5239.09" xlink:href="#Degradado_sin_nombre_5"/><linearGradient id="Degradado_sin_nombre_6" x1="-9.89" y1="-5205.9" x2="-4.81" y2="-5217.99" gradientTransform="matrix(1.07, 0, 0, -1.07, 82.81, -5516.16)" gradientUnits="userSpaceOnUse"><stop offset="0" stop-color="#d63305"/><stop offset="0.37" stop-color="#cf3004"/><stop offset="0.9" stop-color="#bc2602"/><stop offset="1" stop-color="#b72401"/></linearGradient><linearGradient id="Degradado_sin_nombre_7-3" x1="-27.77" y1="-5210.02" x2="-53.24" y2="-5184.54" xlink:href="#Degradado_sin_nombre_7"/></defs><title>Asset 23</title><g id="Layer_2" data-name="Layer 2"><g id="Layer_1-2" data-name="Layer 1"><rect class="cls-2" width="91.33" height="87.67"/><g class="cls-3"><path class="cls-4" d="M19.88,65.89a3,3,0,0,0,3,3H43a3,3,0,0,0,3-3V62.73H19.88Z"/><path class="cls-4" d="M46,27.29a3,3,0,0,0-3-3H22.87a3,3,0,0,0-3,3v1.63H46Z"/></g><path class="cls-5" d="M10.65,38.13V53.51l7.69-7.69Z"/><path class="cls-6" d="M26,45.82l7.69,7.69V38.13Z"/><path class="cls-7" d="M22.18,37.36v.77H32.94V28.91H19.88v9.22h2.3Z"/><path class="cls-7" d="M22.18,53.51v0h-2.3v9.22H32.94V53.51Z"/><path class="cls-8" d="M46,28.91H32.94v9.22h.77V53.51h-.77v9.22H46Z"/><path class="cls-9" d="M33.71,38.13h-.77v.77Z"/><path class="cls-10" d="M22.18,38.13H10.65l7.69,7.69,3.84,3.84Z"/><path class="cls-9" d="M22.18,49.66,26,45.82l6.92-6.92v-.77H22.18Z"/><path class="cls-11" d="M22.18,49.66l-3.84-3.84-7.69,7.69H22.18Z"/><path class="cls-12" d="M32.94,52.74,26,45.82l-3.84,3.84v3.85H33.71Z"/><rect class="cls-13" x="29.1" y="65.03" width="1.54" height="1.54"/><rect class="cls-13" x="32.17" y="65.03" width="1.54" height="1.54"/><rect class="cls-13" x="35.25" y="65.03" width="1.54" height="1.54"/><path class="cls-14" d="M61.2,34,42.88,48.81v2.76H81.52V48.81L63.2,34A1.59,1.59,0,0,0,61.2,34Z"/><path class="cls-15" d="M78.33,66.87H46.06a1.59,1.59,0,0,1-1.59-1.59V35.11a1.59,1.59,0,0,1,1.59-1.59H78.33a1.59,1.59,0,0,1,1.59,1.59V65.28A1.59,1.59,0,0,1,78.33,66.87Z"/><path class="cls-16" d="M79.92,64.39V65a1.85,1.85,0,0,1-1.85,1.86H46.33A1.86,1.86,0,0,1,44.47,65v-.62Z"/><rect class="cls-17" x="51.95" y="38.56" width="20.49" height="1.17"/><rect class="cls-17" x="51.95" y="43.23" width="20.49" height="1.17"/><rect class="cls-17" x="51.95" y="48.01" width="20.49" height="1.17"/><rect class="cls-17" x="51.95" y="52.79" width="20.49" height="1.17"/><path class="cls-18" d="M75,49.29a6.48,6.48,0,0,1-4.18-1.52l-.44.08,9.55,9.56V47A6.5,6.5,0,0,1,75,49.29Z"/><path class="cls-19" d="M81.52,48.85V70.62a1.6,1.6,0,0,1-1.6,1.59H44.47a1.59,1.59,0,0,1-1.59-1.59V48.85l19.53,15.4Z"/><path class="cls-20" d="M81.3,71.42,63.41,57a1.59,1.59,0,0,0-2,0L43.24,71.64a1.62,1.62,0,0,0,1.23.57H79.92A1.59,1.59,0,0,0,81.3,71.42Z"/><circle class="cls-21" cx="74.99" cy="43.29" r="6.53"/><path class="cls-22" d="M73.52,40.67a.58.58,0,0,1,.25-.5L75,39a.44.44,0,0,1,.33-.13.69.69,0,0,1,.4.11.36.36,0,0,1,.18.31v8.09a.35.35,0,0,1-.2.31.84.84,0,0,1-.45.12.85.85,0,0,1-.46-.12.35.35,0,0,1-.19-.31V40.54l-.42.54a.41.41,0,0,1-.27.12.4.4,0,0,1-.32-.17A.6.6,0,0,1,73.52,40.67Z"/><path class="cls-23" d="M45,65.77V35.61A1.59,1.59,0,0,1,46.56,34H78.83a1.65,1.65,0,0,1,.85.24,1.6,1.6,0,0,0-1.35-.74H46.06a1.59,1.59,0,0,0-1.59,1.59V65.28a1.6,1.6,0,0,0,.74,1.34A1.6,1.6,0,0,1,45,65.77Z"/><circle class="cls-24" cx="33.11" cy="38.52" r="4.09" transform="translate(-5.7 71.29) rotate(-89.5)"/><path class="cls-22" d="M32.05,39.51a1.69,1.69,0,0,0,.82.23c.52,0,.73-.28.73-.57s-.4-.61-.81-.61h-.31v-.5h.3c.32,0,.72-.14.72-.5s-.18-.45-.57-.45a1.36,1.36,0,0,0-.73.22l-.15-.49a1.87,1.87,0,0,1,1-.27c.74,0,1.11.42,1.11.89a.88.88,0,0,1-.67.83h0a.91.91,0,0,1,.78.9c0,.61-.52,1.08-1.4,1.07a1.93,1.93,0,0,1-1-.25Z"/></g></g></svg>