<svg xmlns="http://www.w3.org/2000/svg" xmlns:xlink="http://www.w3.org/1999/xlink" viewBox="0 0 79.06 59.16"><defs><style>.cls-1{fill:none;}.cls-2{fill:#00ceb4;}.cls-3{fill:#d4e1f4;}.cls-4{fill:#00acea;}.cls-5{fill:#fedb41;}.cls-6{fill:#00efd1;}.cls-7{fill:#fcb47e;}.cls-8{fill:#4296d9;}.cls-9{fill:#49abe2;}.cls-10{fill:#70bef2;}.cls-11{fill:#ffdcad;}.cls-12{fill:#aeefff;}.cls-13{fill:#fff;}.cls-14{clip-path:url(#clip-path);}.cls-15{fill:#1c1b1b;}.cls-16{fill:#5c546a;}.cls-17{fill:#868491;}</style><clipPath id="clip-path"><rect class="cls-1" x="30.33" y="5.32" width="48.83" height="53.94"/></clipPath></defs><title>Asset 16</title><g id="Layer_2" data-name="Layer 2"><g id="Layer_1-2" data-name="Layer 1"><path class="cls-2" d="M34.79,48.21l2.33,9.69h-20l2.34-9.69Z"/><path class="cls-3" d="M52,11.12H2.33A2.34,2.34,0,0,0,0,13.48V41.76H11.53l31.18-.14v.14H54.26V13.48A2.35,2.35,0,0,0,52,11.12Z"/><path class="cls-4" d="M42.76,41.75v0H11.53V3.48A3.47,3.47,0,0,1,15,0H33.48V7.82a1.73,1.73,0,0,0,1.74,1.73h6.86l.68.76Z"/><path class="cls-5" d="M54.29,40.46v6.67A2.34,2.34,0,0,1,52,49.47H2.33A2.33,2.33,0,0,1,0,47.13V40.46Z"/><path class="cls-6" d="M41.51,59.16H12.78a1.26,1.26,0,0,1,0-2.51H41.49a1.26,1.26,0,0,1,0,2.51Z"/><path class="cls-5" d="M36.87,34h-20a1.26,1.26,0,0,0,0,2.51h20a1.26,1.26,0,1,0,0-2.51Z"/><path class="cls-5" d="M16.87,32.22h12a1.26,1.26,0,1,0,0-2.51h-12a1.26,1.26,0,0,0,0,2.51Z"/><path class="cls-5" d="M33.48,0l9.23,10.18H35.22a1.74,1.74,0,0,1-1.74-1.73Z"/><path class="cls-5" d="M24.48,14.64h1a.85.85,0,0,1,.85.84h0a.85.85,0,0,1-.85.85h-1v6.79c0,1.07.51,2.06,2.35,2.06s2.33-1,2.33-2.06v-3c0-1-.43-1.63-1.82-1.63h0a.31.31,0,0,1-.3-.3V17a.29.29,0,0,1,.27-.29,2.42,2.42,0,0,1,.38,0c2.35,0,3.39,1.28,3.39,3.37v3c0,2.3-1.34,3.74-4.25,3.74s-4.28-1.44-4.28-3.74V16.33H21.31a.84.84,0,0,1-.84-.85h0a.84.84,0,0,1,.84-.84h1.24V12.77c0-1.26-.18-1.71-1.66-1.71h0a.42.42,0,0,1-.42-.43V9.75a.43.43,0,0,1,.41-.42h.18c2.51,0,3.42,1.18,3.42,3.48Z"/><rect class="cls-7" x="48.79" y="38.13" width="11.76" height="10.92"/><path class="cls-8" d="M58.06,49.25a9.51,9.51,0,0,1-3.36,1.48,9.51,9.51,0,0,1-3.36-1.48s-1.22-3.07-.87-2.72,4.23,0,4.23,0l3.33.84Z"/><path class="cls-9" d="M64.75,42.33,73.5,43.8a8,8,0,0,1,5.56,7.68v5.44a2.38,2.38,0,0,1-2.52,2.21H32.85a2.38,2.38,0,0,1-2.52-2.21V51.48a8,8,0,0,1,5.56-7.68l8.7-1.47,10.11,4.2Z"/><path class="cls-10" d="M40.68,43s0,.06,0,.08C47.1,53.37,53.32,54.73,54,54.85l.54.1h.29l.55-.1c.68-.12,6.9-1.48,13.29-11.78a.41.41,0,0,1,0-.08l-4-.66-10,4.2-10.11-4.2Z"/><path class="cls-9" d="M47.13,38.13,44,42.33l5.12,7.56a.85.85,0,0,0,1.29.12l4.33-3.48Z"/><path class="cls-9" d="M62.26,38.13l3.17,4.2-5.12,7.56A.85.85,0,0,1,59,50L54.7,46.53Z"/><path class="cls-11" d="M66.48,23.69l-1.7-4.05s-7.35-4.06-19.33-2.52h0A15.75,15.75,0,0,0,42.07,27.2c0,8.36,5.64,15.13,12.6,15.13s12.6-6.77,12.6-15.13a17.88,17.88,0,0,0-.44-3.91l-.35.4Z"/><path class="cls-12" d="M53,27.2a3.36,3.36,0,1,1-3.36-3.36A3.35,3.35,0,0,1,53,27.2Z"/><path class="cls-13" d="M49.63,23.84a3.36,3.36,0,0,0-2.36,1L52,29.57a3.37,3.37,0,0,0-2.39-5.73Z"/><path class="cls-12" d="M63.07,27.2a3.36,3.36,0,1,1-3.36-3.36,3.35,3.35,0,0,1,3.36,3.36Z"/><g class="cls-14"><path class="cls-13" d="M59.74,23.84a3.37,3.37,0,0,0-2.37,1l4.75,4.75a3.36,3.36,0,0,0-2.38-5.73Z"/><path class="cls-15" d="M68.07,7.54a.85.85,0,0,0-.89-.49c-2.11.3-4.66-.21-7.36-.75-4.53-.91-9.21-1.85-12.87.76l-.16,0C43,7,40.41,10.15,40.41,14.6c0,3.63,1.61,10.56,1.68,10.86a.84.84,0,0,0,.79.64h0a.83.83,0,0,0,.8-.59l2.38-7.62c10-1.16,16.69,1.72,18,2.36L65.7,24a.82.82,0,0,0,.81.52.85.85,0,0,0,.77-.59c2.52-7.89,1.59-14.56.79-16.4Z"/></g><path class="cls-16" d="M56.38,28a.83.83,0,0,1-.84-.84.85.85,0,0,0-1.69,0A.83.83,0,0,1,53,28a.84.84,0,0,1-.85-.84,2.53,2.53,0,0,1,5,0,.84.84,0,0,1-.84.84Z"/><path class="cls-16" d="M46.29,27.2H42.07a.84.84,0,0,1,0-1.68h4.22a.84.84,0,1,1,0,1.68Z"/><path class="cls-16" d="M67.27,27.2H63.1a.84.84,0,0,1,0-1.68h4.17a.84.84,0,1,1,0,1.68Z"/><path class="cls-17" d="M49.65,31.4a4.2,4.2,0,1,1,4.2-4.2,4.21,4.21,0,0,1-4.2,4.2Zm0-6.72a2.52,2.52,0,1,0,2.52,2.52,2.52,2.52,0,0,0-2.52-2.52Z"/><path class="cls-17" d="M59.74,31.4a4.2,4.2,0,1,1,4.2-4.2,4.2,4.2,0,0,1-4.2,4.2Zm0-6.72a2.52,2.52,0,1,0,2.52,2.52,2.52,2.52,0,0,0-2.52-2.52Z"/><path class="cls-10" d="M38.73,59.13V53.51a7.47,7.47,0,0,0-2.21-5.34l-3.11-3.11a7.87,7.87,0,0,0-1.2,1.18l3.12,3.11a5.85,5.85,0,0,1,1.72,4.16v5.62Z"/><path class="cls-10" d="M76,45.06l-3.11,3.11a7.47,7.47,0,0,0-2.21,5.34v5.62h1.68V53.51a5.85,5.85,0,0,1,1.72-4.16l3.12-3.11A7.87,7.87,0,0,0,76,45.06Z"/></g></g></svg>