<svg xmlns="http://www.w3.org/2000/svg" viewBox="0 0 45.75 42.59"><defs><style>.cls-1{fill:#d29b6e;}.cls-2{fill:#86be42;}.cls-3{fill:#a2cd46;}.cls-4{fill:#efc087;}.cls-5{fill:#e6b078;}.cls-6{fill:#262626;}.cls-7{fill:#1e1e1e;}.cls-8{fill:#353535;}.cls-9{fill:#fff;}.cls-10{fill:#f4dcb5;}</style></defs><title>Asset 1</title><g id="Layer_2" data-name="Layer 2"><g id="Layer_1-2" data-name="Layer 1"><path class="cls-1" d="M10.57,18.14v3.64A1.26,1.26,0,0,1,9.68,23l-5.53,1.7A2.53,2.53,0,0,0,2.37,27.1v9.18a3.16,3.16,0,0,0,3.15,3.16H23.66V18.14Z"/><path class="cls-2" d="M15,27.61a8.7,8.7,0,0,1-7.3-4L4.15,24.69A2.53,2.53,0,0,0,2.37,27.1v9.18a3.16,3.16,0,0,0,3.15,3.16H23.66V18.93A8.7,8.7,0,0,1,15,27.61Z"/><path class="cls-3" d="M23.66,18.93a8.66,8.66,0,0,1-16,4.67l-1.56.48a10.24,10.24,0,0,0,17.53.3Z"/><path class="cls-3" d="M15.77,35.49H7.89a.79.79,0,0,1-.79-.79V31a2.36,2.36,0,0,0-.69-1.67l-3.6-3.6a2.51,2.51,0,0,0-.44,1.42v9.18a3.16,3.16,0,0,0,3.15,3.16H18.14V37.86A2.37,2.37,0,0,0,15.77,35.49Z"/><path class="cls-4" d="M21.69,12.62h-.12L21.3,7.1H8.77v5.52H8.28A1.18,1.18,0,0,0,7.1,13.8v1.58a1.18,1.18,0,0,0,1.18,1.18H9l.13.8A2.5,2.5,0,0,0,10,18.9L12.57,21a1.86,1.86,0,0,0,1.21.44h2.41A1.89,1.89,0,0,0,17.41,21l2.53-2.11a2.46,2.46,0,0,0,.87-1.54l.13-.8h.75a1.18,1.18,0,0,0,1.18-1.18V13.8A1.18,1.18,0,0,0,21.69,12.62Z"/><path class="cls-5" d="M21.3,7.1H8.77v5.52H8.28A1.18,1.18,0,0,0,7.1,13.8v1.58a1.18,1.18,0,0,0,1.18,1.18H9l.13.8A2.5,2.5,0,0,0,10,18.9L12.57,21a1.86,1.86,0,0,0,1.21.44h1l-1.13-3.37a4.76,4.76,0,0,1-.24-1.5V11.83A.79.79,0,0,1,14.2,11h0a1.68,1.68,0,0,0,1.1-.38,3.47,3.47,0,0,0,3.16,0A3.4,3.4,0,0,0,20,11h1.46Z"/><path class="cls-6" d="M24.45,6.94a1.89,1.89,0,0,0-1.4-1.82,1.82,1.82,0,0,0,.14-.7,1.9,1.9,0,0,0-1.89-1.9l-.12,0A1.88,1.88,0,0,0,19.4,1.26a1.91,1.91,0,0,0-.58.1A2.2,2.2,0,0,0,17.19.63a2,2,0,0,0-.48.06,2.5,2.5,0,0,0-3.45,0,1.91,1.91,0,0,0-.48-.06,2.22,2.22,0,0,0-1.55.63h0A1.89,1.89,0,0,0,9.42,2.54l-.11,0a1.9,1.9,0,0,0-1.9,1.9,2,2,0,0,0,.14.7,1.9,1.9,0,0,0-1.4,1.82A1.87,1.87,0,0,0,6.64,8.2a1.91,1.91,0,0,0-.49,1.26,1.87,1.87,0,0,0,.95,1.63,1.58,1.58,0,0,0,1.58,1.53h.69a.63.63,0,0,0,.62-.53l.44-2.64h.14a1.89,1.89,0,0,0,1.58-.84,1.9,1.9,0,0,0,3.15,0,1.91,1.91,0,0,0,3.16,0A1.87,1.87,0,0,0,20,9.46h.14l.44,2.64a.64.64,0,0,0,.63.53h.84A1.58,1.58,0,0,0,23.66,11v0a1.86,1.86,0,0,0,.79-1.53A1.91,1.91,0,0,0,24,8.2,1.87,1.87,0,0,0,24.45,6.94Z"/><path class="cls-7" d="M14.52,8.09a1.88,1.88,0,0,1-.78-3,1.91,1.91,0,0,1-.49-1.26A1.88,1.88,0,0,1,14.65,2a1.87,1.87,0,0,1-.14-.71A1.91,1.91,0,0,1,15,0h0a2.49,2.49,0,0,0-1.73.69,1.91,1.91,0,0,0-.48-.06,2.22,2.22,0,0,0-1.55.63h0A1.89,1.89,0,0,0,9.42,2.54l-.11,0a1.9,1.9,0,0,0-1.9,1.9,2,2,0,0,0,.14.7,1.9,1.9,0,0,0-1.4,1.82A1.87,1.87,0,0,0,6.64,8.2a1.91,1.91,0,0,0-.49,1.26,1.87,1.87,0,0,0,.95,1.63,1.58,1.58,0,0,0,1.58,1.53h.69a.63.63,0,0,0,.62-.53l.44-2.64h.14a1.89,1.89,0,0,0,1.58-.84,1.87,1.87,0,0,0,1.57.84,1.84,1.84,0,0,0,1.15-.4,1.27,1.27,0,0,1-.36-.86S14.52,8.13,14.52,8.09Z"/><path class="cls-5" d="M13.41,35.49h2.36a2.37,2.37,0,0,1,2.37,2.37v1.58H13.41Z"/><path class="cls-8" d="M43.38,33.92H19.72a2.37,2.37,0,0,1-2.37-2.37V17.35A2.37,2.37,0,0,1,19.72,15H43.38a2.37,2.37,0,0,1,2.37,2.36v14.2A2.37,2.37,0,0,1,43.38,33.92Z"/><path class="cls-6" d="M36.28,39.44,34.89,29a1.58,1.58,0,0,0-1.57-1.36H29.78A1.58,1.58,0,0,0,28.21,29L26.82,39.44V41h9.46Z"/><circle class="cls-9" cx="31.55" cy="22.87" r="1.58"/><path class="cls-10" d="M45,42.59H.79A.79.79,0,0,1,0,41.8V40.23a.79.79,0,0,1,.79-.79H45a.79.79,0,0,1,.79.79V41.8A.79.79,0,0,1,45,42.59Z"/></g></g></svg>